<svg width="121" height="121" viewBox="0 0 121 121" fill="none" xmlns="http://www.w3.org/2000/svg">
    <path d="M120.3 0.899902H0.600098V120.6H120.3V0.899902Z" stroke="#5F6180" stroke-width="0.5" stroke-miterlimit="10"/>
    <path d="M5.0002 0.899902C5.0002 31.5999 29.8002 56.3999 60.5002 56.3999C60.6002 56.3999 60.6002 56.3999 60.7002 56.3999C62.2002 56.3999 63.6002 56.2999 65.0002 56.1999C64.9002 57.5999 64.8002 59.0999 64.8002 60.4999C64.8002 60.5999 64.8002 60.5999 64.8002 60.6999C64.8002 91.3999 89.7002 116.3 120.4 116.3V120.6C87.3002 120.6 60.5002 93.7999 60.5002 60.6999C27.4002 60.6999 0.700195 33.9999 0.700195 0.899902H5.0002Z" stroke="#5F6180" stroke-width="0.5" stroke-miterlimit="10"/>
    <path d="M0.600098 93.7C15.4001 93.7 27.4001 105.7 27.4001 120.5H0.600098V93.7Z" stroke="#5F6180" stroke-width="0.5" stroke-miterlimit="10"/>
    <path d="M23.1003 120.6C23.1003 120.6 23.2003 114.3 20.7003 111.4C18.2003 108.4 13.7003 111.7 11.9003 113C10.1003 114.3 7.80029 115.1 6.30029 114.4C4.80029 113.7 5.80029 110.5 7.00029 108.7C8.20029 106.9 10.7003 103.7 10.0003 101.6C9.30029 99.5 6.90029 97.6 0.800293 97.9V120.7H23.1003V120.6Z" stroke="#5F6180" stroke-width="0.5" stroke-miterlimit="10"/>
    <path d="M0.600098 114.9C3.7001 114.9 6.2001 117.4 6.2001 120.5H0.600098V114.9Z" stroke="#5F6180" stroke-width="0.5" stroke-miterlimit="10"/>
    <path d="M77.6002 109.2C77.6002 109.2 87.7002 118.7 97.6002 120.6H72.2002C72.2002 120.6 77.4002 117.2 77.6002 109.2Z" stroke="#5F6180" stroke-width="0.5" stroke-miterlimit="10"/>
    <path d="M0.600098 88.4998C8.6001 88.4998 16.0001 91.4998 21.6001 96.3998L29.0001 88.9998C33.2001 84.7998 34.1001 78.3998 31.2001 73.2998L30.3001 71.5998C30.3001 71.5998 33.3001 69.6998 35.7001 71.5998C37.4001 72.9998 38.7001 74.3998 39.3001 75.0998C39.5001 75.2998 39.8001 75.2998 40.0001 75.0998L40.3001 74.7998C42.1001 72.9998 44.7001 71.9998 47.3001 72.1998C47.8001 72.1998 48.3001 72.1998 48.7001 71.9998L49.8001 71.5998L49.4001 72.6998C49.2001 73.1998 49.2001 73.5998 49.2001 74.0998C49.4001 76.6998 48.4001 79.1998 46.6001 81.0998L46.3001 81.3998C46.1001 81.5998 46.1001 81.9998 46.3001 82.0998C47.0001 82.6998 48.4001 83.8998 49.8001 85.6998C51.7001 88.0998 49.8001 91.0998 49.8001 91.0998L48.1001 90.1998C42.9001 87.3998 36.5001 88.2998 32.4001 92.3998L25.0001 99.7998C29.8001 105.4 32.7001 112.7 32.7001 120.6H27.5001C27.5001 105.8 15.5001 93.6998 0.600098 93.6998V88.4998Z" stroke="#5F6180" stroke-width="0.5" stroke-miterlimit="10"/>
    <path d="M39.8999 120.6C39.8999 120.6 39.8999 117 39.8999 114.4C39.8999 111.8 43.2999 108.9 47.8999 109.7C52.4999 110.4 52.9999 114.4 58.4999 114.4C63.9999 114.4 66.1999 111.5 66.1999 108.7C66.1999 106 64.7999 102.4 59.8999 102.4C54.9999 102.4 53.3999 105.7 53.3999 105.7C53.3999 105.7 52.3999 103.3 52.3999 100.6C52.4999 97.8999 56.3999 95.6999 59.5999 96.8999C59.5999 96.8999 57.5999 94.4999 55.9999 92.1999C54.4999 89.8999 53.9999 87.7999 54.1999 85.5999C54.3999 83.3999 57.2999 81.4999 58.1999 81.0999C58.1999 81.0999 58.8999 85.2999 61.0999 88.2999C63.2999 91.2999 66.9999 95.9999 69.2999 98.4999C71.5999 101 73.0999 106.7 71.0999 110.9C69.0999 115.1 65.0999 118.9 60.9999 120.6H39.8999Z" stroke="#5F6180" stroke-width="0.5" stroke-miterlimit="10"/>
    <path d="M12.0001 44.0999C12.0001 44.0999 2.5001 33.9999 0.600098 24.0999V49.4999C0.600098 49.4999 3.9001 44.2999 12.0001 44.0999Z" stroke="#5F6180" stroke-width="0.5" stroke-miterlimit="10"/>
    <path d="M0.700195 81.6998C0.700195 81.6998 4.3002 81.6998 6.9002 81.6998C9.5002 81.6998 12.4002 78.2998 11.6002 73.6998C10.9002 69.0998 6.9002 68.5998 6.9002 63.0998C6.9002 57.4998 9.8002 55.3998 12.6002 55.3998C15.4002 55.3998 18.9002 56.7998 18.9002 61.6998C18.9002 66.5998 15.6002 68.1998 15.6002 68.1998C15.6002 68.1998 18.0002 69.1998 20.7002 69.1998C23.4002 69.0998 25.6002 65.1998 24.4002 61.9998C24.4002 61.9998 26.8002 63.9998 29.1002 65.5998C31.4002 67.0998 33.5002 67.5998 35.7002 67.3998C37.9002 67.1998 39.8002 64.2998 40.2002 63.3998C40.2002 63.3998 36.0002 62.6998 33.0002 60.4998C30.0002 58.2998 25.3002 54.5998 22.8002 52.2998C20.3002 50.0998 14.6002 48.4998 10.4002 50.4998C6.20019 52.4998 2.4002 56.4998 0.700195 60.5998V81.6998Z" stroke="#5F6180" stroke-width="0.5" stroke-miterlimit="10"/>
    <path d="M16.5999 0.999902C16.6999 25.0999 36.2999 44.6999 60.3999 44.6999C65.8999 44.6999 71.1999 43.6999 75.9999 41.7999C76.2999 41.6999 76.5999 41.5999 76.8999 41.4999C78.2999 40.4999 78.8999 39.2999 78.6999 37.9999C78.2999 35.6999 75.1999 35.4999 75.1999 35.4999C76.0999 33.6999 78.7999 34.5999 78.7999 34.5999C78.7999 34.5999 78.2999 33.9999 78.3999 32.8999C78.4999 31.7999 79.6999 30.7999 79.6999 30.7999C79.6999 30.7999 79.7999 32.7999 80.4999 34.0999C81.1999 35.3999 83.0999 36.3999 84.4999 34.9999C86.6999 32.3999 89.6999 27.7999 90.4999 22.0999C91.7999 13.4999 83.9999 7.2999 76.5999 6.4999V7.9999C76.5999 9.0999 75.6999 10.0999 74.4999 10.0999C73.2999 10.0999 72.3999 9.1999 72.3999 7.9999V6.5999C66.3999 8.2999 63.7999 15.8999 62.7999 19.6999C62.7999 19.6999 67.8999 21.9999 68.4999 27.8999C69.0999 33.6999 66.2999 34.7999 65.6999 37.4999C65.0999 40.1999 65.6999 41.5999 65.6999 41.5999C65.6999 41.5999 61.0999 42.2999 59.7999 38.5999C58.3999 34.8999 59.4999 31.0999 58.2999 30.6999C57.0999 30.1999 55.4999 33.1999 52.5999 34.5999C49.6999 35.9999 45.4999 36.3999 45.4999 36.3999C45.4999 36.3999 43.8999 28.8999 46.6999 25.2999C47.3999 24.3999 48.2999 23.5999 48.3999 22.3999C48.3999 22.2999 48.3999 22.1999 48.3999 22.0999C48.2999 21.9999 48.1999 21.7999 48.0999 21.7999C47.8999 21.7999 47.7999 21.7999 47.5999 21.7999C46.7999 21.8999 46.1999 22.4999 45.5999 22.8999C44.8999 23.3999 44.1999 23.8999 43.3999 24.1999C42.5999 24.4999 41.7999 24.4999 40.8999 24.4999C38.7999 24.4999 36.4999 23.7999 34.9999 22.2999C32.1999 19.5999 30.4999 14.5999 30.4999 14.5999C30.4999 14.5999 35.6999 16.6999 40.0999 14.0999C43.1999 12.2999 48.1999 10.0999 52.3999 10.9999C56.5999 11.7999 59.6999 16.6999 59.6999 16.6999C59.6999 16.6999 61.5999 3.6999 72.4999 2.1999V0.899902H76.6999V2.1999C85.0999 2.8999 92.8999 7.4999 94.2999 16.5999C94.7999 19.7999 94.2999 23.3999 92.8999 26.5999C96.0999 23.5999 99.4999 20.1999 100.5 17.6999C102.6 12.3999 102 7.3999 100.5 5.3999C100.5 5.3999 102.8 4.7999 104.9 7.0999C105.8 8.0999 106 9.4999 106 10.6999C106 11.4999 107 11.7999 107.4 11.1999C108.7 9.3999 109.3 6.8999 111.3 5.6999C112.2 5.1999 113.3 4.7999 114.3 4.5999C114.7 4.4999 116.7 4.5999 116.8 4.3999C116.6 4.5999 116.7 6.4999 116.6 6.8999C116.4 7.8999 116.1 8.9999 115.5 9.8999C114.3 11.8999 111.8 12.4999 110 13.7999C109.4 14.2999 109.7 15.2999 110.5 15.1999C111.7 15.0999 113.1 15.2999 114.1 16.2999C116.5 18.3999 115.8 20.6999 115.8 20.6999C113.8 19.1999 108.8 18.5999 103.5 20.6999C101.1 21.6999 97.5999 24.9999 94.4999 28.1999C94.9999 27.9999 95.3999 27.7999 95.8999 27.5999C98.2999 26.5999 101 26.0999 103.6 26.3999C108.3 26.7999 112.6 29.3999 115.4 33.0999C117.8 36.2999 118.8 40.1999 119 44.1999H120.3V48.3999H118.9C117.4 59.2999 104.4 61.1999 104.4 61.1999C104.4 61.1999 109.2 64.2999 110.1 68.4999C110.9 72.6999 108.8 77.5999 107 80.7999C104.5 85.1999 106.5 90.3999 106.5 90.3999C106.5 90.3999 101.5 88.6999 98.7999 85.8999C97.2999 84.2999 96.5999 82.0999 96.5999 79.9999C96.5999 79.1999 96.5999 78.2999 96.8999 77.4999C97.1999 76.6999 97.6999 75.9999 98.1999 75.2999C98.5999 74.6999 99.1999 74.0999 99.2999 73.2999C99.2999 73.0999 99.2999 72.9999 99.2999 72.7999C99.2999 72.5999 99.0999 72.4999 98.9999 72.4999C98.8999 72.4999 98.7999 72.4999 98.6999 72.4999C97.5999 72.6999 96.6999 73.5999 95.7999 74.1999C92.1999 76.8999 84.6999 75.3999 84.6999 75.3999C84.6999 75.3999 85.1999 71.1999 86.4999 68.2999C87.8999 65.3999 90.8999 63.7999 90.3999 62.5999C89.8999 61.3999 86.1999 62.4999 82.4999 61.0999C78.7999 59.6999 79.4999 55.1999 79.4999 55.1999C79.4999 55.1999 80.8999 55.7999 83.5999 55.1999C86.2999 54.5999 87.3999 51.7999 93.1999 52.3999C98.9999 52.9999 101.4 58.0999 101.4 58.0999C105.2 57.1999 112.8 54.4999 114.5 48.4999H113.2C112.1 48.4999 111.1 47.5999 111.1 46.3999C111.1 45.2999 112 44.2999 113.2 44.2999H114.8C114 36.7999 107.8 29.0999 99.1999 30.3999C94.0999 31.1999 89.8999 33.6999 87.0999 35.7999C86.8999 35.9999 86.6999 36.1999 86.5999 36.3999C85.5999 37.9999 86.4999 39.3999 87.6999 40.0999C88.9999 40.7999 90.9999 40.8999 90.9999 40.8999C90.9999 40.8999 89.9999 42.0999 88.8999 42.1999C87.7999 42.2999 87.1999 41.7999 87.1999 41.7999C87.1999 41.7999 87.9999 44.4999 86.2999 45.3999C86.2999 45.3999 86.0999 42.1999 83.7999 41.8999C82.0999 41.5999 80.5999 42.6999 79.4999 44.8999C79.4999 44.9999 79.3999 45.0999 79.3999 45.1999C77.5999 49.9999 76.4999 55.2999 76.4999 60.7999C76.4999 84.9999 96.0999 104.7 120.4 104.7V109C93.7999 109 72.2999 87.4999 72.2999 60.8999C72.2999 56.0999 72.9999 51.4999 74.2999 47.0999C69.8999 48.3999 65.2999 49.0999 60.4999 49.0999C33.9999 49.0999 12.4999 27.2999 12.3999 0.899902L16.5999 0.999902Z" stroke="#5F6180" stroke-width="0.5" stroke-miterlimit="10"/>
    </svg>
    