<svg width="121" height="121" viewBox="0 0 121 121" fill="none" xmlns="http://www.w3.org/2000/svg">
    <path d="M120.6 0.599854H0.899902V120.3H120.6V0.599854Z" stroke="#5F6180" stroke-width="0.5" stroke-miterlimit="10"/>
    <path d="M116.4 120.3C116.4 89.6 91.4999 64.7 60.7999 64.7C60.6999 64.7 60.6999 64.7 60.5999 64.7C59.0999 64.7 57.6999 64.8 56.2999 64.9C56.3999 63.5 56.4999 62 56.4999 60.6C56.4999 60.5 56.4999 60.5 56.4999 60.4C56.4999 29.7 31.5999 4.8 0.899902 4.8V0.5C33.9999 0.5 60.7999 27.3 60.7999 60.4C93.8999 60.4 120.7 87.2 120.7 120.3H116.4Z" stroke="#5F6180" stroke-width="0.5" stroke-miterlimit="10"/>
    <path d="M120.7 27.3998C105.9 27.3998 93.8999 15.3999 93.8999 0.599854H120.7V27.3998Z" stroke="#5F6180" stroke-width="0.5" stroke-miterlimit="10"/>
    <path d="M98.1998 0.599998C98.1998 0.599998 98.0998 6.9 100.6 9.8C103.1 12.8 107.6 9.5 109.4 8.2C111.2 6.9 113.5 6.1 115 6.8C116.5 7.5 115.5 10.7 114.3 12.5C113.1 14.3 110.6 17.5 111.3 19.6C112 21.7 114.4 23.6 120.5 23.3V0.5L98.1998 0.599998Z" stroke="#5F6180" stroke-width="0.5" stroke-miterlimit="10"/>
    <path d="M120.7 6.19985C117.6 6.19985 115.1 3.69985 115.1 0.599854H120.7V6.19985Z" stroke="#5F6180" stroke-width="0.5" stroke-miterlimit="10"/>
    <path d="M43.5996 11.9C43.5996 11.9 33.4996 2.4 23.5996 0.5H48.9996C48.9996 0.5 43.7996 3.89999 43.5996 11.9Z" stroke="#5F6180" stroke-width="0.5" stroke-miterlimit="10"/>
    <path d="M120.6 32.5999C112.6 32.5999 105.2 29.5999 99.5997 24.6999L92.2997 31.9999C88.0997 36.1999 87.1997 42.5999 90.0997 47.6999L90.9997 49.3999C90.9997 49.3999 87.9997 51.2999 85.5997 49.3999C83.8997 47.9999 82.5997 46.5999 81.9997 45.8999C81.7997 45.6999 81.4997 45.6999 81.2997 45.8999L80.9997 46.1999C79.1997 47.9999 76.5997 48.9999 73.9997 48.7999C73.4997 48.7999 72.9997 48.7999 72.5997 48.9999L71.4997 49.3999L71.8997 48.2999C72.0997 47.7999 72.0997 47.3999 72.0997 46.8999C71.8997 44.2999 72.8997 41.7999 74.6997 39.8999L74.9997 39.5999C75.1997 39.3999 75.1997 38.9999 74.9997 38.8999C74.2997 38.2999 72.8997 37.0999 71.4997 35.2999C69.5997 32.8999 71.4997 29.8999 71.4997 29.8999L73.1997 30.7999C78.3997 33.5999 84.7997 32.6999 88.8997 28.5999L96.2997 21.1999C91.4997 15.5999 88.5997 8.2999 88.5997 0.399902H93.7997C93.7997 15.1999 105.8 27.2999 120.7 27.2999L120.6 32.5999Z" stroke="#5F6180" stroke-width="0.5" stroke-miterlimit="10"/>
    <path d="M81.2999 0.599854C81.2999 0.599854 81.2999 4.19986 81.2999 6.79986C81.2999 9.39986 77.8999 12.2999 73.2999 11.4999C68.6999 10.7999 68.1999 6.79986 62.6999 6.79986C57.1999 6.79986 54.9999 9.69986 54.9999 12.4999C54.9999 15.1999 56.3999 18.7999 61.2999 18.7999C66.1999 18.7999 67.7999 15.4999 67.7999 15.4999C67.7999 15.4999 68.7999 17.8999 68.7999 20.5999C68.6999 23.2999 64.7999 25.4999 61.5999 24.2999C61.5999 24.2999 63.5999 26.6999 65.1999 28.9999C66.6999 31.2999 67.1999 33.3999 66.9999 35.5999C66.7999 37.7999 63.8999 39.6999 62.9999 40.0999C62.9999 40.0999 62.2999 35.8998 60.0999 32.8998C57.8999 29.8998 54.1999 25.1999 51.8999 22.6999C49.6999 20.1999 48.0999 14.4999 50.0999 10.2999C52.0999 6.09986 56.0999 2.29985 60.1999 0.599854H81.2999Z" stroke="#5F6180" stroke-width="0.5" stroke-miterlimit="10"/>
    <path d="M109.3 77C109.3 77 118.7 87.1 120.6 97V71.7C120.6 71.7 117.3 76.8 109.3 77Z" stroke="#5F6180" stroke-width="0.5" stroke-miterlimit="10"/>
    <path d="M120.6 39.3999C120.6 39.3999 117 39.3999 114.4 39.3999C111.8 39.3999 108.9 42.7999 109.7 47.3999C110.5 51.9999 114.4 52.4999 114.4 57.9999C114.4 63.4999 111.5 65.6999 108.7 65.6999C106 65.6999 102.4 64.2999 102.4 59.3999C102.4 54.4999 105.7 52.8999 105.7 52.8999C105.7 52.8999 103.3 51.8999 100.6 51.8999C97.8996 51.9999 95.6996 55.8999 96.8996 59.0999C96.8996 59.0999 94.4996 57.0999 92.1996 55.4999C89.8996 53.9999 87.7996 53.4999 85.5996 53.6999C83.3996 53.8999 81.4996 56.7999 81.0996 57.6999C81.0996 57.6999 85.2996 58.3999 88.2996 60.5999C91.2996 62.7999 95.9996 66.4999 98.4996 68.7999C101 70.9999 106.7 72.5999 110.9 70.5999C115.1 68.5999 118.9 64.5999 120.6 60.4999V39.3999Z" stroke="#5F6180" stroke-width="0.5" stroke-miterlimit="10"/>
    <path d="M104.6 120.1C104.5 96 84.8998 76.3999 60.7998 76.3999C55.2998 76.3999 49.9998 77.4 45.1998 79.3C44.8998 79.4 44.5998 79.5 44.2998 79.6C42.8998 80.6 42.2998 81.8 42.4998 83.1C42.8998 85.4 45.9998 85.6 45.9998 85.6C45.0998 87.4 42.3998 86.5 42.3998 86.5C42.3998 86.5 42.8998 87.1 42.7998 88.2C42.6998 89.3 41.4998 90.3 41.4998 90.3C41.4998 90.3 41.3998 88.3 40.6998 87C39.9998 85.7 38.0998 84.7 36.6998 86.1C34.4998 88.7 31.4998 93.3 30.6998 99C29.3998 107.6 37.1998 113.8 44.5998 114.6V113C44.5998 111.9 45.4998 110.9 46.6998 110.9C47.7998 110.9 48.7998 111.8 48.7998 113V114.3C54.7998 112.6 57.3998 105 58.3998 101.2C58.3998 101.2 53.2998 98.9 52.6998 93C52.0998 87.2 54.8998 86.0999 55.4998 83.3999C56.0998 80.6999 55.4998 79.3 55.4998 79.3C55.4998 79.3 60.0998 78.6 61.3998 82.3C62.7998 86 61.6998 89.8 62.8998 90.2C64.0998 90.7 65.6998 87.7 68.5998 86.3C71.4998 84.9 75.6998 84.5 75.6998 84.5C75.6998 84.5 77.2998 92 74.4998 95.6C73.7998 96.5 72.8998 97.3 72.7998 98.5C72.7998 98.6 72.7998 98.7 72.7998 98.8C72.8998 98.9 72.9998 99.1 73.0998 99.1C73.2998 99.1 73.3998 99.1 73.5998 99.1C74.3998 99 74.9998 98.4 75.5998 98C76.2998 97.5 76.9998 97 77.7998 96.7C78.5998 96.4 79.3998 96.3999 80.2998 96.3999C82.3998 96.3999 84.6998 97.1 86.1998 98.6C88.9998 101.3 90.6998 106.3 90.6998 106.3C90.6998 106.3 85.4998 104.2 81.0998 106.8C77.9998 108.6 72.9998 110.8 68.7998 109.9C64.5998 109.1 61.4998 104.2 61.4998 104.2C61.4998 104.2 59.5998 117.2 48.6998 118.7V120.1H44.4998V118.7C36.0998 118 28.2998 113.4 26.8998 104.3C26.3998 101.1 26.8998 97.5 28.2998 94.3C25.0998 97.3 21.6998 100.7 20.6998 103.2C18.5998 108.5 19.1998 113.5 20.6998 115.5C20.6998 115.5 18.3998 116.1 16.2998 113.8C15.3998 112.8 15.1998 111.4 15.1998 110.2C15.1998 109.4 14.1998 109.1 13.7998 109.7C12.4998 111.5 11.8998 114 9.8998 115.2C8.9998 115.7 7.8998 116.1 6.8998 116.3C6.4998 116.4 4.4998 116.3 4.3998 116.5C4.5998 116.3 4.4998 114.4 4.5998 114C4.7998 113 5.0998 111.9 5.6998 111C6.8998 109 9.3998 108.4 11.1998 107.1C11.7998 106.6 11.4998 105.6 10.6998 105.7C9.4998 105.8 8.0998 105.6 7.0998 104.6C4.6998 102.5 5.3998 100.2 5.3998 100.2C7.3998 101.7 12.3998 102.3 17.6998 100.2C20.0998 99.2 23.5998 95.9 26.6998 92.7C26.1998 92.9 25.7998 93.1 25.2998 93.3C22.8998 94.3 20.1998 94.8 17.5998 94.5C12.8998 94.1 8.5998 91.5 5.7998 87.8C3.3998 84.6 2.3998 80.7 2.1998 76.7H0.899805V72.5H2.2998C3.7998 61.9 16.7998 60 16.7998 60C16.7998 60 11.9998 56.9 11.0998 52.7C10.2998 48.5 12.3998 43.5999 14.1998 40.3999C16.6998 35.9999 14.6998 30.8 14.6998 30.8C14.6998 30.8 19.6998 32.5 22.3998 35.3C23.8998 36.9 24.5998 39.1 24.5998 41.2C24.5998 42 24.5998 42.9 24.2998 43.7C23.9998 44.5 23.4998 45.1999 22.9998 45.8999C22.5998 46.4999 21.9998 47.0999 21.8998 47.8999C21.8998 48.0999 21.8998 48.1999 21.8998 48.3999C21.8998 48.5999 22.0998 48.7 22.1998 48.7C22.2998 48.7 22.3998 48.7 22.4998 48.7C23.5998 48.5 24.4998 47.6 25.3998 47C28.9998 44.3 36.4998 45.8 36.4998 45.8C36.4998 45.8 35.9998 49.9999 34.6998 52.8999C33.2998 55.7999 30.2998 57.4 30.7998 58.6C31.2998 59.8 34.9998 58.7 38.6998 60.1C42.3998 61.5 41.6998 66 41.6998 66C41.6998 66 40.2998 65.4 37.5998 66C34.8998 66.6 33.7998 69.4 27.9998 68.8C22.1998 68.2 19.7998 63.1 19.7998 63.1C15.9998 64 8.3998 66.7 6.6998 72.7H7.9998C9.0998 72.7 10.0998 73.6 10.0998 74.8C10.0998 75.9 9.1998 76.8999 7.9998 76.8999H6.3998C7.1998 84.3999 13.3998 92.1 21.9998 90.8C27.0998 90 31.2998 87.4999 34.0998 85.3999C34.2998 85.1999 34.4998 85 34.5998 84.8C35.5998 83.2 34.6998 81.8 33.4998 81.1C32.2998 80.4 30.1998 80.3 30.1998 80.3C30.1998 80.3 31.1998 79.1 32.2998 79C33.3998 78.9 33.9998 79.3999 33.9998 79.3999C33.9998 79.3999 33.1998 76.7 34.8998 75.8C34.8998 75.8 35.0998 79 37.3998 79.3C39.0998 79.6 40.5998 78.5 41.6998 76.3C41.6998 76.2 41.7998 76.1 41.7998 76C43.5998 71.2 44.6998 65.8999 44.6998 60.3999C44.6998 36.1999 25.0998 16.5 0.799805 16.5V12.2C27.3998 12.2 48.8998 33.7 48.8998 60.3C48.8998 65.1 48.1998 69.7 46.8998 74.1C51.2998 72.8 55.8998 72.1 60.6998 72.1C87.1998 72.1 108.7 93.6 108.8 120H104.6V120.1Z" stroke="#5F6180" stroke-width="0.5" stroke-miterlimit="10"/>
    </svg>
    