<svg width="121" height="121" viewBox="0 0 121 121" fill="none" xmlns="http://www.w3.org/2000/svg">
    <path d="M120.1 0.599854H0.399902V120.3H120.1V0.599854Z" stroke="#5F6180" stroke-width="0.5" stroke-miterlimit="10"/>
    <path d="M4.69989 120.3C4.69989 89.6 29.5999 64.7 60.2999 64.7C60.3999 64.7 60.3999 64.7 60.4999 64.7C61.9999 64.7 63.3999 64.8 64.7999 64.9C64.6999 63.5 64.5999 62 64.5999 60.6C64.5999 60.5 64.5999 60.5 64.5999 60.4C64.5999 29.7 89.4999 4.8 120.2 4.8V0.5C87.0999 0.5 60.2999 27.3 60.2999 60.4C27.1999 60.4 0.399902 87.2 0.399902 120.3H4.69989Z" stroke="#5F6180" stroke-width="0.5" stroke-miterlimit="10"/>
    <path d="M0.399902 27.3998C15.1999 27.3998 27.1999 15.3999 27.1999 0.599854H0.399902V27.3998Z" stroke="#5F6180" stroke-width="0.5" stroke-miterlimit="10"/>
    <path d="M22.8 0.599998C22.8 0.599998 22.9 6.9 20.4 9.8C17.9 12.7 13.4 9.5 11.6 8.2C9.79998 6.9 7.5 6.1 6 6.8C4.5 7.5 5.50001 10.7 6.70001 12.5C7.90001 14.3 10.4 17.5 9.70001 19.6C9.00001 21.7 6.6 23.6 0.5 23.3V0.5L22.8 0.599998Z" stroke="#5F6180" stroke-width="0.5" stroke-miterlimit="10"/>
    <path d="M0.399902 6.19985C3.4999 6.19985 5.99988 3.69985 5.99988 0.599854H0.399902V6.19985Z" stroke="#5F6180" stroke-width="0.5" stroke-miterlimit="10"/>
    <path d="M77.4 11.9C77.4 11.9 87.5 2.4 97.4 0.5H72C72 0.6 77.2 3.89999 77.4 11.9Z" stroke="#5F6180" stroke-width="0.5" stroke-miterlimit="10"/>
    <path d="M0.399841 32.5999C8.39984 32.5999 15.7998 29.5999 21.3998 24.6999L28.6998 31.9999C32.8998 36.1999 33.7998 42.5999 30.8998 47.6999L29.9998 49.3999C29.9998 49.3999 32.9998 51.2999 35.3998 49.3999C37.0998 47.9999 38.3998 46.5999 38.9998 45.8999C39.1998 45.6999 39.4998 45.6999 39.6998 45.8999L39.9998 46.1999C41.7998 47.9999 44.3998 48.9999 46.9998 48.7999C47.4998 48.7999 47.9998 48.7999 48.3998 48.9999L49.4998 49.3999L49.0998 48.2999C48.8998 47.7999 48.8998 47.3999 48.8998 46.8999C49.0998 44.2999 48.0998 41.7999 46.2998 39.8999L45.9998 39.5999C45.7998 39.3999 45.7998 38.9999 45.9998 38.8999C46.6998 38.2999 48.0998 37.0999 49.4998 35.2999C51.3998 32.8999 49.4998 29.8999 49.4998 29.8999L47.7998 30.7999C42.5998 33.5999 36.1998 32.6999 32.0998 28.5999L24.6998 21.1999C29.4998 15.5999 32.3998 8.2999 32.3998 0.399902H27.1998C27.1998 15.1999 15.1998 27.2999 0.299805 27.2999L0.399841 32.5999Z" stroke="#5F6180" stroke-width="0.5" stroke-miterlimit="10"/>
    <path d="M39.6997 0.599854C39.6997 0.599854 39.6997 4.19986 39.6997 6.79986C39.6997 9.39986 43.0997 12.2999 47.6997 11.4999C52.2997 10.7999 52.7997 6.79986 58.2997 6.79986C63.7997 6.79986 65.9997 9.69986 65.9997 12.4999C65.9997 15.1999 64.5997 18.7999 59.6997 18.7999C54.7997 18.7999 53.1997 15.4999 53.1997 15.4999C53.1997 15.4999 52.1997 17.8999 52.1997 20.5999C52.2997 23.2999 56.1997 25.4999 59.3997 24.2999C59.3997 24.2999 57.3997 26.6999 55.7997 28.9999C54.2997 31.2999 53.7997 33.3999 53.9997 35.5999C54.1997 37.7999 57.0997 39.6999 57.9997 40.0999C57.9997 40.0999 58.6997 35.8998 60.8997 32.8998C63.0997 29.8998 66.7997 25.1999 69.0997 22.6999C71.2997 20.1999 72.8997 14.4999 70.8997 10.2999C68.8997 6.09986 64.8997 2.29985 60.7997 0.599854H39.6997Z" stroke="#5F6180" stroke-width="0.5" stroke-miterlimit="10"/>
    <path d="M11.6998 76.9998C11.6998 76.9998 2.1998 87.0998 0.299805 96.9998V71.5999C0.399805 71.5999 3.69983 76.8998 11.6998 76.9998Z" stroke="#5F6180" stroke-width="0.5" stroke-miterlimit="10"/>
    <path d="M0.399902 39.3999C0.399902 39.3999 3.99985 39.3999 6.59985 39.3999C9.19985 39.3999 12.0999 42.7999 11.2999 47.3999C10.4999 51.9999 6.59985 52.4999 6.59985 57.9999C6.59985 63.4999 9.49987 65.6999 12.2999 65.6999C14.9999 65.6999 18.5999 64.2999 18.5999 59.3999C18.5999 54.4999 15.2999 52.8999 15.2999 52.8999C15.2999 52.8999 17.6999 51.8999 20.3999 51.8999C23.0999 51.9999 25.2999 55.8999 24.0999 59.0999C24.0999 59.0999 26.4999 57.0999 28.7999 55.4999C31.0999 53.9999 33.1999 53.4999 35.3999 53.6999C37.5999 53.8999 39.4999 56.7999 39.8999 57.6999C39.8999 57.6999 35.6999 58.3999 32.6999 60.5999C29.6999 62.7999 24.9999 66.4999 22.4999 68.7999C19.9999 70.9999 14.2999 72.5999 10.0999 70.5999C5.89985 68.5999 2.0999 64.5999 0.399902 60.4999V39.3999Z" stroke="#5F6180" stroke-width="0.5" stroke-miterlimit="10"/>
    <path d="M16.3997 120.1C16.4997 96 36.0997 76.3999 60.1997 76.3999C65.6997 76.3999 70.9997 77.4 75.7997 79.3C76.0997 79.4 76.3997 79.5 76.6997 79.6C78.0997 80.6 78.6997 81.8 78.4997 83.1C78.0997 85.4 74.9997 85.6 74.9997 85.6C75.8997 87.4 78.5997 86.5 78.5997 86.5C78.5997 86.5 78.0997 87.1 78.1997 88.2C78.2997 89.3 79.4997 90.3 79.4997 90.3C79.4997 90.3 79.5997 88.3 80.2997 87C80.9997 85.7 82.8997 84.7 84.2997 86.1C86.4997 88.7 89.4997 93.3 90.2997 99C91.5997 107.6 83.7997 113.8 76.3997 114.6V113C76.3997 111.9 75.4997 110.9 74.2997 110.9C73.1997 110.9 72.1997 111.8 72.1997 113V114.3C66.1997 112.6 63.5997 105 62.5997 101.2C62.5997 101.2 67.6997 98.9 68.2997 93C68.8997 87.2 66.0997 86.0999 65.4997 83.3999C64.8997 80.6999 65.4997 79.3 65.4997 79.3C65.4997 79.3 60.8997 78.6 59.5997 82.3C58.1997 86 59.2997 89.8 58.0997 90.2C56.8997 90.7 55.2997 87.7 52.3997 86.3C49.4997 84.9 45.2997 84.5 45.2997 84.5C45.2997 84.5 43.6997 92 46.4997 95.6C47.1997 96.5 48.0997 97.3 48.1997 98.5C48.1997 98.6 48.1997 98.7 48.1997 98.8C48.0997 98.9 47.9997 99.1 47.8997 99.1C47.6997 99.1 47.5997 99.1 47.3997 99.1C46.5997 99 45.9997 98.4 45.3997 98C44.6997 97.5 43.9997 97 43.1997 96.7C42.3997 96.4 41.5997 96.3999 40.6997 96.3999C38.5997 96.3999 36.2997 97.1 34.7997 98.6C31.9997 101.3 30.2997 106.3 30.2997 106.3C30.2997 106.3 35.4997 104.2 39.8997 106.8C42.9997 108.6 47.9997 110.8 52.1997 109.9C56.3997 109.1 59.4997 104.2 59.4997 104.2C59.4997 104.2 61.3997 117.2 72.2997 118.7V120.3H76.4997V119C84.8997 118.3 92.6997 113.7 94.0997 104.6C94.5997 101.4 94.0997 97.8 92.6997 94.6C95.8997 97.6 99.2997 101 100.3 103.5C102.4 108.8 101.8 113.8 100.3 115.8C100.3 115.8 102.6 116.4 104.7 114.1C105.6 113.1 105.8 111.7 105.8 110.5C105.8 109.7 106.8 109.4 107.2 110C108.5 111.8 109.1 114.3 111.1 115.5C112 116 113.1 116.4 114.1 116.6C114.5 116.7 116.5 116.6 116.6 116.8C116.4 116.6 116.5 114.7 116.4 114.3C116.2 113.3 115.9 112.2 115.3 111.3C114.1 109.3 111.6 108.7 109.8 107.4C109.2 106.9 109.5 105.9 110.3 106C111.5 106.1 112.9 105.9 113.9 104.9C116.3 102.8 115.6 100.5 115.6 100.5C113.6 102 108.6 102.6 103.3 100.5C100.9 99.5 97.3997 96.2 94.2997 93C94.7997 93.2 95.1997 93.4 95.6997 93.6C98.0997 94.6 100.8 95.1 103.4 94.8C108.1 94.4 112.4 91.8 115.2 88.1C117.6 84.9 118.6 81 118.8 77H120.1V72.8H118.7C117.2 61.9 104.2 60 104.2 60C104.2 60 109 56.9 109.9 52.7C110.7 48.5 108.6 43.5999 106.8 40.3999C104.3 35.9999 106.3 30.8 106.3 30.8C106.3 30.8 101.3 32.5 98.5997 35.3C97.0997 36.9 96.3997 39.1 96.3997 41.2C96.3997 42 96.3997 42.9 96.6997 43.7C96.9997 44.5 97.4997 45.1999 97.9997 45.8999C98.3997 46.4999 98.9997 47.0999 99.0997 47.8999C99.0997 48.0999 99.0997 48.1999 99.0997 48.3999C99.0997 48.5999 98.8997 48.7 98.7997 48.7C98.6997 48.7 98.5997 48.7 98.4997 48.7C97.3997 48.5 96.4997 47.6 95.5997 47C91.9997 44.3 84.4997 45.8 84.4997 45.8C84.4997 45.8 84.9997 49.9999 86.2997 52.8999C87.6997 55.7999 90.6997 57.4 90.1997 58.6C89.6997 59.8 85.9997 58.7 82.2997 60.1C78.5997 61.5 79.2997 66 79.2997 66C79.2997 66 80.6997 65.4 83.3997 66C86.0997 66.6 87.1997 69.4 92.9997 68.8C98.7997 68.2 101.2 63.1 101.2 63.1C105 64 112.6 66.7 114.3 72.7H113C111.9 72.7 110.9 73.6 110.9 74.8C110.9 75.9 111.8 76.8999 113 76.8999H114.6C113.8 84.3999 107.6 92.1 98.9997 90.8C93.8997 90 89.6997 87.4999 86.8997 85.3999C86.6997 85.1999 86.4997 85 86.3997 84.8C85.3997 83.2 86.2997 81.8 87.4997 81.1C88.6997 80.4 90.7997 80.3 90.7997 80.3C90.7997 80.3 89.7997 79.1 88.6997 79C87.5997 78.9 86.9997 79.3999 86.9997 79.3999C86.9997 79.3999 87.7997 76.7 86.0997 75.8C86.0997 75.8 85.8997 79 83.5997 79.3C81.8997 79.6 80.3997 78.5 79.2997 76.3C79.2997 76.2 79.1997 76.1 79.1997 76C77.3997 71.2 76.2997 65.8999 76.2997 60.3999C76.2997 36.1999 95.8997 16.5 120.2 16.5V12.2C93.5997 12.2 72.0997 33.7 72.0997 60.3C72.0997 65.1 72.7997 69.7 74.0997 74.1C69.6997 72.8 65.0997 72.1 60.2997 72.1C33.7997 72.1 12.2997 93.9 12.1997 120.3H16.3997V120.1Z" stroke="#5F6180" stroke-width="0.5" stroke-miterlimit="10"/>
    </svg>
    