<svg width="120" height="121" viewBox="0 0 120 121" fill="none" xmlns="http://www.w3.org/2000/svg">
    <path d="M0.0758667 119.905L119.776 119.905L119.776 0.205269L0.0758667 0.205269L0.0758667 119.905Z" fill="#D3CEC3"/>
    <path d="M4.29999 119.9C4.29999 89.2001 29.2 64.3001 59.9 64.3001C60 64.3001 60 64.3001 60.1 64.3001C61.6 64.3001 63 64.4001 64.4 64.5001C64.3 63.1001 64.2 61.6001 64.2 60.2001C64.2 60.1001 64.2 60.1001 64.2 60.0001C64.2 29.3001 89.1 4.4001 119.8 4.4001V0.100098C86.7 0.100098 59.9 26.9001 59.9 60.0001C26.8 60.0001 0 86.8001 0 119.9H4.29999Z" fill="#112337"/>
    <path d="M0 26.9999C14.8 26.9999 26.8 15 26.8 0.199951H0V26.9999Z" fill="#484D49"/>
    <path d="M22.5002 0.200096C22.5002 0.200096 22.6002 6.5001 20.1002 9.4001C17.6002 12.4001 13.1002 9.10009 11.3002 7.80009C9.40017 6.50009 7.2002 5.7001 5.7002 6.4001C4.2002 7.1001 5.20021 10.3001 6.40021 12.1001C7.60021 13.9001 10.1002 17.1001 9.40021 19.2001C8.70021 21.3001 6.3002 23.2001 0.200195 22.9001V0.100098H22.5002V0.200096Z" fill="#A39C8E"/>
    <path d="M0 5.79995C3.1 5.79995 5.60004 3.29995 5.60004 0.199951H0V5.79995Z" fill="#D3CEC3"/>
    <path d="M77.1002 11.6C77.1002 11.6 87.2002 2.09995 97.1002 0.199951H71.7002C71.7002 0.199951 76.9002 3.49995 77.1002 11.6Z" fill="#112337"/>
    <path d="M0.100037 32.2C8.10004 32.2 15.5 29.2 21.1 24.3L28.4 31.6C32.6 35.8 33.5 42.2 30.6 47.3L29.7 49C29.7 49 32.7 50.9 35.1 49C36.8 47.6 38.1 46.2 38.7 45.5C38.9 45.3 39.2 45.3 39.4 45.5L39.7 45.8C41.5 47.6 44.1 48.6 46.7 48.4C47.2 48.4 47.7 48.4 48.1 48.6L49.2 49L48.8 47.9C48.6 47.4 48.6 47 48.6 46.5C48.8 43.9 47.8 41.4 46 39.5L45.7 39.2C45.5 39 45.5 38.6 45.7 38.5C46.4 37.9 47.8 36.7 49.2 34.9C51.1 32.5 49.2 29.5 49.2 29.5L47.5 30.4C42.3 33.2 35.9 32.3 31.8 28.2L24.4 20.8C29.2 15.2 32.1 7.9 32.1 0H26.9C26.9 14.8 14.9 26.9 0 26.9L0.100037 32.2Z" fill="#112337"/>
    <path d="M39.3999 0.199951C39.3999 0.199951 39.3999 3.79996 39.3999 6.39996C39.3999 8.99996 42.7999 11.9 47.3999 11.1C51.9999 10.4 52.3999 6.39996 57.9999 6.39996C63.5999 6.39996 65.6999 9.29995 65.6999 12.1C65.6999 14.8 64.2999 18.4 59.3999 18.4C54.4999 18.4 52.8999 15.1 52.8999 15.1C52.8999 15.1 51.8999 17.5 51.8999 20.2C51.9999 22.9 55.8999 25 59.0999 23.9C59.0999 23.9 57.0999 26.3 55.4999 28.6C53.9999 30.9 53.4999 33 53.6999 35.2C53.8999 37.4 56.7999 39.3 57.6999 39.7C57.6999 39.7 58.3999 35.4999 60.5999 32.4999C62.7999 29.4999 66.4999 24.7999 68.7999 22.2999C71.0999 19.7999 72.5999 14.1 70.5999 9.89996C68.5999 5.69996 64.5999 1.89995 60.4999 0.199951H39.3999Z" fill="#112337"/>
    <path d="M11.4 76.5999C11.4 76.5999 1.9 86.6999 0 96.5999V71.2C0 71.2 3.40002 76.4999 11.4 76.5999Z" fill="#112337"/>
    <path d="M0.100098 39C0.100098 39 3.70005 39 6.30005 39C8.90005 39 11.8001 42.4 11.0001 47C10.3001 51.6 6.30005 52 6.30005 57.6C6.30005 63.2 9.20006 65.3 12.0001 65.3C14.8001 65.3 18.3 63.9 18.3 59C18.3 54.1 15.0001 52.5 15.0001 52.5C15.0001 52.5 17.4001 51.5 20.1001 51.5C22.8001 51.5 24.9 55.5 23.8 58.7C23.8 58.7 26.2001 56.7 28.5001 55.1C30.8001 53.5 32.9001 53.1 35.1001 53.3C37.3001 53.5 39.2001 56.4 39.6001 57.3C39.6001 57.3 35.4001 58 32.4001 60.2C29.4001 62.4 24.7001 66.1 22.2001 68.4C19.7001 70.7 14 72.2 9.80005 70.2C5.60005 68.2 1.8001 64.2 0.100098 60.1V39Z" fill="#112337"/>
    <path d="M16.0002 119.7C16.1002 95.5999 35.7002 75.9999 59.8002 75.9999C65.3002 75.9999 70.6002 76.9999 75.4002 78.8999C75.7002 78.9999 76.0002 79.0999 76.3002 79.1999C77.7002 80.1999 78.3002 81.3999 78.1002 82.6999C77.7002 84.9999 74.6002 85.1999 74.6002 85.1999C75.5002 86.9999 78.2002 86.0999 78.2002 86.0999C78.2002 86.0999 77.7002 86.6999 77.8002 87.7999C77.9002 88.8999 79.1002 89.8999 79.1002 89.8999C79.1002 89.8999 79.2002 87.8999 79.9002 86.5999C80.6002 85.2999 82.5002 84.2999 83.9002 85.6999C86.1002 88.2999 89.1002 92.8999 89.9002 98.5999C91.2002 107.2 83.4002 113.4 76.0002 114.2V112.6C76.0002 111.5 75.1002 110.5 73.9002 110.5C72.8002 110.5 71.8002 111.4 71.8002 112.6V113.9C65.8002 112.2 63.2002 104.6 62.2002 100.8C62.2002 100.8 67.3002 98.4999 67.9002 92.5999C68.5002 86.7999 65.7002 85.6999 65.1002 82.9999C64.5002 80.2999 65.1002 78.8999 65.1002 78.8999C65.1002 78.8999 60.5002 78.1999 59.2002 81.8999C57.8002 85.5999 58.9002 89.3999 57.7002 89.7999C56.5002 90.2999 54.9002 87.2999 52.0002 85.8999C49.1002 84.4999 44.9002 84.0999 44.9002 84.0999C44.9002 84.0999 43.3002 91.5999 46.1002 95.1999C46.8002 96.0999 47.7002 96.8999 47.8002 98.0999C47.8002 98.1999 47.8002 98.2999 47.8002 98.3999C47.7002 98.4999 47.6002 98.6999 47.5002 98.6999C47.3002 98.6999 47.2002 98.6999 47.0002 98.6999C46.2002 98.5999 45.6002 97.9999 45.0002 97.5999C44.3002 97.0999 43.6002 96.5999 42.8002 96.2999C42.0002 95.9999 41.2002 95.9999 40.3002 95.9999C38.2002 95.9999 35.9002 96.6999 34.4002 98.1999C31.6002 100.9 29.9002 105.9 29.9002 105.9C29.9002 105.9 35.1002 103.8 39.5002 106.4C42.6002 108.2 47.6002 110.4 51.8002 109.5C56.0002 108.7 59.1002 103.8 59.1002 103.8C59.1002 103.8 61.0002 116.8 71.9002 118.3V119.7H76.1002V118.6C84.5002 117.9 92.3002 113.3 93.7002 104.2C94.2002 101 93.7002 97.3999 92.3002 94.1999C95.5002 97.1999 98.9002 100.6 99.9002 103.1C102 108.4 101.4 113.4 99.9002 115.4C99.9002 115.4 102.2 116 104.3 113.7C105.2 112.7 105.4 111.3 105.4 110.1C105.4 109.3 106.4 109 106.8 109.6C108.1 111.4 108.7 113.9 110.7 115.1C111.6 115.6 112.7 116 113.7 116.2C114.1 116.3 116.1 116.2 116.2 116.4C116 116.2 116.1 114.3 116 113.9C115.8 112.9 115.5 111.8 114.9 110.9C113.7 108.9 111.2 108.3 109.4 107C108.8 106.5 109.1 105.5 109.9 105.6C111.1 105.7 112.5 105.5 113.5 104.5C115.9 102.4 115.2 100.1 115.2 100.1C113.2 101.6 108.2 102.2 102.9 100.1C100.5 99.0999 97.0002 95.7999 93.9002 92.5999C94.4002 92.7999 94.8002 92.9999 95.3002 93.1999C97.7002 94.1999 100.4 94.6999 103 94.3999C107.6 93.9999 112 91.3999 114.8 87.6999C117.2 84.4999 118.2 80.5999 118.4 76.5999H119.7V72.3999H118.3C116.8 61.4999 103.8 59.5999 103.8 59.5999C103.8 59.5999 108.6 56.4999 109.5 52.2999C110.3 48.0999 108.2 43.1999 106.4 39.9999C103.9 35.5999 105.9 30.3999 105.9 30.3999C105.9 30.3999 100.9 32.0999 98.2002 34.8999C96.7002 36.4999 96.0002 38.6999 96.0002 40.7999C96.0002 41.5999 96.0002 42.4999 96.3002 43.2999C96.6002 44.0999 97.1002 44.7999 97.6002 45.4999C98.0002 46.0999 98.6002 46.6999 98.7002 47.4999C98.7002 47.6999 98.7002 47.7999 98.7002 47.9999C98.7002 48.1999 98.5002 48.2999 98.4002 48.2999C98.3002 48.2999 98.2002 48.2999 98.1002 48.2999C97.0002 48.0999 96.1002 47.1999 95.2002 46.5999C91.6002 43.8999 84.1002 45.3999 84.1002 45.3999C84.1002 45.3999 84.6002 49.5999 85.9002 52.4999C87.3002 55.3999 90.3002 56.9999 89.8002 58.1999C89.3002 59.3999 85.6002 58.2999 81.9002 59.6999C78.2002 61.0999 78.9002 65.5999 78.9002 65.5999C78.9002 65.5999 80.3002 64.9999 83.0002 65.5999C85.7002 66.1999 86.8002 68.9999 92.6002 68.3999C98.4002 67.7999 100.8 62.6999 100.8 62.6999C104.6 63.5999 112.2 66.2999 113.9 72.2999H112.6C111.5 72.2999 110.5 73.1999 110.5 74.3999C110.5 75.4999 111.4 76.4999 112.6 76.4999H114.2C113.4 83.9999 107.2 91.6999 98.6002 90.3999C93.5002 89.5999 89.3002 87.0999 86.5002 84.9999C86.3002 84.7999 86.1002 84.5999 86.0002 84.3999C85.0002 82.7999 85.9002 81.3999 87.1002 80.6999C88.4002 79.9999 90.4002 79.8999 90.4002 79.8999C90.4002 79.8999 89.4002 78.6999 88.3002 78.5999C87.2002 78.4999 86.6002 78.9999 86.6002 78.9999C86.6002 78.9999 87.4002 76.2999 85.7002 75.3999C85.7002 75.3999 85.5002 78.5999 83.2002 78.8999C81.5002 79.1999 80.0002 78.0999 78.9002 75.8999C78.9002 75.7999 78.8002 75.6999 78.8002 75.5999C77.0002 70.7999 75.9002 65.4999 75.9002 59.9999C75.9002 35.7999 95.5002 16.1999 119.7 16.1999V11.8999C93.1002 11.8999 71.6002 33.3999 71.6002 59.9999C71.6002 64.7999 72.3002 69.3999 73.6002 73.7999C69.2002 72.4999 64.6002 71.7999 59.8002 71.7999C33.3002 71.7999 11.8002 93.1999 11.7002 119.7H16.0002Z" fill="#6A6257"/>
    <path d="M114.8 87.6001C112 91.3001 107.6 93.9001 103 94.3001C100.4 94.5001 97.7 94.1001 95.3 93.1001C94.8 92.9001 94.4001 92.7001 93.9001 92.5001C97.0001 95.7001 100.4 99.0001 102.9 100C108.2 102.1 113.2 101.5 115.2 100C115.2 100 115.8 102.3 113.5 104.4C112.5 105.3 111.1 105.5 109.9 105.5C109.1 105.5 108.8 106.5 109.4 106.9C111.2 108.2 113.7 108.8 114.9 110.8C115.4 111.7 115.8 112.8 116 113.8C116.1 114.2 116 116.2 116.2 116.3C116 116.1 114.1 116.2 113.7 116.1C112.7 115.9 111.6 115.6 110.7 115C108.7 113.8 108.1 111.3 106.8 109.5C106.3 108.9 105.3 109.2 105.4 110C105.5 111.2 105.3 112.6 104.3 113.6C102.2 116 99.9001 115.3 99.9001 115.3C101.4 113.3 102 108.3 99.9001 103C98.9001 100.5 95.5 97.1001 92.3 94.1001C93.7 97.3001 94.2001 100.9 93.7001 104.1C92.3001 113.2 84.5001 117.8 76.1001 118.5V119.9H120V76.6001H118.7C118.2 80.5001 117.2 84.5001 114.8 87.6001Z" fill="#B1BFD6"/>
    <path d="M75.8999 114.4C83.3999 113.6 91.0999 107.4 89.7999 98.7999C88.9999 93.0999 85.9999 88.4999 83.7999 85.8999C82.3999 84.5999 80.5999 85.5999 79.7999 86.7999C79.0999 88.0999 78.9999 90.0999 78.9999 90.0999C78.9999 90.0999 77.7999 89.0999 77.6999 87.9999C77.5999 86.8999 78.0999 86.2999 78.0999 86.2999C78.0999 86.2999 75.3999 87.0999 74.4999 85.3999C74.4999 85.3999 77.6999 85.1999 77.9999 82.8999C78.1999 81.5999 77.5999 80.3999 76.1999 79.3999C75.8999 79.2999 75.5999 79.1999 75.2999 79.0999C70.4999 77.2999 65.1999 76.2 59.6999 76.2C35.4999 76.2 15.9999 95.6999 15.8999 119.9V120.1H71.6999V118.7C60.7999 117.2 58.8999 104.2 58.8999 104.2C58.8999 104.2 55.7999 109 51.5999 109.9C47.3999 110.7 42.4999 108.6 39.2999 106.8C34.8999 104.3 29.6999 106.3 29.6999 106.3C29.6999 106.3 31.3999 101.3 34.1999 98.5999C35.7999 97.0999 37.9999 96.3999 40.0999 96.3999C40.8999 96.3999 41.7999 96.4 42.5999 96.7C43.3999 97 44.0999 97.4999 44.7999 97.9999C45.3999 98.3999 45.9999 98.9999 46.7999 99.0999C46.9999 99.0999 47.0999 99.0999 47.2999 99.0999C47.4999 99.0999 47.5999 98.8999 47.5999 98.7999C47.5999 98.6999 47.5999 98.5999 47.5999 98.4999C47.3999 97.3999 46.4999 96.4999 45.8999 95.5999C43.1999 91.9999 44.6999 84.4999 44.6999 84.4999C44.6999 84.4999 48.8999 84.9999 51.7999 86.2999C54.6999 87.6999 56.2999 90.7 57.4999 90.2C58.6999 89.7 57.5999 85.9999 58.9999 82.2999C60.3999 78.5999 64.8999 79.2999 64.8999 79.2999C64.8999 79.2999 64.2999 80.6999 64.8999 83.3999C65.4999 86.0999 68.2999 87.1999 67.6999 92.9999C67.0999 98.7999 61.9999 101.2 61.9999 101.2C62.8999 105 65.5999 112.6 71.5999 114.3V113C71.5999 111.9 72.4999 110.9 73.6999 110.9C74.8999 110.9 75.7999 111.8 75.7999 113V114.4H75.8999Z" fill="#A39C8E"/>
    <path d="M75.8999 60.0999C75.8999 65.5999 76.8999 70.9 78.7999 75.7C78.7999 75.7999 78.8999 75.8999 78.8999 75.9999C79.9999 78.1999 81.4999 79.2999 83.1999 78.9999C85.4999 78.5999 85.6999 75.4999 85.6999 75.4999C87.4999 76.3999 86.5999 79.0999 86.5999 79.0999C86.5999 79.0999 87.1999 78.6 88.2999 78.7C89.3999 78.7999 90.3999 79.9999 90.3999 79.9999C90.3999 79.9999 88.3999 80.0999 87.0999 80.7999C85.7999 81.4999 84.8999 82.8999 85.9999 84.4999C86.0999 84.6999 86.2999 84.8999 86.4999 85.0999C89.1999 87.1999 93.3999 89.6999 98.5999 90.4999C107.2 91.7999 113.4 83.9999 114.2 76.5999H112.6C111.5 76.5999 110.5 75.6999 110.5 74.4999C110.5 73.3999 111.4 72.3999 112.6 72.3999H113.9C112.2 66.3999 104.6 63.7999 100.8 62.7999C100.8 62.7999 98.4999 67.8999 92.5999 68.4999C86.7999 69.0999 85.6999 66.2999 82.9999 65.7C80.2999 65.1 78.8999 65.7 78.8999 65.7C78.8999 65.7 78.1999 61.0999 81.8999 59.7999C85.5999 58.3999 89.2999 59.4999 89.7999 58.2999C90.2999 57.0999 87.2999 55.4999 85.8999 52.5999C84.4999 49.6999 84.0999 45.4999 84.0999 45.4999C84.0999 45.4999 91.5999 43.9 95.1999 46.7C96.0999 47.4 96.8999 48.2999 98.0999 48.3999C98.1999 48.3999 98.2999 48.3999 98.3999 48.3999C98.4999 48.2999 98.6999 48.1999 98.6999 48.0999C98.6999 47.8999 98.6999 47.7999 98.6999 47.5999C98.5999 46.7999 97.9999 46.1999 97.5999 45.5999C97.0999 44.8999 96.5999 44.1999 96.2999 43.3999C95.9999 42.5999 95.9999 41.7999 95.9999 40.8999C95.9999 38.7999 96.6999 36.4999 98.1999 34.9999C100.9 32.1999 105.9 30.4999 105.9 30.4999C105.9 30.4999 103.8 35.6999 106.4 40.0999C108.2 43.1999 110.4 48.1999 109.5 52.3999C108.7 56.5999 103.8 59.7 103.8 59.7C103.8 59.7 116.8 61.5999 118.3 72.4999H119.7V16.2999C95.4999 16.1999 75.8999 35.7999 75.8999 60.0999Z" fill="#A39C8E"/>
    </svg>
    