<svg width="120" height="120" viewBox="0 0 120 120" fill="none" xmlns="http://www.w3.org/2000/svg">
    <path d="M120 0H0.299805V119.7H120V0Z" fill="#D3CEC3"/>
    <path d="M115.7 0C115.7 30.7 90.8002 55.6 60.1002 55.6C60.0002 55.6 60.0002 55.6 59.9002 55.6C58.4002 55.6 57.0002 55.5 55.6002 55.4C55.7002 56.8 55.8002 58.3 55.8002 59.7C55.8002 59.8 55.8002 59.8 55.8002 59.9C55.8002 90.6 30.9002 115.5 0.200195 115.5V119.8C33.3002 119.8 60.1002 93 60.1002 59.9C93.2002 59.9 120 33.1 120 0H115.7Z" fill="#112337"/>
    <path d="M120 92.8999C105.2 92.8999 93.2002 104.9 93.2002 119.7H120V92.8999Z" fill="#484D49"/>
    <path d="M97.5001 119.7C97.5001 119.7 97.4 113.4 99.9 110.5C102.4 107.5 106.9 110.8 108.7 112.1C110.6 113.4 112.8 114.2 114.3 113.5C115.8 112.8 114.8 109.6 113.6 107.8C112.4 106 109.9 102.8 110.6 100.7C111.3 98.6001 113.7 96.7001 119.8 97.0001V119.8H97.5001V119.7Z" fill="#A39C8E"/>
    <path d="M120 114.1C116.9 114.1 114.4 116.6 114.4 119.7H120V114.1Z" fill="#D3CEC3"/>
    <path d="M43 108.4C43 108.4 32.9 117.9 23 119.8H48.4C48.4 119.8 43.1 116.4 43 108.4Z" fill="#112337"/>
    <path d="M120 87.7C112 87.7 104.6 90.7 99 95.6L91.6 88.2C87.4 84 86.5 77.6 89.4 72.5L90.3 70.8C90.3 70.8 87.3 68.9 84.9 70.8C83.2 72.2 81.9 73.6 81.3 74.3C81.1 74.5 80.8 74.5 80.6 74.3L80.3 74C78.5 72.2 75.9 71.2 73.3 71.4C72.8 71.4 72.3 71.4 71.9 71.2L70.8 70.8L71.2 71.9C71.4 72.4 71.4 72.8 71.4 73.3C71.2 75.9 72.2 78.4 74 80.3L74.3 80.6C74.5 80.8 74.5 81.2 74.3 81.3C73.6 81.9 72.2 83.1 70.8 84.9C68.9 87.3 70.8 90.3 70.8 90.3L72.5 89.4C77.7 86.6 84.1 87.5 88.2 91.6L95.6 99C90.8 104.6 87.9 111.9 87.9 119.8H93.1C93.1 105 105.1 92.9 120 92.9V87.7Z" fill="#112337"/>
    <path d="M80.6997 119.7C80.6997 119.7 80.6997 116.1 80.6997 113.5C80.6997 110.9 77.2997 108 72.6997 108.8C68.0997 109.5 67.6998 113.5 62.0998 113.5C56.4998 113.5 54.3998 110.6 54.3998 107.8C54.3998 105 55.7997 101.5 60.6997 101.5C65.5997 101.5 67.1997 104.8 67.1997 104.8C67.1997 104.8 68.1997 102.4 68.1997 99.7C68.0997 97 64.1998 94.9 60.9998 96C60.9998 96 62.9998 93.5999 64.5998 91.2999C66.0998 88.9999 66.5998 86.9 66.3998 84.7C66.1998 82.5 63.2998 80.6 62.3998 80.2C62.3998 80.2 61.6998 84.3999 59.4998 87.3999C57.2998 90.3999 53.5998 95.1 51.2998 97.6C49.0998 100.1 47.4998 105.8 49.4998 110C51.4998 114.2 55.4998 118 59.5998 119.7H80.6997Z" fill="#112337"/>
    <path d="M108.6 43.3C108.6 43.3 118.1 33.2 120 23.3V48.7C120 48.7 116.6 43.5 108.6 43.3Z" fill="#112337"/>
    <path d="M119.9 80.9C119.9 80.9 116.3 80.9 113.7 80.9C111.1 80.9 108.2 77.5 109 72.9C109.7 68.3 113.7 67.9 113.7 62.3C113.7 56.7 110.8 54.6 108 54.6C105.3 54.6 101.7 56 101.7 60.9C101.7 65.8 105 67.4 105 67.4C105 67.4 102.6 68.4 99.8999 68.4C97.1999 68.3 95.0999 64.4 96.1999 61.2C96.1999 61.2 93.7999 63.2 91.4999 64.8C89.1999 66.3 87.0999 66.8 84.8999 66.6C82.6999 66.4 80.7999 63.5 80.3999 62.6C80.3999 62.6 84.5999 61.9 87.5999 59.7C90.5999 57.5 95.2999 53.8 97.7999 51.5C100.3 49.2 106 47.7 110.2 49.7C114.4 51.7 118.2 55.7 119.9 59.8V80.9Z" fill="#112337"/>
    <path d="M104 0.2C103.9 24.3 84.2998 43.9 60.1998 43.9C54.6998 43.9 49.3998 42.9 44.5998 41C44.2998 40.9 43.9998 40.8 43.6998 40.7C42.2998 39.7 41.6998 38.5 41.8998 37.2C42.2998 34.9 45.3998 34.7 45.3998 34.7C44.4998 32.9 41.7998 33.8 41.7998 33.8C41.7998 33.8 42.2998 33.2 42.1998 32.1C42.0998 31 40.8998 30 40.8998 30C40.8998 30 40.7998 32 40.0998 33.3C39.3998 34.6 37.4998 35.6 36.0998 34.2C33.8998 31.6 30.8998 27 30.0998 21.3C28.7998 12.7 36.5998 6.5 43.9998 5.7V7.2C43.9998 8.3 44.8998 9.3 46.0998 9.3C47.1998 9.3 48.1998 8.4 48.1998 7.2V5.8C54.1998 7.5 56.7998 15.1 57.7998 18.9C57.7998 18.9 52.6998 21.2 52.0998 27.1C51.4998 32.9 54.2998 34 54.8998 36.7C55.4998 39.4 54.8998 40.8 54.8998 40.8C54.8998 40.8 59.4998 41.5 60.7998 37.8C62.1998 34.1 61.0998 30.3 62.2998 29.9C63.4998 29.4 65.0998 32.4 67.9998 33.8C70.8998 35.2 75.0998 35.6 75.0998 35.6C75.0998 35.6 76.6998 28.1 73.8998 24.5C73.1998 23.6 72.2998 22.8 72.1998 21.6C72.1998 21.5 72.1998 21.4 72.1998 21.3C72.2998 21.2 72.3998 21 72.4998 21C72.6998 21 72.7998 21 72.9998 21C73.7998 21.1 74.3998 21.7 74.9998 22.1C75.6998 22.6 76.3998 23.1 77.1998 23.4C77.9998 23.7 78.7998 23.7 79.6998 23.7C81.7998 23.7 84.0998 23 85.5998 21.5C88.3998 18.8 90.0998 13.8 90.0998 13.8C90.0998 13.8 84.8998 15.9 80.4998 13.3C77.3998 11.5 72.3998 9.3 68.1998 10.2C63.9998 11 60.8998 15.9 60.8998 15.9C60.8998 15.9 58.9998 2.9 48.0998 1.4V0H43.8998V1.4C35.4998 2.1 27.6998 6.7 26.2998 15.8C25.7998 19 26.2998 22.6 27.6998 25.8C24.4998 22.8 21.0998 19.4 20.0998 16.9C17.9998 11.6 18.5998 6.6 20.0998 4.6C20.0998 4.6 17.7998 4 15.6998 6.3C14.7998 7.3 14.5998 8.7 14.5998 9.9C14.5998 10.7 13.5998 11 13.1998 10.4C11.8998 8.6 11.2998 6.1 9.2998 4.9C8.39981 4.4 7.2998 4 6.2998 3.8C5.8998 3.7 3.8998 3.8 3.7998 3.6C3.9998 3.8 3.89979 5.7 3.99979 6.1C4.19979 7.1 4.49979 8.2 5.09979 9.1C6.29979 11.1 8.79979 11.7 10.5998 13C11.1998 13.5 10.8998 14.5 10.0998 14.4C8.89979 14.3 7.49979 14.5 6.49979 15.5C4.09979 17.6 4.7998 19.9 4.7998 19.9C6.7998 18.4 11.7998 17.8 17.0998 19.9C19.4998 20.9 22.9998 24.2 26.0998 27.4C25.5998 27.2 25.1998 27 24.6998 26.8C22.2998 25.8 19.5998 25.3 16.9998 25.6C12.3998 26 7.9998 28.6 5.1998 32.3C2.7998 35.5 1.79979 39.4 1.59979 43.4H0.299805V47.6H1.6998C3.1998 58.5 16.1998 60.4 16.1998 60.4C16.1998 60.4 11.3998 63.5 10.4998 67.7C9.69979 71.9 11.7998 76.8 13.5998 80C16.0998 84.4 14.0998 89.6 14.0998 89.6C14.0998 89.6 19.0998 87.9 21.7998 85.1C23.2998 83.5 23.9998 81.3 23.9998 79.2C23.9998 78.4 23.9998 77.5 23.6998 76.7C23.3998 75.9 22.8998 75.2 22.3998 74.5C21.9998 73.9 21.3998 73.3 21.2998 72.5C21.2998 72.3 21.2998 72.2 21.2998 72C21.2998 71.8 21.4998 71.7 21.5998 71.7C21.6998 71.7 21.7998 71.7 21.8998 71.7C22.9998 71.9 23.8998 72.8 24.7998 73.4C28.3998 76.1 35.8998 74.6 35.8998 74.6C35.8998 74.6 35.3998 70.4 34.0998 67.5C32.6998 64.6 29.6998 63 30.1998 61.8C30.6998 60.6 34.3998 61.7 38.0998 60.3C41.7998 58.9 41.0998 54.4 41.0998 54.4C41.0998 54.4 39.6998 55 36.9998 54.4C34.2998 53.8 33.1998 51 27.3998 51.6C21.5998 52.2 19.1998 57.3 19.1998 57.3C15.3998 56.4 7.79979 53.7 6.09979 47.7H7.39978C8.49978 47.7 9.49979 46.8 9.49979 45.6C9.49979 44.5 8.59978 43.5 7.39978 43.5H5.7998C6.5998 36 12.7998 28.3 21.3998 29.6C26.4998 30.4 30.6998 32.9 33.4998 35C33.6998 35.2 33.8998 35.4 33.9998 35.6C34.9998 37.2 34.0998 38.6 32.8998 39.3C31.5998 40 29.5998 40.1 29.5998 40.1C29.5998 40.1 30.5998 41.3 31.6998 41.4C32.7998 41.5 33.3998 41 33.3998 41C33.3998 41 32.5998 43.7 34.2998 44.6C34.2998 44.6 34.4998 41.4 36.7998 41.1C38.4998 40.8 39.9998 41.9 41.0998 44.1C41.0998 44.2 41.1998 44.3 41.1998 44.4C42.9998 49.2 44.0998 54.5 44.0998 60C44.0998 84.2 24.4998 103.8 0.299805 103.8V108.1C26.8998 108.1 48.3998 86.6 48.3998 60C48.3998 55.2 47.6998 50.6 46.3998 46.2C50.7998 47.5 55.3998 48.2 60.1998 48.2C86.6998 48.2 108.2 26.8 108.3 0.3H104V0.2Z" fill="#6A6257"/>
    <path d="M5.20001 32.3C8.00001 28.6 12.4 26 17 25.6C19.6 25.4 22.3 25.8 24.7 26.8C25.2 27 25.6 27.2 26.1 27.4C23 24.2 19.6 20.9 17.1 19.9C11.8 17.8 6.80002 18.4 4.80002 19.9C4.80002 19.9 4.2 17.6 6.5 15.5C7.5 14.6 8.90001 14.4 10.1 14.4C10.9 14.4 11.2 13.4 10.6 13C8.80001 11.7 6.30001 11.1 5.10001 9.1C4.60001 8.2 4.2 7.1 4 6.1C3.9 5.7 4.00002 3.7 3.80002 3.6C4.00002 3.8 5.90002 3.7 6.30002 3.8C7.30002 4 8.40002 4.3 9.30002 4.9C11.3 6.1 11.9 8.6 13.2 10.4C13.7 11 14.7 10.7 14.6 9.9C14.5 8.7 14.7 7.3 15.7 6.3C17.8 3.9 20.1 4.6 20.1 4.6C18.6 6.6 18 11.6 20.1 16.9C21.1 19.4 24.5 22.8 27.7 25.8C26.3 22.6 25.8 19 26.3 15.8C27.7 6.7 35.5 2.1 43.9 1.4V0H0V43.3H1.30002C1.80002 39.4 2.80001 35.5 5.20001 32.3Z" fill="#B1BFD6"/>
    <path d="M44.0997 5.5C36.5997 6.3 28.8997 12.5 30.1997 21.1C30.9997 26.8 33.9997 31.4 36.1997 34C37.5997 35.3 39.3997 34.3 40.1997 33.1C40.8997 31.8 40.9997 29.8 40.9997 29.8C40.9997 29.8 42.1997 30.8 42.2997 31.9C42.3997 33 41.8997 33.6 41.8997 33.6C41.8997 33.6 44.5997 32.8 45.4997 34.5C45.4997 34.5 42.2997 34.7 41.9997 37C41.7997 38.3 42.3997 39.5 43.7997 40.5C44.0997 40.6 44.3997 40.7 44.6997 40.8C49.4997 42.6 54.7997 43.7 60.2997 43.7C84.4997 43.7 104 24.2 104.1 0H48.3997V1.4C59.2997 2.9 61.1997 15.9 61.1997 15.9C61.1997 15.9 64.2997 11.1 68.4997 10.2C72.6997 9.4 77.5997 11.5 80.7997 13.3C85.1997 15.8 90.3997 13.8 90.3997 13.8C90.3997 13.8 88.6997 18.8 85.8997 21.5C84.2997 23 82.0997 23.7 79.9997 23.7C79.1997 23.7 78.2997 23.7 77.4997 23.4C76.6997 23.1 75.9997 22.6 75.2997 22.1C74.6997 21.7 74.0997 21.1 73.2997 21C73.0997 21 72.9997 21 72.7997 21C72.5997 21 72.4997 21.2 72.4997 21.3C72.4997 21.4 72.4997 21.5 72.4997 21.6C72.6997 22.7 73.5997 23.6 74.1997 24.5C76.8997 28.1 75.3997 35.6 75.3997 35.6C75.3997 35.6 71.1997 35.1 68.2997 33.8C65.3997 32.4 63.7997 29.4 62.5997 29.9C61.3997 30.4 62.4997 34.1 61.0997 37.8C59.6997 41.5 55.1997 40.8 55.1997 40.8C55.1997 40.8 55.7997 39.4 55.1997 36.7C54.5997 34 51.7997 32.9 52.3997 27.1C52.9997 21.3 58.0997 18.9 58.0997 18.9C57.1997 15.1 54.4997 7.5 48.4997 5.8V7.2C48.4997 8.3 47.5997 9.3 46.3997 9.3C45.1997 9.3 44.2997 8.4 44.2997 7.2V5.5H44.0997Z" fill="#A39C8E"/>
    <path d="M44.0998 59.8999C44.0998 54.3999 43.0998 49.0999 41.1998 44.2999C41.1998 44.1999 41.0998 44.0999 41.0998 43.9999C39.9998 41.7999 38.4998 40.6999 36.7998 40.9999C34.4998 41.3999 34.2998 44.4999 34.2998 44.4999C32.4998 43.5999 33.3998 40.8999 33.3998 40.8999C33.3998 40.8999 32.7998 41.3999 31.6998 41.2999C30.5998 41.1999 29.5998 39.9999 29.5998 39.9999C29.5998 39.9999 31.5998 39.8999 32.8998 39.1999C34.1998 38.4999 35.0998 37.0999 33.9998 35.4999C33.8998 35.2999 33.6998 35.0999 33.4998 34.8999C30.7998 32.7999 26.5998 30.2999 21.3998 29.4999C12.7998 28.1999 6.5998 35.9999 5.7998 43.3999H7.39978C8.49978 43.3999 9.49979 44.2999 9.49979 45.4999C9.49979 46.5999 8.59978 47.5999 7.39978 47.5999H6.09979C7.79979 53.5999 15.3998 56.1999 19.1998 57.1999C19.1998 57.1999 21.4998 52.0999 27.3998 51.4999C33.1998 50.8999 34.2998 53.6999 36.9998 54.2999C39.6998 54.8999 41.0998 54.2999 41.0998 54.2999C41.0998 54.2999 41.7998 58.8999 38.0998 60.1999C34.3998 61.5999 30.6998 60.4999 30.1998 61.6999C29.6998 62.8999 32.6998 64.4999 34.0998 67.3999C35.4998 70.2999 35.8998 74.4999 35.8998 74.4999C35.8998 74.4999 28.3998 76.0999 24.7998 73.2999C23.8998 72.5999 23.0998 71.6999 21.8998 71.5999C21.7998 71.5999 21.6998 71.5999 21.5998 71.5999C21.4998 71.6999 21.2998 71.7999 21.2998 71.8999C21.2998 71.9999 21.2998 72.1999 21.2998 72.3999C21.3998 73.1999 21.9998 73.7999 22.3998 74.3999C22.8998 75.0999 23.3998 75.7999 23.6998 76.5999C23.9998 77.3999 23.9998 78.1999 23.9998 79.0999C23.9998 81.1999 23.2998 83.4999 21.7998 84.9999C19.0998 87.7999 14.0998 89.4999 14.0998 89.4999C14.0998 89.4999 16.1998 84.2999 13.5998 79.8999C11.7998 76.7999 9.59979 71.7999 10.4998 67.5999C11.2998 63.3999 16.1998 60.2999 16.1998 60.2999C16.1998 60.2999 3.1998 58.3999 1.6998 47.4999H0.299805V103.7C24.4998 103.7 44.0998 84.0999 44.0998 59.8999Z" fill="#A39C8E"/>
    </svg>
    