<svg width="120" height="120" viewBox="0 0 120 120" fill="none" xmlns="http://www.w3.org/2000/svg">
    <path d="M0.0758667 119.767L119.776 119.767L119.776 0.0666046L0.0758667 0.0666046L0.0758667 119.767Z" fill="#D3CEC3"/>
    <path d="M4.29999 0C4.29999 30.7 29.2 55.6 59.9 55.6C60 55.6 60 55.6 60.1 55.6C61.6 55.6 63 55.5 64.4 55.4C64.3 56.8 64.2 58.3 64.2 59.7C64.2 59.8 64.2 59.8 64.2 59.9C64.2 90.6 89.1 115.5 119.8 115.5V119.8C86.7 119.8 59.9 93 59.9 59.9C26.8 59.9 0 33.1 0 0H4.29999Z" fill="#112337"/>
    <path d="M0 92.8999C14.8 92.8999 26.8 104.9 26.8 119.7H0V92.8999Z" fill="#484D49"/>
    <path d="M22.5002 119.7C22.5002 119.7 22.6002 113.4 20.1002 110.5C17.6002 107.5 13.1002 110.8 11.3002 112.1C9.40017 113.4 7.2002 114.2 5.7002 113.5C4.2002 112.8 5.20021 109.6 6.40021 107.8C7.60021 106 10.1002 102.8 9.40021 100.7C8.70021 98.6001 6.3002 96.7001 0.200195 97.0001V119.8H22.5002V119.7Z" fill="#A39C8E"/>
    <path d="M0 114.1C3.1 114.1 5.60004 116.6 5.60004 119.7H0V114.1Z" fill="#D3CEC3"/>
    <path d="M77.1002 108.4C77.1002 108.4 87.2002 117.9 97.1002 119.8H71.7002C71.7002 119.8 76.9002 116.4 77.1002 108.4Z" fill="#112337"/>
    <path d="M0.100037 87.7001C8.10004 87.7001 15.5 90.7001 21.1 95.6001L28.4 88.3001C32.6 84.1001 33.5 77.7001 30.6 72.6001L29.7 70.9001C29.7 70.9001 32.7 69.0001 35.1 70.9001C36.8 72.3001 38.1 73.7001 38.7 74.4001C38.9 74.6001 39.2 74.6001 39.4 74.4001L39.7 74.1001C41.5 72.3001 44.1 71.3001 46.7 71.5001C47.2 71.5001 47.7 71.5001 48.1 71.3001L49.2 70.9001L48.8 72.0001C48.6 72.5001 48.6 72.9001 48.6 73.4001C48.8 76.0001 47.8 78.5001 46 80.4001L45.7 80.7001C45.5 80.9001 45.5 81.3001 45.7 81.4001C46.4 82.0001 47.8 83.2001 49.2 85.0001C51.1 87.4001 49.2 90.4001 49.2 90.4001L47.5 89.5001C42.3 86.7001 35.9 87.6001 31.8 91.7001L24.4 99.1001C29.2 104.7 32.1 112 32.1 119.9H26.9C26.9 105.1 14.9 93.0001 0 93.0001L0.100037 87.7001Z" fill="#112337"/>
    <path d="M39.3999 119.7C39.3999 119.7 39.3999 116.1 39.3999 113.5C39.3999 110.9 42.7999 108 47.3999 108.8C51.9999 109.5 52.3999 113.5 57.9999 113.5C63.5999 113.5 65.6999 110.6 65.6999 107.8C65.6999 105 64.2999 101.5 59.3999 101.5C54.4999 101.5 52.8999 104.8 52.8999 104.8C52.8999 104.8 51.8999 102.4 51.8999 99.7C51.9999 97 55.8999 94.9 59.0999 96C59.0999 96 57.0999 93.5999 55.4999 91.2999C53.9999 88.9999 53.4999 86.9 53.6999 84.7C53.8999 82.5 56.7999 80.6 57.6999 80.2C57.6999 80.2 58.3999 84.3999 60.5999 87.3999C62.7999 90.3999 66.4999 95.1 68.7999 97.6C70.9999 100.1 72.5999 105.8 70.5999 110C68.5999 114.2 64.5999 118 60.4999 119.7H39.3999Z" fill="#112337"/>
    <path d="M11.4 43.3C11.4 43.3 1.9 33.2 0 23.3V48.7C0 48.7 3.40002 43.5 11.4 43.3Z" fill="#112337"/>
    <path d="M0.100098 80.9C0.100098 80.9 3.70005 80.9 6.30005 80.9C8.90005 80.9 11.8001 77.5 11.0001 72.9C10.3001 68.3 6.30005 67.9 6.30005 62.3C6.30005 56.7 9.20006 54.6 12.0001 54.6C14.7001 54.6 18.3 56 18.3 60.9C18.3 65.8 15.0001 67.4 15.0001 67.4C15.0001 67.4 17.4001 68.4 20.1001 68.4C22.8001 68.3 24.9 64.4 23.8 61.2C23.8 61.2 26.2001 63.2 28.5001 64.8C30.8001 66.4 32.9001 66.8 35.1001 66.6C37.3001 66.4 39.2001 63.5 39.6001 62.6C39.6001 62.6 35.4001 61.9 32.4001 59.7C29.4001 57.5 24.7001 53.8 22.2001 51.5C19.7001 49.2 14 47.7 9.80005 49.7C5.60005 51.7 1.8001 55.7 0.100098 59.8V80.9Z" fill="#112337"/>
    <path d="M16.0002 0.2C16.1002 24.3 35.7002 43.9 59.8002 43.9C65.3002 43.9 70.6002 42.9 75.4002 41C75.7002 40.9 76.0002 40.8 76.3002 40.7C77.7002 39.7 78.3002 38.5 78.1002 37.2C77.7002 34.9 74.6002 34.7 74.6002 34.7C75.5002 32.9 78.2002 33.8 78.2002 33.8C78.2002 33.8 77.7002 33.2 77.8002 32.1C77.9002 31 79.1002 30 79.1002 30C79.1002 30 79.2002 32 79.9002 33.3C80.6002 34.6 82.5002 35.6 83.9002 34.2C86.1002 31.6 89.1002 27 89.9002 21.3C91.2002 12.7 83.4002 6.5 76.0002 5.7V7.2C76.0002 8.3 75.1002 9.3 73.9002 9.3C72.8002 9.3 71.8002 8.4 71.8002 7.2V5.8C65.8002 7.5 63.2002 15.1 62.2002 18.9C62.2002 18.9 67.3002 21.2 67.9002 27.1C68.5002 32.9 65.7002 34 65.1002 36.7C64.5002 39.4 65.1002 40.8 65.1002 40.8C65.1002 40.8 60.5002 41.5 59.2002 37.8C57.8002 34.1 58.9002 30.3 57.7002 29.9C56.5002 29.4 54.9002 32.4 52.0002 33.8C49.1002 35.2 44.9002 35.6 44.9002 35.6C44.9002 35.6 43.3002 28.1 46.1002 24.5C46.8002 23.6 47.7002 22.8 47.8002 21.6C47.8002 21.5 47.8002 21.4 47.8002 21.3C47.7002 21.2 47.6002 21 47.5002 21C47.3002 21 47.2002 21 47.0002 21C46.2002 21.1 45.6002 21.7 45.0002 22.1C44.3002 22.6 43.6002 23.1 42.8002 23.4C42.0002 23.7 41.2002 23.7 40.3002 23.7C38.2002 23.7 35.9002 23 34.4002 21.5C31.6002 18.8 29.9002 13.8 29.9002 13.8C29.9002 13.8 35.1002 15.9 39.5002 13.3C42.6002 11.5 47.6002 9.3 51.8002 10.2C56.0002 11 59.1002 15.9 59.1002 15.9C59.1002 15.9 61.0002 2.9 71.9002 1.4V0H76.1002V1.4C84.5002 2.1 92.3002 6.7 93.7002 15.8C94.2002 19 93.7002 22.6 92.3002 25.8C95.5002 22.8 98.9002 19.4 99.9002 16.9C102 11.6 101.4 6.6 99.9002 4.6C99.9002 4.6 102.2 4 104.3 6.3C105.2 7.3 105.4 8.7 105.4 9.9C105.4 10.7 106.4 11 106.8 10.4C108.1 8.6 108.7 6.1 110.7 4.9C111.6 4.4 112.7 4 113.7 3.8C114.1 3.7 116.1 3.8 116.2 3.6C116 3.8 116.1 5.7 116 6.1C115.8 7.1 115.5 8.2 114.9 9.1C113.7 11.1 111.2 11.7 109.4 13C108.8 13.5 109.1 14.5 109.9 14.4C111.1 14.3 112.5 14.5 113.5 15.5C115.9 17.6 115.2 19.9 115.2 19.9C113.2 18.4 108.2 17.8 102.9 19.9C100.5 20.9 97.0002 24.2 93.9002 27.4C94.4002 27.2 94.8002 27 95.3002 26.8C97.7002 25.8 100.4 25.3 103 25.6C107.6 26 112 28.6 114.8 32.3C117.2 35.5 118.2 39.4 118.4 43.4H119.7V47.6H118.3C116.8 58.5 103.8 60.4 103.8 60.4C103.8 60.4 108.6 63.5 109.5 67.7C110.3 71.9 108.2 76.8 106.4 80C103.9 84.4 105.9 89.6 105.9 89.6C105.9 89.6 100.9 87.9 98.2002 85.1C96.7002 83.5 96.0002 81.3 96.0002 79.2C96.0002 78.4 96.0002 77.5 96.3002 76.7C96.6002 75.9 97.1002 75.2 97.6002 74.5C98.0002 73.9 98.6002 73.3 98.7002 72.5C98.7002 72.3 98.7002 72.2 98.7002 72C98.7002 71.8 98.5002 71.7 98.4002 71.7C98.3002 71.7 98.2002 71.7 98.1002 71.7C97.0002 71.9 96.1002 72.8 95.2002 73.4C91.6002 76.1 84.1002 74.6 84.1002 74.6C84.1002 74.6 84.6002 70.4 85.9002 67.5C87.3002 64.6 90.3002 63 89.8002 61.8C89.3002 60.6 85.6002 61.7 81.9002 60.3C78.2002 58.9 78.9002 54.4 78.9002 54.4C78.9002 54.4 80.3002 55 83.0002 54.4C85.7002 53.8 86.8002 51 92.6002 51.6C98.4002 52.2 100.8 57.3 100.8 57.3C104.6 56.4 112.2 53.7 113.9 47.7H112.6C111.5 47.7 110.5 46.8 110.5 45.6C110.5 44.5 111.4 43.5 112.6 43.5H114.2C113.4 36 107.2 28.3 98.6002 29.6C93.5002 30.4 89.3002 32.9 86.5002 35C86.3002 35.2 86.1002 35.4 86.0002 35.6C85.0002 37.2 85.9002 38.6 87.1002 39.3C88.4002 40 90.4002 40.1 90.4002 40.1C90.4002 40.1 89.4002 41.3 88.3002 41.4C87.2002 41.5 86.6002 41 86.6002 41C86.6002 41 87.4002 43.7 85.7002 44.6C85.7002 44.6 85.5002 41.4 83.2002 41.1C81.5002 40.8 80.0002 41.9 78.9002 44.1C78.9002 44.2 78.8002 44.3 78.8002 44.4C77.0002 49.2 75.9002 54.5 75.9002 60C75.9002 84.2 95.5002 103.8 119.7 103.8V108.1C93.1002 108.1 71.6002 86.6 71.6002 60C71.6002 55.2 72.3002 50.6 73.6002 46.2C69.2002 47.5 64.6002 48.2 59.8002 48.2C33.3002 48.2 11.8002 26.8 11.7002 0.3H16.0002V0.2Z" fill="#6A6257"/>
    <path d="M114.8 32.3C112 28.6 107.6 26 103 25.6C100.4 25.4 97.7 25.8 95.3 26.8C94.8 27 94.4001 27.2 93.9001 27.4C97.0001 24.2 100.4 20.9 102.9 19.9C108.2 17.8 113.2 18.4 115.2 19.9C115.2 19.9 115.8 17.6 113.5 15.5C112.5 14.6 111.1 14.4 109.9 14.4C109.1 14.4 108.8 13.4 109.4 13C111.2 11.7 113.7 11.1 114.9 9.1C115.4 8.2 115.8 7.1 116 6.1C116.1 5.7 116 3.7 116.2 3.6C116 3.8 114.1 3.7 113.7 3.8C112.7 4 111.6 4.3 110.7 4.9C108.7 6.1 108.1 8.6 106.8 10.4C106.3 11 105.3 10.7 105.4 9.9C105.5 8.7 105.3 7.3 104.3 6.3C102.2 3.9 99.9001 4.6 99.9001 4.6C101.4 6.6 102 11.6 99.9001 16.9C98.9001 19.4 95.5 22.8 92.3 25.8C93.7 22.6 94.2001 19 93.7001 15.8C92.3001 6.7 84.5001 2.1 76.1001 1.4V0H120V43.3H118.7C118.2 39.4 117.2 35.5 114.8 32.3Z" fill="#B1BFD6"/>
    <path d="M75.8999 5.5C83.3999 6.3 91.0999 12.5 89.7999 21.1C88.9999 26.8 85.9999 31.4 83.7999 34C82.3999 35.3 80.5999 34.3 79.7999 33.1C79.0999 31.8 78.9999 29.8 78.9999 29.8C78.9999 29.8 77.7999 30.8 77.6999 31.9C77.5999 33 78.0999 33.6 78.0999 33.6C78.0999 33.6 75.3999 32.8 74.4999 34.5C74.4999 34.5 77.6999 34.7 77.9999 37C78.1999 38.3 77.5999 39.5 76.1999 40.5C75.8999 40.6 75.5999 40.7 75.2999 40.8C70.4999 42.6 65.1999 43.7 59.6999 43.7C35.4999 43.7 15.9999 24.2 15.8999 0H71.6999V1.4C60.7999 2.9 58.8999 15.9 58.8999 15.9C58.8999 15.9 55.7999 11.1 51.5999 10.2C47.3999 9.4 42.4999 11.5 39.2999 13.3C34.8999 15.8 29.6999 13.8 29.6999 13.8C29.6999 13.8 31.3999 18.8 34.1999 21.5C35.7999 23 37.9999 23.7 40.0999 23.7C40.8999 23.7 41.7999 23.7 42.5999 23.4C43.3999 23.1 44.0999 22.6 44.7999 22.1C45.3999 21.7 45.9999 21.1 46.7999 21C46.9999 21 47.0999 21 47.2999 21C47.4999 21 47.5999 21.2 47.5999 21.3C47.5999 21.4 47.5999 21.5 47.5999 21.6C47.3999 22.7 46.4999 23.6 45.8999 24.5C43.1999 28.1 44.6999 35.6 44.6999 35.6C44.6999 35.6 48.8999 35.1 51.7999 33.8C54.6999 32.4 56.2999 29.4 57.4999 29.9C58.6999 30.4 57.5999 34.1 58.9999 37.8C60.3999 41.5 64.8999 40.8 64.8999 40.8C64.8999 40.8 64.2999 39.4 64.8999 36.7C65.4999 34 68.2999 32.9 67.6999 27.1C67.0999 21.3 61.9999 18.9 61.9999 18.9C62.8999 15.1 65.5999 7.5 71.5999 5.8V7.2C71.5999 8.3 72.4999 9.3 73.6999 9.3C74.8999 9.3 75.7999 8.4 75.7999 7.2V5.5H75.8999Z" fill="#A39C8E"/>
    <path d="M75.8999 59.8999C75.8999 54.3999 76.8999 49.0999 78.7999 44.2999C78.7999 44.1999 78.8999 44.0999 78.8999 43.9999C79.9999 41.7999 81.4999 40.6999 83.1999 40.9999C85.4999 41.3999 85.6999 44.4999 85.6999 44.4999C87.4999 43.5999 86.5999 40.8999 86.5999 40.8999C86.5999 40.8999 87.1999 41.3999 88.2999 41.2999C89.3999 41.1999 90.3999 39.9999 90.3999 39.9999C90.3999 39.9999 88.3999 39.8999 87.0999 39.1999C85.7999 38.4999 84.8999 37.0999 85.9999 35.4999C86.0999 35.2999 86.2999 35.0999 86.4999 34.8999C89.1999 32.7999 93.3999 30.2999 98.5999 29.4999C107.2 28.1999 113.4 35.9999 114.2 43.3999H112.6C111.5 43.3999 110.5 44.2999 110.5 45.4999C110.5 46.5999 111.4 47.5999 112.6 47.5999H113.9C112.2 53.5999 104.6 56.1999 100.8 57.1999C100.8 57.1999 98.4999 52.0999 92.5999 51.4999C86.7999 50.8999 85.6999 53.6999 82.9999 54.2999C80.2999 54.8999 78.8999 54.2999 78.8999 54.2999C78.8999 54.2999 78.1999 58.8999 81.8999 60.1999C85.5999 61.5999 89.2999 60.4999 89.7999 61.6999C90.2999 62.8999 87.2999 64.4999 85.8999 67.3999C84.4999 70.2999 84.0999 74.4999 84.0999 74.4999C84.0999 74.4999 91.5999 76.0999 95.1999 73.2999C96.0999 72.5999 96.8999 71.6999 98.0999 71.5999C98.1999 71.5999 98.2999 71.5999 98.3999 71.5999C98.4999 71.6999 98.6999 71.7999 98.6999 71.8999C98.6999 71.9999 98.6999 72.1999 98.6999 72.3999C98.5999 73.1999 97.9999 73.7999 97.5999 74.3999C97.0999 75.0999 96.5999 75.7999 96.2999 76.5999C95.9999 77.3999 95.9999 78.1999 95.9999 79.0999C95.9999 81.1999 96.6999 83.4999 98.1999 84.9999C100.9 87.7999 105.9 89.4999 105.9 89.4999C105.9 89.4999 103.8 84.2999 106.4 79.8999C108.2 76.7999 110.4 71.7999 109.5 67.5999C108.7 63.3999 103.8 60.2999 103.8 60.2999C103.8 60.2999 116.8 58.3999 118.3 47.4999H119.7V103.7C95.4999 103.7 75.8999 84.0999 75.8999 59.8999Z" fill="#A39C8E"/>
    </svg>
    