<svg width="120" height="121" viewBox="0 0 120 121" fill="none" xmlns="http://www.w3.org/2000/svg">
    <path d="M120 0.199951H0.299805V119.9H120V0.199951Z" fill="#D3CEC3"/>
    <path d="M115.7 119.9C115.7 89.2001 90.8002 64.3001 60.1002 64.3001C60.0002 64.3001 60.0001 64.3001 59.9001 64.3001C58.4001 64.3001 57.0002 64.4001 55.6002 64.5001C55.7002 63.1001 55.8002 61.6001 55.8002 60.2001C55.8002 60.1001 55.8002 60.1001 55.8002 60.0001C55.8002 29.3001 30.9002 4.4001 0.200195 4.4001V0.100098C33.3002 0.100098 60.1002 26.9001 60.1002 60.0001C93.2002 60.0001 120 86.8001 120 119.9H115.7Z" fill="#112337"/>
    <path d="M120 26.9999C105.2 26.9999 93.2002 15 93.2002 0.199951H120V26.9999Z" fill="#484D49"/>
    <path d="M97.5001 0.200096C97.5001 0.200096 97.4001 6.5001 99.9001 9.4001C102.4 12.4001 106.9 9.10009 108.7 7.80009C110.6 6.50009 112.8 5.7001 114.3 6.4001C115.8 7.1001 114.8 10.3001 113.6 12.1001C112.4 13.9001 109.9 17.1001 110.6 19.2001C111.3 21.3001 113.7 23.2001 119.8 22.9001V0.100098H97.5001V0.200096Z" fill="#A39C8E"/>
    <path d="M120 5.79995C116.9 5.79995 114.4 3.29995 114.4 0.199951H120V5.79995Z" fill="#D3CEC3"/>
    <path d="M42.8999 11.6C42.8999 11.6 32.7999 2.09995 22.8999 0.199951H48.2999C48.3999 0.199951 43.0999 3.49995 42.8999 11.6Z" fill="#112337"/>
    <path d="M119.9 32.2C111.9 32.2 104.5 29.2 98.9 24.3L91.6001 31.6C87.4001 35.8 86.5 42.2 89.4 47.3L90.3 49C90.3 49 87.3 50.9 84.9 49C83.2 47.6 81.9 46.2 81.3 45.5C81.1 45.3 80.8001 45.3 80.6001 45.5L80.3 45.8C78.5 47.6 75.9 48.6 73.3 48.4C72.8 48.4 72.3 48.4 71.9 48.6L70.8 49L71.2 47.9C71.4 47.4 71.4 47 71.4 46.5C71.2 43.9 72.2 41.4 74 39.5L74.3 39.2C74.5 39 74.5 38.6 74.3 38.5C73.6 37.9 72.2 36.7 70.8 34.9C68.9 32.5 70.8 29.5 70.8 29.5L72.5 30.4C77.7 33.2 84.1 32.3 88.2 28.2L95.6001 20.8C90.8001 15.2 87.9 7.9 87.9 0H93.1001C93.1001 14.8 105.1 26.9 120 26.9L119.9 32.2C120 32.2 120 32.2 119.9 32.2Z" fill="#112337"/>
    <path d="M80.6002 0.199951C80.6002 0.199951 80.6002 3.79996 80.6002 6.39996C80.6002 8.99996 77.2002 11.9 72.6002 11.1C68.0002 10.4 67.6002 6.39996 62.0002 6.39996C56.4002 6.39996 54.3002 9.29995 54.3002 12.1C54.3002 14.8 55.7002 18.4 60.6002 18.4C65.5002 18.4 67.1002 15.1 67.1002 15.1C67.1002 15.1 68.1002 17.5 68.1002 20.2C68.1002 22.9 64.1002 25 60.9002 23.9C60.9002 23.9 62.9002 26.3 64.5002 28.6C66.0002 30.9 66.5002 33 66.3002 35.2C66.1002 37.4 63.2002 39.3 62.3002 39.7C62.3002 39.7 61.6002 35.4999 59.4002 32.4999C57.2002 29.4999 53.5002 24.7999 51.2002 22.2999C49.0002 19.7999 47.4002 14.1 49.4002 9.89996C51.4002 5.69996 55.4002 1.89995 59.5002 0.199951H80.6002Z" fill="#112337"/>
    <path d="M108.6 76.5999C108.6 76.5999 118.1 86.6999 120 96.5999V71.2C120 71.2 116.6 76.4999 108.6 76.5999Z" fill="#112337"/>
    <path d="M119.9 39C119.9 39 116.3 39 113.7 39C111.1 39 108.2 42.4 109 47C109.7 51.6 113.7 52 113.7 57.6C113.7 63.2 110.8 65.3 108 65.3C105.2 65.3 101.7 63.9 101.7 59C101.7 54.1 105 52.5 105 52.5C105 52.5 102.6 51.5 99.8999 51.5C97.1999 51.6 95.1 55.5 96.2 58.7C96.2 58.7 93.7999 56.7 91.4999 55.1C89.1999 53.6 87.0999 53.1 84.8999 53.3C82.6999 53.5 80.7999 56.4 80.3999 57.3C80.3999 57.3 84.6 58 87.6 60.2C90.6 62.4 95.2999 66.1 97.7999 68.4C100.3 70.6 106 72.2 110.2 70.2C114.4 68.2 118.2 64.2 119.9 60.1V39Z" fill="#112337"/>
    <path d="M104 119.7C103.9 95.5999 84.2998 75.9999 60.1998 75.9999C54.6998 75.9999 49.3998 76.9999 44.5998 78.8999C44.2998 78.9999 43.9998 79.0999 43.6998 79.1999C42.2998 80.1999 41.6998 81.3999 41.8998 82.6999C42.2998 84.9999 45.3998 85.1999 45.3998 85.1999C44.4998 86.9999 41.7998 86.0999 41.7998 86.0999C41.7998 86.0999 42.2998 86.6999 42.1998 87.7999C42.0998 88.8999 40.8998 89.8999 40.8998 89.8999C40.8998 89.8999 40.7998 87.8999 40.0998 86.5999C39.3998 85.2999 37.4998 84.2999 36.0998 85.6999C33.8998 88.2999 30.8998 92.8999 30.0998 98.5999C28.7998 107.2 36.5998 113.4 43.9998 114.2V112.6C43.9998 111.5 44.8998 110.5 46.0998 110.5C47.2998 110.5 48.1998 111.4 48.1998 112.6V113.9C54.1998 112.2 56.7998 104.6 57.7998 100.8C57.7998 100.8 52.6998 98.4999 52.0998 92.5999C51.4998 86.7999 54.2998 85.6999 54.8998 82.9999C55.4998 80.2999 54.8998 78.8999 54.8998 78.8999C54.8998 78.8999 59.4998 78.1999 60.7998 81.8999C62.1998 85.5999 61.0998 89.3999 62.2998 89.7999C63.4998 90.2999 65.0998 87.2999 67.9998 85.8999C70.8998 84.4999 75.0999 84.0999 75.0999 84.0999C75.0999 84.0999 76.6998 91.5999 73.8998 95.1999C73.1998 96.0999 72.2998 96.8999 72.1998 98.0999C72.1998 98.1999 72.1998 98.2999 72.1998 98.3999C72.2998 98.4999 72.3998 98.6999 72.4998 98.6999C72.6998 98.6999 72.7998 98.6999 72.9998 98.6999C73.7998 98.5999 74.3998 97.9999 74.9998 97.5999C75.6998 97.0999 76.3998 96.5999 77.1998 96.2999C77.9998 95.9999 78.7998 95.9999 79.6998 95.9999C81.7998 95.9999 84.0999 96.6999 85.5999 98.1999C88.3999 100.9 90.0999 105.9 90.0999 105.9C90.0999 105.9 84.8998 103.8 80.4998 106.4C77.3998 108.2 72.3998 110.4 68.1998 109.5C63.9998 108.7 60.8998 103.8 60.8998 103.8C60.8998 103.8 58.9998 116.8 48.0998 118.3V119.7H43.8998V118.6C35.4998 117.9 27.6998 113.3 26.2998 104.2C25.7998 101 26.2998 97.3999 27.6998 94.1999C24.4998 97.1999 21.0998 100.6 20.0998 103.1C17.9998 108.4 18.5998 113.4 20.0998 115.4C20.0998 115.4 17.7998 116 15.6998 113.7C14.7998 112.7 14.5998 111.3 14.5998 110.1C14.5998 109.3 13.5998 109 13.1998 109.6C11.8998 111.4 11.2998 113.9 9.2998 115.1C8.39981 115.6 7.2998 116 6.2998 116.2C5.8998 116.3 3.8998 116.2 3.7998 116.4C3.9998 116.2 3.89982 114.3 3.99982 113.9C4.19982 112.9 4.49979 111.8 5.09979 110.9C6.29979 108.9 8.79979 108.3 10.5998 107C11.1998 106.5 10.8998 105.5 10.0998 105.6C8.89979 105.7 7.49982 105.5 6.49982 104.5C4.09982 102.4 4.7998 100.1 4.7998 100.1C6.7998 101.6 11.7998 102.2 17.0998 100.1C19.4998 99.0999 22.9998 95.7999 26.0998 92.5999C25.5998 92.7999 25.1998 92.9999 24.6998 93.1999C22.2998 94.1999 19.5998 94.6999 16.9998 94.3999C12.3998 93.9999 7.99983 91.3999 5.19983 87.6999C2.79983 84.4999 1.79979 80.5999 1.59979 76.5999H0.299805V72.3999H1.69983C3.19983 61.4999 16.1998 59.5999 16.1998 59.5999C16.1998 59.5999 11.3998 56.4999 10.4998 52.2999C9.69982 48.0999 11.7998 43.1999 13.5998 39.9999C16.0998 35.5999 14.0998 30.3999 14.0998 30.3999C14.0998 30.3999 19.0998 32.0999 21.7998 34.8999C23.2998 36.4999 23.9998 38.6999 23.9998 40.7999C23.9998 41.5999 23.9998 42.4999 23.6998 43.2999C23.3998 44.0999 22.8998 44.7999 22.3998 45.4999C21.9998 46.0999 21.3998 46.6999 21.2998 47.4999C21.2998 47.6999 21.2998 47.7999 21.2998 47.9999C21.2998 48.1999 21.4998 48.2999 21.5998 48.2999C21.6998 48.2999 21.7998 48.2999 21.8998 48.2999C22.9998 48.0999 23.8998 47.1999 24.7998 46.5999C28.3998 43.8999 35.8998 45.3999 35.8998 45.3999C35.8998 45.3999 35.3998 49.5999 34.0998 52.4999C32.6998 55.3999 29.6998 56.9999 30.1998 58.1999C30.6998 59.3999 34.3998 58.2999 38.0998 59.6999C41.7998 61.0999 41.0998 65.5999 41.0998 65.5999C41.0998 65.5999 39.6998 64.9999 36.9998 65.5999C34.2998 66.1999 33.1998 68.9999 27.3998 68.3999C21.5998 67.7999 19.1998 62.6999 19.1998 62.6999C15.3998 63.5999 7.79979 66.2999 6.09979 72.2999H7.39978C8.49978 72.2999 9.49982 73.1999 9.49982 74.3999C9.49982 75.4999 8.59978 76.4999 7.39978 76.4999H5.7998C6.5998 83.9999 12.7998 91.6999 21.3998 90.3999C26.4998 89.5999 30.6998 87.0999 33.4998 84.9999C33.6998 84.7999 33.8998 84.5999 33.9998 84.3999C34.9998 82.7999 34.0998 81.3999 32.8998 80.6999C31.5998 79.9999 29.5998 79.8999 29.5998 79.8999C29.5998 79.8999 30.5998 78.6999 31.6998 78.5999C32.7998 78.4999 33.3998 78.9999 33.3998 78.9999C33.3998 78.9999 32.5998 76.2999 34.2998 75.3999C34.2998 75.3999 34.4998 78.5999 36.7998 78.8999C38.4998 79.1999 39.9998 78.0999 41.0998 75.8999C41.0998 75.7999 41.1998 75.6999 41.1998 75.5999C42.9998 70.7999 44.0998 65.4999 44.0998 59.9999C44.0998 35.7999 24.4998 16.1999 0.299805 16.1999V11.8999C26.8998 11.8999 48.3998 33.3999 48.3998 59.9999C48.3998 64.7999 47.6998 69.3999 46.3998 73.7999C50.7998 72.4999 55.3998 71.7999 60.1998 71.7999C86.6998 71.7999 108.2 93.1999 108.3 119.7H104Z" fill="#6A6257"/>
    <path d="M5.20001 87.6001C8.00001 91.3001 12.4 93.9001 17 94.3001C19.6 94.5001 22.3 94.1001 24.7 93.1001C25.2 92.9001 25.6 92.7001 26.1 92.5001C23 95.7001 19.6 99.0001 17.1 100C11.8 102.1 6.79999 101.5 4.79999 100C4.79999 100 4.2 102.3 6.5 104.4C7.5 105.3 8.89998 105.5 10.1 105.5C10.9 105.5 11.2 106.5 10.6 106.9C8.79998 108.2 6.29998 108.8 5.09998 110.8C4.59998 111.7 4.2 112.8 4 113.8C3.9 114.2 3.99999 116.2 3.79999 116.3C3.99999 116.1 5.89999 116.2 6.29999 116.1C7.29999 115.9 8.39999 115.6 9.29999 115C11.3 113.8 11.9 111.3 13.2 109.5C13.7 108.9 14.7 109.2 14.6 110C14.5 111.2 14.7 112.6 15.7 113.6C17.8 116 20.1 115.3 20.1 115.3C18.6 113.3 18 108.3 20.1 103C21.1 100.5 24.5 97.1001 27.7 94.1001C26.3 97.3001 25.8 100.9 26.3 104.1C27.7 113.2 35.5 117.8 43.9 118.5V119.9H0V76.6001H1.29999C1.79999 80.5001 2.80001 84.5001 5.20001 87.6001Z" fill="#B1BFD6"/>
    <path d="M44.0996 114.4C36.5996 113.6 28.8997 107.4 30.1997 98.7999C30.9997 93.0999 33.9997 88.4999 36.1997 85.8999C37.5997 84.5999 39.3997 85.5999 40.1997 86.7999C40.8997 88.0999 40.9997 90.0999 40.9997 90.0999C40.9997 90.0999 42.1997 89.0999 42.2997 87.9999C42.3997 86.8999 41.8996 86.2999 41.8996 86.2999C41.8996 86.2999 44.5997 87.0999 45.4997 85.3999C45.4997 85.3999 42.2997 85.1999 41.9997 82.8999C41.7997 81.5999 42.3997 80.3999 43.7997 79.3999C44.0997 79.2999 44.3997 79.1999 44.6997 79.0999C49.4997 77.2999 54.7997 76.2 60.2997 76.2C84.4997 76.2 104 95.6999 104.1 119.9V120.1H48.3996V118.7C59.2996 117.2 61.1997 104.2 61.1997 104.2C61.1997 104.2 64.2996 109 68.4996 109.9C72.6996 110.7 77.5997 108.6 80.7997 106.8C85.1997 104.3 90.3996 106.3 90.3996 106.3C90.3996 106.3 88.6996 101.3 85.8996 98.5999C84.2996 97.0999 82.0996 96.3999 79.9996 96.3999C79.1996 96.3999 78.2996 96.4 77.4996 96.7C76.6996 97 75.9997 97.4999 75.2997 97.9999C74.6997 98.3999 74.0997 98.9999 73.2997 99.0999C73.0997 99.0999 72.9997 99.0999 72.7997 99.0999C72.5997 99.0999 72.4996 98.8999 72.4996 98.7999C72.4996 98.6999 72.4996 98.5999 72.4996 98.4999C72.6996 97.3999 73.5997 96.4999 74.1997 95.5999C76.8997 91.9999 75.3996 84.4999 75.3996 84.4999C75.3996 84.4999 71.1997 84.9999 68.2997 86.2999C65.3997 87.6999 63.7996 90.7 62.5996 90.2C61.3996 89.7 62.4996 85.9999 61.0996 82.2999C59.6996 78.5999 55.1997 79.2999 55.1997 79.2999C55.1997 79.2999 55.7997 80.6999 55.1997 83.3999C54.5997 86.0999 51.7996 87.1999 52.3996 92.9999C52.9996 98.7999 58.0996 101.2 58.0996 101.2C57.1996 105 54.4997 112.6 48.4997 114.3V113C48.4997 111.9 47.5996 110.9 46.3996 110.9C45.1996 110.9 44.2997 111.8 44.2997 113V114.4H44.0996Z" fill="#A39C8E"/>
    <path d="M44.0998 60.0999C44.0998 65.5999 43.0998 70.9 41.1998 75.7C41.1998 75.7999 41.0998 75.8999 41.0998 75.9999C39.9998 78.1999 38.4998 79.2999 36.7998 78.9999C34.4998 78.5999 34.2998 75.4999 34.2998 75.4999C32.4998 76.3999 33.3998 79.0999 33.3998 79.0999C33.3998 79.0999 32.7998 78.6 31.6998 78.7C30.5998 78.7999 29.5998 79.9999 29.5998 79.9999C29.5998 79.9999 31.5998 80.0999 32.8998 80.7999C34.1998 81.4999 35.0998 82.8999 33.9998 84.4999C33.8998 84.6999 33.6998 84.8999 33.4998 85.0999C30.7998 87.1999 26.5998 89.6999 21.3998 90.4999C12.7998 91.7999 6.5998 83.9999 5.7998 76.5999H7.39978C8.49978 76.5999 9.49982 75.6999 9.49982 74.4999C9.49982 73.3999 8.59978 72.3999 7.39978 72.3999H6.09979C7.79979 66.3999 15.3998 63.7999 19.1998 62.7999C19.1998 62.7999 21.4998 67.8999 27.3998 68.4999C33.1998 69.0999 34.2998 66.2999 36.9998 65.7C39.6998 65.1 41.0998 65.7 41.0998 65.7C41.0998 65.7 41.7998 61.0999 38.0998 59.7999C34.3998 58.3999 30.6998 59.4999 30.1998 58.2999C29.6998 57.0999 32.6998 55.4999 34.0998 52.5999C35.4998 49.6999 35.8998 45.4999 35.8998 45.4999C35.8998 45.4999 28.3998 43.9 24.7998 46.7C23.8998 47.4 23.0998 48.2999 21.8998 48.3999C21.7998 48.3999 21.6998 48.3999 21.5998 48.3999C21.4998 48.2999 21.2998 48.1999 21.2998 48.0999C21.2998 47.8999 21.2998 47.7999 21.2998 47.5999C21.3998 46.7999 21.9998 46.1999 22.3998 45.5999C22.8998 44.8999 23.3998 44.1999 23.6998 43.3999C23.9998 42.5999 23.9998 41.7999 23.9998 40.8999C23.9998 38.7999 23.2998 36.4999 21.7998 34.9999C19.0998 32.1999 14.0998 30.4999 14.0998 30.4999C14.0998 30.4999 16.1998 35.6999 13.5998 40.0999C11.7998 43.1999 9.59982 48.1999 10.4998 52.3999C11.2998 56.5999 16.1998 59.7 16.1998 59.7C16.1998 59.7 3.19983 61.5999 1.69983 72.4999H0.299805V16.2999C24.4998 16.1999 44.0998 35.7999 44.0998 60.0999Z" fill="#A39C8E"/>
    </svg>
    