<svg width="121" height="121" viewBox="0 0 121 121" fill="none" xmlns="http://www.w3.org/2000/svg">
    <path d="M120.6 0.899902H0.899902V120.5H120.6V0.899902Z" stroke="#5F6180" stroke-width="0.5" stroke-miterlimit="10"/>
    <path d="M116.4 0.899902C116.4 31.5999 91.4999 56.3999 60.7999 56.3999C60.6999 56.3999 60.6999 56.3999 60.5999 56.3999C59.0999 56.3999 57.6999 56.2999 56.2999 56.1999C56.3999 57.5999 56.4999 59.0999 56.4999 60.4999C56.4999 60.5999 56.4999 60.5999 56.4999 60.6999C56.4999 91.3999 31.5999 116.3 0.899902 116.3V120.6C33.9999 120.6 60.7999 93.7999 60.7999 60.6999C93.8999 60.6999 120.7 33.9999 120.7 0.899902H116.4Z" stroke="#5F6180" stroke-width="0.5" stroke-miterlimit="10"/>
    <path d="M120.7 93.7C105.9 93.7 93.8999 105.7 93.8999 120.5H120.7V93.7Z" stroke="#5F6180" stroke-width="0.5" stroke-miterlimit="10"/>
    <path d="M98.1998 120.6C98.1998 120.6 98.0998 114.3 100.6 111.4C103.1 108.4 107.6 111.7 109.4 113C111.2 114.3 113.5 115.1 115 114.4C116.5 113.7 115.5 110.5 114.3 108.7C113.1 106.9 110.6 103.7 111.3 101.6C112 99.5 114.4 97.6 120.5 97.9V120.7H98.1998V120.6Z" stroke="#5F6180" stroke-width="0.5" stroke-miterlimit="10"/>
    <path d="M120.7 114.9C117.6 114.9 115.1 117.4 115.1 120.5H120.7V114.9Z" stroke="#5F6180" stroke-width="0.5" stroke-miterlimit="10"/>
    <path d="M43.5996 109.2C43.5996 109.2 33.4996 118.7 23.5996 120.6H48.9996C48.9996 120.6 43.7996 117.2 43.5996 109.2Z" stroke="#5F6180" stroke-width="0.5" stroke-miterlimit="10"/>
    <path d="M120.6 88.4998C112.6 88.4998 105.2 91.4998 99.5997 96.3998L92.2997 88.9998C88.0997 84.7998 87.1997 78.3998 90.0997 73.2998L90.9997 71.5998C90.9997 71.5998 87.9997 69.6998 85.5997 71.5998C83.8997 72.9998 82.5997 74.3998 81.9997 75.0998C81.7997 75.2998 81.4997 75.2998 81.2997 75.0998L80.9997 74.7998C79.1997 72.9998 76.5997 71.9998 73.9997 72.1998C73.4997 72.1998 72.9997 72.1998 72.5997 71.9998L71.4997 71.5998L71.8997 72.6998C72.0997 73.1998 72.0997 73.5998 72.0997 74.0998C71.8997 76.6998 72.8997 79.1998 74.6997 81.0998L74.9997 81.3998C75.1997 81.5998 75.1997 81.9998 74.9997 82.0998C74.2997 82.6998 72.8997 83.8998 71.4997 85.6998C69.5997 88.0998 71.4997 91.0998 71.4997 91.0998L73.1997 90.1998C78.3997 87.3998 84.7997 88.2998 88.8997 92.3998L96.2997 99.7998C91.4997 105.4 88.5997 112.7 88.5997 120.6H93.7997C93.7997 105.8 105.8 93.6998 120.7 93.6998L120.6 88.4998Z" stroke="#5F6180" stroke-width="0.5" stroke-miterlimit="10"/>
    <path d="M81.2999 120.6C81.2999 120.6 81.2999 117 81.2999 114.4C81.2999 111.8 77.8999 108.9 73.2999 109.7C68.6999 110.4 68.1999 114.4 62.6999 114.4C57.1999 114.4 54.9999 111.5 54.9999 108.7C54.9999 106 56.3999 102.4 61.2999 102.4C66.1999 102.4 67.7999 105.7 67.7999 105.7C67.7999 105.7 68.7999 103.3 68.7999 100.6C68.6999 97.8999 64.7999 95.6999 61.5999 96.8999C61.5999 96.8999 63.5999 94.4999 65.1999 92.1999C66.6999 89.8999 67.1999 87.7999 66.9999 85.5999C66.7999 83.3999 63.8999 81.4999 62.9999 81.0999C62.9999 81.0999 62.2999 85.2999 60.0999 88.2999C57.8999 91.2999 54.1999 95.9999 51.8999 98.4999C49.6999 101 48.0999 106.7 50.0999 110.9C52.0999 115.1 56.0999 118.9 60.1999 120.6H81.2999Z" stroke="#5F6180" stroke-width="0.5" stroke-miterlimit="10"/>
    <path d="M109.3 44.0999C109.3 44.0999 118.8 33.9999 120.7 24.0999V49.4999C120.7 49.4999 117.3 44.2999 109.3 44.0999Z" stroke="#5F6180" stroke-width="0.5" stroke-miterlimit="10"/>
    <path d="M120.6 81.6998C120.6 81.6998 117 81.6998 114.4 81.6998C111.8 81.6998 108.9 78.2998 109.7 73.6998C110.4 69.0998 114.4 68.5998 114.4 63.0998C114.4 57.5998 111.5 55.3998 108.7 55.3998C106 55.3998 102.4 56.7998 102.4 61.6998C102.4 66.5998 105.7 68.1998 105.7 68.1998C105.7 68.1998 103.3 69.1998 100.6 69.1998C97.8996 69.0998 95.6996 65.1998 96.8996 61.9998C96.8996 61.9998 94.4996 63.9998 92.1996 65.5998C89.8996 67.1998 87.7996 67.5998 85.5996 67.3998C83.3996 67.1998 81.4996 64.2998 81.0996 63.3998C81.0996 63.3998 85.2996 62.6998 88.2996 60.4998C91.2996 58.2998 95.9996 54.5998 98.4996 52.2998C101 50.0998 106.7 48.4998 110.9 50.4998C115.1 52.4998 118.9 56.4998 120.6 60.5998V81.6998Z" stroke="#5F6180" stroke-width="0.5" stroke-miterlimit="10"/>
    <path d="M104.6 0.899902C104.5 24.9999 84.8998 44.6999 60.7998 44.6999C55.2998 44.6999 49.9998 43.6999 45.1998 41.7999C44.8998 41.6999 44.5998 41.5999 44.2998 41.4999C42.8998 40.4999 42.2998 39.2999 42.4998 37.9999C42.8998 35.6999 45.9998 35.4999 45.9998 35.4999C45.0998 33.6999 42.3998 34.5999 42.3998 34.5999C42.3998 34.5999 42.8998 33.9999 42.7998 32.8999C42.6998 31.7999 41.4998 30.7999 41.4998 30.7999C41.4998 30.7999 41.3998 32.7999 40.6998 34.0999C39.9998 35.3999 38.0998 36.3999 36.6998 34.9999C34.4998 32.3999 31.4998 27.7999 30.6998 22.0999C29.3998 13.4999 37.1998 7.2999 44.5998 6.4999V7.9999C44.5998 9.0999 45.4998 10.0999 46.6998 10.0999C47.7998 10.0999 48.7998 9.1999 48.7998 7.9999V6.5999C54.7998 8.2999 57.3998 15.8999 58.3998 19.6999C58.3998 19.6999 53.2998 21.9999 52.6998 27.8999C52.0998 33.6999 54.8998 34.7999 55.4998 37.4999C56.0998 40.1999 55.4998 41.5999 55.4998 41.5999C55.4998 41.5999 60.0998 42.2999 61.3998 38.5999C62.7998 34.8999 61.6998 31.0999 62.8998 30.6999C64.0998 30.1999 65.6998 33.1999 68.5998 34.5999C71.4998 35.9999 75.6998 36.3999 75.6998 36.3999C75.6998 36.3999 77.2998 28.8999 74.4998 25.2999C73.7998 24.3999 72.8998 23.5999 72.7998 22.3999C72.7998 22.2999 72.7998 22.1999 72.7998 22.0999C72.8998 21.9999 72.9998 21.7999 73.0998 21.7999C73.2998 21.7999 73.3998 21.7999 73.5998 21.7999C74.3998 21.8999 74.9998 22.4999 75.5998 22.8999C76.2998 23.3999 76.9998 23.8999 77.7998 24.1999C78.5998 24.4999 79.3998 24.4999 80.2998 24.4999C82.3998 24.4999 84.6998 23.7999 86.1998 22.2999C88.9998 19.5999 90.6998 14.5999 90.6998 14.5999C90.6998 14.5999 85.4998 16.6999 81.0998 14.0999C77.9998 12.2999 72.9998 10.0999 68.7998 10.9999C64.5998 11.7999 61.4998 16.6999 61.4998 16.6999C61.4998 16.6999 59.5998 3.6999 48.6998 2.1999V0.899902H44.4998V2.1999C36.0998 2.8999 28.2998 7.4999 26.8998 16.5999C26.3998 19.7999 26.8998 23.3999 28.2998 26.5999C25.0998 23.5999 21.6998 20.1999 20.6998 17.6999C18.5998 12.3999 19.1998 7.3999 20.6998 5.3999C20.6998 5.3999 18.3998 4.7999 16.2998 7.0999C15.3998 8.0999 15.1998 9.4999 15.1998 10.6999C15.1998 11.4999 14.1998 11.7999 13.7998 11.1999C12.4998 9.3999 11.8998 6.8999 9.8998 5.6999C8.9998 5.1999 7.8998 4.7999 6.8998 4.5999C6.4998 4.4999 4.4998 4.5999 4.3998 4.3999C4.5998 4.5999 4.4998 6.4999 4.5998 6.8999C4.7998 7.8999 5.0998 8.9999 5.6998 9.8999C6.8998 11.8999 9.3998 12.4999 11.1998 13.7999C11.7998 14.2999 11.4998 15.2999 10.6998 15.1999C9.4998 15.0999 8.0998 15.2999 7.0998 16.2999C4.6998 18.3999 5.3998 20.6999 5.3998 20.6999C7.3998 19.1999 12.3998 18.5999 17.6998 20.6999C20.0998 21.6999 23.5998 24.9999 26.6998 28.1999C26.1998 27.9999 25.7998 27.7999 25.2998 27.5999C22.8998 26.5999 20.1998 26.0999 17.5998 26.3999C12.8998 26.7999 8.5998 29.3999 5.7998 33.0999C3.3998 36.2999 2.3998 40.1999 2.1998 44.1999H0.899805V48.3999H2.2998C3.7998 59.2999 16.7998 61.1999 16.7998 61.1999C16.7998 61.1999 11.9998 64.2999 11.0998 68.4999C10.2998 72.6999 12.3998 77.5999 14.1998 80.7999C16.6998 85.1999 14.6998 90.3999 14.6998 90.3999C14.6998 90.3999 19.6998 88.6999 22.3998 85.8999C23.8998 84.2999 24.5998 82.0999 24.5998 79.9999C24.5998 79.1999 24.5998 78.2999 24.2998 77.4999C23.9998 76.6999 23.4998 75.9999 22.9998 75.2999C22.5998 74.6999 21.9998 74.0999 21.8998 73.2999C21.8998 73.0999 21.8998 72.9999 21.8998 72.7999C21.8998 72.5999 22.0998 72.4999 22.1998 72.4999C22.2998 72.4999 22.3998 72.4999 22.4998 72.4999C23.5998 72.6999 24.4998 73.5999 25.3998 74.1999C28.9998 76.8999 36.4998 75.3999 36.4998 75.3999C36.4998 75.3999 35.9998 71.1999 34.6998 68.2999C33.2998 65.3999 30.2998 63.7999 30.7998 62.5999C31.2998 61.3999 34.9998 62.4999 38.6998 61.0999C42.3998 59.6999 41.6998 55.1999 41.6998 55.1999C41.6998 55.1999 40.2998 55.7999 37.5998 55.1999C34.8998 54.5999 33.7998 51.7999 27.9998 52.3999C22.1998 52.9999 19.7998 58.0999 19.7998 58.0999C15.9998 56.9999 8.3998 54.2999 6.6998 48.2999H7.9998C9.0998 48.2999 10.0998 47.3999 10.0998 46.1999C10.0998 45.0999 9.1998 44.0999 7.9998 44.0999H6.3998C7.1998 36.5999 13.3998 28.8999 21.9998 30.1999C27.0998 30.9999 31.2998 33.4999 34.0998 35.5999C34.2998 35.7999 34.4998 35.9999 34.5998 36.1999C35.5998 37.7999 34.6998 39.1999 33.4998 39.8999C32.1998 40.5999 30.1998 40.6999 30.1998 40.6999C30.1998 40.6999 31.1998 41.8999 32.2998 41.9999C33.3998 42.0999 33.9998 41.5999 33.9998 41.5999C33.9998 41.5999 33.1998 44.2999 34.8998 45.1999C34.8998 45.1999 35.0998 41.9999 37.3998 41.6999C39.0998 41.3999 40.5998 42.4999 41.6998 44.6999C41.6998 44.7999 41.7998 44.8999 41.7998 44.9999C43.5998 49.7999 44.6998 55.0999 44.6998 60.5999C44.6998 84.7999 25.0998 104.5 0.799805 104.5V108.8C27.3998 108.8 48.8998 87.2999 48.8998 60.6999C48.8998 55.8999 48.1998 51.2999 46.8998 46.8999C51.2998 48.1999 55.8998 48.8999 60.6998 48.8999C87.1998 48.8999 108.7 27.2999 108.8 0.899902H104.6Z" stroke="#5F6180" stroke-width="0.5" stroke-miterlimit="10"/>
    </svg>
    