<svg width="120" height="121" viewBox="0 0 120 121" fill="none" xmlns="http://www.w3.org/2000/svg">
    <path d="M119.8 0.599854H0.100098V120.3H119.8V0.599854Z" fill="#D3CEC3"/>
    <path d="M115.5 120.3C115.5 89.6 90.6 64.7 59.9 64.7C59.8 64.7 59.8 64.7 59.7 64.7C58.2 64.7 56.8 64.8 55.4 64.9C55.5 63.5 55.6 62 55.6 60.6C55.6 60.5 55.6 60.5 55.6 60.4C55.6 29.7 30.7 4.8 0 4.8V0.5C33.1 0.5 59.9 27.3 59.9 60.4C93 60.4 119.8 87.2 119.8 120.3H115.5Z" fill="#112337"/>
    <path d="M119.8 27.3998C105 27.3998 93 15.3999 93 0.599854H119.8V27.3998Z" fill="#484D49"/>
    <path d="M97.2999 0.599998C97.2999 0.599998 97.1999 6.9 99.6999 9.8C102.2 12.8 106.7 9.5 108.5 8.2C110.4 6.9 112.6 6.1 114.1 6.8C115.6 7.5 114.6 10.7 113.4 12.5C112.2 14.3 109.7 17.5 110.4 19.6C111.1 21.7 113.5 23.6 119.6 23.3V0.5H97.2999V0.599998Z" fill="#A39C8E"/>
    <path d="M119.8 6.19985C116.7 6.19985 114.2 3.69985 114.2 0.599854H119.8V6.19985Z" fill="#D3CEC3"/>
    <path d="M42.7002 11.9999C42.7002 11.9999 32.6002 2.49985 22.7002 0.599854H48.1002C48.2002 0.599854 42.9002 3.89985 42.7002 11.9999Z" fill="#112337"/>
    <path d="M119.7 32.5999C111.7 32.5999 104.3 29.5999 98.6998 24.6999L91.3998 31.9999C87.1998 36.1999 86.2998 42.5999 89.1998 47.6999L90.0998 49.3999C90.0998 49.3999 87.0998 51.2999 84.6998 49.3999C82.9998 47.9999 81.6998 46.5999 81.0998 45.8999C80.8998 45.6999 80.5998 45.6999 80.3998 45.8999L80.0998 46.1999C78.2998 47.9999 75.6998 48.9999 73.0998 48.7999C72.5998 48.7999 72.0998 48.7999 71.6998 48.9999L70.5998 49.3999L70.9998 48.2999C71.1998 47.7999 71.1998 47.3999 71.1998 46.8999C70.9998 44.2999 71.9998 41.7999 73.7998 39.8999L74.0998 39.5999C74.2998 39.3999 74.2998 38.9999 74.0998 38.8999C73.3998 38.2999 71.9998 37.0999 70.5998 35.2999C68.6998 32.8999 70.5998 29.8999 70.5998 29.8999L72.2998 30.7999C77.4998 33.5999 83.8998 32.6999 87.9998 28.5999L95.3998 21.1999C90.5998 15.5999 87.6998 8.2999 87.6998 0.399902H92.8998C92.8998 15.1999 104.9 27.2999 119.8 27.2999L119.7 32.5999Z" fill="#112337"/>
    <path d="M80.4 0.599854C80.4 0.599854 80.4 4.19986 80.4 6.79986C80.4 9.39986 77 12.2999 72.4 11.4999C67.8 10.7999 67.4 6.79986 61.8 6.79986C56.2 6.79986 54.1 9.69985 54.1 12.4999C54.1 15.1999 55.5 18.7999 60.4 18.7999C65.3 18.7999 66.9 15.4999 66.9 15.4999C66.9 15.4999 67.9 17.8999 67.9 20.5999C67.9 23.2999 63.9 25.3999 60.7 24.2999C60.7 24.2999 62.7 26.6999 64.3 28.9999C65.8 31.2999 66.3 33.3999 66.1 35.5999C65.9 37.7999 63 39.6999 62.1 40.0999C62.1 40.0999 61.4 35.8998 59.2 32.8998C57 29.8998 53.3 25.1999 51 22.6999C48.8 20.1999 47.2 14.4999 49.2 10.2999C51.2 6.09986 55.2 2.29985 59.3 0.599854H80.4Z" fill="#112337"/>
    <path d="M108.4 76.9998C108.4 76.9998 117.9 87.0998 119.8 96.9998V71.5999C119.8 71.5999 116.4 76.8998 108.4 76.9998Z" fill="#112337"/>
    <path d="M119.7 39.3999C119.7 39.3999 116.1 39.3999 113.5 39.3999C110.9 39.3999 108 42.7999 108.8 47.3999C109.5 51.9999 113.5 52.3999 113.5 57.9999C113.5 63.5999 110.6 65.6999 107.8 65.6999C105 65.6999 101.5 64.2999 101.5 59.3999C101.5 54.4999 104.8 52.8999 104.8 52.8999C104.8 52.8999 102.4 51.8999 99.7002 51.8999C97.0002 51.9999 94.9002 55.8999 96.0002 59.0999C96.0002 59.0999 93.6002 57.0999 91.3002 55.4999C89.0002 53.9999 86.9002 53.4999 84.7002 53.6999C82.5002 53.8999 80.6002 56.7999 80.2002 57.6999C80.2002 57.6999 84.4002 58.3999 87.4002 60.5999C90.4002 62.7999 95.1002 66.4999 97.6002 68.7999C100.1 70.9999 105.8 72.5999 110 70.5999C114.2 68.5999 118 64.5999 119.7 60.4999V39.3999Z" fill="#112337"/>
    <path d="M103.8 120.1C103.7 95.9998 84.1001 76.3998 60.0001 76.3998C54.5001 76.3998 49.2001 77.3998 44.4001 79.2998C44.1001 79.3998 43.8001 79.4998 43.5001 79.5998C42.1001 80.5998 41.5001 81.7998 41.7001 83.0998C42.1001 85.3998 45.2001 85.5998 45.2001 85.5998C44.3001 87.3998 41.6001 86.4998 41.6001 86.4998C41.6001 86.4998 42.1001 87.0998 42.0001 88.1998C41.9001 89.2998 40.7001 90.2998 40.7001 90.2998C40.7001 90.2998 40.6001 88.2998 39.9001 86.9998C39.2001 85.6998 37.3001 84.6998 35.9001 86.0998C33.7001 88.6998 30.7001 93.2998 29.9001 98.9998C28.6001 107.6 36.4001 113.8 43.8001 114.6V113C43.8001 111.9 44.7001 110.9 45.9001 110.9C47.0001 110.9 48.0001 111.8 48.0001 113V114.3C54.0001 112.6 56.6001 105 57.6001 101.2C57.6001 101.2 52.5001 98.8998 51.9001 92.9998C51.3001 87.1998 54.1001 86.0998 54.7001 83.3998C55.3001 80.6998 54.7001 79.2998 54.7001 79.2998C54.7001 79.2998 59.3001 78.5998 60.6001 82.2998C62.0001 85.9998 60.9001 89.7998 62.1001 90.1998C63.3001 90.6998 64.9001 87.6998 67.8001 86.2998C70.7001 84.8998 74.9001 84.4998 74.9001 84.4998C74.9001 84.4998 76.5001 91.9998 73.7001 95.5998C73.0001 96.4998 72.1001 97.2998 72.0001 98.4998C72.0001 98.5998 72.0001 98.6998 72.0001 98.7998C72.1001 98.8998 72.2001 99.0998 72.3001 99.0998C72.5001 99.0998 72.6001 99.0998 72.8001 99.0998C73.6001 98.9998 74.2001 98.3998 74.8001 97.9998C75.5001 97.4998 76.2001 96.9998 77.0001 96.6998C77.8001 96.3998 78.6001 96.3998 79.5001 96.3998C81.6001 96.3998 83.9001 97.0998 85.4001 98.5998C88.2001 101.3 89.9001 106.3 89.9001 106.3C89.9001 106.3 84.7001 104.2 80.3001 106.8C77.2001 108.6 72.2001 110.8 68.0001 109.9C63.8001 109.1 60.7001 104.2 60.7001 104.2C60.7001 104.2 58.8001 117.2 47.9001 118.7V120.1H43.7001V119C35.3001 118.3 27.5001 113.7 26.1001 104.6C25.6001 101.4 26.1001 97.7998 27.5001 94.5998C24.3001 97.5998 20.9001 101 19.9001 103.5C17.8001 108.8 18.4001 113.8 19.9001 115.8C19.9001 115.8 17.6001 116.4 15.5001 114.1C14.6001 113.1 14.4001 111.7 14.4001 110.5C14.4001 109.7 13.4001 109.4 13.0001 110C11.7001 111.8 11.1001 114.3 9.1001 115.5C8.2001 116 7.1001 116.4 6.1001 116.6C5.7001 116.7 3.7001 116.6 3.6001 116.8C3.8001 116.6 3.7001 114.7 3.8001 114.3C4.0001 113.3 4.3001 112.2 4.9001 111.3C6.1001 109.3 8.6001 108.7 10.4001 107.4C11.0001 106.9 10.7001 105.9 9.9001 106C8.7001 106.1 7.3001 105.9 6.3001 104.9C3.9001 102.8 4.6001 100.5 4.6001 100.5C6.6001 102 11.6001 102.6 16.9001 100.5C19.3001 99.4998 22.8001 96.1998 25.9001 92.9998C25.4001 93.1998 25.0001 93.3998 24.5001 93.5998C22.1001 94.5998 19.4001 95.0998 16.8001 94.7998C12.2001 94.3998 7.8001 91.7998 5.0001 88.0998C2.6001 84.8998 1.6001 80.9998 1.4001 76.9998H0.100098V72.7998H1.5001C3.0001 61.9998 15.9001 59.9998 15.9001 59.9998C15.9001 59.9998 11.1001 56.8998 10.2001 52.6998C9.4001 48.4998 11.5001 43.5998 13.3001 40.3998C15.8001 35.9998 13.8001 30.7998 13.8001 30.7998C13.8001 30.7998 18.8001 32.4998 21.5001 35.2998C23.0001 36.8998 23.7001 39.0998 23.7001 41.1998C23.7001 41.9998 23.7001 42.8998 23.4001 43.6998C23.1001 44.4998 22.6001 45.1998 22.1001 45.8998C21.7001 46.4998 21.1001 47.0998 21.0001 47.8998C21.0001 48.0998 21.0001 48.1998 21.0001 48.3998C21.0001 48.5998 21.2001 48.6998 21.3001 48.6998C21.4001 48.6998 21.5001 48.6998 21.6001 48.6998C22.7001 48.4998 23.6001 47.5998 24.5001 46.9998C28.1001 44.2998 35.6001 45.7998 35.6001 45.7998C35.6001 45.7998 35.1001 49.9998 33.8001 52.8998C32.4001 55.7998 29.4001 57.3998 29.9001 58.5998C30.4001 59.7998 34.1001 58.6998 37.8001 60.0998C41.5001 61.4998 40.8001 65.9998 40.8001 65.9998C40.8001 65.9998 39.4001 65.3998 36.7001 65.9998C34.0001 66.5998 32.9001 69.3998 27.1001 68.7998C21.3001 68.1998 18.9001 63.0998 18.9001 63.0998C15.1001 63.9998 7.5001 66.6998 5.8001 72.6998H7.1001C8.2001 72.6998 9.2001 73.5998 9.2001 74.7998C9.2001 75.8998 8.3001 76.8998 7.1001 76.8998H5.6001C6.4001 84.3998 12.6001 92.0998 21.2001 90.7998C26.3001 89.9998 30.5001 87.4998 33.3001 85.3998C33.5001 85.1998 33.7001 84.9998 33.8001 84.7998C34.8001 83.1998 33.9001 81.7998 32.7001 81.0998C31.5001 80.3998 29.4001 80.2998 29.4001 80.2998C29.4001 80.2998 30.4001 79.0998 31.5001 78.9998C32.6001 78.8998 33.2001 79.3998 33.2001 79.3998C33.2001 79.3998 32.4001 76.6998 34.1001 75.7998C34.1001 75.7998 34.3001 78.9998 36.6001 79.2998C38.3001 79.5998 39.8001 78.4998 40.9001 76.2998C40.9001 76.1998 41.0001 76.0998 41.0001 75.9998C42.8001 71.1998 43.9001 65.8998 43.9001 60.3998C43.9001 36.1998 24.3001 16.5998 0.100098 16.5998V12.2998C26.7001 12.2998 48.2001 33.7998 48.2001 60.3998C48.2001 65.1998 47.5001 69.7998 46.2001 74.1998C50.6001 72.8998 55.2001 72.1998 60.0001 72.1998C86.5001 72.1998 108 93.5998 108.1 120.1H103.8Z" fill="#6A6257"/>
    <path d="M5.0001 88C7.8001 91.7 12.2001 94.3 16.8001 94.7C19.4001 94.9 22.1001 94.5 24.5001 93.5C25.0001 93.3 25.4001 93.1 25.9001 92.9C22.8001 96.1 19.4001 99.4 16.9001 100.4C11.6001 102.5 6.6001 101.9 4.6001 100.4C4.6001 100.4 4.0001 102.7 6.3001 104.8C7.3001 105.7 8.7001 105.9 9.9001 105.9C10.7001 105.9 11.0001 106.9 10.4001 107.3C8.6001 108.6 6.1001 109.2 4.9001 111.2C4.4001 112.1 4.0001 113.2 3.8001 114.2C3.7001 114.6 3.8001 116.6 3.6001 116.7C3.8001 116.5 5.7001 116.6 6.1001 116.5C7.1001 116.3 8.2001 116 9.1001 115.4C11.1001 114.2 11.7001 111.7 13.0001 109.9C13.5001 109.3 14.5001 109.6 14.4001 110.4C14.3001 111.6 14.5001 113 15.5001 114C17.6001 116.4 19.9001 115.7 19.9001 115.7C18.4001 113.7 17.8001 108.7 19.9001 103.4C20.9001 100.9 24.3001 97.5 27.5001 94.5C26.1001 97.7 25.6001 101.3 26.1001 104.5C27.5001 113.6 35.3001 118.2 43.7001 118.9V120.3H0.100098V77H1.4001C1.6001 80.9 2.6001 84.9 5.0001 88Z" fill="#B1BFD6"/>
    <path d="M43.9 114.8C36.4 114 28.7 107.8 30 99.1998C30.8 93.4998 33.8 88.8999 36 86.2999C37.4 84.9999 39.2 85.9998 40 87.1998C40.7 88.4998 40.8 90.4998 40.8 90.4998C40.8 90.4998 42 89.4998 42.1 88.3998C42.2 87.2998 41.7 86.6998 41.7 86.6998C41.7 86.6998 44.4 87.4999 45.3 85.7999C45.3 85.7999 42.1 85.5999 41.8 83.2999C41.6 81.9999 42.2 80.7999 43.6 79.7999C43.9 79.6999 44.2 79.5998 44.5 79.4998C49.3 77.6998 54.6 76.5999 60.1 76.5999C84.3 76.5999 103.8 96.0998 103.9 120.3V120.5H48.1V119.1C59 117.6 60.9 104.6 60.9 104.6C60.9 104.6 64 109.4 68.2 110.3C72.4 111.1 77.3 109 80.5 107.2C84.9 104.7 90.1 106.7 90.1 106.7C90.1 106.7 88.4 101.7 85.6 98.9998C84 97.4998 81.8 96.7999 79.7 96.7999C78.9 96.7999 78 96.7999 77.2 97.0999C76.4 97.3999 75.7 97.8998 75 98.3998C74.4 98.7998 73.8 99.3998 73 99.4998C72.8 99.4998 72.7 99.4998 72.5 99.4998C72.3 99.4998 72.2 99.2998 72.2 99.1998C72.2 99.0998 72.2 98.9998 72.2 98.8998C72.4 97.7998 73.3 96.8998 73.9 95.9998C76.6 92.3998 75.1 84.8998 75.1 84.8998C75.1 84.8998 70.9 85.3998 68 86.6998C65.1 88.0998 63.5 91.0999 62.3 90.5999C61.1 90.0999 62.2 86.3998 60.8 82.6998C59.4 78.9998 54.9 79.6998 54.9 79.6998C54.9 79.6998 55.5 81.0999 54.9 83.7999C54.3 86.4999 51.5 87.5998 52.1 93.3998C52.7 99.1998 57.8 101.6 57.8 101.6C56.9 105.4 54.2 113 48.2 114.7V113.4C48.2 112.3 47.3 111.3 46.1 111.3C45 111.3 44 112.2 44 113.4V114.8H43.9Z" fill="#A39C8E"/>
    <path d="M43.9001 60.4998C43.9001 65.9998 42.9001 71.2999 41.0001 76.0999C41.0001 76.1999 40.9001 76.2998 40.9001 76.3998C39.8001 78.5998 38.3001 79.6998 36.6001 79.3998C34.3001 78.9998 34.1001 75.8998 34.1001 75.8998C32.3001 76.7998 33.2001 79.4998 33.2001 79.4998C33.2001 79.4998 32.6001 78.9999 31.5001 79.0999C30.4001 79.1999 29.4001 80.3998 29.4001 80.3998C29.4001 80.3998 31.4001 80.4998 32.7001 81.1998C34.0001 81.8998 34.9001 83.2998 33.8001 84.8998C33.7001 85.0998 33.5001 85.2999 33.3001 85.4998C30.6001 87.5998 26.4001 90.0998 21.2001 90.8998C12.6001 92.1998 6.4001 84.3998 5.6001 76.9998H7.2001C8.3001 76.9998 9.3001 76.0998 9.3001 74.8998C9.3001 73.7998 8.4001 72.7999 7.2001 72.7999H5.8001C7.5001 66.7999 15.1001 64.1998 18.9001 63.1998C18.9001 63.1998 21.2001 68.2998 27.1001 68.8998C32.9001 69.4998 34.0001 66.6999 36.7001 66.0999C39.4001 65.4999 40.8001 66.0999 40.8001 66.0999C40.8001 66.0999 41.5001 61.4998 37.8001 60.1998C34.1001 58.7998 30.4001 59.8998 29.9001 58.6998C29.4001 57.4998 32.4001 55.8998 33.8001 52.9998C35.2001 50.0998 35.6001 45.8998 35.6001 45.8998C35.6001 45.8998 28.1001 44.2999 24.5001 47.0999C23.6001 47.7999 22.8001 48.6999 21.6001 48.7999C21.5001 48.7999 21.4001 48.7999 21.3001 48.7999C21.2001 48.6999 21.0001 48.5998 21.0001 48.4998C21.0001 48.2998 21.0001 48.1998 21.0001 47.9998C21.1001 47.1998 21.7001 46.5998 22.1001 45.9998C22.6001 45.2998 23.1001 44.5998 23.4001 43.7999C23.7001 42.9999 23.7001 42.1999 23.7001 41.2999C23.7001 39.1999 23.0001 36.8998 21.5001 35.3998C18.8001 32.5998 13.8001 30.8998 13.8001 30.8998C13.8001 30.8998 15.9001 36.0998 13.3001 40.4998C11.5001 43.5998 9.3001 48.5998 10.2001 52.7999C11.0001 56.9999 15.9001 60.0999 15.9001 60.0999C15.9001 60.0999 3.0001 61.9999 1.5001 72.7999H0.100098V16.5999C24.3001 16.5999 43.9001 36.1998 43.9001 60.4998Z" fill="#A39C8E"/>
    </svg>
    