<svg width="240" height="241" viewBox="0 0 240 241" fill="none" xmlns="http://www.w3.org/2000/svg">
    <path d="M119.8 0.800049H0.100098V120.5H119.8V0.800049Z" fill="#D3CEC3"/>
    <path d="M115.5 0.800049C115.5 31.5 90.6 56.4001 59.9 56.4001C59.8 56.4001 59.8 56.4001 59.7 56.4001C58.2 56.4001 56.8 56.3 55.4 56.2001C55.5 57.6001 55.6 59.1 55.6 60.5C55.6 60.6 55.6 60.6001 55.6 60.7001C55.6 91.4001 30.7 116.3 0 116.3V120.6C33.1 120.6 59.9 93.8 59.9 60.7001C93 60.7001 119.8 33.9 119.8 0.800049H115.5Z" fill="#112337"/>
    <path d="M119.8 93.7C105 93.7 93 105.7 93 120.5H119.8V93.7Z" fill="#484D49"/>
    <path d="M97.2999 120.5C97.2999 120.5 97.1999 114.2 99.6999 111.3C102.2 108.3 106.7 111.6 108.5 112.9C110.3 114.2 112.6 115 114.1 114.3C115.6 113.6 114.6 110.4 113.4 108.6C112.2 106.8 109.7 103.6 110.4 101.5C111.1 99.4001 113.5 97.5001 119.6 97.8001V120.6H97.2999V120.5Z" fill="#A39C8E"/>
    <path d="M119.8 114.9C116.7 114.9 114.2 117.4 114.2 120.5H119.8V114.9Z" fill="#D3CEC3"/>
    <path d="M42.7002 109.2C42.7002 109.2 32.6002 118.7 22.7002 120.6H48.1002C48.2002 120.6 42.9002 117.2 42.7002 109.2Z" fill="#112337"/>
    <path d="M119.7 88.5001C111.7 88.5001 104.3 91.5001 98.6998 96.4001L91.3998 89.0001C87.1998 84.8001 86.2998 78.4001 89.1998 73.3001L90.0998 71.6001C90.0998 71.6001 87.0998 69.7001 84.6998 71.6001C82.9998 73.0001 81.6998 74.4001 81.0998 75.1001C80.8998 75.3001 80.5998 75.3001 80.3998 75.1001L80.0998 74.8001C78.2998 73.0001 75.6998 72.0001 73.0998 72.2001C72.5998 72.2001 72.0998 72.2001 71.6998 72.0001L70.5998 71.6001L70.9998 72.7001C71.1998 73.2001 71.1998 73.6001 71.1998 74.1001C70.9998 76.7001 71.9998 79.2001 73.7998 81.1001L74.0998 81.4001C74.2998 81.6001 74.2998 82.0001 74.0998 82.1001C73.3998 82.7001 71.9998 83.9001 70.5998 85.7001C68.6998 88.1001 70.5998 91.1001 70.5998 91.1001L72.2998 90.2001C77.4998 87.4001 83.8998 88.3001 87.9998 92.4001L95.3998 99.8001C90.5998 105.4 87.6998 112.7 87.6998 120.6H92.8998C92.8998 105.8 104.9 93.7001 119.8 93.7001L119.7 88.5001Z" fill="#112337"/>
    <path d="M80.3999 120.5C80.3999 120.5 80.3999 116.9 80.3999 114.3C80.3999 111.7 76.9999 108.8 72.3999 109.6C67.7999 110.3 67.3999 114.3 61.7999 114.3C56.1999 114.3 54.0999 111.4 54.0999 108.6C54.0999 105.8 55.4999 102.3 60.3999 102.3C65.2999 102.3 66.8999 105.6 66.8999 105.6C66.8999 105.6 67.8999 103.2 67.8999 100.5C67.7999 97.8 63.8999 95.7 60.6999 96.8C60.6999 96.8 62.6999 94.4 64.2999 92.1C65.7999 89.8 66.2999 87.7 66.0999 85.5C65.8999 83.3 62.9999 81.4 61.9999 81C61.9999 81 61.2999 85.2 59.0999 88.2C56.8999 91.2 53.1999 95.9 50.8999 98.4C48.6999 100.9 47.0999 106.6 49.0999 110.8C51.0999 115 55.0999 118.8 59.1999 120.5H80.3999Z" fill="#112337"/>
    <path d="M108.4 44.1001C108.4 44.1001 117.9 34.0001 119.8 24.1001V49.5001C119.8 49.5001 116.4 44.3001 108.4 44.1001Z" fill="#112337"/>
    <path d="M119.7 81.7C119.7 81.7 116.1 81.7 113.5 81.7C110.9 81.7 108 78.3 108.8 73.7C109.6 69.1 113.5 68.7 113.5 63.1C113.5 57.5 110.6 55.4 107.8 55.4C105.1 55.4 101.5 56.8 101.5 61.7C101.5 66.6 104.8 68.2 104.8 68.2C104.8 68.2 102.4 69.2 99.7002 69.2C97.0002 69.1 94.9002 65.2 96.0002 62C96.0002 62 93.6002 64 91.3002 65.6C89.0002 67.1 86.9002 67.6 84.7002 67.4C82.5002 67.2 80.6002 64.3 80.2002 63.4C80.2002 63.4 84.4002 62.7 87.4002 60.5C90.4002 58.3 95.1002 54.6 97.6002 52.3C100.1 50.1 105.8 48.5 110 50.5C114.2 52.5 118 56.5 119.7 60.6V81.7Z" fill="#112337"/>
    <path d="M103.8 1.00005C103.7 25.1 84.1001 44.7001 60.0001 44.7001C54.5001 44.7001 49.2001 43.7001 44.4001 41.8C44.1001 41.7001 43.8001 41.6 43.5001 41.5C42.1001 40.5 41.5001 39.3 41.7001 38C42.1001 35.7001 45.2001 35.5 45.2001 35.5C44.3001 33.7001 41.6001 34.6 41.6001 34.6C41.6001 34.6 42.1001 34 42.0001 32.9001C41.9001 31.8001 40.7001 30.8 40.7001 30.8C40.7001 30.8 40.6001 32.8 39.9001 34.1C39.2001 35.4 37.3001 36.4001 35.9001 35C33.7001 32.4 30.7001 27.8 29.9001 22.1C28.6001 13.5 36.4001 7.30005 43.8001 6.50005V8.00005C43.8001 9.10005 44.7001 10.1 45.9001 10.1C47.0001 10.1 48.0001 9.20005 48.0001 8.00005V6.60005C54.0001 8.30005 56.6001 15.9001 57.6001 19.7001C57.6001 19.7001 52.5001 22 51.9001 27.9C51.3001 33.7001 54.1001 34.8 54.7001 37.5C55.3001 40.2001 54.7001 41.6 54.7001 41.6C54.7001 41.6 59.3001 42.3 60.6001 38.6C62.0001 34.9 60.9001 31.1 62.1001 30.7001C63.3001 30.2001 64.9001 33.2 67.8001 34.6C70.7001 36 74.9001 36.4001 74.9001 36.4001C74.9001 36.4001 76.5001 28.9 73.7001 25.3C73.0001 24.4 72.1001 23.6 72.0001 22.4C72.0001 22.3 72.0001 22.2001 72.0001 22.1C72.1001 22 72.2001 21.8 72.3001 21.8C72.5001 21.8 72.6001 21.8 72.8001 21.8C73.6001 21.9 74.2001 22.5 74.8001 22.9C75.5001 23.4 76.2001 23.9001 77.0001 24.2001C77.8001 24.5 78.6001 24.5 79.5001 24.5C81.6001 24.5 83.9001 23.8 85.4001 22.3C88.2001 19.6 89.9001 14.6 89.9001 14.6C89.9001 14.6 84.7001 16.7 80.3001 14.1C77.2001 12.3 72.2001 10.1 68.0001 11C63.8001 11.8 60.7001 16.7 60.7001 16.7C60.7001 16.7 58.8001 3.70005 47.9001 2.20005V0.800049H43.7001V2.20005C35.3001 2.90005 27.5001 7.50005 26.1001 16.6C25.6001 19.8 26.1001 23.4 27.5001 26.6C24.3001 23.6 20.9001 20.2001 19.9001 17.7001C17.8001 12.4001 18.4001 7.40005 19.9001 5.40005C19.9001 5.40005 17.6001 4.80005 15.5001 7.10005C14.6001 8.10005 14.4001 9.50005 14.4001 10.7C14.4001 11.5 13.4001 11.8 13.0001 11.2C11.7001 9.40005 11.1001 6.90005 9.1001 5.70005C8.2001 5.20005 7.1001 4.80005 6.1001 4.60005C5.7001 4.50005 3.7001 4.60005 3.6001 4.40005C3.8001 4.60005 3.7001 6.50005 3.8001 6.90005C4.0001 7.90005 4.3001 9.00005 4.9001 9.90005C6.1001 11.9 8.6001 12.5 10.4001 13.8C11.0001 14.3 10.7001 15.3 9.9001 15.2C8.7001 15.1 7.3001 15.3 6.3001 16.3C3.9001 18.4 4.6001 20.7001 4.6001 20.7001C6.6001 19.2001 11.6001 18.6 16.9001 20.7001C19.3001 21.7001 22.8001 25 25.9001 28.2001C25.4001 28 25.0001 27.8001 24.5001 27.6C22.1001 26.6 19.4001 26.1 16.8001 26.4C12.2001 26.8 7.8001 29.4 5.0001 33.1C2.6001 36.3 1.6001 40.2001 1.4001 44.2001H0.100098V48.4001H1.5001C3.0001 59.2001 15.9001 61.1 15.9001 61.1C15.9001 61.1 11.1001 64.2 10.2001 68.4C9.4001 72.6 11.5001 77.5 13.3001 80.7C15.8001 85.1 13.8001 90.3 13.8001 90.3C13.8001 90.3 18.8001 88.6001 21.5001 85.8C23.0001 84.2001 23.7001 82 23.7001 79.9C23.7001 79.1 23.7001 78.2001 23.4001 77.4C23.1001 76.6 22.6001 75.9 22.1001 75.2C21.7001 74.6 21.1001 74 21.0001 73.2C21.0001 73 21.0001 72.9 21.0001 72.7C21.0001 72.5 21.2001 72.4 21.3001 72.4C21.4001 72.4 21.5001 72.4 21.6001 72.4C22.7001 72.6 23.6001 73.5 24.5001 74.1C28.1001 76.8 35.6001 75.3 35.6001 75.3C35.6001 75.3 35.1001 71.1 33.8001 68.2C32.4001 65.3 29.4001 63.7001 29.9001 62.5C30.4001 61.3 34.1001 62.4001 37.8001 61C41.5001 59.6 40.8001 55.1 40.8001 55.1C40.8001 55.1 39.4001 55.7 36.7001 55.1C34.0001 54.5 32.9001 51.7001 27.1001 52.3C21.3001 52.9 18.9001 58 18.9001 58C15.2001 57 7.6001 54.3 5.8001 48.3H7.1001C8.2001 48.3 9.2001 47.4001 9.2001 46.2001C9.2001 45.1001 8.3001 44.1 7.1001 44.1H5.6001C6.4001 36.6 12.6001 28.9001 21.2001 30.2001C26.3001 31 30.5001 33.5 33.3001 35.6C33.5001 35.8 33.7001 36 33.8001 36.2001C34.8001 37.8 33.9001 39.2001 32.7001 39.9001C31.5001 40.6001 29.4001 40.7001 29.4001 40.7001C29.4001 40.7001 30.4001 41.9001 31.5001 42C32.6001 42.1 33.2001 41.6 33.2001 41.6C33.2001 41.6 32.4001 44.3 34.1001 45.2001C34.1001 45.2001 34.3001 42 36.6001 41.7001C38.3001 41.4001 39.8001 42.5 40.9001 44.7001C40.9001 44.8 41.0001 44.9001 41.0001 45C42.8001 49.8 43.9001 55.1 43.9001 60.6C43.9001 84.8 24.3001 104.4 0.100098 104.4V108.7C26.7001 108.7 48.2001 87.2001 48.2001 60.6C48.2001 55.8 47.5001 51.2001 46.2001 46.8C50.6001 48.1 55.2001 48.8 60.0001 48.8C86.5001 48.8 108 27.4 108.1 0.900049H103.8V1.00005Z" fill="#6A6257"/>
    <path d="M5.0001 33.1C7.8001 29.4 12.2001 26.8 16.8001 26.4C19.4001 26.2 22.1001 26.6 24.5001 27.6C25.0001 27.8001 25.4001 28 25.9001 28.2001C22.8001 25 19.4001 21.7001 16.9001 20.7001C11.6001 18.6 6.6001 19.2001 4.6001 20.7001C4.6001 20.7001 4.0001 18.4 6.3001 16.3C7.3001 15.4 8.7001 15.2 9.9001 15.2C10.7001 15.2 11.0001 14.2 10.4001 13.8C8.7001 12.5 6.1001 12 5.0001 9.90005C4.5001 9.00005 4.1001 7.90005 3.9001 6.90005C3.8001 6.50005 3.9001 4.50005 3.7001 4.40005C3.9001 4.60005 5.8001 4.50005 6.2001 4.60005C7.2001 4.80005 8.3001 5.10005 9.2001 5.70005C11.2001 6.90005 11.8001 9.40005 13.1001 11.2C13.6001 11.8 14.6001 11.5 14.5001 10.7C14.4001 9.50005 14.6001 8.10005 15.6001 7.10005C17.7001 4.70005 20.0001 5.40005 20.0001 5.40005C18.5001 7.40005 17.9001 12.4001 20.0001 17.7001C21.0001 20.2001 24.4001 23.6 27.6001 26.6C26.2001 23.4 25.7001 19.8 26.2001 16.6C27.6001 7.50005 35.4001 2.90005 43.8001 2.20005V0.800049H0.100098V44.1H1.4001C1.6001 40.2 2.6001 36.3 5.0001 33.1Z" fill="#B1BFD6"/>
    <path d="M43.9 6.30005C36.4 7.10005 28.7 13.3 30 21.9C30.8 27.6 33.8 32.2 36 34.8C37.4 36.1 39.2 35.1001 40 33.9001C40.7 32.6001 40.8 30.6 40.8 30.6C40.8 30.6 42 31.6 42.1 32.7001C42.2 33.8 41.7 34.4001 41.7 34.4001C41.7 34.4001 44.4 33.6 45.3 35.3C45.3 35.3 42.1 35.5 41.8 37.8C41.6 39.1 42.2 40.3 43.6 41.3C43.9 41.4 44.2 41.5 44.5 41.6C49.3 43.4 54.6 44.5 60.1 44.5C84.3 44.5 103.8 25 103.9 0.800049H48.1V2.20005C59 3.70005 60.9 16.7 60.9 16.7C60.9 16.7 64 11.9 68.2 11C72.4 10.2 77.3 12.3 80.5 14.1C84.9 16.6 90.1 14.6 90.1 14.6C90.1 14.6 88.4 19.6 85.6 22.3C84 23.8 81.8 24.5 79.7 24.5C78.9 24.5 78 24.5 77.2 24.2001C76.4 23.9001 75.7 23.4 75 22.9C74.4 22.5 73.8 21.9 73 21.8C72.8 21.8 72.7 21.8 72.5 21.8C72.3 21.8 72.2 22 72.2 22.1C72.2 22.2001 72.2 22.3 72.2 22.4C72.4 23.5 73.3 24.4 73.9 25.3C76.6 28.9 75.1 36.4001 75.1 36.4001C75.1 36.4001 70.9 35.9 68 34.6C65.1 33.2 63.5 30.2001 62.3 30.7001C61.1 31.2001 62.2 34.9 60.8 38.6C59.4 42.3 54.9 41.6 54.9 41.6C54.9 41.6 55.5 40.2001 54.9 37.5C54.3 34.8 51.5 33.7001 52.1 27.9C52.7 22.1 57.8 19.7001 57.8 19.7001C56.9 15.9001 54.2 8.30005 48.2 6.60005V8.00005C48.2 9.10005 47.3 10.1 46.1 10.1C45 10.1 44 9.20005 44 8.00005V6.30005H43.9Z" fill="#A39C8E"/>
    <path d="M43.9001 60.7C43.9001 55.2 42.9001 49.9 41.0001 45.1C41.0001 45 40.9001 44.9 40.9001 44.8C39.8001 42.6 38.3001 41.5 36.6001 41.8C34.3001 42.2 34.1001 45.3 34.1001 45.3C32.3001 44.4 33.2001 41.7 33.2001 41.7C33.2001 41.7 32.6001 42.2 31.5001 42.1C30.4001 42 29.4001 40.8 29.4001 40.8C29.4001 40.8 31.4001 40.7 32.7001 40C34.0001 39.3 34.9001 37.9 33.8001 36.3C33.7001 36.1 33.5001 35.9 33.3001 35.7C30.6001 33.6 26.4001 31.1 21.2001 30.3C12.5001 29 6.3001 36.7 5.6001 44.2H7.2001C8.3001 44.2 9.3001 45.1 9.3001 46.3C9.3001 47.4 8.4001 48.4 7.2001 48.4H5.8001C7.5001 54.4 15.1001 57 18.9001 58C18.9001 58 21.2001 52.9 27.1001 52.3C32.9001 51.7 34.0001 54.5 36.7001 55.1C39.4001 55.7 40.8001 55.1 40.8001 55.1C40.8001 55.1 41.5001 59.7 37.8001 61C34.1001 62.4 30.4001 61.3 29.9001 62.5C29.4001 63.7 32.4001 65.3 33.8001 68.2C35.2001 71.1 35.6001 75.3 35.6001 75.3C35.6001 75.3 28.1001 76.9 24.5001 74.1C23.6001 73.4 22.8001 72.5 21.6001 72.4C21.5001 72.4 21.4001 72.4 21.3001 72.4C21.2001 72.5 21.0001 72.6 21.0001 72.7C21.0001 72.9 21.0001 73 21.0001 73.2C21.1001 74 21.7001 74.6 22.1001 75.2C22.6001 75.9 23.1001 76.6 23.4001 77.4C23.7001 78.2 23.7001 79 23.7001 79.9C23.7001 82 23.0001 84.3 21.5001 85.8C18.8001 88.6 13.8001 90.3 13.8001 90.3C13.8001 90.3 15.9001 85.1 13.3001 80.7C11.5001 77.6 9.3001 72.6 10.2001 68.4C11.0001 64.2 15.9001 61.1 15.9001 61.1C15.9001 61.1 3.0001 59.2 1.5001 48.3H0.100098V104.5C24.3001 104.5 43.9001 84.9 43.9001 60.7Z" fill="#A39C8E"/>
    <path d="M119.744 120.567L239.444 120.567L239.444 0.866653L119.744 0.866653L119.744 120.567Z" fill="#D3CEC3"/>
    <path d="M124 0.800049C124 31.5 148.9 56.4001 179.6 56.4001C179.7 56.4001 179.7 56.4001 179.8 56.4001C181.3 56.4001 182.7 56.3 184.1 56.2001C184 57.6001 183.9 59.1 183.9 60.5C183.9 60.6 183.9 60.6001 183.9 60.7001C183.9 91.4001 208.8 116.3 239.5 116.3V120.6C206.4 120.6 179.6 93.8 179.6 60.7001C146.5 60.7001 119.7 33.9 119.7 0.800049H124Z" fill="#112337"/>
    <path d="M119.7 93.7C134.5 93.7 146.5 105.7 146.5 120.5H119.7V93.7Z" fill="#484D49"/>
    <path d="M142.2 120.5C142.2 120.5 142.3 114.2 139.8 111.3C137.3 108.3 132.8 111.6 131 112.9C129.1 114.2 126.9 115 125.4 114.3C123.9 113.6 124.9 110.4 126.1 108.6C127.3 106.8 129.8 103.6 129.1 101.5C128.4 99.4001 126 97.5001 119.9 97.8001V120.6H142.2V120.5Z" fill="#A39C8E"/>
    <path d="M119.7 114.9C122.8 114.9 125.3 117.4 125.3 120.5H119.7V114.9Z" fill="#D3CEC3"/>
    <path d="M196.7 109.2C196.7 109.2 206.8 118.7 216.7 120.6H191.3C191.3 120.6 196.6 117.2 196.7 109.2Z" fill="#112337"/>
    <path d="M119.8 88.5002C127.8 88.5002 135.2 91.5002 140.8 96.4002L148.1 89.1002C152.3 84.9002 153.2 78.5002 150.3 73.4002L149.4 71.7002C149.4 71.7002 152.4 69.8002 154.8 71.7002C156.5 73.1002 157.8 74.5002 158.4 75.2002C158.6 75.4002 158.9 75.4002 159.1 75.2002L159.4 74.9002C161.2 73.1002 163.8 72.1002 166.4 72.3002C166.9 72.3002 167.4 72.3002 167.8 72.1002L168.9 71.7002L168.5 72.8002C168.3 73.3002 168.3 73.7002 168.3 74.2002C168.5 76.8002 167.5 79.3002 165.7 81.2002L165.4 81.5002C165.2 81.7002 165.2 82.1002 165.4 82.2002C166.1 82.8002 167.5 84.0002 168.9 85.8002C170.8 88.2002 168.9 91.2002 168.9 91.2002L167.2 90.3002C162 87.5002 155.6 88.4002 151.5 92.5002L144.1 99.9002C148.9 105.5 151.8 112.8 151.8 120.7H146.6C146.6 105.9 134.6 93.8002 119.7 93.8002L119.8 88.5002C119.7 88.5002 119.7 88.5002 119.8 88.5002Z" fill="#112337"/>
    <path d="M159 120.5C159 120.5 159 116.9 159 114.3C159 111.7 162.4 108.8 167 109.6C171.6 110.3 172 114.3 177.6 114.3C183.2 114.3 185.3 111.4 185.3 108.6C185.3 105.8 183.9 102.3 179 102.3C174.1 102.3 172.5 105.6 172.5 105.6C172.5 105.6 171.5 103.2 171.5 100.5C171.6 97.8 175.5 95.7 178.7 96.8C178.7 96.8 176.7 94.4 175.1 92.1C173.6 89.8 173.1 87.7 173.3 85.5C173.5 83.3 176.4 81.4 177.3 81C177.3 81 178 85.2 180.2 88.2C182.4 91.2 186.1 95.9 188.4 98.4C190.6 100.9 192.2 106.6 190.2 110.8C188.2 115 184.2 118.8 180.1 120.5H159Z" fill="#112337"/>
    <path d="M131.1 44.1001C131.1 44.1001 121.6 34.0001 119.7 24.1001V49.5001C119.7 49.5001 123.1 44.3001 131.1 44.1001Z" fill="#112337"/>
    <path d="M119.8 81.7001C119.8 81.7001 123.4 81.7001 126 81.7001C128.6 81.7001 131.5 78.3001 130.7 73.7001C130 69.1001 126 68.7001 126 63.1001C126 57.5001 128.9 55.4001 131.7 55.4001C134.4 55.4001 138 56.8001 138 61.7001C138 66.6001 134.7 68.2001 134.7 68.2001C134.7 68.2001 137.1 69.2001 139.8 69.2001C142.5 69.1001 144.6 65.2001 143.5 62.0001C143.5 62.0001 145.9 64.0001 148.2 65.6001C150.5 67.2001 152.6 67.6001 154.8 67.4001C157 67.2001 158.9 64.3001 159.3 63.4001C159.3 63.4001 155.1 62.7001 152.1 60.5001C149.1 58.3001 144.4 54.6001 141.9 52.3001C139.4 50.0001 133.7 48.5001 129.5 50.5001C125.3 52.5001 121.5 56.5001 119.8 60.6001V81.7001Z" fill="#112337"/>
    <path d="M135.7 1.00005C135.8 25.1 155.4 44.7001 179.5 44.7001C185 44.7001 190.3 43.7001 195.1 41.8C195.4 41.7001 195.7 41.6 196 41.5C197.4 40.5 198 39.3 197.8 38C197.4 35.7001 194.3 35.5 194.3 35.5C195.2 33.7001 197.9 34.6 197.9 34.6C197.9 34.6 197.4 34 197.5 32.9001C197.6 31.8001 198.8 30.8 198.8 30.8C198.8 30.8 198.9 32.8 199.6 34.1C200.3 35.4 202.2 36.4001 203.6 35C205.8 32.4 208.8 27.8 209.6 22.1C210.9 13.5 203.1 7.30005 195.7 6.50005V8.00005C195.7 9.10005 194.8 10.1 193.6 10.1C192.4 10.1 191.5 9.20005 191.5 8.00005V6.60005C185.5 8.30005 182.9 15.9001 181.9 19.7001C181.9 19.7001 187 22 187.6 27.9C188.2 33.7001 185.4 34.8 184.8 37.5C184.2 40.2001 184.8 41.6 184.8 41.6C184.8 41.6 180.2 42.3 178.9 38.6C177.5 34.9 178.6 31.1 177.4 30.7001C176.2 30.2001 174.6 33.2 171.7 34.6C168.8 36 164.6 36.4001 164.6 36.4001C164.6 36.4001 163 28.9 165.8 25.3C166.5 24.4 167.4 23.6 167.5 22.4C167.5 22.3 167.5 22.2001 167.5 22.1C167.4 22 167.3 21.8 167.2 21.8C167 21.8 166.9 21.8 166.7 21.8C165.9 21.9 165.3 22.5 164.7 22.9C164 23.4 163.3 23.9001 162.5 24.2001C161.7 24.5 160.9 24.5 160 24.5C157.9 24.5 155.6 23.8 154.1 22.3C151.3 19.6 149.6 14.6 149.6 14.6C149.6 14.6 154.8 16.7 159.2 14.1C162.3 12.3 167.3 10.1 171.5 11C175.7 11.8 178.8 16.7 178.8 16.7C178.8 16.7 180.7 3.70005 191.6 2.20005V0.800049H195.8V2.20005C204.2 2.90005 212 7.50005 213.4 16.6C213.9 19.8 213.4 23.4 212 26.6C215.2 23.6 218.6 20.2001 219.6 17.7001C221.7 12.4001 221.1 7.40005 219.6 5.40005C219.6 5.40005 221.9 4.80005 224 7.10005C224.9 8.10005 225.1 9.50005 225.1 10.7C225.1 11.5 226.1 11.8 226.5 11.2C227.8 9.40005 228.4 6.90005 230.4 5.70005C231.3 5.20005 232.4 4.80005 233.4 4.60005C233.8 4.50005 235.8 4.60005 235.9 4.40005C235.7 4.60005 235.8 6.50005 235.7 6.90005C235.5 7.90005 235.2 9.00005 234.6 9.90005C233.4 11.9 230.9 12.5 229.1 13.8C228.5 14.3 228.8 15.3 229.6 15.2C230.8 15.1 232.2 15.3 233.2 16.3C235.6 18.4 234.9 20.7001 234.9 20.7001C232.9 19.2001 227.9 18.6 222.6 20.7001C220.2 21.7001 216.7 25 213.6 28.2001C214.1 28 214.5 27.8001 215 27.6C217.4 26.6 220.1 26.1 222.7 26.4C227.3 26.8 231.7 29.4 234.5 33.1C236.9 36.3 237.9 40.2001 238.1 44.2001H239.4V48.4001H238C236.5 59.3 223.5 61.2 223.5 61.2C223.5 61.2 228.3 64.3 229.2 68.5C230 72.7 227.9 77.6001 226.1 80.8C223.6 85.2001 225.6 90.4 225.6 90.4C225.6 90.4 220.6 88.7001 217.9 85.9C216.4 84.3 215.7 82.1 215.7 80C215.7 79.2 215.7 78.3 216 77.5C216.3 76.7 216.8 76 217.3 75.3C217.7 74.7001 218.3 74.1001 218.4 73.3C218.4 73.1001 218.4 73 218.4 72.8C218.4 72.6001 218.2 72.5 218.1 72.5C218 72.5 217.9 72.5 217.8 72.5C216.7 72.7 215.8 73.6 214.9 74.2C211.3 76.9 203.8 75.4 203.8 75.4C203.8 75.4 204.3 71.2001 205.6 68.3C207 65.4 210 63.8 209.5 62.6C209 61.4 205.3 62.5 201.6 61.1C197.9 59.7 198.6 55.2001 198.6 55.2001C198.6 55.2001 200 55.8 202.7 55.2001C205.4 54.6001 206.5 51.8001 212.3 52.4001C218.1 53 220.5 58.1 220.5 58.1C224.3 57.2 231.9 54.5 233.6 48.5H232.3C231.2 48.5 230.2 47.6001 230.2 46.4001C230.2 45.3001 231.1 44.3 232.3 44.3H233.9C233.1 36.8 226.9 29.1001 218.3 30.4001C213.2 31.2001 209 33.7001 206.2 35.8C206 36 205.8 36.2001 205.7 36.4001C204.7 38 205.6 39.4 206.8 40.1C208.1 40.8 210.1 40.9001 210.1 40.9001C210.1 40.9001 209.1 42.1001 208 42.2001C206.9 42.3 206.3 41.8 206.3 41.8C206.3 41.8 207.1 44.5 205.4 45.4001C205.4 45.4001 205.2 42.2001 202.9 41.9001C201.2 41.6001 199.7 42.7001 198.6 44.9001C198.6 45 198.5 45.1001 198.5 45.2001C196.7 50 195.6 55.3 195.6 60.8C195.6 85 215.2 104.6 239.4 104.6V108.9C212.8 108.9 191.3 87.4 191.3 60.8C191.3 56 192 51.4001 193.3 47C188.9 48.3 184.3 49 179.5 49C153 49 131.5 27.6 131.4 1.10005H135.7V1.00005Z" fill="#6A6257"/>
    <path d="M234.5 33.1C231.7 29.4 227.3 26.8 222.7 26.4C220.1 26.2 217.4 26.6 215 27.6C214.5 27.8001 214.1 28 213.6 28.2001C216.7 25 220.1 21.7001 222.6 20.7001C227.9 18.6 232.9 19.2001 234.9 20.7001C234.9 20.7001 235.5 18.4 233.2 16.3C232.2 15.4 230.8 15.2 229.6 15.2C228.8 15.2 228.5 14.2 229.1 13.8C230.9 12.5 233.4 11.9 234.6 9.90005C235.1 9.00005 235.5 7.90005 235.7 6.90005C235.8 6.50005 235.7 4.50005 235.9 4.40005C235.7 4.60005 233.8 4.50005 233.4 4.60005C232.4 4.80005 231.3 5.10005 230.4 5.70005C228.4 6.90005 227.8 9.40005 226.5 11.2C226 11.8 225 11.5 225.1 10.7C225.2 9.50005 225 8.10005 224 7.10005C221.9 4.70005 219.6 5.40005 219.6 5.40005C221.1 7.40005 221.7 12.4001 219.6 17.7001C218.6 20.2001 215.2 23.6 212 26.6C213.4 23.4 213.9 19.8 213.4 16.6C212 7.50005 204.2 2.90005 195.8 2.20005V0.800049H239.7V44.1H238.4C237.9 40.2 236.9 36.3 234.5 33.1Z" fill="#B1BFD6"/>
    <path d="M195.6 6.30005C203.1 7.10005 210.8 13.3 209.5 21.9C208.7 27.6 205.7 32.2 203.5 34.8C202.1 36.1 200.3 35.1001 199.5 33.9001C198.8 32.6001 198.7 30.6 198.7 30.6C198.7 30.6 197.5 31.6 197.4 32.7001C197.3 33.8 197.8 34.4001 197.8 34.4001C197.8 34.4001 195.1 33.6 194.2 35.3C194.2 35.3 197.4 35.5 197.7 37.8C197.9 39.1 197.3 40.3 195.9 41.3C195.6 41.4 195.3 41.5 195 41.6C190.2 43.4 184.9 44.5 179.4 44.5C155.2 44.5 135.7 25 135.6 0.800049H191.3V2.20005C180.4 3.70005 178.5 16.7 178.5 16.7C178.5 16.7 175.4 11.9 171.2 11C167 10.2 162.1 12.3 158.9 14.1C154.5 16.6 149.3 14.6 149.3 14.6C149.3 14.6 151 19.6 153.8 22.3C155.4 23.8 157.6 24.5 159.7 24.5C160.5 24.5 161.4 24.5 162.2 24.2001C163 23.9001 163.7 23.4 164.4 22.9C165 22.5 165.6 21.9 166.4 21.8C166.6 21.8 166.7 21.8 166.9 21.8C167.1 21.8 167.2 22 167.2 22.1C167.2 22.2001 167.2 22.3 167.2 22.4C167 23.5 166.1 24.4 165.5 25.3C162.8 28.9 164.3 36.4001 164.3 36.4001C164.3 36.4001 168.5 35.9 171.4 34.6C174.3 33.2 175.9 30.2001 177.1 30.7001C178.3 31.2001 177.2 34.9 178.6 38.6C180 42.3 184.5 41.6 184.5 41.6C184.5 41.6 183.9 40.2001 184.5 37.5C185.1 34.8 187.9 33.7001 187.3 27.9C186.7 22.1 181.6 19.7001 181.6 19.7001C182.5 15.9001 185.2 8.30005 191.2 6.60005V8.00005C191.2 9.10005 192.1 10.1 193.3 10.1C194.5 10.1 195.4 9.20005 195.4 8.00005V6.30005H195.6Z" fill="#A39C8E"/>
    <path d="M195.6 60.6999C195.6 55.1999 196.6 49.8999 198.5 45.0999C198.5 44.9999 198.6 44.8999 198.6 44.7999C199.7 42.5999 201.2 41.4999 202.9 41.7999C205.2 42.1999 205.4 45.2999 205.4 45.2999C207.2 44.3999 206.3 41.6999 206.3 41.6999C206.3 41.6999 206.9 42.1999 208 42.0999C209.1 41.9999 210.1 40.7999 210.1 40.7999C210.1 40.7999 208.1 40.6999 206.8 39.9999C205.5 39.2999 204.6 37.8999 205.7 36.2999C205.8 36.0999 206 35.8999 206.2 35.6999C208.9 33.5999 213.1 31.0999 218.3 30.2999C226.9 28.9999 233.1 36.7999 233.9 44.1999H232.3C231.2 44.1999 230.2 45.0999 230.2 46.2999C230.2 47.3999 231.1 48.3999 232.3 48.3999H233.6C231.9 54.3999 224.3 56.9999 220.5 57.9999C220.5 57.9999 218.2 52.8999 212.3 52.2999C206.5 51.6999 205.4 54.4999 202.7 55.0999C200 55.6999 198.6 55.0999 198.6 55.0999C198.6 55.0999 197.9 59.6999 201.6 60.9999C205.3 62.3999 209 61.2999 209.5 62.4999C210 63.6999 207 65.2999 205.6 68.1999C204.2 71.0999 203.8 75.2999 203.8 75.2999C203.8 75.2999 211.3 76.8999 214.9 74.0999C215.8 73.3999 216.6 72.4999 217.8 72.3999C217.9 72.3999 218 72.3999 218.1 72.3999C218.2 72.4999 218.4 72.5999 218.4 72.6999C218.4 72.8999 218.4 72.9999 218.4 73.1999C218.3 73.9999 217.7 74.5999 217.3 75.1999C216.8 75.8999 216.3 76.5999 216 77.3999C215.7 78.1999 215.7 78.9999 215.7 79.8999C215.7 81.9999 216.4 84.2999 217.9 85.7999C220.6 88.5999 225.6 90.2999 225.6 90.2999C225.6 90.2999 223.5 85.0999 226.1 80.6999C227.9 77.5999 230.1 72.5999 229.2 68.3999C228.4 64.1999 223.5 61.0999 223.5 61.0999C223.5 61.0999 236.5 59.1999 238 48.2999H239.4V104.5C215.2 104.5 195.6 84.8999 195.6 60.6999Z" fill="#A39C8E"/>
    <path d="M119.8 120.6H0.100098V240.3H119.8V120.6Z" fill="#D3CEC3"/>
    <path d="M115.5 240.3C115.5 209.6 90.6 184.7 59.9 184.7C59.8 184.7 59.8 184.7 59.7 184.7C58.2 184.7 56.8 184.8 55.4 184.9C55.5 183.5 55.6 182 55.6 180.6C55.6 180.5 55.6 180.5 55.6 180.4C55.6 149.7 30.7 124.8 0 124.8V120.5C33.1 120.5 59.9 147.3 59.9 180.4C93 180.4 119.8 207.2 119.8 240.3H115.5Z" fill="#112337"/>
    <path d="M119.8 147.4C105 147.4 93 135.4 93 120.6H119.8V147.4Z" fill="#484D49"/>
    <path d="M97.2999 120.6C97.2999 120.6 97.1999 126.9 99.6999 129.8C102.2 132.8 106.7 129.5 108.5 128.2C110.4 126.9 112.6 126.1 114.1 126.8C115.6 127.5 114.6 130.7 113.4 132.5C112.2 134.3 109.7 137.5 110.4 139.6C111.1 141.7 113.5 143.6 119.6 143.3V120.5H97.2999V120.6Z" fill="#A39C8E"/>
    <path d="M119.8 126.2C116.7 126.2 114.2 123.7 114.2 120.6H119.8V126.2Z" fill="#D3CEC3"/>
    <path d="M42.7002 132C42.7002 132 32.6002 122.5 22.7002 120.6H48.1002C48.2002 120.6 42.9002 123.9 42.7002 132Z" fill="#112337"/>
    <path d="M119.7 152.6C111.7 152.6 104.3 149.6 98.6998 144.7L91.3998 152C87.1998 156.2 86.2998 162.6 89.1998 167.7L90.0998 169.4C90.0998 169.4 87.0998 171.3 84.6998 169.4C82.9998 168 81.6998 166.6 81.0998 165.9C80.8998 165.7 80.5998 165.7 80.3998 165.9L80.0998 166.2C78.2998 168 75.6998 169 73.0998 168.8C72.5998 168.8 72.0998 168.8 71.6998 169L70.5998 169.4L70.9998 168.3C71.1998 167.8 71.1998 167.4 71.1998 166.9C70.9998 164.3 71.9998 161.8 73.7998 159.9L74.0998 159.6C74.2998 159.4 74.2998 159 74.0998 158.9C73.3998 158.3 71.9998 157.1 70.5998 155.3C68.6998 152.9 70.5998 149.9 70.5998 149.9L72.2998 150.8C77.4998 153.6 83.8998 152.7 87.9998 148.6L95.3998 141.2C90.5998 135.6 87.6998 128.3 87.6998 120.4H92.8998C92.8998 135.2 104.9 147.3 119.8 147.3L119.7 152.6Z" fill="#112337"/>
    <path d="M80.4 120.6C80.4 120.6 80.4 124.2 80.4 126.8C80.4 129.4 77 132.3 72.4 131.5C67.8 130.8 67.4 126.8 61.8 126.8C56.2 126.8 54.1 129.7 54.1 132.5C54.1 135.2 55.5 138.8 60.4 138.8C65.3 138.8 66.9 135.5 66.9 135.5C66.9 135.5 67.9 137.9 67.9 140.6C67.9 143.3 63.9 145.4 60.7 144.3C60.7 144.3 62.7 146.7 64.3 149C65.8 151.3 66.3 153.4 66.1 155.6C65.9 157.8 63 159.7 62.1 160.1C62.1 160.1 61.4 155.9 59.2 152.9C57 149.9 53.3 145.2 51 142.7C48.8 140.2 47.2 134.5 49.2 130.3C51.2 126.1 55.2 122.3 59.3 120.6H80.4Z" fill="#112337"/>
    <path d="M108.4 197C108.4 197 117.9 207.1 119.8 217V191.6C119.8 191.6 116.4 196.9 108.4 197Z" fill="#112337"/>
    <path d="M119.7 159.4C119.7 159.4 116.1 159.4 113.5 159.4C110.9 159.4 108 162.8 108.8 167.4C109.5 172 113.5 172.4 113.5 178C113.5 183.6 110.6 185.7 107.8 185.7C105 185.7 101.5 184.3 101.5 179.4C101.5 174.5 104.8 172.9 104.8 172.9C104.8 172.9 102.4 171.9 99.7002 171.9C97.0002 172 94.9002 175.9 96.0002 179.1C96.0002 179.1 93.6002 177.1 91.3002 175.5C89.0002 174 86.9002 173.5 84.7002 173.7C82.5002 173.9 80.6002 176.8 80.2002 177.7C80.2002 177.7 84.4002 178.4 87.4002 180.6C90.4002 182.8 95.1002 186.5 97.6002 188.8C100.1 191 105.8 192.6 110 190.6C114.2 188.6 118 184.6 119.7 180.5V159.4Z" fill="#112337"/>
    <path d="M103.8 240.1C103.7 216 84.1001 196.4 60.0001 196.4C54.5001 196.4 49.2001 197.4 44.4001 199.3C44.1001 199.4 43.8001 199.5 43.5001 199.6C42.1001 200.6 41.5001 201.8 41.7001 203.1C42.1001 205.4 45.2001 205.6 45.2001 205.6C44.3001 207.4 41.6001 206.5 41.6001 206.5C41.6001 206.5 42.1001 207.1 42.0001 208.2C41.9001 209.3 40.7001 210.3 40.7001 210.3C40.7001 210.3 40.6001 208.3 39.9001 207C39.2001 205.7 37.3001 204.7 35.9001 206.1C33.7001 208.7 30.7001 213.3 29.9001 219C28.6001 227.6 36.4001 233.8 43.8001 234.6V233C43.8001 231.9 44.7001 230.9 45.9001 230.9C47.0001 230.9 48.0001 231.8 48.0001 233V234.3C54.0001 232.6 56.6001 225 57.6001 221.2C57.6001 221.2 52.5001 218.9 51.9001 213C51.3001 207.2 54.1001 206.1 54.7001 203.4C55.3001 200.7 54.7001 199.3 54.7001 199.3C54.7001 199.3 59.3001 198.6 60.6001 202.3C62.0001 206 60.9001 209.8 62.1001 210.2C63.3001 210.7 64.9001 207.7 67.8001 206.3C70.7001 204.9 74.9001 204.5 74.9001 204.5C74.9001 204.5 76.5001 212 73.7001 215.6C73.0001 216.5 72.1001 217.3 72.0001 218.5C72.0001 218.6 72.0001 218.7 72.0001 218.8C72.1001 218.9 72.2001 219.1 72.3001 219.1C72.5001 219.1 72.6001 219.1 72.8001 219.1C73.6001 219 74.2001 218.4 74.8001 218C75.5001 217.5 76.2001 217 77.0001 216.7C77.8001 216.4 78.6001 216.4 79.5001 216.4C81.6001 216.4 83.9001 217.1 85.4001 218.6C88.2001 221.3 89.9001 226.3 89.9001 226.3C89.9001 226.3 84.7001 224.2 80.3001 226.8C77.2001 228.6 72.2001 230.8 68.0001 229.9C63.8001 229.1 60.7001 224.2 60.7001 224.2C60.7001 224.2 58.8001 237.2 47.9001 238.7V240.1H43.7001V239C35.3001 238.3 27.5001 233.7 26.1001 224.6C25.6001 221.4 26.1001 217.8 27.5001 214.6C24.3001 217.6 20.9001 221 19.9001 223.5C17.8001 228.8 18.4001 233.8 19.9001 235.8C19.9001 235.8 17.6001 236.4 15.5001 234.1C14.6001 233.1 14.4001 231.7 14.4001 230.5C14.4001 229.7 13.4001 229.4 13.0001 230C11.7001 231.8 11.1001 234.3 9.1001 235.5C8.2001 236 7.1001 236.4 6.1001 236.6C5.7001 236.7 3.7001 236.6 3.6001 236.8C3.8001 236.6 3.7001 234.7 3.8001 234.3C4.0001 233.3 4.3001 232.2 4.9001 231.3C6.1001 229.3 8.6001 228.7 10.4001 227.4C11.0001 226.9 10.7001 225.9 9.9001 226C8.7001 226.1 7.3001 225.9 6.3001 224.9C3.9001 222.8 4.6001 220.5 4.6001 220.5C6.6001 222 11.6001 222.6 16.9001 220.5C19.3001 219.5 22.8001 216.2 25.9001 213C25.4001 213.2 25.0001 213.4 24.5001 213.6C22.1001 214.6 19.4001 215.1 16.8001 214.8C12.2001 214.4 7.8001 211.8 5.0001 208.1C2.6001 204.9 1.6001 201 1.4001 197H0.100098V192.8H1.5001C3.0001 182 15.9001 180 15.9001 180C15.9001 180 11.1001 176.9 10.2001 172.7C9.4001 168.5 11.5001 163.6 13.3001 160.4C15.8001 156 13.8001 150.8 13.8001 150.8C13.8001 150.8 18.8001 152.5 21.5001 155.3C23.0001 156.9 23.7001 159.1 23.7001 161.2C23.7001 162 23.7001 162.9 23.4001 163.7C23.1001 164.5 22.6001 165.2 22.1001 165.9C21.7001 166.5 21.1001 167.1 21.0001 167.9C21.0001 168.1 21.0001 168.2 21.0001 168.4C21.0001 168.6 21.2001 168.7 21.3001 168.7C21.4001 168.7 21.5001 168.7 21.6001 168.7C22.7001 168.5 23.6001 167.6 24.5001 167C28.1001 164.3 35.6001 165.8 35.6001 165.8C35.6001 165.8 35.1001 170 33.8001 172.9C32.4001 175.8 29.4001 177.4 29.9001 178.6C30.4001 179.8 34.1001 178.7 37.8001 180.1C41.5001 181.5 40.8001 186 40.8001 186C40.8001 186 39.4001 185.4 36.7001 186C34.0001 186.6 32.9001 189.4 27.1001 188.8C21.3001 188.2 18.9001 183.1 18.9001 183.1C15.1001 184 7.5001 186.7 5.8001 192.7H7.1001C8.2001 192.7 9.2001 193.6 9.2001 194.8C9.2001 195.9 8.3001 196.9 7.1001 196.9H5.6001C6.4001 204.4 12.6001 212.1 21.2001 210.8C26.3001 210 30.5001 207.5 33.3001 205.4C33.5001 205.2 33.7001 205 33.8001 204.8C34.8001 203.2 33.9001 201.8 32.7001 201.1C31.5001 200.4 29.4001 200.3 29.4001 200.3C29.4001 200.3 30.4001 199.1 31.5001 199C32.6001 198.9 33.2001 199.4 33.2001 199.4C33.2001 199.4 32.4001 196.7 34.1001 195.8C34.1001 195.8 34.3001 199 36.6001 199.3C38.3001 199.6 39.8001 198.5 40.9001 196.3C40.9001 196.2 41.0001 196.1 41.0001 196C42.8001 191.2 43.9001 185.9 43.9001 180.4C43.9001 156.2 24.3001 136.6 0.100098 136.6V132.3C26.7001 132.3 48.2001 153.8 48.2001 180.4C48.2001 185.2 47.5001 189.8 46.2001 194.2C50.6001 192.9 55.2001 192.2 60.0001 192.2C86.5001 192.2 108 213.6 108.1 240.1H103.8Z" fill="#6A6257"/>
    <path d="M5.0001 208C7.8001 211.7 12.2001 214.3 16.8001 214.7C19.4001 214.9 22.1001 214.5 24.5001 213.5C25.0001 213.3 25.4001 213.1 25.9001 212.9C22.8001 216.1 19.4001 219.4 16.9001 220.4C11.6001 222.5 6.6001 221.9 4.6001 220.4C4.6001 220.4 4.0001 222.7 6.3001 224.8C7.3001 225.7 8.7001 225.9 9.9001 225.9C10.7001 225.9 11.0001 226.9 10.4001 227.3C8.6001 228.6 6.1001 229.2 4.9001 231.2C4.4001 232.1 4.0001 233.2 3.8001 234.2C3.7001 234.6 3.8001 236.6 3.6001 236.7C3.8001 236.5 5.7001 236.6 6.1001 236.5C7.1001 236.3 8.2001 236 9.1001 235.4C11.1001 234.2 11.7001 231.7 13.0001 229.9C13.5001 229.3 14.5001 229.6 14.4001 230.4C14.3001 231.6 14.5001 233 15.5001 234C17.6001 236.4 19.9001 235.7 19.9001 235.7C18.4001 233.7 17.8001 228.7 19.9001 223.4C20.9001 220.9 24.3001 217.5 27.5001 214.5C26.1001 217.7 25.6001 221.3 26.1001 224.5C27.5001 233.6 35.3001 238.2 43.7001 238.9V240.3H0.100098V197H1.4001C1.6001 200.9 2.6001 204.9 5.0001 208Z" fill="#B1BFD6"/>
    <path d="M43.9 234.8C36.4 234 28.7 227.8 30 219.2C30.8 213.5 33.8 208.9 36 206.3C37.4 205 39.2 206 40 207.2C40.7 208.5 40.8 210.5 40.8 210.5C40.8 210.5 42 209.5 42.1 208.4C42.2 207.3 41.7 206.7 41.7 206.7C41.7 206.7 44.4 207.5 45.3 205.8C45.3 205.8 42.1 205.6 41.8 203.3C41.6 202 42.2 200.8 43.6 199.8C43.9 199.7 44.2 199.6 44.5 199.5C49.3 197.7 54.6 196.6 60.1 196.6C84.3 196.6 103.8 216.1 103.9 240.3V240.5H48.1V239.1C59 237.6 60.9 224.6 60.9 224.6C60.9 224.6 64 229.4 68.2 230.3C72.4 231.1 77.3 229 80.5 227.2C84.9 224.7 90.1 226.7 90.1 226.7C90.1 226.7 88.4 221.7 85.6 219C84 217.5 81.8 216.8 79.7 216.8C78.9 216.8 78 216.8 77.2 217.1C76.4 217.4 75.7 217.9 75 218.4C74.4 218.8 73.8 219.4 73 219.5C72.8 219.5 72.7 219.5 72.5 219.5C72.3 219.5 72.2 219.3 72.2 219.2C72.2 219.1 72.2 219 72.2 218.9C72.4 217.8 73.3 216.9 73.9 216C76.6 212.4 75.1 204.9 75.1 204.9C75.1 204.9 70.9 205.4 68 206.7C65.1 208.1 63.5 211.1 62.3 210.6C61.1 210.1 62.2 206.4 60.8 202.7C59.4 199 54.9 199.7 54.9 199.7C54.9 199.7 55.5 201.1 54.9 203.8C54.3 206.5 51.5 207.6 52.1 213.4C52.7 219.2 57.8 221.6 57.8 221.6C56.9 225.4 54.2 233 48.2 234.7V233.4C48.2 232.3 47.3 231.3 46.1 231.3C45 231.3 44 232.2 44 233.4V234.8H43.9Z" fill="#A39C8E"/>
    <path d="M43.9001 180.5C43.9001 186 42.9001 191.3 41.0001 196.1C41.0001 196.2 40.9001 196.3 40.9001 196.4C39.8001 198.6 38.3001 199.7 36.6001 199.4C34.3001 199 34.1001 195.9 34.1001 195.9C32.3001 196.8 33.2001 199.5 33.2001 199.5C33.2001 199.5 32.6001 199 31.5001 199.1C30.4001 199.2 29.4001 200.4 29.4001 200.4C29.4001 200.4 31.4001 200.5 32.7001 201.2C34.0001 201.9 34.9001 203.3 33.8001 204.9C33.7001 205.1 33.5001 205.3 33.3001 205.5C30.6001 207.6 26.4001 210.1 21.2001 210.9C12.6001 212.2 6.4001 204.4 5.6001 197H7.2001C8.3001 197 9.3001 196.1 9.3001 194.9C9.3001 193.8 8.4001 192.8 7.2001 192.8H5.8001C7.5001 186.8 15.1001 184.2 18.9001 183.2C18.9001 183.2 21.2001 188.3 27.1001 188.9C32.9001 189.5 34.0001 186.7 36.7001 186.1C39.4001 185.5 40.8001 186.1 40.8001 186.1C40.8001 186.1 41.5001 181.5 37.8001 180.2C34.1001 178.8 30.4001 179.9 29.9001 178.7C29.4001 177.5 32.4001 175.9 33.8001 173C35.2001 170.1 35.6001 165.9 35.6001 165.9C35.6001 165.9 28.1001 164.3 24.5001 167.1C23.6001 167.8 22.8001 168.7 21.6001 168.8C21.5001 168.8 21.4001 168.8 21.3001 168.8C21.2001 168.7 21.0001 168.6 21.0001 168.5C21.0001 168.3 21.0001 168.2 21.0001 168C21.1001 167.2 21.7001 166.6 22.1001 166C22.6001 165.3 23.1001 164.6 23.4001 163.8C23.7001 163 23.7001 162.2 23.7001 161.3C23.7001 159.2 23.0001 156.9 21.5001 155.4C18.8001 152.6 13.8001 150.9 13.8001 150.9C13.8001 150.9 15.9001 156.1 13.3001 160.5C11.5001 163.6 9.3001 168.6 10.2001 172.8C11.0001 177 15.9001 180.1 15.9001 180.1C15.9001 180.1 3.0001 182 1.5001 192.8H0.100098V136.6C24.3001 136.6 43.9001 156.2 43.9001 180.5Z" fill="#A39C8E"/>
    <path d="M119.744 240.305L239.444 240.305L239.444 120.605L119.744 120.605L119.744 240.305Z" fill="#D3CEC3"/>
    <path d="M124 240.3C124 209.6 148.9 184.7 179.6 184.7C179.7 184.7 179.7 184.7 179.8 184.7C181.3 184.7 182.7 184.8 184.1 184.9C184 183.5 183.9 182 183.9 180.6C183.9 180.5 183.9 180.5 183.9 180.4C183.9 149.7 208.8 124.8 239.5 124.8V120.5C206.4 120.5 179.6 147.3 179.6 180.4C146.5 180.4 119.7 207.2 119.7 240.3H124Z" fill="#112337"/>
    <path d="M119.7 147.4C134.5 147.4 146.5 135.4 146.5 120.6H119.7V147.4Z" fill="#484D49"/>
    <path d="M142.2 120.6C142.2 120.6 142.3 126.9 139.8 129.8C137.3 132.8 132.8 129.5 131 128.2C129.1 126.9 126.9 126.1 125.4 126.8C123.9 127.5 124.9 130.7 126.1 132.5C127.3 134.3 129.8 137.5 129.1 139.6C128.4 141.7 126 143.6 119.9 143.3V120.5H142.2V120.6Z" fill="#A39C8E"/>
    <path d="M119.7 126.2C122.8 126.2 125.3 123.7 125.3 120.6H119.7V126.2Z" fill="#D3CEC3"/>
    <path d="M196.7 132C196.7 132 206.8 122.5 216.7 120.6H191.3C191.3 120.6 196.6 123.9 196.7 132Z" fill="#112337"/>
    <path d="M119.8 152.6C127.8 152.6 135.2 149.6 140.8 144.7L148.1 152C152.3 156.2 153.2 162.6 150.3 167.7L149.4 169.4C149.4 169.4 152.4 171.3 154.8 169.4C156.5 168 157.8 166.6 158.4 165.9C158.6 165.7 158.9 165.7 159.1 165.9L159.4 166.2C161.2 168 163.8 169 166.4 168.8C166.9 168.8 167.4 168.8 167.8 169L168.9 169.4L168.5 168.3C168.3 167.8 168.3 167.4 168.3 166.9C168.5 164.3 167.5 161.8 165.7 159.9L165.4 159.6C165.2 159.4 165.2 159 165.4 158.9C166.1 158.3 167.5 157.1 168.9 155.3C170.8 152.9 168.9 149.9 168.9 149.9L167.2 150.8C162 153.6 155.6 152.7 151.5 148.6L144.1 141.2C148.9 135.6 151.8 128.3 151.8 120.4H146.6C146.6 135.2 134.6 147.3 119.7 147.3L119.8 152.6C119.7 152.6 119.7 152.6 119.8 152.6Z" fill="#112337"/>
    <path d="M159 120.6C159 120.6 159 124.2 159 126.8C159 129.4 162.4 132.3 167 131.5C171.6 130.8 172 126.8 177.6 126.8C183.2 126.8 185.3 129.7 185.3 132.5C185.3 135.2 183.9 138.8 179 138.8C174.1 138.8 172.5 135.5 172.5 135.5C172.5 135.5 171.5 137.9 171.5 140.6C171.5 143.3 175.5 145.4 178.7 144.3C178.7 144.3 176.7 146.7 175.1 149C173.6 151.3 173.1 153.4 173.3 155.6C173.5 157.8 176.4 159.7 177.3 160.1C177.3 160.1 178 155.9 180.2 152.9C182.4 149.9 186.1 145.2 188.4 142.7C190.7 140.2 192.2 134.5 190.2 130.3C188.2 126.1 184.2 122.3 180.1 120.6H159Z" fill="#112337"/>
    <path d="M131.1 197C131.1 197 121.6 207.1 119.7 217V191.6C119.7 191.6 123.1 196.9 131.1 197Z" fill="#112337"/>
    <path d="M119.8 159.4C119.8 159.4 123.4 159.4 126 159.4C128.6 159.4 131.5 162.8 130.7 167.4C130 172 126 172.4 126 178C126 183.6 128.9 185.7 131.7 185.7C134.4 185.7 138 184.3 138 179.4C138 174.5 134.7 172.9 134.7 172.9C134.7 172.9 137.1 171.9 139.8 171.9C142.5 171.9 144.6 175.9 143.5 179.1C143.5 179.1 145.9 177.1 148.2 175.5C150.5 173.9 152.6 173.5 154.8 173.7C157 173.9 158.9 176.8 159.3 177.7C159.3 177.7 155.1 178.4 152.1 180.6C149.1 182.8 144.4 186.5 141.9 188.8C139.4 191.1 133.7 192.6 129.5 190.6C125.3 188.6 121.5 184.6 119.8 180.5V159.4Z" fill="#112337"/>
    <path d="M135.7 240.1C135.8 216 155.4 196.4 179.5 196.4C185 196.4 190.3 197.4 195.1 199.3C195.4 199.4 195.7 199.5 196 199.6C197.4 200.6 198 201.8 197.8 203.1C197.4 205.4 194.3 205.6 194.3 205.6C195.2 207.4 197.9 206.5 197.9 206.5C197.9 206.5 197.4 207.1 197.5 208.2C197.6 209.3 198.8 210.3 198.8 210.3C198.8 210.3 198.9 208.3 199.6 207C200.3 205.7 202.2 204.7 203.6 206.1C205.8 208.7 208.8 213.3 209.6 219C210.9 227.6 203.1 233.8 195.7 234.6V233C195.7 231.9 194.8 230.9 193.6 230.9C192.4 230.9 191.5 231.8 191.5 233V234.3C185.5 232.6 182.9 225 181.9 221.2C181.9 221.2 187 218.9 187.6 213C188.2 207.2 185.4 206.1 184.8 203.4C184.2 200.7 184.8 199.3 184.8 199.3C184.8 199.3 180.2 198.6 178.9 202.3C177.5 206 178.6 209.8 177.4 210.2C176.2 210.7 174.6 207.7 171.7 206.3C168.8 204.9 164.6 204.5 164.6 204.5C164.6 204.5 163 212 165.8 215.6C166.5 216.5 167.4 217.3 167.5 218.5C167.5 218.6 167.5 218.7 167.5 218.8C167.4 218.9 167.3 219.1 167.2 219.1C167 219.1 166.9 219.1 166.7 219.1C165.9 219 165.3 218.4 164.7 218C164 217.5 163.3 217 162.5 216.7C161.7 216.4 160.9 216.4 160 216.4C157.9 216.4 155.6 217.1 154.1 218.6C151.3 221.3 149.6 226.3 149.6 226.3C149.6 226.3 154.8 224.2 159.2 226.8C162.3 228.6 167.3 230.8 171.5 229.9C175.7 229.1 178.8 224.2 178.8 224.2C178.8 224.2 180.7 237.2 191.6 238.7V240.1H195.8V239C204.2 238.3 212 233.7 213.4 224.6C213.9 221.4 213.4 217.8 212 214.6C215.2 217.6 218.6 221 219.6 223.5C221.7 228.8 221.1 233.8 219.6 235.8C219.6 235.8 221.9 236.4 224 234.1C224.9 233.1 225.1 231.7 225.1 230.5C225.1 229.7 226.1 229.4 226.5 230C227.8 231.8 228.4 234.3 230.4 235.5C231.3 236 232.4 236.4 233.4 236.6C233.8 236.7 235.8 236.6 235.9 236.8C235.7 236.6 235.8 234.7 235.7 234.3C235.5 233.3 235.2 232.2 234.6 231.3C233.4 229.3 230.9 228.7 229.1 227.4C228.5 226.9 228.8 225.9 229.6 226C230.8 226.1 232.2 225.9 233.2 224.9C235.6 222.8 234.9 220.5 234.9 220.5C232.9 222 227.9 222.6 222.6 220.5C220.2 219.5 216.7 216.2 213.6 213C214.1 213.2 214.5 213.4 215 213.6C217.4 214.6 220.1 215.1 222.7 214.8C227.3 214.4 231.7 211.8 234.5 208.1C236.9 204.9 237.9 201 238.1 197H239.4V192.8H238C236.5 181.9 223.5 180 223.5 180C223.5 180 228.3 176.9 229.2 172.7C230 168.5 227.9 163.6 226.1 160.4C223.6 156 225.6 150.8 225.6 150.8C225.6 150.8 220.6 152.5 217.9 155.3C216.4 156.9 215.7 159.1 215.7 161.2C215.7 162 215.7 162.9 216 163.7C216.3 164.5 216.8 165.2 217.3 165.9C217.7 166.5 218.3 167.1 218.4 167.9C218.4 168.1 218.4 168.2 218.4 168.4C218.4 168.6 218.2 168.7 218.1 168.7C218 168.7 217.9 168.7 217.8 168.7C216.7 168.5 215.8 167.6 214.9 167C211.3 164.3 203.8 165.8 203.8 165.8C203.8 165.8 204.3 170 205.6 172.9C207 175.8 210 177.4 209.5 178.6C209 179.8 205.3 178.7 201.6 180.1C197.9 181.5 198.6 186 198.6 186C198.6 186 200 185.4 202.7 186C205.4 186.6 206.5 189.4 212.3 188.8C218.1 188.2 220.5 183.1 220.5 183.1C224.3 184 231.9 186.7 233.6 192.7H232.3C231.2 192.7 230.2 193.6 230.2 194.8C230.2 195.9 231.1 196.9 232.3 196.9H233.9C233.1 204.4 226.9 212.1 218.3 210.8C213.2 210 209 207.5 206.2 205.4C206 205.2 205.8 205 205.7 204.8C204.7 203.2 205.6 201.8 206.8 201.1C208.1 200.4 210.1 200.3 210.1 200.3C210.1 200.3 209.1 199.1 208 199C206.9 198.9 206.3 199.4 206.3 199.4C206.3 199.4 207.1 196.7 205.4 195.8C205.4 195.8 205.2 199 202.9 199.3C201.2 199.6 199.7 198.5 198.6 196.3C198.6 196.2 198.5 196.1 198.5 196C196.7 191.2 195.6 185.9 195.6 180.4C195.6 156.2 215.2 136.6 239.4 136.6V132.3C212.8 132.3 191.3 153.8 191.3 180.4C191.3 185.2 192 189.8 193.3 194.2C188.9 192.9 184.3 192.2 179.5 192.2C153 192.2 131.5 213.6 131.4 240.1H135.7Z" fill="#6A6257"/>
    <path d="M234.5 208C231.7 211.7 227.3 214.3 222.7 214.7C220.1 214.9 217.4 214.5 215 213.5C214.5 213.3 214.1 213.1 213.6 212.9C216.7 216.1 220.1 219.4 222.6 220.4C227.9 222.5 232.9 221.9 234.9 220.4C234.9 220.4 235.5 222.7 233.2 224.8C232.2 225.7 230.8 225.9 229.6 225.9C228.8 225.9 228.5 226.9 229.1 227.3C230.9 228.6 233.4 229.2 234.6 231.2C235.1 232.1 235.5 233.2 235.7 234.2C235.8 234.6 235.7 236.6 235.9 236.7C235.7 236.5 233.8 236.6 233.4 236.5C232.4 236.3 231.3 236 230.4 235.4C228.4 234.2 227.8 231.7 226.5 229.9C226 229.3 225 229.6 225.1 230.4C225.2 231.6 225 233 224 234C221.9 236.4 219.6 235.7 219.6 235.7C221.1 233.7 221.7 228.7 219.6 223.4C218.6 220.9 215.2 217.5 212 214.5C213.4 217.7 213.9 221.3 213.4 224.5C212 233.6 204.2 238.2 195.8 238.9V240.3H239.7V197H238.4C237.9 200.9 236.9 204.9 234.5 208Z" fill="#B1BFD6"/>
    <path d="M195.6 234.8C203.1 234 210.8 227.8 209.5 219.2C208.7 213.5 205.7 208.9 203.5 206.3C202.1 205 200.3 206 199.5 207.2C198.8 208.5 198.7 210.5 198.7 210.5C198.7 210.5 197.5 209.5 197.4 208.4C197.3 207.3 197.8 206.7 197.8 206.7C197.8 206.7 195.1 207.5 194.2 205.8C194.2 205.8 197.4 205.6 197.7 203.3C197.9 202 197.3 200.8 195.9 199.8C195.6 199.7 195.3 199.6 195 199.5C190.2 197.7 184.9 196.6 179.4 196.6C155.2 196.6 135.7 216.1 135.6 240.3V240.5H191.3V239.1C180.4 237.6 178.5 224.6 178.5 224.6C178.5 224.6 175.4 229.4 171.2 230.3C167 231.1 162.1 229 158.9 227.2C154.5 224.7 149.3 226.7 149.3 226.7C149.3 226.7 151 221.7 153.8 219C155.4 217.5 157.6 216.8 159.7 216.8C160.5 216.8 161.4 216.8 162.2 217.1C163 217.4 163.7 217.9 164.4 218.4C165 218.8 165.6 219.4 166.4 219.5C166.6 219.5 166.7 219.5 166.9 219.5C167.1 219.5 167.2 219.3 167.2 219.2C167.2 219.1 167.2 219 167.2 218.9C167 217.8 166.1 216.9 165.5 216C162.8 212.4 164.3 204.9 164.3 204.9C164.3 204.9 168.5 205.4 171.4 206.7C174.3 208.1 175.9 211.1 177.1 210.6C178.3 210.1 177.2 206.4 178.6 202.7C180 199 184.5 199.7 184.5 199.7C184.5 199.7 183.9 201.1 184.5 203.8C185.1 206.5 187.9 207.6 187.3 213.4C186.7 219.2 181.6 221.6 181.6 221.6C182.5 225.4 185.2 233 191.2 234.7V233.4C191.2 232.3 192.1 231.3 193.3 231.3C194.5 231.3 195.4 232.2 195.4 233.4V234.8H195.6Z" fill="#A39C8E"/>
    <path d="M195.6 180.5C195.6 186 196.6 191.3 198.5 196.1C198.5 196.2 198.6 196.3 198.6 196.4C199.7 198.6 201.2 199.7 202.9 199.4C205.2 199 205.4 195.9 205.4 195.9C207.2 196.8 206.3 199.5 206.3 199.5C206.3 199.5 206.9 199 208 199.1C209.1 199.2 210.1 200.4 210.1 200.4C210.1 200.4 208.1 200.5 206.8 201.2C205.5 201.9 204.6 203.3 205.7 204.9C205.8 205.1 206 205.3 206.2 205.5C208.9 207.6 213.1 210.1 218.3 210.9C226.9 212.2 233.1 204.4 233.9 197H232.3C231.2 197 230.2 196.1 230.2 194.9C230.2 193.8 231.1 192.8 232.3 192.8H233.6C231.9 186.8 224.3 184.2 220.5 183.2C220.5 183.2 218.2 188.3 212.3 188.9C206.5 189.5 205.4 186.7 202.7 186.1C200 185.5 198.6 186.1 198.6 186.1C198.6 186.1 197.9 181.5 201.6 180.2C205.3 178.8 209 179.9 209.5 178.7C210 177.5 207 175.9 205.6 173C204.2 170.1 203.8 165.9 203.8 165.9C203.8 165.9 211.3 164.3 214.9 167.1C215.8 167.8 216.6 168.7 217.8 168.8C217.9 168.8 218 168.8 218.1 168.8C218.2 168.7 218.4 168.6 218.4 168.5C218.4 168.3 218.4 168.2 218.4 168C218.3 167.2 217.7 166.6 217.3 166C216.8 165.3 216.3 164.6 216 163.8C215.7 163 215.7 162.2 215.7 161.3C215.7 159.2 216.4 156.9 217.9 155.4C220.6 152.6 225.6 150.9 225.6 150.9C225.6 150.9 223.5 156.1 226.1 160.5C227.9 163.6 230.1 168.6 229.2 172.8C228.4 177 223.5 180.1 223.5 180.1C223.5 180.1 236.5 182 238 192.9H239.4V136.7C215.2 136.6 195.6 156.2 195.6 180.5Z" fill="#A39C8E"/>
    </svg>
    