<svg width="241" height="122" viewBox="0 0 241 122" fill="none" xmlns="http://www.w3.org/2000/svg">
    <path d="M121.018 0.802734H0.678223V120.9H121.018V0.802734Z" stroke="#EFDBD7" stroke-width="0.5"
        stroke-miterlimit="10" />
    <path
        d="M116.701 0.802734C116.701 15.584 110.817 29.7598 100.344 40.2118C89.8713 50.6637 75.667 56.5355 60.856 56.5355H60.6795C59.2192 56.5355 57.7588 56.5355 56.3306 56.3433C56.4429 57.7847 56.5232 59.2261 56.5232 60.6834V60.8596C56.5019 75.627 50.6089 89.7823 40.1382 100.217C29.6676 110.651 15.4753 116.512 0.678223 116.512V120.836C8.58088 120.836 16.4062 119.283 23.7073 116.265C31.0084 113.247 37.6423 108.823 43.2303 103.246C48.8183 97.6694 53.2509 91.0487 56.2752 83.7623C59.2994 76.4759 60.856 68.6663 60.856 60.7795C76.8007 60.7795 92.0934 54.4626 103.374 43.2166C114.655 31.9706 121.001 16.7155 121.018 0.802734H116.701Z"
        stroke="#EFDBD7" stroke-width="0.5" stroke-miterlimit="10" />
    <path
        d="M121.018 93.9951C113.87 93.9994 107.017 96.8359 101.965 101.881C96.9124 106.927 94.0742 113.768 94.0742 120.901H121.018V93.9951Z"
        stroke="#EFDBD7" stroke-width="0.5" stroke-miterlimit="10" />
    <path
        d="M98.4231 120.9C98.4231 120.9 98.3429 114.622 100.862 111.628C103.382 108.633 107.875 111.948 109.769 113.229C111.662 114.51 113.861 115.359 115.353 114.655C116.846 113.95 115.818 110.715 114.647 108.921C113.476 107.127 110.94 103.892 111.646 101.762C112.352 99.6323 114.856 97.7585 120.938 98.0788V120.9H98.4231Z"
        stroke="#EFDBD7" stroke-width="0.5" stroke-miterlimit="10" />
    <path
        d="M121.018 115.263C119.521 115.267 118.087 115.863 117.028 116.919C115.97 117.975 115.373 119.407 115.369 120.901H121.018V115.263Z"
        stroke="#EFDBD7" stroke-width="0.5" stroke-miterlimit="10" />
    <path
        d="M43.5568 109.498C43.5568 109.498 33.4309 119.107 23.4976 120.916H48.9969C47.2598 119.569 45.863 117.834 44.9184 115.852C43.9737 113.869 43.5073 111.693 43.5568 109.498Z"
        stroke="#EFDBD7" stroke-width="0.5" stroke-miterlimit="10" />
    <path
        d="M120.986 88.7579C113.224 88.7459 105.724 91.5522 99.8834 96.6534L92.5016 89.2864C90.4636 87.2525 89.1427 84.613 88.7375 81.7652C88.3324 78.9173 88.8649 76.0152 90.255 73.4955L91.2017 71.7658C91.2017 71.7658 88.2009 69.812 85.7777 71.7658C84.4853 72.818 83.2928 73.9867 82.2152 75.2571C82.1672 75.3091 82.1088 75.3505 82.0439 75.3788C81.979 75.4072 81.909 75.4218 81.8381 75.4218C81.7673 75.4218 81.6972 75.4072 81.6323 75.3788C81.5674 75.3505 81.509 75.3091 81.461 75.2571L81.2042 75.0009C80.2913 74.0893 79.1926 73.3843 77.9826 72.9339C76.7726 72.4834 75.4797 72.2981 74.1915 72.3904C73.7059 72.4263 73.2183 72.3553 72.7633 72.1822L71.6239 71.7658L72.0572 72.8869C72.2226 73.343 72.2936 73.8279 72.2658 74.3123C72.1769 75.5926 72.3644 76.8771 72.8157 78.079C73.2669 79.2808 73.9715 80.372 74.8816 81.2788L75.1383 81.5351C75.1903 81.5831 75.2318 81.6413 75.2602 81.7061C75.2886 81.7708 75.3033 81.8407 75.3033 81.9114C75.3033 81.9821 75.2886 82.0521 75.2602 82.1168C75.2318 82.1816 75.1903 82.2398 75.1383 82.2878C73.8723 83.3713 72.7068 84.5666 71.656 85.8592C69.6982 88.2615 71.656 91.2563 71.656 91.2563L73.3892 90.3114C75.914 88.9241 78.8219 88.3927 81.6755 88.797C84.529 89.2014 87.1738 90.5197 89.2119 92.5535L96.5936 99.9365C91.6104 105.734 88.8672 113.118 88.8589 120.756H94.0582C94.0582 113.612 96.902 106.76 101.964 101.709C107.026 96.6568 113.891 93.8187 121.05 93.8187V88.7739L120.986 88.7579Z"
        stroke="#EFDBD7" stroke-width="0.5" stroke-miterlimit="10" />
    <path
        d="M81.477 120.9V114.67C81.477 112.028 78.091 109.177 73.4533 109.866C68.8156 110.555 68.3824 114.67 62.7818 114.67C57.1813 114.67 55.063 111.724 55.063 108.969C54.9928 108.124 55.1075 107.274 55.3994 106.478C55.6913 105.681 56.1533 104.958 56.7533 104.358C57.3533 103.757 58.0769 103.294 58.8741 103.001C59.6712 102.708 60.5228 102.591 61.3697 102.659C62.6595 102.554 63.9534 102.807 65.1086 103.389C66.2639 103.971 67.2357 104.86 67.9169 105.958C68.5632 104.315 68.8953 102.566 68.8959 100.801C68.8959 98.1107 64.916 95.9967 61.6905 97.0858C61.6905 97.0858 63.7126 94.6515 65.2692 92.3773C66.655 90.4593 67.2834 88.0986 67.0343 85.747C66.8257 83.569 63.9212 81.6151 62.9905 81.1987C62.4968 83.7832 61.4931 86.2439 60.0377 88.4376C57.8071 91.4965 54.0681 96.1569 51.8375 98.6873C50.4732 100.429 49.5883 102.497 49.2702 104.685C48.9522 106.873 49.2121 109.106 50.0241 111.163C52.1607 115.503 55.7636 118.952 60.1981 120.9H81.477Z"
        stroke="#EFDBD7" stroke-width="0.5" stroke-miterlimit="10" />
    <path
        d="M109.592 44.2039C109.592 44.2039 119.22 34.0983 121.018 24.1689V49.6331C119.675 47.8959 117.94 46.4991 115.955 45.5559C113.97 44.6126 111.79 44.1494 109.592 44.2039Z"
        stroke="#EFDBD7" stroke-width="0.5" stroke-miterlimit="10" />
    <path
        d="M120.938 81.9517H114.695C112.063 81.9517 109.207 78.5725 109.881 73.9441C110.555 69.3157 114.695 68.8673 114.695 63.278C114.695 57.6887 111.742 55.6548 108.982 55.6548C108.136 55.5847 107.284 55.6993 106.486 55.9905C105.688 56.2818 104.963 56.7429 104.362 57.3416C103.76 57.9404 103.296 58.6626 103.002 59.4582C102.708 60.2537 102.591 61.1036 102.66 61.9487C102.557 63.2334 102.812 64.5214 103.395 65.6712C103.978 66.821 104.868 67.7883 105.965 68.4669C104.325 69.1136 102.578 69.4503 100.814 69.4598C98.1021 69.4598 95.9999 65.4721 97.0751 62.253C97.0751 62.253 94.6359 64.2709 92.3572 65.8244C90.4353 67.2074 88.0698 67.8347 85.7135 67.5861C83.5311 67.3779 81.5732 64.4791 81.156 63.5503C83.7464 63.0601 86.2125 62.0582 88.4095 60.6035C91.4745 58.3774 96.1443 54.6458 98.6798 52.4197C100.425 51.0582 102.497 50.175 104.689 49.8576C106.882 49.5402 109.119 49.7996 111.181 50.61C115.53 52.7423 118.985 56.338 120.938 60.7636V81.9517Z"
        stroke="#EFDBD7" stroke-width="0.5" stroke-miterlimit="10" />
    <path
        d="M104.922 0.962886C104.875 12.5974 100.213 23.7397 91.9542 31.9516C83.6957 40.1635 72.514 44.7762 60.856 44.7804C55.4971 44.786 50.1827 43.8088 45.1776 41.8977L44.3111 41.5613C43.7018 41.2088 43.2096 40.6855 42.8958 40.0562C42.582 39.427 42.4603 38.7196 42.5458 38.022C42.9149 35.6838 46.0923 35.5076 46.0923 35.5076C45.1616 33.7299 42.4817 34.5627 42.4817 34.5627C42.828 34.0685 42.9768 33.4631 42.8989 32.8651C42.7094 32.0245 42.2467 31.2701 41.583 30.7191C41.5345 31.8606 41.2619 32.9815 40.7807 34.0182C40.6182 34.3776 40.3754 34.6951 40.0708 34.9462C39.7661 35.1973 39.4078 35.3753 39.0234 35.4666C38.639 35.5578 38.2389 35.5599 37.8536 35.4726C37.4683 35.3853 37.1082 35.211 36.8009 34.9631C33.6783 31.2582 31.5962 26.7929 30.7671 22.0228C29.4833 13.3586 37.186 7.16076 44.7604 6.37601V7.97753C44.7604 8.5297 44.9802 9.05926 45.3715 9.4497C45.7627 9.84015 46.2932 10.0595 46.8465 10.0595C47.3998 10.0595 47.9305 9.84015 48.3217 9.4497C48.7129 9.05926 48.9328 8.5297 48.9328 7.97753V6.61624C54.9987 8.34588 57.6305 15.9371 58.5612 19.7327C57.0129 20.5336 55.6853 21.7016 54.6948 23.134C53.7043 24.5665 53.0813 26.2196 52.8804 27.9484C52.2866 33.81 55.127 34.883 55.7208 37.5575C56.1149 38.8959 56.1149 40.3191 55.7208 41.6574C55.7208 41.6574 60.3263 42.3461 61.6904 38.6306C63.0544 34.915 61.9954 31.1515 63.1829 30.703C64.3704 30.2546 65.9911 33.2495 68.8797 34.6268C71.1495 35.5553 73.5359 36.1696 75.9726 36.4525C75.9726 36.4525 77.5774 28.9094 74.7851 25.2419C73.973 24.4513 73.3812 23.4633 73.068 22.3752C73.0442 22.2643 73.0442 22.1497 73.068 22.0388C73.1016 21.9658 73.1505 21.9009 73.2114 21.8484C73.2723 21.7959 73.3439 21.7571 73.4211 21.7346C73.5736 21.6945 73.7339 21.6945 73.8865 21.7346C74.6311 21.969 75.3156 22.3625 75.8924 22.8876C76.5621 23.4189 77.3088 23.8455 78.1069 24.1528C78.9049 24.4051 79.7427 24.5083 80.5782 24.4571C82.7762 24.4814 84.9044 23.6878 86.5479 22.231C88.56 19.9781 90.1036 17.3488 91.0892 14.4957C89.5371 15.0762 87.8826 15.3344 86.227 15.2546C84.5714 15.1747 82.9496 14.7584 81.4608 14.0313C78.2513 12.2215 73.3088 10.0435 69.1044 10.8282C64.8999 11.613 61.8188 16.5296 61.8188 16.5296C61.8188 16.5296 59.861 3.52531 48.9809 2.01989V0.802734H44.8086V2.16402C36.3516 2.82065 28.5365 7.44903 27.1564 16.5777C26.6936 19.9788 27.1766 23.4415 28.5525 26.5872C25.3431 23.5923 21.8929 20.1811 20.914 17.6667C18.8278 12.3016 19.4537 7.28888 20.914 5.28698C20.0975 5.14913 19.2588 5.2375 18.4891 5.54248C17.7195 5.84746 17.0485 6.35735 16.5491 7.01662C15.7338 8.03142 15.3531 9.32651 15.4899 10.62C15.5025 10.7952 15.457 10.9696 15.3605 11.1164C15.2639 11.2632 15.1218 11.3743 14.9558 11.4325C14.7899 11.4908 14.6093 11.493 14.4419 11.4388C14.2746 11.3846 14.1297 11.2769 14.0297 11.1325C12.6977 9.3228 12.12 6.77639 10.082 5.60728C9.14342 5.08403 8.12367 4.72134 7.06506 4.53427C6.16453 4.55236 5.26383 4.50955 4.36911 4.40615C4.47831 5.25054 4.53188 6.10117 4.52954 6.95256C4.71979 8.00603 5.07738 9.02244 5.58872 9.96341C6.76018 11.9813 9.32779 12.5579 11.1251 13.9031C11.261 14.0048 11.361 14.1468 11.4109 14.3088C11.4608 14.4708 11.4578 14.6445 11.4025 14.8047C11.3472 14.9649 11.2424 15.1035 11.1032 15.2005C10.9639 15.2975 10.7974 15.3479 10.6276 15.3445C9.33294 15.2233 8.04091 15.6016 7.01697 16.4015C6.35228 16.9 5.83855 17.5721 5.5327 18.3437C5.22684 19.1153 5.14074 19.9563 5.28382 20.7736C7.28974 19.3163 12.2965 18.6757 17.6724 20.7736C20.1276 21.7185 23.6099 25.0497 26.7071 28.2848L25.2949 27.6762C22.8485 26.6286 20.1794 26.2048 17.528 26.443C15.1879 26.7019 12.9261 27.4383 10.8833 28.6064C8.8404 29.7746 7.06001 31.3495 5.65288 33.2334C3.37338 36.4889 2.11136 40.3453 2.02615 44.3159H0.678223V48.4799H2.10646C3.59887 59.3702 16.5491 61.292 16.5491 61.292C16.5491 61.292 11.7349 64.3669 10.8363 68.5629C9.9376 72.7589 12.1682 77.7396 14.0457 80.8946C14.77 82.382 15.1832 84.001 15.2605 85.653C15.3377 87.305 15.0773 88.9554 14.495 90.5037C17.3557 89.5239 19.991 87.9829 22.2459 85.9714C23.7035 84.3288 24.5033 82.2078 24.4925 80.0137C24.5279 79.1805 24.4249 78.3471 24.1876 77.5474C23.8741 76.7502 23.4412 76.005 22.9038 75.3373C22.3832 74.7576 21.9897 74.0757 21.7485 73.3354C21.7083 73.1832 21.7083 73.0232 21.7485 72.871C21.7678 72.7924 21.8055 72.7195 21.8585 72.6583C21.9115 72.597 21.9783 72.5492 22.0534 72.5186C22.159 72.4946 22.2686 72.4946 22.3742 72.5186C23.4677 72.8347 24.4622 73.4246 25.2629 74.2323C28.8735 76.9869 36.496 75.4174 36.496 75.4174C36.212 72.984 35.5909 70.6017 34.6505 68.3387C33.2705 65.456 30.2696 63.8384 30.7189 62.6533C31.1682 61.4682 34.9554 62.5412 38.7426 61.1639C42.5298 59.7866 41.7917 55.2063 41.7917 55.2063C40.4451 55.5991 39.014 55.5991 37.6675 55.2063C34.9234 54.6137 33.8482 51.779 28.039 52.3716C26.3087 52.5719 24.6543 53.1937 23.2216 54.1824C21.7888 55.171 20.6216 56.4961 19.8228 58.0409C16.0195 57.096 8.39699 54.4696 6.66387 48.4318H8.0119C8.56518 48.4318 9.09573 48.2125 9.48696 47.822C9.87819 47.4316 10.098 46.902 10.098 46.3499C10.098 45.7977 9.87819 45.2681 9.48696 44.8777C9.09573 44.4872 8.56518 44.2679 8.0119 44.2679H6.40716C7.17743 36.7888 13.3877 29.0215 22.0854 30.3027C26.518 31.0545 30.6869 32.917 34.2013 35.7158C34.4004 35.9097 34.5778 36.1245 34.7308 36.3564C34.9362 36.6657 35.0701 37.0168 35.1225 37.3842C35.175 37.7515 35.1448 38.126 35.0342 38.4802C34.9235 38.8345 34.7352 39.1597 34.4829 39.4323C34.2305 39.7048 33.9205 39.9179 33.5754 40.0559C32.5366 40.5362 31.4134 40.8082 30.2696 40.8567C30.8264 41.5136 31.5804 41.9741 32.4199 42.1699C33.0217 42.2512 33.6315 42.0962 34.1209 41.7375C34.1209 41.7375 33.3026 44.412 35.0678 45.3569C35.0678 45.3569 35.2443 42.1539 37.5872 41.8016C39.3043 41.5293 40.7967 42.5863 41.8879 44.8284C41.9238 44.9378 41.9667 45.0448 42.0163 45.1487C44.5662 51.8229 45.45 59.0162 44.5913 66.1074C43.7327 73.1987 41.1575 79.9748 37.088 85.8507C33.0186 91.7266 27.5772 96.5257 21.2338 99.8336C14.8903 103.142 7.83541 104.859 0.678223 104.837V109.113C8.21167 109.116 15.6414 107.361 22.3749 103.99C29.1085 100.618 34.9595 95.7233 39.4613 89.6951C43.9632 83.6668 46.9913 76.6721 48.3042 69.2689C49.617 61.8656 49.1784 54.2586 47.0231 47.0545C51.5132 48.3843 56.1724 49.0586 60.856 49.0564C73.6433 49.0565 85.91 44.0013 94.9716 34.9969C104.033 25.9926 109.152 13.7725 109.207 1.01093L104.922 0.962886Z"
        stroke="#EFDBD7" stroke-width="0.5" stroke-miterlimit="10" />
    <path d="M120.937 120.884L241.277 120.884L241.277 0.786552L120.937 0.786552L120.937 120.884Z"
        stroke="#EFDBD7" stroke-width="0.5" stroke-miterlimit="10" />
    <path
        d="M125.27 0.80283C125.27 15.5841 131.154 29.7599 141.627 40.2119C152.1 50.6638 166.304 56.5356 181.115 56.5356H181.276C182.752 56.5356 184.196 56.5356 185.641 56.3434C185.528 57.7848 185.448 59.2262 185.448 60.6835C185.448 60.6835 185.448 60.8117 185.448 60.8597C185.469 75.6243 191.36 89.7772 201.827 100.211C212.294 110.645 226.483 116.508 241.277 116.512V120.836C225.32 120.832 210.017 114.503 198.735 103.241C187.453 91.9782 181.115 76.7049 181.115 60.7796C165.158 60.7796 149.854 54.4544 138.569 43.195C127.284 31.9357 120.942 16.6641 120.938 0.73877L125.27 0.80283Z"
        stroke="#EFDBD7" stroke-width="0.5" stroke-miterlimit="10" />
    <path
        d="M120.938 93.9951C128.088 93.9951 134.945 96.8298 140.001 101.876C145.057 106.921 147.897 113.765 147.897 120.901H120.938V93.9951Z"
        stroke="#EFDBD7" stroke-width="0.5" stroke-miterlimit="10" />
    <path
        d="M143.532 120.9C143.532 120.9 143.532 114.622 141.093 111.628C138.654 108.633 134.096 111.948 132.203 113.229C130.309 114.51 128.111 115.359 126.618 114.655C125.126 113.95 126.137 110.715 127.324 108.921C128.512 107.127 131.015 103.892 130.309 101.762C129.603 99.6323 127.1 97.7585 121.018 98.0788V120.9H143.532Z"
        stroke="#EFDBD7" stroke-width="0.5" stroke-miterlimit="10" />
    <path
        d="M120.938 115.263C122.434 115.267 123.869 115.863 124.927 116.919C125.985 117.975 126.582 119.407 126.586 120.901H120.938V115.263Z"
        stroke="#EFDBD7" stroke-width="0.5" stroke-miterlimit="10" />
    <path
        d="M198.366 109.498C198.366 109.498 208.508 119.107 218.441 120.916H192.942C194.679 119.57 196.075 117.835 197.017 115.852C197.959 113.868 198.421 111.692 198.366 109.498Z"
        stroke="#EFDBD7" stroke-width="0.5" stroke-miterlimit="10" />
    <path
        d="M120.986 88.7579C128.746 88.7488 136.246 91.5548 142.088 96.6534L149.454 89.2864C151.494 87.2544 152.818 84.6158 153.226 81.7679C153.634 78.92 153.104 76.0169 151.716 73.4955L150.77 71.7658C150.77 71.7658 153.754 69.812 156.177 71.7658C157.474 72.8189 158.672 73.9875 159.756 75.2571C159.801 75.311 159.858 75.3543 159.922 75.384C159.985 75.4137 160.055 75.4291 160.125 75.4291C160.196 75.4291 160.265 75.4137 160.329 75.384C160.393 75.3543 160.449 75.311 160.494 75.2571L160.767 75.0009C161.677 74.0897 162.773 73.3848 163.98 72.9343C165.188 72.4838 166.478 72.2983 167.764 72.3904C168.255 72.4261 168.747 72.3551 169.208 72.1822L170.331 71.7658L169.914 72.8869C169.741 73.341 169.67 73.8276 169.706 74.3123C169.791 75.5923 169.602 76.876 169.151 78.0773C168.7 79.2787 167.997 80.3702 167.09 81.2788L166.817 81.5351C166.765 81.5831 166.723 81.6413 166.695 81.7061C166.667 81.7708 166.652 81.8407 166.652 81.9114C166.652 81.9821 166.667 82.0521 166.695 82.1168C166.723 82.1816 166.765 82.2398 166.817 82.2878C168.089 83.37 169.26 84.5653 170.315 85.8592C172.273 88.2615 170.315 91.2563 170.315 91.2563L168.582 90.3114C166.057 88.9241 163.149 88.3927 160.296 88.797C157.442 89.2014 154.797 90.5197 152.759 92.5535L145.362 99.9365C150.362 105.725 153.112 113.114 153.112 120.756H147.929C147.925 113.61 145.078 106.759 140.013 101.708C134.949 96.6563 128.082 93.8187 120.921 93.8187V88.7739L120.986 88.7579Z"
        stroke="#EFDBD7" stroke-width="0.5" stroke-miterlimit="10" />
    <path
        d="M160.479 120.9V114.67C160.479 112.028 163.865 109.177 168.502 109.866C173.14 110.555 173.573 114.67 179.19 114.67C184.806 114.67 186.909 111.724 186.909 108.969C186.976 108.123 186.859 107.273 186.565 106.477C186.272 105.68 185.808 104.957 185.207 104.357C184.606 103.757 183.881 103.295 183.083 103.001C182.286 102.708 181.433 102.591 180.586 102.659C179.296 102.554 178.002 102.807 176.847 103.389C175.692 103.971 174.72 104.86 174.038 105.958C173.401 104.313 173.069 102.565 173.06 100.801C173.06 98.1107 177.055 95.9967 180.265 97.0858C180.265 97.0858 178.243 94.6515 176.686 92.3773C175.301 90.4593 174.672 88.0986 174.921 85.747C175.13 83.569 178.034 81.6151 178.965 81.1987C179.468 83.7829 180.477 86.2427 181.934 88.4376C184.164 91.4965 187.887 96.1569 190.118 98.6873C191.482 100.429 192.367 102.497 192.685 104.685C193.003 106.873 192.743 109.106 191.931 111.163C189.797 115.499 186.2 118.946 181.773 120.9H160.479Z"
        stroke="#EFDBD7" stroke-width="0.5" stroke-miterlimit="10" />
    <path
        d="M132.379 44.2039C132.379 44.2039 122.751 34.0983 120.938 24.1689V49.6331C122.282 47.8937 124.019 46.4955 126.007 45.5522C127.996 44.6088 130.179 44.1469 132.379 44.2039Z"
        stroke="#EFDBD7" stroke-width="0.5" stroke-miterlimit="10" />
    <path
        d="M121.018 81.9516H127.26C129.908 81.9516 132.765 78.5724 132.075 73.944C131.384 69.3156 127.26 68.8672 127.26 63.2779C127.26 57.6886 130.229 55.6547 132.973 55.6547C133.82 55.5846 134.672 55.6992 135.47 55.9904C136.267 56.2817 136.992 56.7428 137.594 57.3415C138.195 57.9403 138.659 58.6625 138.953 59.4581C139.247 60.2536 139.364 61.1035 139.296 61.9486C139.395 63.2365 139.135 64.5266 138.546 65.6767C137.957 66.8268 137.062 67.7923 135.958 68.4668C137.599 69.1135 139.345 69.4502 141.109 69.4597C143.805 69.4597 145.923 65.472 144.848 62.2529C144.848 62.2529 147.287 64.2708 149.566 65.8243C151.484 67.2035 153.843 67.8305 156.194 67.586C158.376 67.3778 160.35 64.479 160.767 63.5502C158.207 63.0251 155.775 62.002 153.61 60.5393C150.561 58.3132 145.891 54.5817 143.34 52.3555C141.597 50.9939 139.529 50.1106 137.339 49.7932C135.149 49.4757 132.913 49.7352 130.855 50.5458C126.502 52.6773 123.041 56.2727 121.082 60.6995L121.018 81.9516Z"
        stroke="#EFDBD7" stroke-width="0.5" stroke-miterlimit="10" />
    <path
        d="M137.049 0.962886C137.092 12.5987 141.753 23.7435 150.013 31.9563C158.272 40.1691 169.456 44.7805 181.115 44.7804C186.474 44.7831 191.788 43.806 196.794 41.8977L197.66 41.5613C198.265 41.2042 198.754 40.6801 199.067 40.0521C199.38 39.424 199.505 38.719 199.425 38.022C199.04 35.6838 195.863 35.5076 195.863 35.5076C196.81 33.7299 199.49 34.5627 199.49 34.5627C199.133 34.0728 198.978 33.4654 199.056 32.8651C199.253 32.0272 199.714 31.2747 200.372 30.7191C200.421 31.8606 200.693 32.9815 201.175 34.0182C201.339 34.378 201.583 34.6955 201.89 34.9466C202.196 35.1976 202.555 35.3755 202.941 35.4667C203.326 35.5579 203.728 35.5599 204.114 35.4726C204.501 35.3853 204.862 35.211 205.17 34.9631C208.293 31.2582 210.375 26.7929 211.204 22.0228C212.472 13.3586 204.785 7.16076 197.211 6.37601V7.97753C197.165 8.50025 196.925 8.98682 196.537 9.34129C196.149 9.69576 195.643 9.89239 195.117 9.89239C194.591 9.89239 194.084 9.69576 193.697 9.34129C193.309 8.98682 193.068 8.50025 193.023 7.97753V6.61624C186.973 8.34588 184.341 15.9371 183.394 19.7327C184.944 20.5314 186.273 21.6987 187.264 23.1316C188.255 24.5645 188.877 26.2188 189.075 27.9484C189.669 33.81 186.828 34.883 186.235 37.5575C185.851 38.8974 185.851 40.3176 186.235 41.6574C186.235 41.6574 181.645 42.3461 180.265 38.6306C178.885 34.915 179.96 31.1515 178.789 30.703C177.617 30.2546 175.98 33.2495 173.092 34.6268C170.816 35.5543 168.424 36.1685 165.983 36.4525C165.983 36.4525 164.378 28.9094 167.17 25.2419C167.981 24.4478 168.578 23.4615 168.903 22.3752C168.927 22.2643 168.927 22.1497 168.903 22.0388C168.873 21.9663 168.827 21.9014 168.769 21.8488C168.711 21.7962 168.642 21.7571 168.566 21.7346C168.408 21.6946 168.243 21.6946 168.085 21.7346C167.345 21.9692 166.666 22.3628 166.095 22.8876C165.423 23.4157 164.677 23.8421 163.881 24.1528C163.077 24.4064 162.234 24.5095 161.393 24.4571C159.196 24.4768 157.069 23.6838 155.424 22.231C153.414 19.9793 151.875 17.3493 150.898 14.4957C152.45 15.0762 154.105 15.3344 155.76 15.2546C157.416 15.1747 159.038 14.7584 160.527 14.0313C163.736 12.2215 168.663 10.0435 172.867 10.8282C177.071 11.613 180.169 16.5296 180.169 16.5296C180.169 16.5296 182.11 3.52531 193.007 2.01989V0.802734H197.195V2.16402C205.636 2.82065 213.451 7.44903 214.847 16.5777C215.296 19.9802 214.808 23.4405 213.435 26.5872C216.644 23.5923 220.094 20.1811 221.073 17.6667C223.176 12.3016 222.534 7.28888 221.073 5.28698C221.892 5.14785 222.734 5.23554 223.506 5.5405C224.279 5.84547 224.953 6.35603 225.454 7.01662C226.256 8.03851 226.635 9.32795 226.513 10.62C226.506 10.7909 226.554 10.9595 226.65 11.1011C226.746 11.2428 226.885 11.3502 227.046 11.4075C227.208 11.4647 227.383 11.4689 227.547 11.4195C227.711 11.37 227.855 11.2694 227.958 11.1325C229.306 9.3228 229.883 6.77639 231.905 5.60728C232.844 5.08403 233.864 4.72134 234.922 4.53427C235.801 4.55001 236.681 4.50721 237.554 4.40615C237.451 5.25095 237.403 6.10153 237.41 6.95256C237.222 8.00904 236.859 9.02673 236.334 9.96341C235.163 11.9813 232.611 12.5579 230.798 13.9031C230.661 14.0055 230.56 14.1491 230.511 14.3127C230.461 14.4764 230.465 14.6516 230.523 14.8127C230.58 14.9738 230.688 15.1123 230.83 15.208C230.972 15.3037 231.14 15.3515 231.312 15.3445C232.606 15.2233 233.898 15.6016 234.922 16.4015C235.584 16.9024 236.096 17.5749 236.401 18.3457C236.707 19.1166 236.795 19.9564 236.655 20.7736C234.65 19.3163 229.627 18.6757 224.251 20.7736C221.812 21.7185 218.313 25.0497 215.216 28.2848L216.628 27.6762C219.081 26.6304 221.755 26.2068 224.411 26.443C226.756 26.7014 229.023 27.4374 231.071 28.6054C233.119 29.7734 234.905 31.3486 236.318 33.2334C238.591 36.4923 239.852 40.3466 239.945 44.3159H241.277V48.4799H239.865C238.356 59.3702 225.326 61.292 225.326 61.292C225.326 61.292 230.14 64.3669 231.039 68.5629C231.938 72.7589 229.707 77.7396 227.829 80.8946C227.101 82.3804 226.684 83.999 226.604 85.6512C226.524 87.3035 226.782 88.9547 227.364 90.5037C224.505 89.52 221.871 87.9794 219.613 85.9714C218.153 84.3312 217.358 82.2073 217.383 80.0137C217.331 79.1799 217.435 78.3438 217.687 77.5474C217.995 76.7509 218.423 76.0056 218.955 75.3373C219.481 74.7617 219.876 74.0785 220.111 73.3354C220.151 73.1832 220.151 73.0232 220.111 72.871C220.088 72.7939 220.049 72.7225 219.996 72.6617C219.944 72.6009 219.879 72.5521 219.806 72.5186C219.695 72.4948 219.58 72.4948 219.469 72.5186C218.378 72.8312 217.388 73.4218 216.596 74.2323C212.986 76.9869 205.363 75.4174 205.363 75.4174C205.646 72.9856 206.262 70.604 207.192 68.3387C208.573 65.456 211.589 63.8384 211.124 62.6533C210.659 61.4682 206.904 62.5412 203.181 61.1639C199.458 59.7866 200.148 55.2063 200.148 55.2063C201.489 55.5995 202.915 55.5995 204.256 55.2063C207 54.6137 208.075 51.779 213.884 52.3716C215.616 52.5721 217.273 53.1939 218.708 54.1824C220.144 55.1708 221.314 56.4958 222.117 58.0409C225.92 57.096 233.526 54.4696 235.259 48.4318H233.911C233.358 48.4318 232.827 48.2125 232.436 47.822C232.045 47.4316 231.825 46.902 231.825 46.3499C231.825 45.7977 232.045 45.2681 232.436 44.8777C232.827 44.4872 233.358 44.2679 233.911 44.2679H235.516C234.73 36.7888 228.519 29.0215 219.838 30.3027C215.4 31.0546 211.226 32.917 207.706 35.7158C207.517 35.9143 207.345 36.1286 207.192 36.3564C206.987 36.6647 206.852 37.0148 206.798 37.3813C206.745 37.7479 206.774 38.1218 206.883 38.4759C206.992 38.83 207.178 39.1555 207.429 39.4288C207.68 39.702 207.988 39.9162 208.332 40.0559C209.371 40.5346 210.494 40.8066 211.638 40.8567C211.081 41.5136 210.327 41.9741 209.487 42.1699C208.886 42.2478 208.277 42.0931 207.786 41.7375C207.786 41.7375 208.621 44.412 206.839 45.3569C206.839 45.3569 206.663 42.1539 204.336 41.8016C202.619 41.5293 201.126 42.5863 200.019 44.8284C199.97 44.9323 199.927 45.0393 199.891 45.1487C197.348 51.8075 196.464 58.9833 197.316 66.0585C198.168 73.1336 200.73 79.8962 204.781 85.7641C208.833 91.6321 214.252 96.4296 220.573 99.7437C226.895 103.058 233.928 104.789 241.068 104.789V109.065C233.538 109.058 226.114 107.297 219.386 103.922C212.658 100.548 206.811 95.6532 202.311 89.6277C197.811 83.6022 194.783 76.6119 193.465 69.2129C192.148 61.8139 192.579 54.2102 194.724 47.0065C190.239 48.3352 185.585 49.0095 180.907 49.0084C168.154 48.9536 155.939 43.8746 146.92 34.8766C137.901 25.8787 132.808 13.6899 132.749 0.962886H137.049Z"
        stroke="#EFDBD7" stroke-width="0.5" stroke-miterlimit="10" />
</svg>
    