<svg width="240" height="121" viewBox="0 0 240 121" fill="none" xmlns="http://www.w3.org/2000/svg">
    <path d="M119.8 0.599854H0.100098V120.3H119.8V0.599854Z" fill="#D3CEC3"/>
    <path d="M115.5 120.3C115.5 89.6 90.6 64.7 59.9 64.7C59.8 64.7 59.8 64.7 59.7 64.7C58.2 64.7 56.8 64.8 55.4 64.9C55.5 63.5 55.6 62 55.6 60.6C55.6 60.5 55.6 60.5 55.6 60.4C55.6 29.7 30.7 4.8 0 4.8V0.5C33.1 0.5 59.9 27.3 59.9 60.4C93 60.4 119.8 87.2 119.8 120.3H115.5Z" fill="#112337"/>
    <path d="M119.8 27.3998C105 27.3998 93 15.3999 93 0.599854H119.8V27.3998Z" fill="#484D49"/>
    <path d="M97.2999 0.599998C97.2999 0.599998 97.1999 6.9 99.6999 9.8C102.2 12.8 106.7 9.5 108.5 8.2C110.4 6.9 112.6 6.1 114.1 6.8C115.6 7.5 114.6 10.7 113.4 12.5C112.2 14.3 109.7 17.5 110.4 19.6C111.1 21.7 113.5 23.6 119.6 23.3V0.5H97.2999V0.599998Z" fill="#A39C8E"/>
    <path d="M119.8 6.19985C116.7 6.19985 114.2 3.69985 114.2 0.599854H119.8V6.19985Z" fill="#D3CEC3"/>
    <path d="M42.7002 11.9999C42.7002 11.9999 32.6002 2.49985 22.7002 0.599854H48.1002C48.2002 0.599854 42.9002 3.89985 42.7002 11.9999Z" fill="#112337"/>
    <path d="M119.7 32.5999C111.7 32.5999 104.3 29.5999 98.6998 24.6999L91.3998 31.9999C87.1998 36.1999 86.2998 42.5999 89.1998 47.6999L90.0998 49.3999C90.0998 49.3999 87.0998 51.2999 84.6998 49.3999C82.9998 47.9999 81.6998 46.5999 81.0998 45.8999C80.8998 45.6999 80.5998 45.6999 80.3998 45.8999L80.0998 46.1999C78.2998 47.9999 75.6998 48.9999 73.0998 48.7999C72.5998 48.7999 72.0998 48.7999 71.6998 48.9999L70.5998 49.3999L70.9998 48.2999C71.1998 47.7999 71.1998 47.3999 71.1998 46.8999C70.9998 44.2999 71.9998 41.7999 73.7998 39.8999L74.0998 39.5999C74.2998 39.3999 74.2998 38.9999 74.0998 38.8999C73.3998 38.2999 71.9998 37.0999 70.5998 35.2999C68.6998 32.8999 70.5998 29.8999 70.5998 29.8999L72.2998 30.7999C77.4998 33.5999 83.8998 32.6999 87.9998 28.5999L95.3998 21.1999C90.5998 15.5999 87.6998 8.2999 87.6998 0.399902H92.8998C92.8998 15.1999 104.9 27.2999 119.8 27.2999L119.7 32.5999Z" fill="#112337"/>
    <path d="M80.4 0.599854C80.4 0.599854 80.4 4.19986 80.4 6.79986C80.4 9.39986 77 12.2999 72.4 11.4999C67.8 10.7999 67.4 6.79986 61.8 6.79986C56.2 6.79986 54.1 9.69985 54.1 12.4999C54.1 15.1999 55.5 18.7999 60.4 18.7999C65.3 18.7999 66.9 15.4999 66.9 15.4999C66.9 15.4999 67.9 17.8999 67.9 20.5999C67.9 23.2999 63.9 25.3999 60.7 24.2999C60.7 24.2999 62.7 26.6999 64.3 28.9999C65.8 31.2999 66.3 33.3999 66.1 35.5999C65.9 37.7999 63 39.6999 62.1 40.0999C62.1 40.0999 61.4 35.8998 59.2 32.8998C57 29.8998 53.3 25.1999 51 22.6999C48.8 20.1999 47.2 14.4999 49.2 10.2999C51.2 6.09986 55.2 2.29985 59.3 0.599854H80.4Z" fill="#112337"/>
    <path d="M108.4 76.9998C108.4 76.9998 117.9 87.0998 119.8 96.9998V71.5999C119.8 71.5999 116.4 76.8998 108.4 76.9998Z" fill="#112337"/>
    <path d="M119.7 39.3999C119.7 39.3999 116.1 39.3999 113.5 39.3999C110.9 39.3999 108 42.7999 108.8 47.3999C109.5 51.9999 113.5 52.3999 113.5 57.9999C113.5 63.5999 110.6 65.6999 107.8 65.6999C105 65.6999 101.5 64.2999 101.5 59.3999C101.5 54.4999 104.8 52.8999 104.8 52.8999C104.8 52.8999 102.4 51.8999 99.7002 51.8999C97.0002 51.9999 94.9002 55.8999 96.0002 59.0999C96.0002 59.0999 93.6002 57.0999 91.3002 55.4999C89.0002 53.9999 86.9002 53.4999 84.7002 53.6999C82.5002 53.8999 80.6002 56.7999 80.2002 57.6999C80.2002 57.6999 84.4002 58.3999 87.4002 60.5999C90.4002 62.7999 95.1002 66.4999 97.6002 68.7999C100.1 70.9999 105.8 72.5999 110 70.5999C114.2 68.5999 118 64.5999 119.7 60.4999V39.3999Z" fill="#112337"/>
    <path d="M103.8 120.1C103.7 95.9998 84.1001 76.3998 60.0001 76.3998C54.5001 76.3998 49.2001 77.3998 44.4001 79.2998C44.1001 79.3998 43.8001 79.4998 43.5001 79.5998C42.1001 80.5998 41.5001 81.7998 41.7001 83.0998C42.1001 85.3998 45.2001 85.5998 45.2001 85.5998C44.3001 87.3998 41.6001 86.4998 41.6001 86.4998C41.6001 86.4998 42.1001 87.0998 42.0001 88.1998C41.9001 89.2998 40.7001 90.2998 40.7001 90.2998C40.7001 90.2998 40.6001 88.2998 39.9001 86.9998C39.2001 85.6998 37.3001 84.6998 35.9001 86.0998C33.7001 88.6998 30.7001 93.2998 29.9001 98.9998C28.6001 107.6 36.4001 113.8 43.8001 114.6V113C43.8001 111.9 44.7001 110.9 45.9001 110.9C47.0001 110.9 48.0001 111.8 48.0001 113V114.3C54.0001 112.6 56.6001 105 57.6001 101.2C57.6001 101.2 52.5001 98.8998 51.9001 92.9998C51.3001 87.1998 54.1001 86.0998 54.7001 83.3998C55.3001 80.6998 54.7001 79.2998 54.7001 79.2998C54.7001 79.2998 59.3001 78.5998 60.6001 82.2998C62.0001 85.9998 60.9001 89.7998 62.1001 90.1998C63.3001 90.6998 64.9001 87.6998 67.8001 86.2998C70.7001 84.8998 74.9001 84.4998 74.9001 84.4998C74.9001 84.4998 76.5001 91.9998 73.7001 95.5998C73.0001 96.4998 72.1001 97.2998 72.0001 98.4998C72.0001 98.5998 72.0001 98.6998 72.0001 98.7998C72.1001 98.8998 72.2001 99.0998 72.3001 99.0998C72.5001 99.0998 72.6001 99.0998 72.8001 99.0998C73.6001 98.9998 74.2001 98.3998 74.8001 97.9998C75.5001 97.4998 76.2001 96.9998 77.0001 96.6998C77.8001 96.3998 78.6001 96.3998 79.5001 96.3998C81.6001 96.3998 83.9001 97.0998 85.4001 98.5998C88.2001 101.3 89.9001 106.3 89.9001 106.3C89.9001 106.3 84.7001 104.2 80.3001 106.8C77.2001 108.6 72.2001 110.8 68.0001 109.9C63.8001 109.1 60.7001 104.2 60.7001 104.2C60.7001 104.2 58.8001 117.2 47.9001 118.7V120.1H43.7001V119C35.3001 118.3 27.5001 113.7 26.1001 104.6C25.6001 101.4 26.1001 97.7998 27.5001 94.5998C24.3001 97.5998 20.9001 101 19.9001 103.5C17.8001 108.8 18.4001 113.8 19.9001 115.8C19.9001 115.8 17.6001 116.4 15.5001 114.1C14.6001 113.1 14.4001 111.7 14.4001 110.5C14.4001 109.7 13.4001 109.4 13.0001 110C11.7001 111.8 11.1001 114.3 9.1001 115.5C8.2001 116 7.1001 116.4 6.1001 116.6C5.7001 116.7 3.7001 116.6 3.6001 116.8C3.8001 116.6 3.7001 114.7 3.8001 114.3C4.0001 113.3 4.3001 112.2 4.9001 111.3C6.1001 109.3 8.6001 108.7 10.4001 107.4C11.0001 106.9 10.7001 105.9 9.9001 106C8.7001 106.1 7.3001 105.9 6.3001 104.9C3.9001 102.8 4.6001 100.5 4.6001 100.5C6.6001 102 11.6001 102.6 16.9001 100.5C19.3001 99.4998 22.8001 96.1998 25.9001 92.9998C25.4001 93.1998 25.0001 93.3998 24.5001 93.5998C22.1001 94.5998 19.4001 95.0998 16.8001 94.7998C12.2001 94.3998 7.8001 91.7998 5.0001 88.0998C2.6001 84.8998 1.6001 80.9998 1.4001 76.9998H0.100098V72.7998H1.5001C3.0001 61.9998 15.9001 59.9998 15.9001 59.9998C15.9001 59.9998 11.1001 56.8998 10.2001 52.6998C9.4001 48.4998 11.5001 43.5998 13.3001 40.3998C15.8001 35.9998 13.8001 30.7998 13.8001 30.7998C13.8001 30.7998 18.8001 32.4998 21.5001 35.2998C23.0001 36.8998 23.7001 39.0998 23.7001 41.1998C23.7001 41.9998 23.7001 42.8998 23.4001 43.6998C23.1001 44.4998 22.6001 45.1998 22.1001 45.8998C21.7001 46.4998 21.1001 47.0998 21.0001 47.8998C21.0001 48.0998 21.0001 48.1998 21.0001 48.3998C21.0001 48.5998 21.2001 48.6998 21.3001 48.6998C21.4001 48.6998 21.5001 48.6998 21.6001 48.6998C22.7001 48.4998 23.6001 47.5998 24.5001 46.9998C28.1001 44.2998 35.6001 45.7998 35.6001 45.7998C35.6001 45.7998 35.1001 49.9998 33.8001 52.8998C32.4001 55.7998 29.4001 57.3998 29.9001 58.5998C30.4001 59.7998 34.1001 58.6998 37.8001 60.0998C41.5001 61.4998 40.8001 65.9998 40.8001 65.9998C40.8001 65.9998 39.4001 65.3998 36.7001 65.9998C34.0001 66.5998 32.9001 69.3998 27.1001 68.7998C21.3001 68.1998 18.9001 63.0998 18.9001 63.0998C15.1001 63.9998 7.5001 66.6998 5.8001 72.6998H7.1001C8.2001 72.6998 9.2001 73.5998 9.2001 74.7998C9.2001 75.8998 8.3001 76.8998 7.1001 76.8998H5.6001C6.4001 84.3998 12.6001 92.0998 21.2001 90.7998C26.3001 89.9998 30.5001 87.4998 33.3001 85.3998C33.5001 85.1998 33.7001 84.9998 33.8001 84.7998C34.8001 83.1998 33.9001 81.7998 32.7001 81.0998C31.5001 80.3998 29.4001 80.2998 29.4001 80.2998C29.4001 80.2998 30.4001 79.0998 31.5001 78.9998C32.6001 78.8998 33.2001 79.3998 33.2001 79.3998C33.2001 79.3998 32.4001 76.6998 34.1001 75.7998C34.1001 75.7998 34.3001 78.9998 36.6001 79.2998C38.3001 79.5998 39.8001 78.4998 40.9001 76.2998C40.9001 76.1998 41.0001 76.0998 41.0001 75.9998C42.8001 71.1998 43.9001 65.8998 43.9001 60.3998C43.9001 36.1998 24.3001 16.5998 0.100098 16.5998V12.2998C26.7001 12.2998 48.2001 33.7998 48.2001 60.3998C48.2001 65.1998 47.5001 69.7998 46.2001 74.1998C50.6001 72.8998 55.2001 72.1998 60.0001 72.1998C86.5001 72.1998 108 93.5998 108.1 120.1H103.8Z" fill="#6A6257"/>
    <path d="M5.0001 88C7.8001 91.7 12.2001 94.3 16.8001 94.7C19.4001 94.9 22.1001 94.5 24.5001 93.5C25.0001 93.3 25.4001 93.1 25.9001 92.9C22.8001 96.1 19.4001 99.4 16.9001 100.4C11.6001 102.5 6.6001 101.9 4.6001 100.4C4.6001 100.4 4.0001 102.7 6.3001 104.8C7.3001 105.7 8.7001 105.9 9.9001 105.9C10.7001 105.9 11.0001 106.9 10.4001 107.3C8.6001 108.6 6.1001 109.2 4.9001 111.2C4.4001 112.1 4.0001 113.2 3.8001 114.2C3.7001 114.6 3.8001 116.6 3.6001 116.7C3.8001 116.5 5.7001 116.6 6.1001 116.5C7.1001 116.3 8.2001 116 9.1001 115.4C11.1001 114.2 11.7001 111.7 13.0001 109.9C13.5001 109.3 14.5001 109.6 14.4001 110.4C14.3001 111.6 14.5001 113 15.5001 114C17.6001 116.4 19.9001 115.7 19.9001 115.7C18.4001 113.7 17.8001 108.7 19.9001 103.4C20.9001 100.9 24.3001 97.5 27.5001 94.5C26.1001 97.7 25.6001 101.3 26.1001 104.5C27.5001 113.6 35.3001 118.2 43.7001 118.9V120.3H0.100098V77H1.4001C1.6001 80.9 2.6001 84.9 5.0001 88Z" fill="#B1BFD6"/>
    <path d="M43.9 114.8C36.4 114 28.7 107.8 30 99.1998C30.8 93.4998 33.8 88.8999 36 86.2999C37.4 84.9999 39.2 85.9998 40 87.1998C40.7 88.4998 40.8 90.4998 40.8 90.4998C40.8 90.4998 42 89.4998 42.1 88.3998C42.2 87.2998 41.7 86.6998 41.7 86.6998C41.7 86.6998 44.4 87.4999 45.3 85.7999C45.3 85.7999 42.1 85.5999 41.8 83.2999C41.6 81.9999 42.2 80.7999 43.6 79.7999C43.9 79.6999 44.2 79.5998 44.5 79.4998C49.3 77.6998 54.6 76.5999 60.1 76.5999C84.3 76.5999 103.8 96.0998 103.9 120.3V120.5H48.1V119.1C59 117.6 60.9 104.6 60.9 104.6C60.9 104.6 64 109.4 68.2 110.3C72.4 111.1 77.3 109 80.5 107.2C84.9 104.7 90.1 106.7 90.1 106.7C90.1 106.7 88.4 101.7 85.6 98.9998C84 97.4998 81.8 96.7999 79.7 96.7999C78.9 96.7999 78 96.7999 77.2 97.0999C76.4 97.3999 75.7 97.8998 75 98.3998C74.4 98.7998 73.8 99.3998 73 99.4998C72.8 99.4998 72.7 99.4998 72.5 99.4998C72.3 99.4998 72.2 99.2998 72.2 99.1998C72.2 99.0998 72.2 98.9998 72.2 98.8998C72.4 97.7998 73.3 96.8998 73.9 95.9998C76.6 92.3998 75.1 84.8998 75.1 84.8998C75.1 84.8998 70.9 85.3998 68 86.6998C65.1 88.0998 63.5 91.0999 62.3 90.5999C61.1 90.0999 62.2 86.3998 60.8 82.6998C59.4 78.9998 54.9 79.6998 54.9 79.6998C54.9 79.6998 55.5 81.0999 54.9 83.7999C54.3 86.4999 51.5 87.5998 52.1 93.3998C52.7 99.1998 57.8 101.6 57.8 101.6C56.9 105.4 54.2 113 48.2 114.7V113.4C48.2 112.3 47.3 111.3 46.1 111.3C45 111.3 44 112.2 44 113.4V114.8H43.9Z" fill="#A39C8E"/>
    <path d="M43.9001 60.4998C43.9001 65.9998 42.9001 71.2999 41.0001 76.0999C41.0001 76.1999 40.9001 76.2998 40.9001 76.3998C39.8001 78.5998 38.3001 79.6998 36.6001 79.3998C34.3001 78.9998 34.1001 75.8998 34.1001 75.8998C32.3001 76.7998 33.2001 79.4998 33.2001 79.4998C33.2001 79.4998 32.6001 78.9999 31.5001 79.0999C30.4001 79.1999 29.4001 80.3998 29.4001 80.3998C29.4001 80.3998 31.4001 80.4998 32.7001 81.1998C34.0001 81.8998 34.9001 83.2998 33.8001 84.8998C33.7001 85.0998 33.5001 85.2999 33.3001 85.4998C30.6001 87.5998 26.4001 90.0998 21.2001 90.8998C12.6001 92.1998 6.4001 84.3998 5.6001 76.9998H7.2001C8.3001 76.9998 9.3001 76.0998 9.3001 74.8998C9.3001 73.7998 8.4001 72.7999 7.2001 72.7999H5.8001C7.5001 66.7999 15.1001 64.1998 18.9001 63.1998C18.9001 63.1998 21.2001 68.2998 27.1001 68.8998C32.9001 69.4998 34.0001 66.6999 36.7001 66.0999C39.4001 65.4999 40.8001 66.0999 40.8001 66.0999C40.8001 66.0999 41.5001 61.4998 37.8001 60.1998C34.1001 58.7998 30.4001 59.8998 29.9001 58.6998C29.4001 57.4998 32.4001 55.8998 33.8001 52.9998C35.2001 50.0998 35.6001 45.8998 35.6001 45.8998C35.6001 45.8998 28.1001 44.2999 24.5001 47.0999C23.6001 47.7999 22.8001 48.6999 21.6001 48.7999C21.5001 48.7999 21.4001 48.7999 21.3001 48.7999C21.2001 48.6999 21.0001 48.5998 21.0001 48.4998C21.0001 48.2998 21.0001 48.1998 21.0001 47.9998C21.1001 47.1998 21.7001 46.5998 22.1001 45.9998C22.6001 45.2998 23.1001 44.5998 23.4001 43.7999C23.7001 42.9999 23.7001 42.1999 23.7001 41.2999C23.7001 39.1999 23.0001 36.8998 21.5001 35.3998C18.8001 32.5998 13.8001 30.8998 13.8001 30.8998C13.8001 30.8998 15.9001 36.0998 13.3001 40.4998C11.5001 43.5998 9.3001 48.5998 10.2001 52.7999C11.0001 56.9999 15.9001 60.0999 15.9001 60.0999C15.9001 60.0999 3.0001 61.9999 1.5001 72.7999H0.100098V16.5999C24.3001 16.5999 43.9001 36.1998 43.9001 60.4998Z" fill="#A39C8E"/>
    <path d="M119.744 120.305L239.444 120.305L239.444 0.605171L119.744 0.605171L119.744 120.305Z" fill="#D3CEC3"/>
    <path d="M124 120.3C124 89.6 148.9 64.7 179.6 64.7C179.7 64.7 179.7 64.7 179.8 64.7C181.3 64.7 182.7 64.8 184.1 64.9C184 63.5 183.9 62 183.9 60.6C183.9 60.5 183.9 60.5 183.9 60.4C183.9 29.7 208.8 4.8 239.5 4.8V0.5C206.4 0.5 179.6 27.3 179.6 60.4C146.5 60.4 119.7 87.2 119.7 120.3H124Z" fill="#112337"/>
    <path d="M119.7 27.3998C134.5 27.3998 146.5 15.3999 146.5 0.599854H119.7V27.3998Z" fill="#484D49"/>
    <path d="M142.2 0.599998C142.2 0.599998 142.3 6.9 139.8 9.8C137.3 12.8 132.8 9.5 131 8.2C129.1 6.9 126.9 6.1 125.4 6.8C123.9 7.5 124.9 10.7 126.1 12.5C127.3 14.3 129.8 17.5 129.1 19.6C128.4 21.7 126 23.6 119.9 23.3V0.5H142.2V0.599998Z" fill="#A39C8E"/>
    <path d="M119.7 6.19985C122.8 6.19985 125.3 3.69985 125.3 0.599854H119.7V6.19985Z" fill="#D3CEC3"/>
    <path d="M196.7 11.9999C196.7 11.9999 206.8 2.49985 216.7 0.599854H191.3C191.3 0.599854 196.6 3.89985 196.7 11.9999Z" fill="#112337"/>
    <path d="M119.8 32.5999C127.8 32.5999 135.2 29.5999 140.8 24.6999L148.1 31.9999C152.3 36.1999 153.2 42.5999 150.3 47.6999L149.4 49.3999C149.4 49.3999 152.4 51.2999 154.8 49.3999C156.5 47.9999 157.8 46.5999 158.4 45.8999C158.6 45.6999 158.9 45.6999 159.1 45.8999L159.4 46.1999C161.2 47.9999 163.8 48.9999 166.4 48.7999C166.9 48.7999 167.4 48.7999 167.8 48.9999L168.9 49.3999L168.5 48.2999C168.3 47.7999 168.3 47.3999 168.3 46.8999C168.5 44.2999 167.5 41.7999 165.7 39.8999L165.4 39.5999C165.2 39.3999 165.2 38.9999 165.4 38.8999C166.1 38.2999 167.5 37.0999 168.9 35.2999C170.8 32.8999 168.9 29.8999 168.9 29.8999L167.2 30.7999C162 33.5999 155.6 32.6999 151.5 28.5999L144.1 21.1999C148.9 15.5999 151.8 8.2999 151.8 0.399902H146.6C146.6 15.1999 134.6 27.2999 119.7 27.2999L119.8 32.5999C119.7 32.5999 119.7 32.5999 119.8 32.5999Z" fill="#112337"/>
    <path d="M159 0.599854C159 0.599854 159 4.19986 159 6.79986C159 9.39986 162.4 12.2999 167 11.4999C171.6 10.7999 172 6.79986 177.6 6.79986C183.2 6.79986 185.3 9.69985 185.3 12.4999C185.3 15.1999 183.9 18.7999 179 18.7999C174.1 18.7999 172.5 15.4999 172.5 15.4999C172.5 15.4999 171.5 17.8999 171.5 20.5999C171.5 23.2999 175.5 25.3999 178.7 24.2999C178.7 24.2999 176.7 26.6999 175.1 28.9999C173.6 31.2999 173.1 33.3999 173.3 35.5999C173.5 37.7999 176.4 39.6999 177.3 40.0999C177.3 40.0999 178 35.8998 180.2 32.8998C182.4 29.8998 186.1 25.1999 188.4 22.6999C190.7 20.1999 192.2 14.4999 190.2 10.2999C188.2 6.09986 184.2 2.29985 180.1 0.599854H159Z" fill="#112337"/>
    <path d="M131.1 76.9998C131.1 76.9998 121.6 87.0998 119.7 96.9998V71.5999C119.7 71.5999 123.1 76.8998 131.1 76.9998Z" fill="#112337"/>
    <path d="M119.8 39.3999C119.8 39.3999 123.4 39.3999 126 39.3999C128.6 39.3999 131.5 42.7999 130.7 47.3999C130 51.9999 126 52.3999 126 57.9999C126 63.5999 128.9 65.6999 131.7 65.6999C134.4 65.6999 138 64.2999 138 59.3999C138 54.4999 134.7 52.8999 134.7 52.8999C134.7 52.8999 137.1 51.8999 139.8 51.8999C142.5 51.8999 144.6 55.8999 143.5 59.0999C143.5 59.0999 145.9 57.0999 148.2 55.4999C150.5 53.8999 152.6 53.4999 154.8 53.6999C157 53.8999 158.9 56.7999 159.3 57.6999C159.3 57.6999 155.1 58.3999 152.1 60.5999C149.1 62.7999 144.4 66.4999 141.9 68.7999C139.4 71.0999 133.7 72.5999 129.5 70.5999C125.3 68.5999 121.5 64.5999 119.8 60.4999V39.3999Z" fill="#112337"/>
    <path d="M135.7 120.1C135.8 95.9998 155.4 76.3998 179.5 76.3998C185 76.3998 190.3 77.3998 195.1 79.2998C195.4 79.3998 195.7 79.4998 196 79.5998C197.4 80.5998 198 81.7998 197.8 83.0998C197.4 85.3998 194.3 85.5998 194.3 85.5998C195.2 87.3998 197.9 86.4998 197.9 86.4998C197.9 86.4998 197.4 87.0998 197.5 88.1998C197.6 89.2998 198.8 90.2998 198.8 90.2998C198.8 90.2998 198.9 88.2998 199.6 86.9998C200.3 85.6998 202.2 84.6998 203.6 86.0998C205.8 88.6998 208.8 93.2998 209.6 98.9998C210.9 107.6 203.1 113.8 195.7 114.6V113C195.7 111.9 194.8 110.9 193.6 110.9C192.4 110.9 191.5 111.8 191.5 113V114.3C185.5 112.6 182.9 105 181.9 101.2C181.9 101.2 187 98.8998 187.6 92.9998C188.2 87.1998 185.4 86.0998 184.8 83.3998C184.2 80.6998 184.8 79.2998 184.8 79.2998C184.8 79.2998 180.2 78.5998 178.9 82.2998C177.5 85.9998 178.6 89.7998 177.4 90.1998C176.2 90.6998 174.6 87.6998 171.7 86.2998C168.8 84.8998 164.6 84.4998 164.6 84.4998C164.6 84.4998 163 91.9998 165.8 95.5998C166.5 96.4998 167.4 97.2998 167.5 98.4998C167.5 98.5998 167.5 98.6998 167.5 98.7998C167.4 98.8998 167.3 99.0998 167.2 99.0998C167 99.0998 166.9 99.0998 166.7 99.0998C165.9 98.9998 165.3 98.3998 164.7 97.9998C164 97.4998 163.3 96.9998 162.5 96.6998C161.7 96.3998 160.9 96.3998 160 96.3998C157.9 96.3998 155.6 97.0998 154.1 98.5998C151.3 101.3 149.6 106.3 149.6 106.3C149.6 106.3 154.8 104.2 159.2 106.8C162.3 108.6 167.3 110.8 171.5 109.9C175.7 109.1 178.8 104.2 178.8 104.2C178.8 104.2 180.7 117.2 191.6 118.7V120.1H195.8V119C204.2 118.3 212 113.7 213.4 104.6C213.9 101.4 213.4 97.7998 212 94.5998C215.2 97.5998 218.6 101 219.6 103.5C221.7 108.8 221.1 113.8 219.6 115.8C219.6 115.8 221.9 116.4 224 114.1C224.9 113.1 225.1 111.7 225.1 110.5C225.1 109.7 226.1 109.4 226.5 110C227.8 111.8 228.4 114.3 230.4 115.5C231.3 116 232.4 116.4 233.4 116.6C233.8 116.7 235.8 116.6 235.9 116.8C235.7 116.6 235.8 114.7 235.7 114.3C235.5 113.3 235.2 112.2 234.6 111.3C233.4 109.3 230.9 108.7 229.1 107.4C228.5 106.9 228.8 105.9 229.6 106C230.8 106.1 232.2 105.9 233.2 104.9C235.6 102.8 234.9 100.5 234.9 100.5C232.9 102 227.9 102.6 222.6 100.5C220.2 99.4998 216.7 96.1998 213.6 92.9998C214.1 93.1998 214.5 93.3998 215 93.5998C217.4 94.5998 220.1 95.0998 222.7 94.7998C227.3 94.3998 231.7 91.7998 234.5 88.0998C236.9 84.8998 237.9 80.9998 238.1 76.9998H239.4V72.7998H238C236.5 61.8998 223.5 59.9998 223.5 59.9998C223.5 59.9998 228.3 56.8998 229.2 52.6998C230 48.4998 227.9 43.5998 226.1 40.3998C223.6 35.9998 225.6 30.7998 225.6 30.7998C225.6 30.7998 220.6 32.4998 217.9 35.2998C216.4 36.8998 215.7 39.0998 215.7 41.1998C215.7 41.9998 215.7 42.8998 216 43.6998C216.3 44.4998 216.8 45.1998 217.3 45.8998C217.7 46.4998 218.3 47.0998 218.4 47.8998C218.4 48.0998 218.4 48.1998 218.4 48.3998C218.4 48.5998 218.2 48.6998 218.1 48.6998C218 48.6998 217.9 48.6998 217.8 48.6998C216.7 48.4998 215.8 47.5998 214.9 46.9998C211.3 44.2998 203.8 45.7998 203.8 45.7998C203.8 45.7998 204.3 49.9998 205.6 52.8998C207 55.7998 210 57.3998 209.5 58.5998C209 59.7998 205.3 58.6998 201.6 60.0998C197.9 61.4998 198.6 65.9998 198.6 65.9998C198.6 65.9998 200 65.3998 202.7 65.9998C205.4 66.5998 206.5 69.3998 212.3 68.7998C218.1 68.1998 220.5 63.0998 220.5 63.0998C224.3 63.9998 231.9 66.6998 233.6 72.6998H232.3C231.2 72.6998 230.2 73.5998 230.2 74.7998C230.2 75.8998 231.1 76.8998 232.3 76.8998H233.9C233.1 84.3998 226.9 92.0998 218.3 90.7998C213.2 89.9998 209 87.4998 206.2 85.3998C206 85.1998 205.8 84.9998 205.7 84.7998C204.7 83.1998 205.6 81.7998 206.8 81.0998C208.1 80.3998 210.1 80.2998 210.1 80.2998C210.1 80.2998 209.1 79.0998 208 78.9998C206.9 78.8998 206.3 79.3998 206.3 79.3998C206.3 79.3998 207.1 76.6998 205.4 75.7998C205.4 75.7998 205.2 78.9998 202.9 79.2998C201.2 79.5998 199.7 78.4998 198.6 76.2998C198.6 76.1998 198.5 76.0998 198.5 75.9998C196.7 71.1998 195.6 65.8998 195.6 60.3998C195.6 36.1998 215.2 16.5998 239.4 16.5998V12.2998C212.8 12.2998 191.3 33.7998 191.3 60.3998C191.3 65.1998 192 69.7998 193.3 74.1998C188.9 72.8998 184.3 72.1998 179.5 72.1998C153 72.1998 131.5 93.5998 131.4 120.1H135.7Z" fill="#6A6257"/>
    <path d="M234.5 88C231.7 91.7 227.3 94.3 222.7 94.7C220.1 94.9 217.4 94.5 215 93.5C214.5 93.3 214.1 93.1 213.6 92.9C216.7 96.1 220.1 99.4 222.6 100.4C227.9 102.5 232.9 101.9 234.9 100.4C234.9 100.4 235.5 102.7 233.2 104.8C232.2 105.7 230.8 105.9 229.6 105.9C228.8 105.9 228.5 106.9 229.1 107.3C230.9 108.6 233.4 109.2 234.6 111.2C235.1 112.1 235.5 113.2 235.7 114.2C235.8 114.6 235.7 116.6 235.9 116.7C235.7 116.5 233.8 116.6 233.4 116.5C232.4 116.3 231.3 116 230.4 115.4C228.4 114.2 227.8 111.7 226.5 109.9C226 109.3 225 109.6 225.1 110.4C225.2 111.6 225 113 224 114C221.9 116.4 219.6 115.7 219.6 115.7C221.1 113.7 221.7 108.7 219.6 103.4C218.6 100.9 215.2 97.5 212 94.5C213.4 97.7 213.9 101.3 213.4 104.5C212 113.6 204.2 118.2 195.8 118.9V120.3H239.7V77H238.4C237.9 80.9 236.9 84.9 234.5 88Z" fill="#B1BFD6"/>
    <path d="M195.6 114.8C203.1 114 210.8 107.8 209.5 99.1998C208.7 93.4998 205.7 88.8999 203.5 86.2999C202.1 84.9999 200.3 85.9998 199.5 87.1998C198.8 88.4998 198.7 90.4998 198.7 90.4998C198.7 90.4998 197.5 89.4998 197.4 88.3998C197.3 87.2998 197.8 86.6998 197.8 86.6998C197.8 86.6998 195.1 87.4999 194.2 85.7999C194.2 85.7999 197.4 85.5999 197.7 83.2999C197.9 81.9999 197.3 80.7999 195.9 79.7999C195.6 79.6999 195.3 79.5998 195 79.4998C190.2 77.6998 184.9 76.5999 179.4 76.5999C155.2 76.5999 135.7 96.0998 135.6 120.3V120.5H191.3V119.1C180.4 117.6 178.5 104.6 178.5 104.6C178.5 104.6 175.4 109.4 171.2 110.3C167 111.1 162.1 109 158.9 107.2C154.5 104.7 149.3 106.7 149.3 106.7C149.3 106.7 151 101.7 153.8 98.9998C155.4 97.4998 157.6 96.7999 159.7 96.7999C160.5 96.7999 161.4 96.7999 162.2 97.0999C163 97.3999 163.7 97.8998 164.4 98.3998C165 98.7998 165.6 99.3998 166.4 99.4998C166.6 99.4998 166.7 99.4998 166.9 99.4998C167.1 99.4998 167.2 99.2998 167.2 99.1998C167.2 99.0998 167.2 98.9998 167.2 98.8998C167 97.7998 166.1 96.8998 165.5 95.9998C162.8 92.3998 164.3 84.8998 164.3 84.8998C164.3 84.8998 168.5 85.3998 171.4 86.6998C174.3 88.0998 175.9 91.0999 177.1 90.5999C178.3 90.0999 177.2 86.3998 178.6 82.6998C180 78.9998 184.5 79.6998 184.5 79.6998C184.5 79.6998 183.9 81.0999 184.5 83.7999C185.1 86.4999 187.9 87.5998 187.3 93.3998C186.7 99.1998 181.6 101.6 181.6 101.6C182.5 105.4 185.2 113 191.2 114.7V113.4C191.2 112.3 192.1 111.3 193.3 111.3C194.5 111.3 195.4 112.2 195.4 113.4V114.8H195.6Z" fill="#A39C8E"/>
    <path d="M195.6 60.4998C195.6 65.9998 196.6 71.2999 198.5 76.0999C198.5 76.1999 198.6 76.2998 198.6 76.3998C199.7 78.5998 201.2 79.6998 202.9 79.3998C205.2 78.9998 205.4 75.8998 205.4 75.8998C207.2 76.7998 206.3 79.4998 206.3 79.4998C206.3 79.4998 206.9 78.9999 208 79.0999C209.1 79.1999 210.1 80.3998 210.1 80.3998C210.1 80.3998 208.1 80.4998 206.8 81.1998C205.5 81.8998 204.6 83.2998 205.7 84.8998C205.8 85.0998 206 85.2999 206.2 85.4998C208.9 87.5998 213.1 90.0998 218.3 90.8998C226.9 92.1998 233.1 84.3998 233.9 76.9998H232.3C231.2 76.9998 230.2 76.0998 230.2 74.8998C230.2 73.7998 231.1 72.7999 232.3 72.7999H233.6C231.9 66.7999 224.3 64.1998 220.5 63.1998C220.5 63.1998 218.2 68.2998 212.3 68.8998C206.5 69.4998 205.4 66.6999 202.7 66.0999C200 65.4999 198.6 66.0999 198.6 66.0999C198.6 66.0999 197.9 61.4998 201.6 60.1998C205.3 58.7998 209 59.8998 209.5 58.6998C210 57.4998 207 55.8998 205.6 52.9998C204.2 50.0998 203.8 45.8998 203.8 45.8998C203.8 45.8998 211.3 44.2999 214.9 47.0999C215.8 47.7999 216.6 48.6999 217.8 48.7999C217.9 48.7999 218 48.7999 218.1 48.7999C218.2 48.6999 218.4 48.5998 218.4 48.4998C218.4 48.2998 218.4 48.1998 218.4 47.9998C218.3 47.1998 217.7 46.5998 217.3 45.9998C216.8 45.2998 216.3 44.5998 216 43.7999C215.7 42.9999 215.7 42.1999 215.7 41.2999C215.7 39.1999 216.4 36.8998 217.9 35.3998C220.6 32.5998 225.6 30.8998 225.6 30.8998C225.6 30.8998 223.5 36.0998 226.1 40.4998C227.9 43.5998 230.1 48.5998 229.2 52.7999C228.4 56.9999 223.5 60.0999 223.5 60.0999C223.5 60.0999 236.5 61.9998 238 72.8998H239.4V16.6998C215.2 16.5998 195.6 36.1998 195.6 60.4998Z" fill="#A39C8E"/>
    </svg>
    