<svg width="240" height="121" viewBox="0 0 240 121" fill="none" xmlns="http://www.w3.org/2000/svg">
    <path d="M119.8 0.800049H0.100098V120.5H119.8V0.800049Z" fill="#D3CEC3" />
    <path
        d="M115.5 0.800049C115.5 31.5 90.6 56.4001 59.9 56.4001C59.8 56.4001 59.8 56.4001 59.7 56.4001C58.2 56.4001 56.8 56.3 55.4 56.2001C55.5 57.6001 55.6 59.1 55.6 60.5C55.6 60.6 55.6 60.6001 55.6 60.7001C55.6 91.4001 30.7 116.3 0 116.3V120.6C33.1 120.6 59.9 93.8 59.9 60.7001C93 60.7001 119.8 33.9 119.8 0.800049H115.5Z"
        fill="#112337" />
    <path d="M119.8 93.7C105 93.7 93 105.7 93 120.5H119.8V93.7Z" fill="#484D49" />
    <path
        d="M97.2999 120.5C97.2999 120.5 97.1999 114.2 99.6999 111.3C102.2 108.3 106.7 111.6 108.5 112.9C110.3 114.2 112.6 115 114.1 114.3C115.6 113.6 114.6 110.4 113.4 108.6C112.2 106.8 109.7 103.6 110.4 101.5C111.1 99.4001 113.5 97.5001 119.6 97.8001V120.6H97.2999V120.5Z"
        fill="#A39C8E" />
    <path d="M119.8 114.9C116.7 114.9 114.2 117.4 114.2 120.5H119.8V114.9Z" fill="#D3CEC3" />
    <path
        d="M42.7002 109.2C42.7002 109.2 32.6002 118.7 22.7002 120.6H48.1002C48.2002 120.6 42.9002 117.2 42.7002 109.2Z"
        fill="#112337" />
    <path
        d="M119.7 88.5001C111.7 88.5001 104.3 91.5001 98.6998 96.4001L91.3998 89.0001C87.1998 84.8001 86.2998 78.4001 89.1998 73.3001L90.0998 71.6001C90.0998 71.6001 87.0998 69.7001 84.6998 71.6001C82.9998 73.0001 81.6998 74.4001 81.0998 75.1001C80.8998 75.3001 80.5998 75.3001 80.3998 75.1001L80.0998 74.8001C78.2998 73.0001 75.6998 72.0001 73.0998 72.2001C72.5998 72.2001 72.0998 72.2001 71.6998 72.0001L70.5998 71.6001L70.9998 72.7001C71.1998 73.2001 71.1998 73.6001 71.1998 74.1001C70.9998 76.7001 71.9998 79.2001 73.7998 81.1001L74.0998 81.4001C74.2998 81.6001 74.2998 82.0001 74.0998 82.1001C73.3998 82.7001 71.9998 83.9001 70.5998 85.7001C68.6998 88.1001 70.5998 91.1001 70.5998 91.1001L72.2998 90.2001C77.4998 87.4001 83.8998 88.3001 87.9998 92.4001L95.3998 99.8001C90.5998 105.4 87.6998 112.7 87.6998 120.6H92.8998C92.8998 105.8 104.9 93.7001 119.8 93.7001L119.7 88.5001Z"
        fill="#112337" />
    <path
        d="M80.3999 120.5C80.3999 120.5 80.3999 116.9 80.3999 114.3C80.3999 111.7 76.9999 108.8 72.3999 109.6C67.7999 110.3 67.3999 114.3 61.7999 114.3C56.1999 114.3 54.0999 111.4 54.0999 108.6C54.0999 105.8 55.4999 102.3 60.3999 102.3C65.2999 102.3 66.8999 105.6 66.8999 105.6C66.8999 105.6 67.8999 103.2 67.8999 100.5C67.7999 97.8 63.8999 95.7 60.6999 96.8C60.6999 96.8 62.6999 94.4 64.2999 92.1C65.7999 89.8 66.2999 87.7 66.0999 85.5C65.8999 83.3 62.9999 81.4 61.9999 81C61.9999 81 61.2999 85.2 59.0999 88.2C56.8999 91.2 53.1999 95.9 50.8999 98.4C48.6999 100.9 47.0999 106.6 49.0999 110.8C51.0999 115 55.0999 118.8 59.1999 120.5H80.3999Z"
        fill="#112337" />
    <path
        d="M108.4 44.1001C108.4 44.1001 117.9 34.0001 119.8 24.1001V49.5001C119.8 49.5001 116.4 44.3001 108.4 44.1001Z"
        fill="#112337" />
    <path
        d="M119.7 81.7C119.7 81.7 116.1 81.7 113.5 81.7C110.9 81.7 108 78.3 108.8 73.7C109.6 69.1 113.5 68.7 113.5 63.1C113.5 57.5 110.6 55.4 107.8 55.4C105.1 55.4 101.5 56.8 101.5 61.7C101.5 66.6 104.8 68.2 104.8 68.2C104.8 68.2 102.4 69.2 99.7002 69.2C97.0002 69.1 94.9002 65.2 96.0002 62C96.0002 62 93.6002 64 91.3002 65.6C89.0002 67.1 86.9002 67.6 84.7002 67.4C82.5002 67.2 80.6002 64.3 80.2002 63.4C80.2002 63.4 84.4002 62.7 87.4002 60.5C90.4002 58.3 95.1002 54.6 97.6002 52.3C100.1 50.1 105.8 48.5 110 50.5C114.2 52.5 118 56.5 119.7 60.6V81.7Z"
        fill="#112337" />
    <path
        d="M103.8 1.00005C103.7 25.1 84.1001 44.7001 60.0001 44.7001C54.5001 44.7001 49.2001 43.7001 44.4001 41.8C44.1001 41.7001 43.8001 41.6 43.5001 41.5C42.1001 40.5 41.5001 39.3 41.7001 38C42.1001 35.7001 45.2001 35.5 45.2001 35.5C44.3001 33.7001 41.6001 34.6 41.6001 34.6C41.6001 34.6 42.1001 34 42.0001 32.9001C41.9001 31.8001 40.7001 30.8 40.7001 30.8C40.7001 30.8 40.6001 32.8 39.9001 34.1C39.2001 35.4 37.3001 36.4001 35.9001 35C33.7001 32.4 30.7001 27.8 29.9001 22.1C28.6001 13.5 36.4001 7.30005 43.8001 6.50005V8.00005C43.8001 9.10005 44.7001 10.1 45.9001 10.1C47.0001 10.1 48.0001 9.20005 48.0001 8.00005V6.60005C54.0001 8.30005 56.6001 15.9001 57.6001 19.7001C57.6001 19.7001 52.5001 22 51.9001 27.9C51.3001 33.7001 54.1001 34.8 54.7001 37.5C55.3001 40.2001 54.7001 41.6 54.7001 41.6C54.7001 41.6 59.3001 42.3 60.6001 38.6C62.0001 34.9 60.9001 31.1 62.1001 30.7001C63.3001 30.2001 64.9001 33.2 67.8001 34.6C70.7001 36 74.9001 36.4001 74.9001 36.4001C74.9001 36.4001 76.5001 28.9 73.7001 25.3C73.0001 24.4 72.1001 23.6 72.0001 22.4C72.0001 22.3 72.0001 22.2001 72.0001 22.1C72.1001 22 72.2001 21.8 72.3001 21.8C72.5001 21.8 72.6001 21.8 72.8001 21.8C73.6001 21.9 74.2001 22.5 74.8001 22.9C75.5001 23.4 76.2001 23.9001 77.0001 24.2001C77.8001 24.5 78.6001 24.5 79.5001 24.5C81.6001 24.5 83.9001 23.8 85.4001 22.3C88.2001 19.6 89.9001 14.6 89.9001 14.6C89.9001 14.6 84.7001 16.7 80.3001 14.1C77.2001 12.3 72.2001 10.1 68.0001 11C63.8001 11.8 60.7001 16.7 60.7001 16.7C60.7001 16.7 58.8001 3.70005 47.9001 2.20005V0.800049H43.7001V2.20005C35.3001 2.90005 27.5001 7.50005 26.1001 16.6C25.6001 19.8 26.1001 23.4 27.5001 26.6C24.3001 23.6 20.9001 20.2001 19.9001 17.7001C17.8001 12.4001 18.4001 7.40005 19.9001 5.40005C19.9001 5.40005 17.6001 4.80005 15.5001 7.10005C14.6001 8.10005 14.4001 9.50005 14.4001 10.7C14.4001 11.5 13.4001 11.8 13.0001 11.2C11.7001 9.40005 11.1001 6.90005 9.1001 5.70005C8.2001 5.20005 7.1001 4.80005 6.1001 4.60005C5.7001 4.50005 3.7001 4.60005 3.6001 4.40005C3.8001 4.60005 3.7001 6.50005 3.8001 6.90005C4.0001 7.90005 4.3001 9.00005 4.9001 9.90005C6.1001 11.9 8.6001 12.5 10.4001 13.8C11.0001 14.3 10.7001 15.3 9.9001 15.2C8.7001 15.1 7.3001 15.3 6.3001 16.3C3.9001 18.4 4.6001 20.7001 4.6001 20.7001C6.6001 19.2001 11.6001 18.6 16.9001 20.7001C19.3001 21.7001 22.8001 25 25.9001 28.2001C25.4001 28 25.0001 27.8001 24.5001 27.6C22.1001 26.6 19.4001 26.1 16.8001 26.4C12.2001 26.8 7.8001 29.4 5.0001 33.1C2.6001 36.3 1.6001 40.2001 1.4001 44.2001H0.100098V48.4001H1.5001C3.0001 59.2001 15.9001 61.1 15.9001 61.1C15.9001 61.1 11.1001 64.2 10.2001 68.4C9.4001 72.6 11.5001 77.5 13.3001 80.7C15.8001 85.1 13.8001 90.3 13.8001 90.3C13.8001 90.3 18.8001 88.6001 21.5001 85.8C23.0001 84.2001 23.7001 82 23.7001 79.9C23.7001 79.1 23.7001 78.2001 23.4001 77.4C23.1001 76.6 22.6001 75.9 22.1001 75.2C21.7001 74.6 21.1001 74 21.0001 73.2C21.0001 73 21.0001 72.9 21.0001 72.7C21.0001 72.5 21.2001 72.4 21.3001 72.4C21.4001 72.4 21.5001 72.4 21.6001 72.4C22.7001 72.6 23.6001 73.5 24.5001 74.1C28.1001 76.8 35.6001 75.3 35.6001 75.3C35.6001 75.3 35.1001 71.1 33.8001 68.2C32.4001 65.3 29.4001 63.7001 29.9001 62.5C30.4001 61.3 34.1001 62.4001 37.8001 61C41.5001 59.6 40.8001 55.1 40.8001 55.1C40.8001 55.1 39.4001 55.7 36.7001 55.1C34.0001 54.5 32.9001 51.7001 27.1001 52.3C21.3001 52.9 18.9001 58 18.9001 58C15.2001 57 7.6001 54.3 5.8001 48.3H7.1001C8.2001 48.3 9.2001 47.4001 9.2001 46.2001C9.2001 45.1001 8.3001 44.1 7.1001 44.1H5.6001C6.4001 36.6 12.6001 28.9001 21.2001 30.2001C26.3001 31 30.5001 33.5 33.3001 35.6C33.5001 35.8 33.7001 36 33.8001 36.2001C34.8001 37.8 33.9001 39.2001 32.7001 39.9001C31.5001 40.6001 29.4001 40.7001 29.4001 40.7001C29.4001 40.7001 30.4001 41.9001 31.5001 42C32.6001 42.1 33.2001 41.6 33.2001 41.6C33.2001 41.6 32.4001 44.3 34.1001 45.2001C34.1001 45.2001 34.3001 42 36.6001 41.7001C38.3001 41.4001 39.8001 42.5 40.9001 44.7001C40.9001 44.8 41.0001 44.9001 41.0001 45C42.8001 49.8 43.9001 55.1 43.9001 60.6C43.9001 84.8 24.3001 104.4 0.100098 104.4V108.7C26.7001 108.7 48.2001 87.2001 48.2001 60.6C48.2001 55.8 47.5001 51.2001 46.2001 46.8C50.6001 48.1 55.2001 48.8 60.0001 48.8C86.5001 48.8 108 27.4 108.1 0.900049H103.8V1.00005Z"
        fill="#6A6257" />
    <path
        d="M5.0001 33.1C7.8001 29.4 12.2001 26.8 16.8001 26.4C19.4001 26.2 22.1001 26.6 24.5001 27.6C25.0001 27.8001 25.4001 28 25.9001 28.2001C22.8001 25 19.4001 21.7001 16.9001 20.7001C11.6001 18.6 6.6001 19.2001 4.6001 20.7001C4.6001 20.7001 4.0001 18.4 6.3001 16.3C7.3001 15.4 8.7001 15.2 9.9001 15.2C10.7001 15.2 11.0001 14.2 10.4001 13.8C8.7001 12.5 6.1001 12 5.0001 9.90005C4.5001 9.00005 4.1001 7.90005 3.9001 6.90005C3.8001 6.50005 3.9001 4.50005 3.7001 4.40005C3.9001 4.60005 5.8001 4.50005 6.2001 4.60005C7.2001 4.80005 8.3001 5.10005 9.2001 5.70005C11.2001 6.90005 11.8001 9.40005 13.1001 11.2C13.6001 11.8 14.6001 11.5 14.5001 10.7C14.4001 9.50005 14.6001 8.10005 15.6001 7.10005C17.7001 4.70005 20.0001 5.40005 20.0001 5.40005C18.5001 7.40005 17.9001 12.4001 20.0001 17.7001C21.0001 20.2001 24.4001 23.6 27.6001 26.6C26.2001 23.4 25.7001 19.8 26.2001 16.6C27.6001 7.50005 35.4001 2.90005 43.8001 2.20005V0.800049H0.100098V44.1H1.4001C1.6001 40.2 2.6001 36.3 5.0001 33.1Z"
        fill="#B1BFD6" />
    <path
        d="M43.9 6.30005C36.4 7.10005 28.7 13.3 30 21.9C30.8 27.6 33.8 32.2 36 34.8C37.4 36.1 39.2 35.1001 40 33.9001C40.7 32.6001 40.8 30.6 40.8 30.6C40.8 30.6 42 31.6 42.1 32.7001C42.2 33.8 41.7 34.4001 41.7 34.4001C41.7 34.4001 44.4 33.6 45.3 35.3C45.3 35.3 42.1 35.5 41.8 37.8C41.6 39.1 42.2 40.3 43.6 41.3C43.9 41.4 44.2 41.5 44.5 41.6C49.3 43.4 54.6 44.5 60.1 44.5C84.3 44.5 103.8 25 103.9 0.800049H48.1V2.20005C59 3.70005 60.9 16.7 60.9 16.7C60.9 16.7 64 11.9 68.2 11C72.4 10.2 77.3 12.3 80.5 14.1C84.9 16.6 90.1 14.6 90.1 14.6C90.1 14.6 88.4 19.6 85.6 22.3C84 23.8 81.8 24.5 79.7 24.5C78.9 24.5 78 24.5 77.2 24.2001C76.4 23.9001 75.7 23.4 75 22.9C74.4 22.5 73.8 21.9 73 21.8C72.8 21.8 72.7 21.8 72.5 21.8C72.3 21.8 72.2 22 72.2 22.1C72.2 22.2001 72.2 22.3 72.2 22.4C72.4 23.5 73.3 24.4 73.9 25.3C76.6 28.9 75.1 36.4001 75.1 36.4001C75.1 36.4001 70.9 35.9 68 34.6C65.1 33.2 63.5 30.2001 62.3 30.7001C61.1 31.2001 62.2 34.9 60.8 38.6C59.4 42.3 54.9 41.6 54.9 41.6C54.9 41.6 55.5 40.2001 54.9 37.5C54.3 34.8 51.5 33.7001 52.1 27.9C52.7 22.1 57.8 19.7001 57.8 19.7001C56.9 15.9001 54.2 8.30005 48.2 6.60005V8.00005C48.2 9.10005 47.3 10.1 46.1 10.1C45 10.1 44 9.20005 44 8.00005V6.30005H43.9Z"
        fill="#A39C8E" />
    <path
        d="M43.9001 60.7C43.9001 55.2 42.9001 49.9 41.0001 45.1C41.0001 45 40.9001 44.9 40.9001 44.8C39.8001 42.6 38.3001 41.5 36.6001 41.8C34.3001 42.2 34.1001 45.3 34.1001 45.3C32.3001 44.4 33.2001 41.7 33.2001 41.7C33.2001 41.7 32.6001 42.2 31.5001 42.1C30.4001 42 29.4001 40.8 29.4001 40.8C29.4001 40.8 31.4001 40.7 32.7001 40C34.0001 39.3 34.9001 37.9 33.8001 36.3C33.7001 36.1 33.5001 35.9 33.3001 35.7C30.6001 33.6 26.4001 31.1 21.2001 30.3C12.5001 29 6.3001 36.7 5.6001 44.2H7.2001C8.3001 44.2 9.3001 45.1 9.3001 46.3C9.3001 47.4 8.4001 48.4 7.2001 48.4H5.8001C7.5001 54.4 15.1001 57 18.9001 58C18.9001 58 21.2001 52.9 27.1001 52.3C32.9001 51.7 34.0001 54.5 36.7001 55.1C39.4001 55.7 40.8001 55.1 40.8001 55.1C40.8001 55.1 41.5001 59.7 37.8001 61C34.1001 62.4 30.4001 61.3 29.9001 62.5C29.4001 63.7 32.4001 65.3 33.8001 68.2C35.2001 71.1 35.6001 75.3 35.6001 75.3C35.6001 75.3 28.1001 76.9 24.5001 74.1C23.6001 73.4 22.8001 72.5 21.6001 72.4C21.5001 72.4 21.4001 72.4 21.3001 72.4C21.2001 72.5 21.0001 72.6 21.0001 72.7C21.0001 72.9 21.0001 73 21.0001 73.2C21.1001 74 21.7001 74.6 22.1001 75.2C22.6001 75.9 23.1001 76.6 23.4001 77.4C23.7001 78.2 23.7001 79 23.7001 79.9C23.7001 82 23.0001 84.3 21.5001 85.8C18.8001 88.6 13.8001 90.3 13.8001 90.3C13.8001 90.3 15.9001 85.1 13.3001 80.7C11.5001 77.6 9.3001 72.6 10.2001 68.4C11.0001 64.2 15.9001 61.1 15.9001 61.1C15.9001 61.1 3.0001 59.2 1.5001 48.3H0.100098V104.5C24.3001 104.5 43.9001 84.9 43.9001 60.7Z"
        fill="#A39C8E" />
    <path d="M119.744 120.567L239.444 120.567L239.444 0.866653L119.744 0.866653L119.744 120.567Z"
        fill="#D3CEC3" />
    <path
        d="M124 0.800049C124 31.5 148.9 56.4001 179.6 56.4001C179.7 56.4001 179.7 56.4001 179.8 56.4001C181.3 56.4001 182.7 56.3 184.1 56.2001C184 57.6001 183.9 59.1 183.9 60.5C183.9 60.6 183.9 60.6001 183.9 60.7001C183.9 91.4001 208.8 116.3 239.5 116.3V120.6C206.4 120.6 179.6 93.8 179.6 60.7001C146.5 60.7001 119.7 33.9 119.7 0.800049H124Z"
        fill="#112337" />
    <path d="M119.7 93.7C134.5 93.7 146.5 105.7 146.5 120.5H119.7V93.7Z" fill="#484D49" />
    <path
        d="M142.2 120.5C142.2 120.5 142.3 114.2 139.8 111.3C137.3 108.3 132.8 111.6 131 112.9C129.1 114.2 126.9 115 125.4 114.3C123.9 113.6 124.9 110.4 126.1 108.6C127.3 106.8 129.8 103.6 129.1 101.5C128.4 99.4001 126 97.5001 119.9 97.8001V120.6H142.2V120.5Z"
        fill="#A39C8E" />
    <path d="M119.7 114.9C122.8 114.9 125.3 117.4 125.3 120.5H119.7V114.9Z" fill="#D3CEC3" />
    <path
        d="M196.7 109.2C196.7 109.2 206.8 118.7 216.7 120.6H191.3C191.3 120.6 196.6 117.2 196.7 109.2Z"
        fill="#112337" />
    <path
        d="M119.8 88.5002C127.8 88.5002 135.2 91.5002 140.8 96.4002L148.1 89.1002C152.3 84.9002 153.2 78.5002 150.3 73.4002L149.4 71.7002C149.4 71.7002 152.4 69.8002 154.8 71.7002C156.5 73.1002 157.8 74.5002 158.4 75.2002C158.6 75.4002 158.9 75.4002 159.1 75.2002L159.4 74.9002C161.2 73.1002 163.8 72.1002 166.4 72.3002C166.9 72.3002 167.4 72.3002 167.8 72.1002L168.9 71.7002L168.5 72.8002C168.3 73.3002 168.3 73.7002 168.3 74.2002C168.5 76.8002 167.5 79.3002 165.7 81.2002L165.4 81.5002C165.2 81.7002 165.2 82.1002 165.4 82.2002C166.1 82.8002 167.5 84.0002 168.9 85.8002C170.8 88.2002 168.9 91.2002 168.9 91.2002L167.2 90.3002C162 87.5002 155.6 88.4002 151.5 92.5002L144.1 99.9002C148.9 105.5 151.8 112.8 151.8 120.7H146.6C146.6 105.9 134.6 93.8002 119.7 93.8002L119.8 88.5002C119.7 88.5002 119.7 88.5002 119.8 88.5002Z"
        fill="#112337" />
    <path
        d="M159 120.5C159 120.5 159 116.9 159 114.3C159 111.7 162.4 108.8 167 109.6C171.6 110.3 172 114.3 177.6 114.3C183.2 114.3 185.3 111.4 185.3 108.6C185.3 105.8 183.9 102.3 179 102.3C174.1 102.3 172.5 105.6 172.5 105.6C172.5 105.6 171.5 103.2 171.5 100.5C171.6 97.8 175.5 95.7 178.7 96.8C178.7 96.8 176.7 94.4 175.1 92.1C173.6 89.8 173.1 87.7 173.3 85.5C173.5 83.3 176.4 81.4 177.3 81C177.3 81 178 85.2 180.2 88.2C182.4 91.2 186.1 95.9 188.4 98.4C190.6 100.9 192.2 106.6 190.2 110.8C188.2 115 184.2 118.8 180.1 120.5H159Z"
        fill="#112337" />
    <path
        d="M131.1 44.1001C131.1 44.1001 121.6 34.0001 119.7 24.1001V49.5001C119.7 49.5001 123.1 44.3001 131.1 44.1001Z"
        fill="#112337" />
    <path
        d="M119.8 81.7001C119.8 81.7001 123.4 81.7001 126 81.7001C128.6 81.7001 131.5 78.3001 130.7 73.7001C130 69.1001 126 68.7001 126 63.1001C126 57.5001 128.9 55.4001 131.7 55.4001C134.4 55.4001 138 56.8001 138 61.7001C138 66.6001 134.7 68.2001 134.7 68.2001C134.7 68.2001 137.1 69.2001 139.8 69.2001C142.5 69.1001 144.6 65.2001 143.5 62.0001C143.5 62.0001 145.9 64.0001 148.2 65.6001C150.5 67.2001 152.6 67.6001 154.8 67.4001C157 67.2001 158.9 64.3001 159.3 63.4001C159.3 63.4001 155.1 62.7001 152.1 60.5001C149.1 58.3001 144.4 54.6001 141.9 52.3001C139.4 50.0001 133.7 48.5001 129.5 50.5001C125.3 52.5001 121.5 56.5001 119.8 60.6001V81.7001Z"
        fill="#112337" />
    <path
        d="M135.7 1.00005C135.8 25.1 155.4 44.7001 179.5 44.7001C185 44.7001 190.3 43.7001 195.1 41.8C195.4 41.7001 195.7 41.6 196 41.5C197.4 40.5 198 39.3 197.8 38C197.4 35.7001 194.3 35.5 194.3 35.5C195.2 33.7001 197.9 34.6 197.9 34.6C197.9 34.6 197.4 34 197.5 32.9001C197.6 31.8001 198.8 30.8 198.8 30.8C198.8 30.8 198.9 32.8 199.6 34.1C200.3 35.4 202.2 36.4001 203.6 35C205.8 32.4 208.8 27.8 209.6 22.1C210.9 13.5 203.1 7.30005 195.7 6.50005V8.00005C195.7 9.10005 194.8 10.1 193.6 10.1C192.4 10.1 191.5 9.20005 191.5 8.00005V6.60005C185.5 8.30005 182.9 15.9001 181.9 19.7001C181.9 19.7001 187 22 187.6 27.9C188.2 33.7001 185.4 34.8 184.8 37.5C184.2 40.2001 184.8 41.6 184.8 41.6C184.8 41.6 180.2 42.3 178.9 38.6C177.5 34.9 178.6 31.1 177.4 30.7001C176.2 30.2001 174.6 33.2 171.7 34.6C168.8 36 164.6 36.4001 164.6 36.4001C164.6 36.4001 163 28.9 165.8 25.3C166.5 24.4 167.4 23.6 167.5 22.4C167.5 22.3 167.5 22.2001 167.5 22.1C167.4 22 167.3 21.8 167.2 21.8C167 21.8 166.9 21.8 166.7 21.8C165.9 21.9 165.3 22.5 164.7 22.9C164 23.4 163.3 23.9001 162.5 24.2001C161.7 24.5 160.9 24.5 160 24.5C157.9 24.5 155.6 23.8 154.1 22.3C151.3 19.6 149.6 14.6 149.6 14.6C149.6 14.6 154.8 16.7 159.2 14.1C162.3 12.3 167.3 10.1 171.5 11C175.7 11.8 178.8 16.7 178.8 16.7C178.8 16.7 180.7 3.70005 191.6 2.20005V0.800049H195.8V2.20005C204.2 2.90005 212 7.50005 213.4 16.6C213.9 19.8 213.4 23.4 212 26.6C215.2 23.6 218.6 20.2001 219.6 17.7001C221.7 12.4001 221.1 7.40005 219.6 5.40005C219.6 5.40005 221.9 4.80005 224 7.10005C224.9 8.10005 225.1 9.50005 225.1 10.7C225.1 11.5 226.1 11.8 226.5 11.2C227.8 9.40005 228.4 6.90005 230.4 5.70005C231.3 5.20005 232.4 4.80005 233.4 4.60005C233.8 4.50005 235.8 4.60005 235.9 4.40005C235.7 4.60005 235.8 6.50005 235.7 6.90005C235.5 7.90005 235.2 9.00005 234.6 9.90005C233.4 11.9 230.9 12.5 229.1 13.8C228.5 14.3 228.8 15.3 229.6 15.2C230.8 15.1 232.2 15.3 233.2 16.3C235.6 18.4 234.9 20.7001 234.9 20.7001C232.9 19.2001 227.9 18.6 222.6 20.7001C220.2 21.7001 216.7 25 213.6 28.2001C214.1 28 214.5 27.8001 215 27.6C217.4 26.6 220.1 26.1 222.7 26.4C227.3 26.8 231.7 29.4 234.5 33.1C236.9 36.3 237.9 40.2001 238.1 44.2001H239.4V48.4001H238C236.5 59.3 223.5 61.2 223.5 61.2C223.5 61.2 228.3 64.3 229.2 68.5C230 72.7 227.9 77.6001 226.1 80.8C223.6 85.2001 225.6 90.4 225.6 90.4C225.6 90.4 220.6 88.7001 217.9 85.9C216.4 84.3 215.7 82.1 215.7 80C215.7 79.2 215.7 78.3 216 77.5C216.3 76.7 216.8 76 217.3 75.3C217.7 74.7001 218.3 74.1001 218.4 73.3C218.4 73.1001 218.4 73 218.4 72.8C218.4 72.6001 218.2 72.5 218.1 72.5C218 72.5 217.9 72.5 217.8 72.5C216.7 72.7 215.8 73.6 214.9 74.2C211.3 76.9 203.8 75.4 203.8 75.4C203.8 75.4 204.3 71.2001 205.6 68.3C207 65.4 210 63.8 209.5 62.6C209 61.4 205.3 62.5 201.6 61.1C197.9 59.7 198.6 55.2001 198.6 55.2001C198.6 55.2001 200 55.8 202.7 55.2001C205.4 54.6001 206.5 51.8001 212.3 52.4001C218.1 53 220.5 58.1 220.5 58.1C224.3 57.2 231.9 54.5 233.6 48.5H232.3C231.2 48.5 230.2 47.6001 230.2 46.4001C230.2 45.3001 231.1 44.3 232.3 44.3H233.9C233.1 36.8 226.9 29.1001 218.3 30.4001C213.2 31.2001 209 33.7001 206.2 35.8C206 36 205.8 36.2001 205.7 36.4001C204.7 38 205.6 39.4 206.8 40.1C208.1 40.8 210.1 40.9001 210.1 40.9001C210.1 40.9001 209.1 42.1001 208 42.2001C206.9 42.3 206.3 41.8 206.3 41.8C206.3 41.8 207.1 44.5 205.4 45.4001C205.4 45.4001 205.2 42.2001 202.9 41.9001C201.2 41.6001 199.7 42.7001 198.6 44.9001C198.6 45 198.5 45.1001 198.5 45.2001C196.7 50 195.6 55.3 195.6 60.8C195.6 85 215.2 104.6 239.4 104.6V108.9C212.8 108.9 191.3 87.4 191.3 60.8C191.3 56 192 51.4001 193.3 47C188.9 48.3 184.3 49 179.5 49C153 49 131.5 27.6 131.4 1.10005H135.7V1.00005Z"
        fill="#6A6257" />
    <path
        d="M234.5 33.1C231.7 29.4 227.3 26.8 222.7 26.4C220.1 26.2 217.4 26.6 215 27.6C214.5 27.8001 214.1 28 213.6 28.2001C216.7 25 220.1 21.7001 222.6 20.7001C227.9 18.6 232.9 19.2001 234.9 20.7001C234.9 20.7001 235.5 18.4 233.2 16.3C232.2 15.4 230.8 15.2 229.6 15.2C228.8 15.2 228.5 14.2 229.1 13.8C230.9 12.5 233.4 11.9 234.6 9.90005C235.1 9.00005 235.5 7.90005 235.7 6.90005C235.8 6.50005 235.7 4.50005 235.9 4.40005C235.7 4.60005 233.8 4.50005 233.4 4.60005C232.4 4.80005 231.3 5.10005 230.4 5.70005C228.4 6.90005 227.8 9.40005 226.5 11.2C226 11.8 225 11.5 225.1 10.7C225.2 9.50005 225 8.10005 224 7.10005C221.9 4.70005 219.6 5.40005 219.6 5.40005C221.1 7.40005 221.7 12.4001 219.6 17.7001C218.6 20.2001 215.2 23.6 212 26.6C213.4 23.4 213.9 19.8 213.4 16.6C212 7.50005 204.2 2.90005 195.8 2.20005V0.800049H239.7V44.1H238.4C237.9 40.2 236.9 36.3 234.5 33.1Z"
        fill="#B1BFD6" />
    <path
        d="M195.6 6.30005C203.1 7.10005 210.8 13.3 209.5 21.9C208.7 27.6 205.7 32.2 203.5 34.8C202.1 36.1 200.3 35.1001 199.5 33.9001C198.8 32.6001 198.7 30.6 198.7 30.6C198.7 30.6 197.5 31.6 197.4 32.7001C197.3 33.8 197.8 34.4001 197.8 34.4001C197.8 34.4001 195.1 33.6 194.2 35.3C194.2 35.3 197.4 35.5 197.7 37.8C197.9 39.1 197.3 40.3 195.9 41.3C195.6 41.4 195.3 41.5 195 41.6C190.2 43.4 184.9 44.5 179.4 44.5C155.2 44.5 135.7 25 135.6 0.800049H191.3V2.20005C180.4 3.70005 178.5 16.7 178.5 16.7C178.5 16.7 175.4 11.9 171.2 11C167 10.2 162.1 12.3 158.9 14.1C154.5 16.6 149.3 14.6 149.3 14.6C149.3 14.6 151 19.6 153.8 22.3C155.4 23.8 157.6 24.5 159.7 24.5C160.5 24.5 161.4 24.5 162.2 24.2001C163 23.9001 163.7 23.4 164.4 22.9C165 22.5 165.6 21.9 166.4 21.8C166.6 21.8 166.7 21.8 166.9 21.8C167.1 21.8 167.2 22 167.2 22.1C167.2 22.2001 167.2 22.3 167.2 22.4C167 23.5 166.1 24.4 165.5 25.3C162.8 28.9 164.3 36.4001 164.3 36.4001C164.3 36.4001 168.5 35.9 171.4 34.6C174.3 33.2 175.9 30.2001 177.1 30.7001C178.3 31.2001 177.2 34.9 178.6 38.6C180 42.3 184.5 41.6 184.5 41.6C184.5 41.6 183.9 40.2001 184.5 37.5C185.1 34.8 187.9 33.7001 187.3 27.9C186.7 22.1 181.6 19.7001 181.6 19.7001C182.5 15.9001 185.2 8.30005 191.2 6.60005V8.00005C191.2 9.10005 192.1 10.1 193.3 10.1C194.5 10.1 195.4 9.20005 195.4 8.00005V6.30005H195.6Z"
        fill="#A39C8E" />
    <path
        d="M195.6 60.6999C195.6 55.1999 196.6 49.8999 198.5 45.0999C198.5 44.9999 198.6 44.8999 198.6 44.7999C199.7 42.5999 201.2 41.4999 202.9 41.7999C205.2 42.1999 205.4 45.2999 205.4 45.2999C207.2 44.3999 206.3 41.6999 206.3 41.6999C206.3 41.6999 206.9 42.1999 208 42.0999C209.1 41.9999 210.1 40.7999 210.1 40.7999C210.1 40.7999 208.1 40.6999 206.8 39.9999C205.5 39.2999 204.6 37.8999 205.7 36.2999C205.8 36.0999 206 35.8999 206.2 35.6999C208.9 33.5999 213.1 31.0999 218.3 30.2999C226.9 28.9999 233.1 36.7999 233.9 44.1999H232.3C231.2 44.1999 230.2 45.0999 230.2 46.2999C230.2 47.3999 231.1 48.3999 232.3 48.3999H233.6C231.9 54.3999 224.3 56.9999 220.5 57.9999C220.5 57.9999 218.2 52.8999 212.3 52.2999C206.5 51.6999 205.4 54.4999 202.7 55.0999C200 55.6999 198.6 55.0999 198.6 55.0999C198.6 55.0999 197.9 59.6999 201.6 60.9999C205.3 62.3999 209 61.2999 209.5 62.4999C210 63.6999 207 65.2999 205.6 68.1999C204.2 71.0999 203.8 75.2999 203.8 75.2999C203.8 75.2999 211.3 76.8999 214.9 74.0999C215.8 73.3999 216.6 72.4999 217.8 72.3999C217.9 72.3999 218 72.3999 218.1 72.3999C218.2 72.4999 218.4 72.5999 218.4 72.6999C218.4 72.8999 218.4 72.9999 218.4 73.1999C218.3 73.9999 217.7 74.5999 217.3 75.1999C216.8 75.8999 216.3 76.5999 216 77.3999C215.7 78.1999 215.7 78.9999 215.7 79.8999C215.7 81.9999 216.4 84.2999 217.9 85.7999C220.6 88.5999 225.6 90.2999 225.6 90.2999C225.6 90.2999 223.5 85.0999 226.1 80.6999C227.9 77.5999 230.1 72.5999 229.2 68.3999C228.4 64.1999 223.5 61.0999 223.5 61.0999C223.5 61.0999 236.5 59.1999 238 48.2999H239.4V104.5C215.2 104.5 195.6 84.8999 195.6 60.6999Z"
        fill="#A39C8E" />
</svg>
    