<svg width="121" height="121" viewBox="0 0 121 121" fill="none" xmlns="http://www.w3.org/2000/svg">
    <path d="M0.743851 120.567L120.444 120.567L120.444 0.866653L0.743851 0.866653L0.743851 120.567Z" fill="#D3CEC3"/>
    <path d="M5.0002 0.800049C5.0002 31.5 29.9002 56.4001 60.6002 56.4001C60.7002 56.4001 60.7002 56.4001 60.8002 56.4001C62.3002 56.4001 63.7002 56.3 65.1002 56.2001C65.0002 57.6001 64.9002 59.1 64.9002 60.5C64.9002 60.6 64.9002 60.6001 64.9002 60.7001C64.9002 91.4001 89.8002 116.3 120.5 116.3V120.6C87.4002 120.6 60.6002 93.8 60.6002 60.7001C27.5002 60.7001 0.700195 33.9 0.700195 0.800049H5.0002Z" fill="#112337"/>
    <path d="M0.700195 93.7C15.5002 93.7 27.5002 105.7 27.5002 120.5H0.700195V93.7Z" fill="#484D49"/>
    <path d="M23.2004 120.5C23.2004 120.5 23.3004 114.2 20.8004 111.3C18.3004 108.3 13.8004 111.6 12.0004 112.9C10.1004 114.2 7.90039 115 6.40039 114.3C4.90039 113.6 5.90039 110.4 7.10039 108.6C8.30039 106.8 10.8004 103.6 10.1004 101.5C9.4004 99.4001 7.00039 97.5001 0.900391 97.8001V120.6H23.2004V120.5Z" fill="#A39C8E"/>
    <path d="M0.700195 114.9C3.8002 114.9 6.3002 117.4 6.3002 120.5H0.700195V114.9Z" fill="#D3CEC3"/>
    <path d="M77.7003 109.2C77.7003 109.2 87.8003 118.7 97.7003 120.6H72.3003C72.3003 120.6 77.6003 117.2 77.7003 109.2Z" fill="#112337"/>
    <path d="M0.800201 88.5002C8.8002 88.5002 16.2002 91.5002 21.8002 96.4002L29.1002 89.1002C33.3002 84.9002 34.2002 78.5002 31.3002 73.4002L30.4002 71.7002C30.4002 71.7002 33.4002 69.8002 35.8002 71.7002C37.5002 73.1002 38.8002 74.5002 39.4002 75.2002C39.6002 75.4002 39.9002 75.4002 40.1002 75.2002L40.4002 74.9002C42.2002 73.1002 44.8002 72.1002 47.4002 72.3002C47.9002 72.3002 48.4002 72.3002 48.8002 72.1002L49.9002 71.7002L49.5002 72.8002C49.3002 73.3002 49.3002 73.7002 49.3002 74.2002C49.5002 76.8002 48.5002 79.3002 46.7002 81.2002L46.4002 81.5002C46.2002 81.7002 46.2002 82.1002 46.4002 82.2002C47.1002 82.8002 48.5002 84.0002 49.9002 85.8002C51.8002 88.2002 49.9002 91.2002 49.9002 91.2002L48.2002 90.3002C43.0002 87.5002 36.6002 88.4002 32.5002 92.5002L25.1002 99.9002C29.9002 105.5 32.8002 112.8 32.8002 120.7H27.6002C27.6002 105.9 15.6002 93.8002 0.700195 93.8002L0.800201 88.5002C0.700201 88.5002 0.700201 88.5002 0.800201 88.5002Z" fill="#112337"/>
    <path d="M40 120.5C40 120.5 40 116.9 40 114.3C40 111.7 43.4 108.8 48 109.6C52.6 110.3 53 114.3 58.6 114.3C64.2 114.3 66.3 111.4 66.3 108.6C66.3 105.8 64.9 102.3 60 102.3C55.1 102.3 53.5 105.6 53.5 105.6C53.5 105.6 52.5 103.2 52.5 100.5C52.6 97.8 56.5 95.7 59.7 96.8C59.7 96.8 57.7 94.4 56.1 92.1C54.6 89.8 54.1 87.7 54.3 85.5C54.5 83.3 57.4 81.4 58.3 81C58.3 81 59 85.2 61.2 88.2C63.4 91.2 67.1 95.9 69.4 98.4C71.6 100.9 73.2 106.6 71.2 110.8C69.2 115 65.2 118.8 61.1 120.5H40Z" fill="#112337"/>
    <path d="M12.1002 44.1001C12.1002 44.1001 2.6002 34.0001 0.700195 24.1001V49.5001C0.700195 49.5001 4.1002 44.3001 12.1002 44.1001Z" fill="#112337"/>
    <path d="M0.800293 81.7001C0.800293 81.7001 4.40029 81.7001 7.00029 81.7001C9.60029 81.7001 12.5003 78.3001 11.7003 73.7001C11.0003 69.1001 7.00029 68.7001 7.00029 63.1001C7.00029 57.5001 9.90029 55.4001 12.7003 55.4001C15.4003 55.4001 19.0003 56.8001 19.0003 61.7001C19.0003 66.6001 15.7003 68.2001 15.7003 68.2001C15.7003 68.2001 18.1003 69.2001 20.8003 69.2001C23.5003 69.1001 25.6003 65.2001 24.5003 62.0001C24.5003 62.0001 26.9003 64.0001 29.2003 65.6001C31.5003 67.2001 33.6003 67.6001 35.8003 67.4001C38.0003 67.2001 39.9003 64.3001 40.3003 63.4001C40.3003 63.4001 36.1003 62.7001 33.1003 60.5001C30.1003 58.3001 25.4003 54.6001 22.9003 52.3001C20.4003 50.0001 14.7003 48.5001 10.5003 50.5001C6.30029 52.5001 2.50029 56.5001 0.800293 60.6001V81.7001Z" fill="#112337"/>
    <path d="M16.7004 1.00005C16.8004 25.1 36.4004 44.7001 60.5004 44.7001C66.0004 44.7001 71.3004 43.7001 76.1004 41.8C76.4004 41.7001 76.7004 41.6 77.0004 41.5C78.4004 40.5 79.0004 39.3 78.8004 38C78.4004 35.7001 75.3004 35.5 75.3004 35.5C76.2004 33.7001 78.9004 34.6 78.9004 34.6C78.9004 34.6 78.4004 34 78.5004 32.9001C78.6004 31.8001 79.8004 30.8 79.8004 30.8C79.8004 30.8 79.9004 32.8 80.6004 34.1C81.3004 35.4 83.2004 36.4001 84.6004 35C86.8004 32.4 89.8004 27.8 90.6004 22.1C91.9004 13.5 84.1004 7.30005 76.7004 6.50005V8.00005C76.7004 9.10005 75.8004 10.1 74.6004 10.1C73.4004 10.1 72.5004 9.20005 72.5004 8.00005V6.60005C66.5004 8.30005 63.9004 15.9001 62.9004 19.7001C62.9004 19.7001 68.0004 22 68.6004 27.9C69.2004 33.7001 66.4004 34.8 65.8004 37.5C65.2004 40.2001 65.8004 41.6 65.8004 41.6C65.8004 41.6 61.2004 42.3 59.9004 38.6C58.5004 34.9 59.6004 31.1 58.4004 30.7001C57.2004 30.2001 55.6004 33.2 52.7004 34.6C49.8004 36 45.6004 36.4001 45.6004 36.4001C45.6004 36.4001 44.0004 28.9 46.8004 25.3C47.5004 24.4 48.4004 23.6 48.5004 22.4C48.5004 22.3 48.5004 22.2001 48.5004 22.1C48.4004 22 48.3004 21.8 48.2004 21.8C48.0004 21.8 47.9004 21.8 47.7004 21.8C46.9004 21.9 46.3004 22.5 45.7004 22.9C45.0004 23.4 44.3004 23.9001 43.5004 24.2001C42.7004 24.5 41.9004 24.5 41.0004 24.5C38.9004 24.5 36.6004 23.8 35.1004 22.3C32.3004 19.6 30.6004 14.6 30.6004 14.6C30.6004 14.6 35.8004 16.7 40.2004 14.1C43.3004 12.3 48.3004 10.1 52.5004 11C56.7004 11.8 59.8004 16.7 59.8004 16.7C59.8004 16.7 61.7004 3.70005 72.6004 2.20005V0.800049H76.8004V2.20005C85.2004 2.90005 93.0004 7.50005 94.4004 16.6C94.9004 19.8 94.4004 23.4 93.0004 26.6C96.2004 23.6 99.6004 20.2001 100.6 17.7001C102.7 12.4001 102.1 7.40005 100.6 5.40005C100.6 5.40005 102.9 4.80005 105 7.10005C105.9 8.10005 106.1 9.50005 106.1 10.7C106.1 11.5 107.1 11.8 107.5 11.2C108.8 9.40005 109.4 6.90005 111.4 5.70005C112.3 5.20005 113.4 4.80005 114.4 4.60005C114.8 4.50005 116.8 4.60005 116.9 4.40005C116.7 4.60005 116.8 6.50005 116.7 6.90005C116.5 7.90005 116.2 9.00005 115.6 9.90005C114.4 11.9 111.9 12.5 110.1 13.8C109.5 14.3 109.8 15.3 110.6 15.2C111.8 15.1 113.2 15.3 114.2 16.3C116.6 18.4 115.9 20.7001 115.9 20.7001C113.9 19.2001 108.9 18.6 103.6 20.7001C101.2 21.7001 97.7004 25 94.6004 28.2001C95.1004 28 95.5004 27.8001 96.0004 27.6C98.4004 26.6 101.1 26.1 103.7 26.4C108.3 26.8 112.7 29.4 115.5 33.1C117.9 36.3 118.9 40.2001 119.1 44.2001H120.4V48.4001H119C117.5 59.3 104.5 61.2 104.5 61.2C104.5 61.2 109.3 64.3 110.2 68.5C111 72.7 108.9 77.6001 107.1 80.8C104.6 85.2001 106.6 90.4 106.6 90.4C106.6 90.4 101.6 88.7001 98.9004 85.9C97.4004 84.3 96.7004 82.1 96.7004 80C96.7004 79.2 96.7004 78.3 97.0004 77.5C97.3004 76.7 97.8004 76 98.3004 75.3C98.7004 74.7001 99.3004 74.1001 99.4004 73.3C99.4004 73.1001 99.4004 73 99.4004 72.8C99.4004 72.6001 99.2004 72.5 99.1004 72.5C99.0004 72.5 98.9004 72.5 98.8004 72.5C97.7004 72.7 96.8004 73.6 95.9004 74.2C92.3004 76.9 84.8004 75.4 84.8004 75.4C84.8004 75.4 85.3004 71.2001 86.6004 68.3C88.0004 65.4 91.0004 63.8 90.5004 62.6C90.0004 61.4 86.3004 62.5 82.6004 61.1C78.9004 59.7 79.6004 55.2001 79.6004 55.2001C79.6004 55.2001 81.0004 55.8 83.7004 55.2001C86.4004 54.6001 87.5004 51.8001 93.3004 52.4001C99.1004 53 101.5 58.1 101.5 58.1C105.3 57.2 112.9 54.5 114.6 48.5H113.3C112.2 48.5 111.2 47.6001 111.2 46.4001C111.2 45.3001 112.1 44.3 113.3 44.3H114.9C114.1 36.8 107.9 29.1001 99.3004 30.4001C94.2004 31.2001 90.0004 33.7001 87.2004 35.8C87.0004 36 86.8004 36.2001 86.7004 36.4001C85.7004 38 86.6004 39.4 87.8004 40.1C89.1004 40.8 91.1004 40.9001 91.1004 40.9001C91.1004 40.9001 90.1004 42.1001 89.0004 42.2001C87.9004 42.3 87.3004 41.8 87.3004 41.8C87.3004 41.8 88.1004 44.5 86.4004 45.4001C86.4004 45.4001 86.2004 42.2001 83.9004 41.9001C82.2004 41.6001 80.7004 42.7001 79.6004 44.9001C79.6004 45 79.5004 45.1001 79.5004 45.2001C77.7004 50 76.6004 55.3 76.6004 60.8C76.6004 85 96.2004 104.6 120.4 104.6V108.9C93.8004 108.9 72.3004 87.4 72.3004 60.8C72.3004 56 73.0004 51.4001 74.3004 47C69.9004 48.3 65.3004 49 60.5004 49C34.0004 49 12.5004 27.6 12.4004 1.10005H16.7004V1.00005Z" fill="#6A6257"/>
    <path d="M115.5 33.1C112.7 29.4 108.3 26.8 103.7 26.4C101.1 26.2 98.4003 26.6 96.0003 27.6C95.5003 27.8001 95.1003 28 94.6003 28.2001C97.7003 25 101.1 21.7001 103.6 20.7001C108.9 18.6 113.9 19.2001 115.9 20.7001C115.9 20.7001 116.5 18.4 114.2 16.3C113.2 15.4 111.8 15.2 110.6 15.2C109.8 15.2 109.5 14.2 110.1 13.8C111.9 12.5 114.4 11.9 115.6 9.90005C116.1 9.00005 116.5 7.90005 116.7 6.90005C116.8 6.50005 116.7 4.50005 116.9 4.40005C116.7 4.60005 114.8 4.50005 114.4 4.60005C113.4 4.80005 112.3 5.10005 111.4 5.70005C109.4 6.90005 108.8 9.40005 107.5 11.2C107 11.8 106 11.5 106.1 10.7C106.2 9.50005 106 8.10005 105 7.10005C102.9 4.70005 100.6 5.40005 100.6 5.40005C102.1 7.40005 102.7 12.4001 100.6 17.7001C99.6003 20.2001 96.2003 23.6 93.0003 26.6C94.4003 23.4 94.9003 19.8 94.4003 16.6C93.0003 7.50005 85.2003 2.90005 76.8003 2.20005V0.800049H120.7V44.1H119.4C118.9 40.2 117.9 36.3 115.5 33.1Z" fill="#B1BFD6"/>
    <path d="M76.6001 6.30005C84.1001 7.10005 91.8001 13.3 90.5001 21.9C89.7001 27.6 86.7001 32.2 84.5001 34.8C83.1001 36.1 81.3001 35.1001 80.5001 33.9001C79.8001 32.6001 79.7001 30.6 79.7001 30.6C79.7001 30.6 78.5001 31.6 78.4001 32.7001C78.3001 33.8 78.8001 34.4001 78.8001 34.4001C78.8001 34.4001 76.1001 33.6 75.2001 35.3C75.2001 35.3 78.4001 35.5 78.7001 37.8C78.9001 39.1 78.3001 40.3 76.9001 41.3C76.6001 41.4 76.3001 41.5 76.0001 41.6C71.2001 43.4 65.9001 44.5 60.4001 44.5C36.2001 44.5 16.7001 25 16.6001 0.800049H72.3001V2.20005C61.4001 3.70005 59.5001 16.7 59.5001 16.7C59.5001 16.7 56.4001 11.9 52.2001 11C48.0001 10.2 43.1001 12.3 39.9001 14.1C35.5001 16.6 30.3001 14.6 30.3001 14.6C30.3001 14.6 32.0001 19.6 34.8001 22.3C36.4001 23.8 38.6001 24.5 40.7001 24.5C41.5001 24.5 42.4001 24.5 43.2001 24.2001C44.0001 23.9001 44.7001 23.4 45.4001 22.9C46.0001 22.5 46.6001 21.9 47.4001 21.8C47.6001 21.8 47.7001 21.8 47.9001 21.8C48.1001 21.8 48.2001 22 48.2001 22.1C48.2001 22.2001 48.2001 22.3 48.2001 22.4C48.0001 23.5 47.1001 24.4 46.5001 25.3C43.8001 28.9 45.3001 36.4001 45.3001 36.4001C45.3001 36.4001 49.5001 35.9 52.4001 34.6C55.3001 33.2 56.9001 30.2001 58.1001 30.7001C59.3001 31.2001 58.2001 34.9 59.6001 38.6C61.0001 42.3 65.5001 41.6 65.5001 41.6C65.5001 41.6 64.9001 40.2001 65.5001 37.5C66.1001 34.8 68.9001 33.7001 68.3001 27.9C67.7001 22.1 62.6001 19.7001 62.6001 19.7001C63.5001 15.9001 66.2001 8.30005 72.2001 6.60005V8.00005C72.2001 9.10005 73.1001 10.1 74.3001 10.1C75.5001 10.1 76.4001 9.20005 76.4001 8.00005V6.30005H76.6001Z" fill="#A39C8E"/>
    <path d="M76.6001 60.6999C76.6001 55.1999 77.6001 49.8999 79.5001 45.0999C79.5001 44.9999 79.6001 44.8999 79.6001 44.7999C80.7001 42.5999 82.2001 41.4999 83.9001 41.7999C86.2001 42.1999 86.4001 45.2999 86.4001 45.2999C88.2001 44.3999 87.3001 41.6999 87.3001 41.6999C87.3001 41.6999 87.9001 42.1999 89.0001 42.0999C90.1001 41.9999 91.1001 40.7999 91.1001 40.7999C91.1001 40.7999 89.1001 40.6999 87.8001 39.9999C86.5001 39.2999 85.6001 37.8999 86.7001 36.2999C86.8001 36.0999 87.0001 35.8999 87.2001 35.6999C89.9001 33.5999 94.1001 31.0999 99.3001 30.2999C107.9 28.9999 114.1 36.7999 114.9 44.1999H113.3C112.2 44.1999 111.2 45.0999 111.2 46.2999C111.2 47.3999 112.1 48.3999 113.3 48.3999H114.6C112.9 54.3999 105.3 56.9999 101.5 57.9999C101.5 57.9999 99.2001 52.8999 93.3001 52.2999C87.5001 51.6999 86.4001 54.4999 83.7001 55.0999C81.0001 55.6999 79.6001 55.0999 79.6001 55.0999C79.6001 55.0999 78.9001 59.6999 82.6001 60.9999C86.3001 62.3999 90.0001 61.2999 90.5001 62.4999C91.0001 63.6999 88.0001 65.2999 86.6001 68.1999C85.2001 71.0999 84.8001 75.2999 84.8001 75.2999C84.8001 75.2999 92.3001 76.8999 95.9001 74.0999C96.8001 73.3999 97.6001 72.4999 98.8001 72.3999C98.9001 72.3999 99.0001 72.3999 99.1001 72.3999C99.2001 72.4999 99.4001 72.5999 99.4001 72.6999C99.4001 72.8999 99.4001 72.9999 99.4001 73.1999C99.3001 73.9999 98.7001 74.5999 98.3001 75.1999C97.8001 75.8999 97.3001 76.5999 97.0001 77.3999C96.7001 78.1999 96.7001 78.9999 96.7001 79.8999C96.7001 81.9999 97.4001 84.2999 98.9001 85.7999C101.6 88.5999 106.6 90.2999 106.6 90.2999C106.6 90.2999 104.5 85.0999 107.1 80.6999C108.9 77.5999 111.1 72.5999 110.2 68.3999C109.4 64.1999 104.5 61.0999 104.5 61.0999C104.5 61.0999 117.5 59.1999 119 48.2999H120.4V104.5C96.2001 104.5 76.6001 84.8999 76.6001 60.6999Z" fill="#A39C8E"/>
    </svg>
    