<svg width="161" height="161" viewBox="0 0 161 161" fill="none" xmlns="http://www.w3.org/2000/svg">
    <path d="M96.7101 159.694C96.922 159.694 103.491 155.237 103.703 144.838C103.703 144.838 116.416 157.36 129.554 159.906" stroke="#C8ACA6" stroke-width="0.3" stroke-miterlimit="10" stroke-linecap="round" stroke-linejoin="round"/>
    <path d="M81.6655 159.906C87.1748 157.572 92.4722 152.69 95.015 146.96C97.7696 141.442 95.6507 133.802 92.6841 130.406C89.7176 127.01 84.844 120.855 81.8774 116.823C78.9109 112.79 78.0633 107.272 78.0633 107.272C76.7919 107.909 72.9778 110.456 72.7659 113.215C72.554 115.974 72.7659 118.945 74.8849 122.129C77.0038 125.312 79.5466 128.283 79.5466 128.283C75.3087 126.798 70.0113 129.557 70.0113 133.165C70.0113 136.773 71.2826 139.956 71.2826 139.956C71.2826 139.956 73.4016 135.499 79.9704 135.499C86.5392 135.499 88.2343 140.169 88.2343 143.777C88.2343 147.385 85.4797 151.417 78.0633 151.417C70.647 151.417 70.0113 146.111 63.8663 145.05C57.7213 143.989 53.2715 147.809 53.2715 151.417C53.2715 155.025 53.2715 159.694 53.2715 159.694" stroke="#C8ACA6" stroke-width="0.3" stroke-miterlimit="10"/>
    <path d="M1.35676 108.333C1.35676 108.333 6.01845 108.333 9.62068 108.333C13.011 108.333 16.8251 103.876 15.9776 97.7216C14.9181 91.5668 9.62069 90.9301 9.62069 83.5019C9.62069 76.0737 13.4348 73.3146 17.249 73.3146C20.8512 73.3146 25.5129 75.2248 25.5129 81.5918C25.5129 87.9588 21.0631 90.2934 21.0631 90.2934C21.0631 90.2934 24.2415 91.5668 27.8437 91.5668C31.446 91.5668 34.2006 86.261 32.7173 82.0163C32.7173 82.0163 35.8958 84.7753 38.8623 86.6854C41.8289 88.8078 44.7954 89.2323 47.5501 89.02C50.5166 88.8078 53.0594 84.9876 53.4832 83.7142C53.4832 83.7142 47.9739 82.653 43.9478 79.8939C39.9218 76.9226 33.7768 72.0412 30.3865 69.07C26.9962 66.0987 19.5798 63.9763 13.8586 66.7354C8.13742 69.4944 3.05192 74.8003 0.932956 80.3184" stroke="#C8ACA6" stroke-width="0.3" stroke-miterlimit="10"/>
    <path d="M1.35686 159.906L160.279 159.906L160.279 0.730377L1.35687 0.730363L1.35686 159.906Z" stroke="#C8ACA6" stroke-width="0.2" stroke-miterlimit="10"/>
    <path d="M7.07805 0.730326C7.07805 41.4794 40.1338 74.588 80.8178 74.588L81.0297 74.588C82.9368 74.588 84.8439 74.588 86.7509 74.3758C86.539 76.2859 86.539 78.196 86.539 80.1061L86.539 80.3183C86.539 121.067 119.383 154.176 160.279 154.176" stroke="#C8ACA6" stroke-width="0.3" stroke-miterlimit="10"/>
    <path d="M160.279 159.906C116.416 159.906 80.8178 124.251 80.8178 80.3184C36.9554 80.3184 1.35686 44.6629 1.35687 0.73036" stroke="#C8ACA6" stroke-width="0.3" stroke-miterlimit="10"/>
    <path d="M31.0222 159.906C31.0222 159.906 31.0222 151.629 27.8438 147.597C24.6653 143.564 18.5204 148.021 16.1895 149.719C13.6468 151.417 10.6802 152.478 8.77315 151.629C8.34936 151.417 8.13746 151.205 7.92556 150.78" stroke="#C8ACA6" stroke-width="0.3" stroke-miterlimit="10"/>
    <path d="M7.92551 150.568C7.28982 148.87 8.34929 145.899 9.62067 143.989C11.1039 141.654 14.4943 137.409 13.6467 134.438C12.7991 131.467 9.40879 129.132 1.35674 129.557" stroke="#C8ACA6" stroke-width="0.3" stroke-miterlimit="10"/>
    <path d="M8.77319 159.906C8.77319 155.874 5.59475 152.478 1.35684 152.478" stroke="#C8ACA6" stroke-width="0.3" stroke-miterlimit="10"/>
    <path d="M43.7361 159.906C43.7361 149.295 39.922 139.532 33.5651 132.104L43.3123 122.341C48.8216 116.823 57.2975 115.549 64.29 119.37L66.6209 120.643C66.6209 120.643 69.1636 116.61 66.6209 113.427C64.7138 111.092 63.0186 109.395 61.9592 108.758C61.7473 108.546 61.7473 108.121 61.9592 107.697L62.1711 107.484C64.7138 104.938 65.7733 101.754 65.5614 98.1461C65.5614 97.5094 65.5614 96.8727 65.7733 96.236L66.409 94.7503L64.9257 95.387C64.29 95.5993 63.6543 95.8115 63.0186 95.5993C59.6283 95.387 56.238 96.6604 53.6952 98.995L53.2714 99.4195C53.0595 99.6317 52.6357 99.6317 52.2119 99.4195C51.3644 98.5705 49.8811 96.6604 47.5502 94.7503C44.3718 92.2035 40.3458 94.7503 40.3458 94.7503L41.8291 97.0849C45.6432 103.876 44.3718 112.578 38.8625 118.096L29.1153 127.859C21.6989 121.28 11.9517 117.459 1.35693 117.459" stroke="#C8ACA6" stroke-width="0.3" stroke-miterlimit="10"/>
    <path d="M1.35682 124.039C21.0631 124.039 36.9553 139.956 36.9553 159.694" stroke="#C8ACA6" stroke-width="0.3" stroke-miterlimit="10"/>
    <path d="M1.35676 65.2496C1.99245 64.4007 6.44226 58.4581 16.4014 58.2459C16.4014 58.2459 3.89951 45.0873 1.35676 31.9288" stroke="#C8ACA6" stroke-width="0.3" stroke-miterlimit="10"/>
    <path d="M22.5465 0.942606C22.7584 32.7778 48.8216 58.8827 80.8179 58.8827C88.0223 58.8827 95.0149 57.6093 101.584 55.0625C102.007 54.8502 102.431 54.8502 102.643 54.638C104.338 53.3646 105.186 51.6667 104.974 49.9688C104.55 46.7853 100.312 46.5731 100.312 46.5731C101.584 44.2385 105.186 45.2997 105.186 45.2997C105.186 45.2997 104.55 44.4507 104.55 42.9651C104.762 41.4794 106.245 40.206 106.245 40.206C106.245 40.206 106.245 42.9651 107.305 44.663C108.364 46.3608 110.695 47.6343 112.602 45.9364C115.357 42.3284 119.383 36.3858 120.654 28.7454C122.349 17.2847 112.178 9.00754 102.219 7.94636L102.219 10.0687C102.219 11.5544 100.948 12.8278 99.4647 12.8278C97.9814 12.8278 96.7101 11.5544 96.7101 10.0687L96.7101 8.37083C88.658 10.7054 85.2677 20.6804 83.9963 25.7741C83.9963 25.7741 90.777 28.9576 91.4127 36.598C92.2602 44.4507 88.4461 45.7241 87.5985 49.3321C86.7509 52.9401 87.5985 54.8502 87.5985 54.8502C87.5985 54.8502 81.4535 55.6992 79.7584 50.8178C77.8513 45.9364 79.3346 40.8427 77.8513 40.206C76.368 39.5693 74.0372 43.6018 70.2231 45.2997C66.4089 47.2098 60.8996 47.6342 60.8996 47.6342C60.8996 47.6342 58.7807 37.6592 62.3829 32.7778C63.2305 31.7166 64.5019 30.4432 64.7138 28.9576C64.7138 28.7454 64.7138 28.7454 64.7138 28.5331C64.7138 28.3209 64.5019 28.1087 64.29 28.1087C64.0781 28.1087 63.8662 28.1087 63.6543 28.1087C62.5948 28.3209 61.7472 28.9576 61.1115 29.5943C60.264 30.231 59.2045 30.8677 58.145 31.2922C57.0855 31.7166 56.026 31.7166 54.9666 31.7166C52.2119 31.7166 49.2454 30.6555 47.1264 28.7454C43.3123 25.1374 41.1933 18.5581 41.1933 18.5581C41.1933 18.5581 48.1859 21.3171 53.9071 17.9214C58.145 15.5868 64.7138 12.6155 70.2231 13.6767C75.7324 14.7379 79.7584 21.3172 79.7584 21.3172C79.7584 21.3172 82.3011 4.12613 96.7101 2.00379L96.7101 0.0936863" stroke="#C8ACA6" stroke-width="0.3" stroke-miterlimit="10"/>
    <path d="M102.007 0.730321C102.007 0.942555 102.007 2.4282 102.007 2.4282C113.238 3.27714 123.409 9.43195 125.316 21.5293C125.952 25.774 125.316 30.6554 123.409 34.6879C127.647 30.6554 132.309 26.1985 133.58 22.8027C136.335 15.5868 135.487 9.00749 133.58 6.46067C133.58 6.46067 136.546 5.61173 139.301 8.79525C140.572 10.0687 140.784 11.9788 140.784 13.6766C140.784 14.7378 142.056 15.1623 142.691 14.3133C144.387 11.9788 145.234 8.58301 147.989 6.88513C149.048 6.24843 150.532 5.82396 152.015 5.61173C152.651 5.39949 155.193 5.61173 155.405 5.3995C155.193 5.61173 155.405 8.15855 155.193 8.79525C154.981 10.0687 154.558 11.5543 153.71 12.8277C152.227 15.5868 148.836 16.2235 146.294 18.1336C145.446 18.558 145.87 20.0437 146.929 20.0437C148.625 20.0437 150.32 20.2559 151.803 21.5293C154.981 24.0761 154.134 27.0474 154.134 27.0474C151.591 25.1373 144.81 24.2884 137.818 27.0474C134.639 28.3208 129.978 32.7778 125.952 37.0225C126.587 36.8102 127.223 36.3858 127.859 36.1735C131.037 34.9001 134.639 34.2634 138.03 34.4756C144.175 35.1123 150.108 38.5081 153.71 43.3895C156.888 47.6342 158.16 52.9401 158.584 58.0337L160.279 58.0337" stroke="#C8ACA6" stroke-width="0.3" stroke-miterlimit="10"/>
    <path d="M160.279 63.764L158.372 63.764C156.465 78.196 139.089 80.7428 139.089 80.7428C139.089 80.7428 145.446 84.7752 146.717 90.2933C147.777 95.8115 145.022 102.391 142.48 106.635C139.089 112.578 141.844 119.37 141.844 119.37C141.844 119.37 135.063 117.035 131.673 113.427C129.766 111.305 128.706 108.333 128.706 105.574C128.706 104.513 128.706 103.24 129.13 102.391C129.554 101.33 130.19 100.268 130.825 99.4194C131.461 98.5705 132.097 97.7216 132.309 96.8726C132.309 96.6604 132.309 96.4482 132.309 96.2359C132.309 96.0237 132.097 95.8115 131.885 95.8115C131.673 95.8115 131.673 95.8115 131.461 95.8115C129.978 96.0237 128.706 97.2971 127.647 98.146C122.773 101.754 112.814 99.6317 112.814 99.6317C112.814 99.6317 113.45 94.1136 115.145 90.2933C117.052 86.4731 120.866 84.3508 120.23 82.6529C119.595 80.955 114.721 82.4407 109.636 80.7428C104.762 78.8327 105.61 72.8901 105.61 72.8901C105.61 72.8901 107.517 73.739 111.119 72.8901C114.721 72.0412 116.204 68.4332 123.833 69.0699C131.673 69.9188 134.639 76.4981 134.639 76.4981C139.725 75.2247 149.684 71.8289 152.015 63.764L150.32 63.764C148.836 63.764 147.565 62.4906 147.565 61.005C147.565 59.5193 148.836 58.2459 150.32 58.2459L152.439 58.2459C151.379 48.2709 143.115 38.0836 131.673 39.7815C124.892 40.8427 119.383 44.2384 115.569 46.9975C115.357 47.2097 115.145 47.6342 114.933 47.8464C113.662 49.9688 114.721 51.8789 116.416 52.7278C118.112 53.789 120.866 53.789 120.866 53.789C120.866 53.789 119.595 55.4869 118.112 55.4869C116.628 55.6991 115.781 54.8502 115.781 54.8502C115.781 54.8502 116.84 58.4582 114.509 59.7316C114.509 59.7316 114.297 55.4869 111.119 55.0624C108.788 54.6379 106.881 56.1236 105.398 59.0948C105.398 59.3071 105.186 59.3071 105.186 59.5193C102.643 65.8864 101.372 72.8901 101.372 80.3183C101.372 112.578 127.435 138.683 159.643 138.683" stroke="#C8ACA6" stroke-width="0.3" stroke-miterlimit="10"/>
    <path d="M160.279 144.201C125.104 144.201 96.4981 115.549 96.4981 80.3184C96.4981 73.9514 97.3457 67.7966 99.2528 62.0662C93.5316 63.7641 87.3866 64.8253 81.0297 64.8253C45.855 64.8253 17.2491 36.1736 17.2491 0.942623" stroke="#C8ACA6" stroke-width="0.3" stroke-miterlimit="10"/>
    </svg>
    