<svg width="250" height="250" viewBox="0 0 275 275" fill="none" xmlns="http://www.w3.org/2000/svg">
    <path d="M137.41 1.18018H0.875488V137.454H137.41V1.18018Z" stroke="#5E6080" stroke-width="0.5"
        stroke-miterlimit="10" />
    <path
        d="M132.512 1.18018C132.512 17.9524 125.837 34.0376 113.954 45.8974C102.072 57.7571 85.9558 64.4198 69.1516 64.4198H68.9513C67.2763 64.4198 65.6377 64.4198 64.0173 64.2017C64.1447 65.8373 64.2175 67.4728 64.2357 69.1264V69.3263C64.2116 86.0922 57.518 102.162 45.6265 114.004C33.7349 125.846 17.6187 132.49 0.820801 132.475V137.382C9.78696 137.382 18.6653 135.619 26.949 132.194C35.2326 128.77 42.7593 123.75 49.0994 117.422C55.4394 111.094 60.4686 103.582 63.8998 95.3139C67.331 87.046 69.097 78.1846 69.097 69.2355C87.1892 69.2355 104.542 62.0683 117.343 49.3081C130.145 36.5478 137.349 19.2379 137.373 1.18018H132.512Z"
        stroke="#5E6080" stroke-width="0.5" stroke-miterlimit="10" />
    <path
        d="M137.373 106.925C129.261 106.925 121.48 110.141 115.744 115.867C110.008 121.592 106.785 129.357 106.785 137.454H137.373V106.925Z"
        stroke="#5E6080" stroke-width="0.5" stroke-miterlimit="10" />
    <path
        d="M111.774 137.454C111.774 137.454 111.774 130.331 114.541 126.933C117.309 123.534 122.498 127.296 124.628 128.75C126.758 130.204 129.271 131.167 130.982 130.367C132.694 129.568 131.51 125.897 130.181 123.861C128.852 121.826 125.975 118.155 126.776 115.738C127.578 113.321 130.418 111.195 137.318 111.559V137.454H111.774Z"
        stroke="#5E6080" stroke-width="0.5" stroke-miterlimit="10" />
    <path
        d="M137.373 131.058C135.675 131.062 134.048 131.738 132.847 132.936C131.646 134.135 130.969 135.759 130.964 137.454H137.373V131.058Z"
        stroke="#5E6080" stroke-width="0.5" stroke-miterlimit="10" />
    <path
        d="M49.5244 124.516C49.5244 124.516 38.0358 135.419 26.7656 137.472H55.6965C53.7257 135.944 52.1409 133.975 51.069 131.726C49.9972 129.476 49.4682 127.006 49.5244 124.516Z"
        stroke="#5E6080" stroke-width="0.5" stroke-miterlimit="10" />
    <path
        d="M137.373 100.982C128.567 100.969 120.057 104.153 113.431 109.941L105.056 101.582C102.743 99.2748 101.243 96.281 100.78 93.0503C100.317 89.8195 100.916 86.526 102.488 83.6643L103.581 81.7017C103.581 81.7017 100.176 79.4846 97.4269 81.7017C95.9606 82.8955 94.6075 84.2217 93.3849 85.6632C93.3304 85.7221 93.2642 85.7691 93.1905 85.8013C93.1169 85.8334 93.0374 85.85 92.957 85.85C92.8767 85.85 92.7972 85.8334 92.7235 85.8013C92.6499 85.7691 92.5837 85.7221 92.5292 85.6632L92.2379 85.3725C91.2021 84.338 89.9555 83.5381 88.5827 83.027C87.2098 82.5159 85.7429 82.3056 84.2814 82.4104C83.7305 82.4511 83.1773 82.3705 82.661 82.1741L81.3683 81.7017L81.8599 82.9737C82.0475 83.4913 82.128 84.0415 82.0966 84.591C81.9922 86.0427 82.2015 87.4997 82.7104 88.8635C83.2193 90.2274 84.0158 91.4662 85.0461 92.496L85.3556 92.7868C85.4146 92.8412 85.4617 92.9073 85.494 92.9807C85.5262 93.0542 85.5428 93.1336 85.5428 93.2138C85.5428 93.294 85.5262 93.3734 85.494 93.4469C85.4617 93.5204 85.4146 93.5864 85.3556 93.6409C83.9192 94.8703 82.5969 96.2266 81.4047 97.6933C79.1835 100.419 81.4047 103.817 81.4047 103.817L83.3529 102.745C86.2167 101.168 89.5167 100.563 92.755 101.022C95.9933 101.481 98.9942 102.979 101.305 105.289L109.698 113.667C104.044 120.245 100.932 128.624 100.923 137.291H106.785C106.814 129.209 110.048 121.468 115.78 115.761C121.513 110.053 129.276 106.844 137.373 106.834V101.001V100.982Z"
        stroke="#5E6080" stroke-width="0.5" stroke-miterlimit="10" />
    <path
        d="M92.5473 137.454V130.385C92.5473 127.387 88.7057 124.152 83.4438 124.934C78.182 125.715 77.6904 130.385 71.3362 130.385C64.9819 130.385 62.5604 127.024 62.5604 123.916C62.4807 122.957 62.611 121.993 62.9421 121.089C63.2733 120.186 63.7974 119.365 64.4781 118.684C65.1589 118.002 65.9799 117.477 66.8844 117.144C67.7888 116.812 68.7549 116.679 69.7158 116.756C71.1792 116.637 72.6473 116.924 73.958 117.584C75.2687 118.245 76.3713 119.254 77.1442 120.5C77.8673 118.633 78.2437 116.65 78.2548 114.648C78.2548 111.595 73.7213 109.196 70.0799 110.432C70.0799 110.432 72.374 107.67 74.1401 105.09C75.7124 102.913 76.4254 100.235 76.1428 97.5662C75.9061 95.0948 72.6107 92.8778 71.5547 92.4053C70.989 95.3392 69.844 98.1314 68.1864 100.619C65.6556 104.09 61.4134 109.378 58.8826 112.249C57.3347 114.226 56.3307 116.572 55.9699 119.055C55.609 121.538 55.9039 124.071 56.8252 126.406C59.2473 131.325 63.3275 135.237 68.3502 137.454H92.5473Z"
        stroke="#5E6080" stroke-width="0.5" stroke-miterlimit="10" />
    <path
        d="M124.428 50.4269C124.428 50.4269 135.352 38.9602 137.409 27.6934V56.5873C135.884 54.6137 133.913 53.0272 131.657 51.9568C129.401 50.8864 126.925 50.3622 124.428 50.4269Z"
        stroke="#5E6080" stroke-width="0.5" stroke-miterlimit="10" />
    <path
        d="M137.373 93.6389H130.236C127.232 93.6389 123.991 89.8045 124.774 84.5527C125.557 79.3009 130.236 78.7921 130.236 72.45C130.236 66.1078 126.886 63.8 123.754 63.8C122.794 63.7204 121.827 63.8504 120.922 64.1809C120.017 64.5115 119.194 65.0346 118.512 65.714C117.829 66.3935 117.303 67.213 116.97 68.1157C116.636 69.0184 116.504 69.9827 116.581 70.9417C116.465 72.3994 116.754 73.8608 117.415 75.1655C118.077 76.4703 119.086 77.5678 120.331 78.3378C118.463 79.0685 116.476 79.4504 114.469 79.4645C111.41 79.4645 109.007 74.9396 110.245 71.2869C110.245 71.2869 107.477 73.5767 104.892 75.3394C102.692 76.8918 99.9941 77.5779 97.3178 77.2656C94.8416 77.0294 92.6021 73.7402 92.147 72.6862C95.0851 72.1272 97.8826 70.9906 100.377 69.3425C103.854 66.8166 109.152 62.5824 112.029 60.0565C114.009 58.5115 116.36 57.5094 118.847 57.1493C121.335 56.7891 123.874 57.0834 126.212 58.003C131.181 60.4052 135.135 64.4873 137.373 69.5242V93.6389Z"
        stroke="#5E6080" stroke-width="0.5" stroke-miterlimit="10" />
    <path
        d="M125.889 1.18187C125.833 14.3974 120.248 27.0537 110.356 36.3798C100.464 45.706 87.0707 50.9421 73.1091 50.942C66.6867 50.9469 60.3178 49.8373 54.3181 47.6683L53.2997 47.2864C52.5735 46.8874 51.9864 46.2959 51.6109 45.585C51.2353 44.874 51.0877 44.0746 51.1862 43.2852C51.6281 40.6299 55.4325 40.4298 55.4325 40.4298C54.3181 38.4111 51.1094 39.3568 51.1094 39.3568C51.524 38.7956 51.7022 38.108 51.6089 37.4289C51.374 36.4774 50.8216 35.6229 50.0334 34.9919C49.9753 36.2882 49.6489 37.5611 49.0727 38.7384C48.876 39.147 48.5832 39.5076 48.2167 39.7927C47.8502 40.0778 47.4197 40.2799 46.9581 40.3834C46.4965 40.4869 46.016 40.4892 45.5533 40.3901C45.0906 40.291 44.658 40.0931 44.2885 39.8115C40.5536 35.5969 38.0672 30.5196 37.0834 25.098C35.5463 15.2588 44.7688 8.22032 53.8377 7.32914V9.14786C53.8377 9.77492 54.1009 10.3763 54.5693 10.8197C55.0377 11.2631 55.673 11.5122 56.3355 11.5122C56.9979 11.5122 57.6333 11.2631 58.1017 10.8197C58.5701 10.3763 58.8333 9.77492 58.8333 9.14786V7.60195C66.0961 9.56617 69.2471 18.1869 70.3615 22.4973C68.5078 23.4068 66.9182 24.7332 65.7323 26.3599C64.5464 27.9866 63.8004 29.864 63.5599 31.8273C62.8489 38.4838 66.2498 39.7023 66.9607 42.7396C67.4325 44.2594 67.4325 45.8757 66.9607 47.3955C66.9607 47.3955 72.475 48.1776 74.1082 43.9581C75.7413 39.7387 74.4732 35.4647 75.8951 34.9555C77.3169 34.4462 79.2575 37.8473 82.7159 39.4113C85.4603 40.4988 88.3506 41.2211 91.3045 41.5574C91.3045 41.5574 93.2258 32.9913 89.8826 28.8264C88.9115 27.9246 88.1976 26.8046 87.8076 25.5709C87.779 25.445 87.779 25.3148 87.8076 25.189C87.8478 25.1061 87.9063 25.0323 87.9792 24.9727C88.0521 24.9131 88.1378 24.869 88.2303 24.8434C88.4129 24.7979 88.6048 24.7979 88.7875 24.8434C89.6752 25.1054 90.4895 25.5529 91.17 26.1529C91.9785 26.7567 92.8789 27.2411 93.8407 27.5897C94.7961 27.8762 95.7992 27.9933 96.7996 27.9352C99.4312 27.9628 101.979 27.0615 103.947 25.4072C106.353 22.85 108.196 19.8634 109.365 16.6228C109.365 16.6228 103.102 19.0053 97.8371 16.0954C93.9944 14.0402 88.0766 11.5668 83.0426 12.4579C78.0086 13.3491 74.3195 18.9326 74.3195 18.9326C74.3195 18.9326 71.9755 4.16457 58.9486 2.45498V1H53.8377V2.54591C43.7121 3.29159 34.355 8.54769 32.7026 18.9144C32.1485 22.7768 32.7268 26.7091 34.3742 30.2814C30.5315 26.8804 26.4005 23.0065 25.2285 20.1511C22.7115 14.0584 23.48 8.36581 25.2285 6.09241C24.248 5.93442 23.2405 6.034 22.3157 6.38032C21.3908 6.72665 20.5841 7.30645 19.9832 8.05663C19.0194 9.21452 18.5713 10.6828 18.7343 12.1487C18.7493 12.3476 18.6948 12.5457 18.5793 12.7124C18.4637 12.8792 18.2934 13.0053 18.0947 13.0715C17.896 13.1376 17.6798 13.1401 17.4794 13.0785C17.2791 13.017 17.1056 12.8948 16.9858 12.7307C15.3142 10.6756 14.6225 7.78382 12.1824 6.45616C11.0586 5.86194 9.83769 5.45006 8.5702 5.23762C7.54963 5.25151 6.52917 5.20291 5.51522 5.09212C5.63869 6.0515 5.69645 7.01744 5.68815 7.98388C5.93167 9.17879 6.36574 10.3317 6.97547 11.4031C8.37807 13.6947 11.433 14.3494 13.6042 15.8771C13.7669 15.9925 13.8867 16.1539 13.9464 16.3378C14.0061 16.5218 14.0026 16.719 13.9364 16.9009C13.8701 17.0829 13.7446 17.2403 13.5779 17.3505C13.4112 17.4606 13.2119 17.5179 13.0086 17.514C11.4613 17.3749 9.91605 17.7975 8.68549 18.6961C7.89313 19.2644 7.28189 20.0287 6.91914 20.9047C6.55638 21.7808 6.45619 22.7347 6.62962 23.6612C9.03133 22.0062 15.026 21.2787 21.4626 23.6612C24.4023 24.7343 28.5717 28.5172 32.2799 32.191L30.5891 31.4999C27.66 30.3102 24.4642 29.8289 21.2897 30.0995C18.4741 30.3903 15.7519 31.2267 13.2926 32.5565C10.8333 33.8863 8.68947 35.681 6.99468 37.8291C4.27119 41.5276 2.76681 45.9072 2.67159 50.4146H1V55.1433H2.71002C4.4969 67.5106 20.0984 69.693 20.0984 69.693C20.0984 69.693 14.3343 73.185 13.2584 77.95C12.1824 82.7151 14.8531 88.3713 17.1011 91.9541C17.9682 93.6433 18.4631 95.4819 18.5556 97.3579C18.6481 99.234 18.3362 101.108 17.6391 102.866C21.062 101.749 24.2164 99.9999 26.9193 97.7195C28.6644 95.8541 29.6221 93.4454 29.6092 90.9538C29.6516 90.0076 29.5282 89.0612 29.2442 88.153C28.8688 87.2477 28.3505 86.4015 27.7071 85.6432C27.0837 84.9849 26.6125 84.2105 26.3237 83.3698C26.2756 83.1969 26.2756 83.0152 26.3237 82.8424C26.3437 82.7518 26.3877 82.6676 26.4516 82.5977C26.5154 82.5277 26.5971 82.4742 26.6887 82.4422C26.8152 82.415 26.9465 82.415 27.073 82.4422C28.3823 82.8012 29.5728 83.4711 30.5315 84.3883C34.8546 87.5165 43.9811 85.7341 43.9811 85.7341C43.6519 82.9707 42.9146 80.2648 41.7907 77.6954C40.1383 74.4217 36.5262 72.5848 37.0834 71.2389C37.6406 69.8931 42.1366 71.1116 46.6902 69.5475C51.2439 67.9834 50.3408 62.7819 50.3408 62.7819C48.7286 63.228 47.0151 63.228 45.4029 62.7819C42.1174 62.109 40.83 58.8898 33.8747 59.5628C31.8006 59.7905 29.8172 60.4966 28.0987 61.6191C26.3802 62.7417 24.9789 64.2463 24.018 66.001C19.4644 64.928 10.3571 61.9453 8.282 55.0887H9.64617C10.3086 55.0887 10.9439 54.8396 11.4124 54.3962C11.8808 53.9528 12.144 53.3514 12.144 52.7244C12.144 52.0973 11.8808 51.4959 11.4124 51.0525C10.9439 50.6091 10.3086 50.36 9.64617 50.36H7.7248C8.64706 41.8666 16.0828 33.0458 26.4966 34.5008C31.8038 35.3546 36.7952 37.4697 41.003 40.6481C41.2294 40.8735 41.4351 41.1169 41.6178 41.3756C41.8643 41.7256 42.0254 42.1232 42.0895 42.5395C42.1537 42.9558 42.1192 43.3804 41.9886 43.7825C41.8581 44.1847 41.6347 44.5543 41.3346 44.8646C41.0345 45.1749 40.6653 45.4182 40.2536 45.5768C39.0099 46.1222 37.6651 46.4312 36.2956 46.4862C36.9622 47.2322 37.865 47.7552 38.8702 47.9775C39.5905 48.066 40.3192 47.8903 40.9069 47.4865C40.9069 47.4865 39.9078 50.5237 42.0405 51.5968C42.0405 51.5968 42.2518 47.9593 45.0378 47.5592C47.0937 47.25 48.8806 48.4504 50.2063 50.9966C50.2492 51.1208 50.3006 51.2423 50.36 51.3603C52.6343 57.0371 53.7996 63.0579 53.7993 69.1292C53.8094 75.6969 52.4509 82.2019 49.8015 88.272C47.1522 94.342 43.264 99.8577 38.3596 104.503C33.4552 109.149 27.631 112.834 21.2203 115.346C14.8096 117.858 7.93836 119.149 1 119.144V124C8.60972 124.007 16.1463 122.595 23.179 119.843C30.2116 117.091 36.6024 113.055 41.9859 107.964C47.3695 102.873 51.6403 96.8278 54.5541 90.1736C57.468 83.5195 58.9678 76.3869 58.9678 69.1838C58.9628 63.8809 58.1474 58.6065 56.5468 53.5246C61.9228 55.0347 67.5014 55.8005 73.1091 55.798C88.4195 55.7981 103.107 50.0573 113.956 39.8317C124.806 29.6062 130.934 15.7288 131 1.23643L125.889 1.18187Z"
        stroke="#5E6080" stroke-width="0.5" stroke-miterlimit="10" />
    <path d="M137.318 137.436L273.853 137.436V1.16188L137.318 1.16188L137.318 137.436Z"
        stroke="#5E6080" stroke-width="0.5" stroke-miterlimit="10" />
    <path
        d="M142.234 1.18018C142.234 17.9524 148.91 34.0376 160.792 45.8974C172.674 57.7571 188.79 64.4198 205.595 64.4198H205.777C207.452 64.4198 209.09 64.4198 210.729 64.2017C210.583 65.8373 210.511 67.4728 210.492 69.1264V69.3263C210.516 86.0954 217.213 102.168 229.108 114.01C241.004 125.853 257.124 132.494 273.925 132.475V137.382C264.96 137.382 256.083 135.619 247.8 132.194C239.517 128.769 231.992 123.749 225.653 117.421C219.315 111.093 214.287 103.58 210.858 95.3125C207.429 87.0447 205.665 78.1837 205.667 69.2355C187.572 69.2403 170.215 62.0752 157.409 49.3145C144.604 36.5537 137.397 19.2411 137.373 1.18018H142.234Z"
        stroke="#5E6080" stroke-width="0.5" stroke-miterlimit="10" />
    <path
        d="M137.373 106.925C145.485 106.925 153.266 110.141 159.002 115.867C164.738 121.592 167.961 129.357 167.961 137.454H137.373V106.925Z"
        stroke="#5E6080" stroke-width="0.5" stroke-miterlimit="10" />
    <path
        d="M162.954 137.454C162.954 137.454 162.954 130.331 160.187 126.933C157.419 123.534 152.23 127.296 150.1 128.75C147.97 130.204 145.457 131.167 143.746 130.367C142.034 129.568 143.218 125.897 144.565 123.861C145.912 121.826 148.753 118.155 147.952 115.738C147.15 113.321 144.31 111.195 137.41 111.559V137.454H162.954Z"
        stroke="#5E6080" stroke-width="0.5" stroke-miterlimit="10" />
    <path
        d="M137.373 131.058C139.071 131.062 140.699 131.738 141.899 132.936C143.1 134.135 143.777 135.759 143.782 137.454H137.373V131.058Z"
        stroke="#5E6080" stroke-width="0.5" stroke-miterlimit="10" />
    <path
        d="M225.167 124.516C225.167 124.516 236.656 135.419 247.944 137.472H218.995C220.969 135.947 222.556 133.979 223.629 131.728C224.701 129.478 225.228 127.007 225.167 124.516Z"
        stroke="#5E6080" stroke-width="0.5" stroke-miterlimit="10" />
    <path
        d="M137.373 100.982C146.173 100.973 154.675 104.157 161.297 109.941L169.672 101.582C171.985 99.2748 173.485 96.281 173.948 93.0503C174.411 89.8195 173.811 86.526 172.239 83.6643L171.165 81.7017C171.165 81.7017 174.552 79.4846 177.301 81.7017C178.772 82.8905 180.125 84.2171 181.343 85.6632C181.397 85.7221 181.464 85.7691 181.537 85.8013C181.611 85.8334 181.69 85.85 181.771 85.85C181.851 85.85 181.931 85.8334 182.004 85.8013C182.078 85.7691 182.144 85.7221 182.199 85.6632L182.508 85.3725C183.54 84.3385 184.784 83.5387 186.154 83.0275C187.524 82.5164 188.988 82.3059 190.446 82.4104C190.997 82.4523 191.551 82.3716 192.067 82.1741L193.36 81.7017L192.868 82.9737C192.677 83.4904 192.603 84.0425 192.649 84.591C192.747 86.0436 192.532 87.5001 192.021 88.8633C191.509 90.2265 190.711 91.465 189.682 92.496L189.372 92.7868C189.313 92.8412 189.266 92.9073 189.234 92.9807C189.202 93.0542 189.185 93.1336 189.185 93.2138C189.185 93.294 189.202 93.3734 189.234 93.4469C189.266 93.5204 189.313 93.5864 189.372 93.6409C190.813 94.8655 192.136 96.2223 193.323 97.6933C195.544 100.419 193.323 103.817 193.323 103.817L191.375 102.745C188.51 101.171 185.211 100.568 181.974 101.027C178.736 101.486 175.735 102.982 173.423 105.289L165.029 113.667C170.683 120.245 173.796 128.624 173.805 137.291H167.943C167.914 129.213 164.682 121.474 158.954 115.767C153.226 110.06 145.467 106.848 137.373 106.834V101.001V100.982Z"
        stroke="#5E6080" stroke-width="0.5" stroke-miterlimit="10" />
    <path
        d="M182.181 137.454V130.385C182.181 127.387 186.022 124.152 191.284 124.934C196.546 125.715 197.038 130.385 203.392 130.385C209.746 130.385 212.168 127.042 212.168 123.916C212.244 122.956 212.112 121.991 211.778 121.088C211.445 120.184 210.919 119.364 210.237 118.683C209.555 118.002 208.733 117.477 207.828 117.145C206.922 116.812 205.956 116.679 204.994 116.756C203.531 116.637 202.063 116.924 200.752 117.584C199.441 118.245 198.338 119.254 197.566 120.5C196.842 118.633 196.466 116.65 196.455 114.648C196.455 111.595 200.988 109.196 204.63 110.432C204.63 110.432 202.336 107.67 200.57 105.09C198.997 102.913 198.284 100.235 198.567 97.5662C198.804 95.0948 202.099 92.8778 203.155 92.4053C203.742 95.3389 204.898 98.1295 206.56 100.619C209.091 104.09 213.333 109.378 215.864 112.249C217.411 114.226 218.415 116.572 218.776 119.055C219.137 121.538 218.842 124.071 217.921 126.406C215.499 131.325 211.419 135.237 206.396 137.454H182.181Z"
        stroke="#5E6080" stroke-width="0.5" stroke-miterlimit="10" />
    <path
        d="M150.3 50.4269C150.3 50.4269 139.376 38.9602 137.318 27.6934V56.5873C138.844 54.6137 140.815 53.0272 143.071 51.9568C145.326 50.8864 147.803 50.3622 150.3 50.4269Z"
        stroke="#5E6080" stroke-width="0.5" stroke-miterlimit="10" />
    <path
        d="M137.373 93.259H144.456C147.46 93.259 150.701 89.4246 149.918 84.1729C149.135 78.9211 144.456 78.4122 144.456 72.0701C144.456 65.728 147.86 63.4201 150.974 63.4201C151.934 63.3405 152.901 63.4705 153.806 63.8011C154.711 64.1316 155.534 64.6547 156.216 65.3341C156.899 66.0136 157.425 66.8331 157.758 67.7358C158.092 68.6385 158.224 69.6028 158.147 70.5618C158.278 72.0118 158.007 73.4698 157.365 74.7771C156.723 76.0844 155.734 77.1908 154.506 77.9761C156.367 78.7098 158.349 79.0919 160.35 79.1028C163.409 79.1028 165.812 74.5779 164.574 70.9252C164.574 70.9252 167.342 73.215 170.036 74.9777C172.19 76.4804 174.815 77.1579 177.428 76.8858C179.905 76.6495 182.144 73.3603 182.617 72.3063C179.673 71.7487 176.87 70.6121 174.37 68.9626C170.892 66.4367 165.612 62.2025 162.717 59.6766C160.737 58.1316 158.386 57.1295 155.899 56.7694C153.411 56.4092 150.873 56.7035 148.534 57.6231C143.57 60.0318 139.618 64.1119 137.373 69.1444V93.259Z"
        stroke="#5E6080" stroke-width="0.5" stroke-miterlimit="10" />
    <path
        d="M155.58 1.3619C155.633 14.5667 160.926 27.2126 170.299 36.5311C179.673 45.8496 192.364 51.0814 205.595 51.0813C211.674 51.0844 217.703 49.9758 223.383 47.8103L224.348 47.4287C225.034 47.0273 225.591 46.4365 225.949 45.7273C226.308 45.0181 226.453 44.2207 226.369 43.4308C225.932 40.7776 222.327 40.5777 222.327 40.5777C223.383 38.5606 226.423 39.5056 226.423 39.5056C226.03 38.9449 225.862 38.2579 225.95 37.5793C226.173 36.6286 226.696 35.7747 227.443 35.1442C227.498 36.4395 227.807 37.7114 228.353 38.8877C228.54 39.296 228.817 39.6563 229.164 39.9412C229.512 40.226 229.92 40.4279 230.357 40.5314C230.795 40.6348 231.25 40.6371 231.688 40.538C232.127 40.439 232.537 40.2412 232.887 39.9599C236.426 35.7488 238.782 30.6757 239.714 25.2585C241.171 15.4273 232.432 8.39458 223.838 7.50414V9.32137C223.838 9.94792 223.589 10.5488 223.145 10.9918C222.701 11.4349 222.099 11.6838 221.471 11.6838C220.843 11.6838 220.241 11.4349 219.797 10.9918C219.353 10.5488 219.104 9.94792 219.104 9.32137V7.77673C212.222 9.73933 209.254 18.353 208.18 22.6598C209.939 23.5661 211.446 24.8907 212.571 26.5166C213.695 28.1425 214.4 30.0196 214.625 31.9822C215.299 38.6333 212.076 39.8509 211.403 42.8856C210.967 44.4059 210.967 46.0174 211.403 47.5377C211.403 47.5377 206.177 48.3192 204.63 44.1032C203.082 39.8872 204.284 35.6167 202.936 35.1079C201.589 34.5991 199.75 37.9973 196.473 39.5601C193.878 40.6451 191.145 41.3667 188.353 41.7044C188.353 41.7044 186.532 33.1453 189.7 28.9838C190.62 28.0828 191.297 26.9637 191.666 25.731C191.693 25.6052 191.693 25.4751 191.666 25.3494C191.632 25.2671 191.58 25.1934 191.514 25.1337C191.448 25.074 191.369 25.0297 191.284 25.0041C191.105 24.9587 190.917 24.9587 190.738 25.0041C189.898 25.2703 189.128 25.7169 188.48 26.3125C187.718 26.9117 186.871 27.3955 185.967 27.7481C185.056 28.0345 184.099 28.1516 183.145 28.0934C180.652 28.1174 178.239 27.2174 176.372 25.5674C174.092 23.0123 172.346 20.0282 171.238 16.7902C171.238 16.7902 177.173 19.1708 182.162 16.2632C185.804 14.2097 191.411 11.7383 196.182 12.6287C200.952 13.5192 204.447 19.0981 204.447 19.0981C204.447 19.0981 206.669 4.34216 219.013 2.63396V1.18018H223.747V2.72482C233.342 3.46989 242.209 8.72169 243.775 19.0799C244.284 22.9408 243.73 26.8671 242.172 30.4376C245.814 27.0394 249.728 23.1687 250.839 20.3156C253.224 14.2279 252.496 8.53996 250.839 6.26842C251.768 6.11055 252.723 6.21005 253.599 6.5561C254.475 6.90214 255.24 7.48146 255.809 8.23103C256.719 9.39057 257.149 10.8537 257.011 12.3198C257.003 12.5136 257.057 12.705 257.166 12.8657C257.275 13.0265 257.433 13.1483 257.616 13.2133C257.799 13.2783 257.998 13.2831 258.184 13.2269C258.37 13.1708 258.533 13.0567 258.65 12.9013C260.179 10.8478 260.816 7.95845 263.129 6.63187C264.193 6.03814 265.35 5.6266 266.552 5.41432C267.579 5.4363 268.607 5.38772 269.629 5.26895C269.512 6.22754 269.457 7.19269 269.465 8.15834C269.234 9.35228 268.823 10.5042 268.245 11.5747C266.916 13.8644 264.021 14.5187 261.963 16.0451C261.808 16.1613 261.693 16.3242 261.637 16.5099C261.581 16.6956 261.586 16.8944 261.651 17.0772C261.716 17.26 261.838 17.4172 261.999 17.5258C262.16 17.6343 262.352 17.6886 262.546 17.6806C264.015 17.5431 265.481 17.9723 266.643 18.88C267.394 19.4484 267.974 20.2114 268.321 21.0861C268.667 21.9608 268.767 22.9137 268.609 23.841C266.333 22.1874 260.634 21.4605 254.535 23.841C251.749 24.9132 247.798 28.6931 244.284 32.3639L245.887 31.6733C248.669 30.4867 251.703 30.006 254.717 30.274C257.377 30.5672 259.949 31.4023 262.273 32.7277C264.596 34.053 266.623 35.8404 268.227 37.9791C270.805 41.6769 272.236 46.0504 272.341 50.5543H273.925V55.2791H272.305C270.612 67.6363 255.919 69.817 255.919 69.817C255.919 69.817 261.381 73.3061 262.4 78.0672C263.42 82.8284 260.889 88.48 258.759 92.0599C257.932 93.7458 257.459 95.5824 257.368 97.4572C257.277 99.3321 257.571 101.206 258.231 102.963C254.987 101.847 251.998 100.099 249.437 97.8205C247.783 95.9567 246.876 93.55 246.888 91.0604C246.848 90.1149 246.965 89.1693 247.234 88.2619C247.59 87.3573 248.081 86.5118 248.69 85.7541C249.281 85.0963 249.728 84.3226 250.001 83.4826C250.038 83.3088 250.038 83.1294 250.001 82.9556C249.976 82.8681 249.932 82.7871 249.872 82.7181C249.812 82.6492 249.738 82.5938 249.655 82.5558C249.529 82.5288 249.399 82.5288 249.273 82.5558C248.036 82.9104 246.913 83.5806 246.014 84.5002C241.899 87.6259 233.269 85.845 233.269 85.845C233.581 83.0838 234.28 80.3801 235.345 77.8128C236.911 74.5418 240.333 72.7064 239.805 71.3616C239.277 70.0169 235.017 71.2344 230.702 69.6716C226.387 68.1088 227.261 62.9115 227.261 62.9115C228.782 63.3578 230.4 63.3578 231.922 62.9115C235.035 62.2391 236.255 59.0226 242.846 59.695C244.811 59.9226 246.691 60.6281 248.319 61.7497C249.948 62.8713 251.276 64.3747 252.186 66.128C256.501 65.0559 265.131 62.0756 267.098 55.2246H265.568C264.941 55.2246 264.339 54.9757 263.895 54.5327C263.451 54.0897 263.201 53.4888 263.201 52.8622C263.201 52.2357 263.451 51.6348 263.895 51.1918C264.339 50.7487 264.941 50.4998 265.568 50.4998H267.389C266.497 42.0134 259.451 33.1998 249.583 34.6536C244.553 35.5066 239.824 37.62 235.836 40.7958C235.622 41.0211 235.427 41.2643 235.254 41.5227C235.02 41.8725 234.867 42.2698 234.807 42.6857C234.746 43.1017 234.779 43.5259 234.902 43.9277C235.026 44.3295 235.238 44.6988 235.522 45.0089C235.806 45.319 236.156 45.562 236.546 45.7205C237.726 46.2637 239 46.5723 240.297 46.6291C239.665 47.3746 238.81 47.8971 237.857 48.1193C237.175 48.2077 236.484 48.0321 235.927 47.6286C235.927 47.6286 236.874 50.6634 234.853 51.7355C234.853 51.7355 234.653 48.1011 232.013 47.7013C230.065 47.3924 228.371 48.5917 227.115 51.1359C227.075 51.26 227.026 51.3814 226.97 51.4993C224.075 59.0768 223.073 67.2439 224.05 75.2946C225.026 83.3454 227.953 91.0375 232.576 97.7062C237.2 104.375 243.381 109.819 250.585 113.569C257.789 117.319 265.8 119.261 273.925 119.228V124.08C265.378 124.082 256.948 122.091 249.309 118.266C241.669 114.44 235.031 108.886 229.923 102.046C224.815 95.2056 221.38 87.2687 219.89 78.8683C218.401 70.4678 218.898 61.8362 221.344 53.6618C216.255 55.1695 210.975 55.9346 205.667 55.9333C191.157 55.9335 177.238 50.1979 166.954 39.9812C156.67 29.7646 150.859 15.8986 150.792 1.41642L155.58 1.3619Z"
        stroke="#5E6080" stroke-width="0.5" stroke-miterlimit="10" />
    <path d="M137.318 273.747H273.853V137.472L137.318 137.472L137.318 273.747Z" stroke="#5E6080"
        stroke-width="0.5" stroke-miterlimit="10" />
    <path
        d="M142.234 273.747C142.234 256.975 148.91 240.889 160.792 229.03C172.674 217.17 188.79 210.507 205.595 210.507H205.777C207.452 210.507 209.09 210.507 210.729 210.743C210.583 209.108 210.511 207.472 210.492 205.801V205.619C210.492 197.307 212.133 189.077 215.322 181.399C218.51 173.72 223.184 166.744 229.075 160.87C234.966 154.995 241.959 150.336 249.655 147.161C257.351 143.985 265.598 142.354 273.925 142.361V137.473C264.96 137.473 256.083 139.235 247.8 142.66C239.517 146.085 231.992 151.105 225.653 157.433C219.315 163.761 214.287 171.274 210.858 179.542C207.429 187.81 205.665 196.671 205.667 205.619C196.701 205.614 187.821 207.373 179.535 210.794C171.249 214.216 163.72 219.233 157.378 225.56C151.036 231.887 146.005 239.399 142.572 247.667C139.14 255.935 137.373 264.797 137.373 273.747H142.234Z"
        stroke="#5E6080" stroke-width="0.5" stroke-miterlimit="10" />
    <path
        d="M137.373 168.002C145.485 168.002 153.266 164.786 159.002 159.06C164.738 153.335 167.961 145.57 167.961 137.473H137.373V168.002Z"
        stroke="#5E6080" stroke-width="0.5" stroke-miterlimit="10" />
    <path
        d="M162.954 137.473C162.954 137.473 162.954 144.596 160.187 147.994C157.419 151.393 152.23 147.631 150.1 146.177C147.97 144.723 145.457 143.778 143.746 144.578C142.034 145.378 143.218 149.03 144.565 151.084C145.912 153.137 148.753 156.79 147.952 159.207C147.15 161.624 144.31 163.75 137.41 163.386V137.473H162.954Z"
        stroke="#5E6080" stroke-width="0.5" stroke-miterlimit="10" />
    <path
        d="M137.373 143.869C139.071 143.865 140.699 143.189 141.899 141.99C143.1 140.792 143.777 139.168 143.782 137.473H137.373V143.869Z"
        stroke="#5E6080" stroke-width="0.5" stroke-miterlimit="10" />
    <path
        d="M225.167 150.411C225.167 150.411 236.656 139.508 247.944 137.454H218.995C220.973 138.977 222.562 140.944 223.634 143.195C224.707 145.447 225.232 147.919 225.167 150.411Z"
        stroke="#5E6080" stroke-width="0.5" stroke-miterlimit="10" />
    <path
        d="M137.373 173.926C146.168 173.927 154.666 170.751 161.297 164.985L169.672 173.344C171.985 175.652 173.485 178.646 173.948 181.876C174.411 185.107 173.811 188.401 172.239 191.262L171.165 193.225C171.165 193.225 174.552 195.442 177.301 193.225C178.772 192.036 180.125 190.71 181.343 189.263C181.397 189.204 181.464 189.157 181.537 189.125C181.611 189.093 181.69 189.077 181.771 189.077C181.851 189.077 181.931 189.093 182.004 189.125C182.078 189.157 182.144 189.204 182.199 189.263L182.508 189.572C183.543 190.603 184.786 191.401 186.156 191.912C187.525 192.423 188.988 192.635 190.446 192.534C190.997 192.492 191.551 192.573 192.067 192.771L193.36 193.243L192.868 191.971C192.679 191.454 192.604 190.902 192.649 190.354C192.752 188.895 192.54 187.432 192.028 186.062C191.516 184.692 190.716 183.448 189.682 182.412L189.372 182.103C189.314 182.051 189.267 181.986 189.235 181.914C189.203 181.842 189.186 181.764 189.186 181.686C189.186 181.607 189.203 181.529 189.235 181.457C189.267 181.385 189.314 181.32 189.372 181.268C190.813 180.043 192.136 178.686 193.323 177.215C195.544 174.471 193.323 171.091 193.323 171.091L191.375 172.163C188.51 173.734 185.211 174.336 181.974 173.877C178.737 173.418 175.737 171.924 173.423 169.619L165.029 161.242C170.683 154.663 173.796 146.285 173.805 137.618H167.943C167.919 145.699 164.689 153.442 158.96 159.153C153.231 164.864 145.47 168.078 137.373 168.093V173.926Z"
        stroke="#5E6080" stroke-width="0.5" stroke-miterlimit="10" />
    <path
        d="M182.181 137.472V144.541C182.181 147.522 186.022 150.756 191.284 149.993C196.546 149.23 197.038 144.541 203.392 144.541C209.746 144.541 212.168 147.885 212.168 150.993C212.248 151.953 212.117 152.919 211.785 153.824C211.453 154.729 210.927 155.551 210.244 156.233C209.561 156.914 208.738 157.439 207.831 157.77C206.924 158.102 205.956 158.232 204.994 158.152C203.541 158.283 202.08 158.013 200.771 157.372C199.461 156.731 198.352 155.744 197.566 154.518C196.842 156.379 196.465 158.356 196.455 160.351C196.455 163.404 200.988 165.803 204.63 164.585C204.63 164.585 202.336 167.348 200.57 169.928C198.997 172.105 198.284 174.783 198.567 177.451C198.804 179.905 202.099 182.14 203.155 182.612C203.722 179.633 204.88 176.798 206.56 174.271C209.091 170.8 213.333 165.512 215.864 162.641C217.411 160.664 218.415 158.319 218.776 155.836C219.137 153.353 218.842 150.819 217.921 148.485C215.499 143.565 211.419 139.653 206.396 137.436L182.181 137.472Z"
        stroke="#5E6080" stroke-width="0.5" stroke-miterlimit="10" />
    <path
        d="M150.3 224.5C150.3 224.5 139.376 235.966 137.318 247.233V218.339C138.847 220.31 140.819 221.894 143.073 222.964C145.328 224.034 147.804 224.56 150.3 224.5Z"
        stroke="#5E6080" stroke-width="0.5" stroke-miterlimit="10" />
    <path
        d="M137.373 181.649H144.456C147.46 181.649 150.701 185.484 149.918 190.736C149.135 195.987 144.456 196.496 144.456 202.838C144.456 209.18 147.824 211.579 150.937 211.579C151.898 211.659 152.864 211.529 153.77 211.198C154.675 210.868 155.497 210.345 156.18 209.665C156.862 208.986 157.388 208.166 157.722 207.264C158.055 206.361 158.188 205.396 158.111 204.437C158.241 202.987 157.971 201.529 157.329 200.222C156.687 198.915 155.698 197.808 154.469 197.023C156.331 196.289 158.313 195.907 160.314 195.897C163.373 195.897 165.776 200.421 164.538 204.056C164.538 204.056 167.305 201.766 170 200.003C172.156 198.473 174.796 197.776 177.428 198.041C179.905 198.259 182.144 201.548 182.617 202.62C179.673 203.178 176.87 204.315 174.37 205.964C170.892 208.49 165.612 212.706 162.717 215.232C160.738 216.78 158.389 217.785 155.901 218.149C153.414 218.512 150.874 218.221 148.534 217.303C143.574 214.89 139.623 210.811 137.373 205.782V181.649Z"
        stroke="#5E6080" stroke-width="0.5" stroke-miterlimit="10" />
    <path
        d="M155.58 273.565C155.615 265.496 157.608 257.555 161.389 250.423C165.171 243.291 170.627 237.18 177.292 232.612C183.956 228.045 191.631 225.157 199.658 224.197C207.685 223.237 215.825 224.232 223.383 227.098L224.348 227.498C225.038 227.901 225.596 228.494 225.954 229.207C226.313 229.92 226.457 230.721 226.369 231.514C225.932 234.167 222.327 234.367 222.327 234.367C223.383 236.366 226.423 235.439 226.423 235.439C226.025 235.998 225.856 236.687 225.95 237.366C226.17 238.312 226.694 239.161 227.443 239.782C227.516 238.489 227.844 237.224 228.408 236.057C228.592 235.646 228.868 235.283 229.215 234.996C229.562 234.709 229.97 234.506 230.409 234.402C230.848 234.298 231.304 234.297 231.743 234.398C232.183 234.499 232.593 234.7 232.941 234.985C236.484 239.201 238.84 244.281 239.769 249.705C241.226 259.554 232.486 266.587 223.893 267.477V265.66C223.893 265.033 223.643 264.432 223.199 263.989C222.755 263.546 222.153 263.297 221.526 263.297C220.898 263.297 220.296 263.546 219.852 263.989C219.408 264.432 219.159 265.033 219.159 265.66V267.186C212.276 265.224 209.309 256.61 208.235 252.303C209.993 251.397 211.501 250.072 212.625 248.446C213.749 246.821 214.455 244.943 214.68 242.981C215.353 236.33 212.131 235.112 211.457 232.077C211.022 230.557 211.022 228.946 211.457 227.425C211.457 227.425 206.232 226.644 204.684 230.86C203.137 235.076 204.338 239.328 202.991 239.855C201.644 240.382 199.805 236.966 196.527 235.403C193.955 234.34 191.246 233.643 188.48 233.331C188.48 233.331 186.659 241.872 189.827 246.052C190.748 246.953 191.424 248.072 191.794 249.305C191.821 249.431 191.821 249.561 191.794 249.686C191.76 249.769 191.708 249.842 191.641 249.902C191.575 249.962 191.497 250.006 191.411 250.032C191.231 250.068 191.045 250.068 190.865 250.032C190.029 249.758 189.26 249.312 188.607 248.723C187.846 248.118 186.999 247.629 186.095 247.269C185.179 247.001 184.226 246.884 183.273 246.924C180.779 246.914 178.368 247.819 176.5 249.468C174.219 252.023 172.474 255.008 171.365 258.246C171.365 258.246 177.301 255.865 182.29 258.773C185.931 260.826 191.539 263.297 196.309 262.407C201.079 261.517 204.575 255.938 204.575 255.938C204.575 255.938 206.796 270.694 219.141 272.293V273.91H223.874V272.365C233.469 271.62 242.336 266.369 243.902 256.01C244.411 252.149 243.857 248.223 242.3 244.653C245.941 248.033 249.856 251.922 250.966 254.775C253.351 260.862 252.623 266.55 250.966 268.804C251.894 268.968 252.849 268.873 253.726 268.53C254.603 268.187 255.368 267.609 255.937 266.859C256.847 265.693 257.277 264.224 257.139 262.752C257.135 262.56 257.192 262.371 257.302 262.214C257.412 262.056 257.57 261.937 257.752 261.875C257.934 261.812 258.132 261.809 258.316 261.865C258.5 261.922 258.662 262.035 258.777 262.189C260.307 264.242 260.944 267.132 263.256 268.458C264.327 269.038 265.482 269.449 266.679 269.676C267.646 269.668 268.613 269.723 269.574 269.839C269.457 268.881 269.402 267.916 269.41 266.95C269.182 265.755 268.771 264.603 268.19 263.534C266.861 261.226 263.966 260.572 261.909 259.063C261.753 258.947 261.639 258.784 261.583 258.599C261.526 258.413 261.531 258.214 261.596 258.031C261.661 257.848 261.783 257.691 261.944 257.583C262.105 257.474 262.297 257.42 262.491 257.428C264.003 257.529 265.494 257.033 266.643 256.047C267.394 255.478 267.974 254.715 268.321 253.841C268.667 252.966 268.767 252.013 268.609 251.086C266.333 252.739 260.634 253.466 254.535 251.086C251.749 249.995 247.798 246.234 244.284 242.563L245.887 243.253C248.671 244.435 251.704 244.909 254.717 244.634C257.374 244.353 259.945 243.529 262.27 242.213C264.594 240.896 266.622 239.116 268.227 236.984C270.805 233.286 272.236 228.913 272.341 224.409H273.925V219.702H272.305C270.612 207.363 255.919 205.164 255.919 205.164C255.919 205.164 261.381 201.675 262.4 196.914C263.42 192.153 260.889 186.501 258.759 182.921C257.932 181.235 257.459 179.399 257.368 177.524C257.277 175.649 257.571 173.776 258.231 172.018C254.987 173.134 251.998 174.882 249.437 177.161C247.783 179.024 246.876 181.431 246.888 183.921C246.848 184.866 246.965 185.812 247.234 186.719C247.59 187.624 248.081 188.469 248.69 189.227C249.285 189.882 249.732 190.657 250.001 191.499C250.038 191.672 250.038 191.852 250.001 192.026C249.976 192.111 249.931 192.189 249.872 192.255C249.812 192.321 249.738 192.373 249.655 192.407C249.531 192.443 249.398 192.443 249.273 192.407C248.038 192.038 246.917 191.363 246.014 190.445C241.899 187.319 233.269 189.118 233.269 189.118C233.581 191.879 234.28 194.583 235.345 197.15C236.911 200.421 240.333 202.257 239.805 203.601C239.277 204.946 235.017 203.729 230.702 205.273C226.387 206.818 227.261 212.052 227.261 212.052C228.782 211.605 230.4 211.605 231.922 212.052C235.035 212.706 236.255 215.922 242.846 215.268C244.811 215.04 246.691 214.335 248.319 213.213C249.948 212.092 251.276 210.588 252.186 208.835C256.501 209.907 265.131 212.887 267.098 219.738H265.568C264.974 219.79 264.421 220.063 264.018 220.502C263.615 220.941 263.391 221.514 263.391 222.11C263.391 222.705 263.615 223.279 264.018 223.718C264.421 224.157 264.974 224.429 265.568 224.481H267.389C266.497 232.968 259.451 241.781 249.583 240.328C244.549 239.477 239.818 237.356 235.836 234.167C235.617 233.952 235.422 233.715 235.254 233.459C235.02 233.109 234.867 232.711 234.807 232.295C234.746 231.88 234.779 231.455 234.902 231.054C235.026 230.652 235.238 230.282 235.522 229.972C235.806 229.662 236.156 229.419 236.546 229.261C237.726 228.717 239 228.409 240.297 228.352C239.665 227.607 238.81 227.084 237.857 226.862C237.177 226.774 236.489 226.942 235.927 227.334C235.927 227.334 236.874 224.3 234.853 223.246C234.853 223.246 234.653 226.88 232.013 227.28C230.065 227.589 228.371 226.389 227.115 223.845C227.078 223.72 227.029 223.598 226.97 223.482C224.064 215.902 223.053 207.728 224.024 199.67C224.995 191.612 227.92 183.912 232.545 177.236C237.17 170.56 243.355 165.11 250.565 161.357C257.776 157.604 265.794 155.662 273.925 155.699V150.847C265.378 150.845 256.948 152.835 249.309 156.661C241.669 160.486 235.031 166.041 229.923 172.881C224.815 179.721 221.38 187.658 219.89 196.058C218.401 204.459 218.898 213.09 221.344 221.265C213.168 218.829 204.536 218.329 196.134 219.806C187.731 221.283 179.79 224.696 172.94 229.774C166.091 234.851 160.522 241.453 156.677 249.055C152.833 256.657 150.817 265.049 150.792 273.565H155.58Z"
        stroke="#5E6080" stroke-width="0.5" stroke-miterlimit="10" />
    <path d="M137.41 137.473H0.875488V273.747H137.41V137.473Z" stroke="#5E6080" stroke-width="0.5"
        stroke-miterlimit="10" />
    <path
        d="M132.512 273.747C132.512 256.975 125.837 240.889 113.954 229.03C102.072 217.17 85.9558 210.507 69.1516 210.507H68.9513C67.2763 210.507 65.6377 210.507 64.0173 210.743C64.1447 209.108 64.2175 207.472 64.2357 205.801V205.619C64.2357 197.309 62.5952 189.08 59.4079 181.403C56.2205 173.726 51.5488 166.75 45.6597 160.876C39.7706 155.001 32.7795 150.343 25.0859 147.166C17.3923 143.989 9.14685 142.356 0.820801 142.361V137.473C9.78696 137.473 18.6653 139.235 26.949 142.66C35.2326 146.085 42.7593 151.104 49.0994 157.432C55.4394 163.76 60.4686 171.273 63.8998 179.54C67.331 187.808 69.097 196.67 69.097 205.619C78.0623 205.616 86.9403 207.377 95.2238 210.8C103.507 214.222 111.034 219.24 117.374 225.567C123.715 231.893 128.744 239.404 132.176 247.671C135.607 255.938 137.373 264.799 137.373 273.747H132.512Z"
        stroke="#5E6080" stroke-width="0.5" stroke-miterlimit="10" />
    <path
        d="M137.373 168.002C129.261 168.002 121.48 164.786 115.744 159.06C110.008 153.335 106.785 145.57 106.785 137.473H137.373V168.002Z"
        stroke="#5E6080" stroke-width="0.5" stroke-miterlimit="10" />
    <path
        d="M111.774 137.473C111.774 137.473 111.774 144.596 114.541 147.994C117.309 151.393 122.498 147.631 124.628 146.177C126.758 144.723 129.271 143.778 130.982 144.578C132.694 145.378 131.51 149.03 130.181 151.084C128.852 153.137 125.975 156.79 126.776 159.207C127.578 161.624 130.418 163.75 137.318 163.386V137.473H111.774Z"
        stroke="#5E6080" stroke-width="0.5" stroke-miterlimit="10" />
    <path
        d="M137.373 143.869C135.675 143.865 134.048 143.189 132.847 141.99C131.646 140.792 130.969 139.168 130.964 137.473H137.373V143.869Z"
        stroke="#5E6080" stroke-width="0.5" stroke-miterlimit="10" />
    <path
        d="M49.5244 150.411C49.5244 150.411 38.0358 139.508 26.7656 137.454H55.6965C53.7224 138.98 52.1353 140.948 51.0631 143.198C49.991 145.449 49.4639 147.92 49.5244 150.411Z"
        stroke="#5E6080" stroke-width="0.5" stroke-miterlimit="10" />
    <path
        d="M137.373 173.926C128.578 173.927 120.08 170.751 113.449 164.985L105.074 173.344C102.761 175.652 101.261 178.646 100.798 181.876C100.335 185.107 100.935 188.401 102.507 191.262L103.599 193.225C103.599 193.225 100.194 195.442 97.4451 193.225C95.9788 192.031 94.6257 190.705 93.4031 189.263C93.3486 189.205 93.2824 189.158 93.2088 189.125C93.1351 189.093 93.0556 189.077 92.9753 189.077C92.8949 189.077 92.8154 189.093 92.7417 189.125C92.6681 189.158 92.6019 189.205 92.5474 189.263L92.2561 189.572C91.2082 190.59 89.9547 191.373 88.5795 191.868C87.2042 192.363 85.7388 192.559 84.2814 192.444C83.7305 192.403 83.1773 192.483 82.661 192.68L81.3683 193.152L81.8599 191.88C82.0461 191.362 82.1265 190.812 82.0966 190.263C81.9868 188.805 82.1936 187.341 82.7026 185.971C83.2116 184.6 84.011 183.356 85.0461 182.322L85.3556 182.013C85.4142 181.96 85.461 181.895 85.493 181.823C85.5251 181.751 85.5416 181.673 85.5416 181.595C85.5416 181.516 85.5251 181.438 85.493 181.366C85.461 181.294 85.4142 181.23 85.3556 181.177C83.9192 179.947 82.5969 178.591 81.4047 177.124C79.1835 174.38 81.4047 171 81.4047 171L83.3529 172.072C86.2182 173.644 89.5168 174.245 92.7537 173.786C95.9905 173.328 98.991 171.833 101.305 169.528L109.698 161.151C104.044 154.572 100.932 146.194 100.923 137.527H106.785C106.785 145.627 110.007 153.396 115.742 159.127C121.477 164.858 129.257 168.083 137.373 168.093V173.926Z"
        stroke="#5E6080" stroke-width="0.5" stroke-miterlimit="10" />
    <path
        d="M92.5473 137.472V144.541C92.5473 147.522 88.7057 150.756 83.4438 149.993C78.182 149.23 77.6904 144.541 71.3362 144.541C64.9819 144.541 62.5786 147.885 62.5786 150.993C62.4957 151.952 62.6238 152.918 62.9538 153.823C63.2838 154.728 63.8078 155.55 64.4893 156.232C65.1707 156.914 65.9931 157.439 66.899 157.771C67.8049 158.103 68.7724 158.233 69.734 158.152C71.1868 158.283 72.6476 158.013 73.9573 157.372C75.2671 156.731 76.3757 155.744 77.1624 154.518C77.8861 156.379 78.2625 158.356 78.273 160.351C78.273 163.404 73.7395 165.803 70.0981 164.585C70.0981 164.585 72.3922 167.348 74.1583 169.928C75.7306 172.105 76.4437 174.783 76.161 177.451C75.9243 179.905 72.6289 182.14 71.5729 182.612C71.0209 179.632 69.8688 176.794 68.1864 174.271C65.6556 170.8 61.4134 165.512 58.8826 162.641C57.3347 160.664 56.3307 158.319 55.9699 155.836C55.609 153.353 55.9039 150.819 56.8252 148.485C59.2473 143.565 63.3275 139.653 68.3502 137.436L92.5473 137.472Z"
        stroke="#5E6080" stroke-width="0.5" stroke-miterlimit="10" />
    <path
        d="M124.428 224.5C124.428 224.5 135.352 235.966 137.409 247.233V218.339C135.881 220.31 133.909 221.894 131.654 222.964C129.399 224.034 126.924 224.56 124.428 224.5Z"
        stroke="#5E6080" stroke-width="0.5" stroke-miterlimit="10" />
    <path
        d="M137.373 181.649H130.236C127.232 181.649 123.991 185.484 124.774 190.736C125.557 195.987 130.236 196.496 130.236 202.838C130.236 209.18 126.886 211.579 123.754 211.579C122.794 211.659 121.827 211.529 120.922 211.198C120.017 210.868 119.194 210.345 118.512 209.665C117.829 208.986 117.303 208.166 116.97 207.264C116.636 206.361 116.504 205.396 116.581 204.437C116.461 202.977 116.749 201.512 117.41 200.203C118.072 198.895 119.083 197.795 120.331 197.023C118.463 196.292 116.476 195.911 114.469 195.897C111.41 195.897 109.007 200.421 110.245 204.056C110.245 204.056 107.477 201.766 104.892 200.003C102.697 198.438 99.9987 197.739 97.3178 198.041C94.8416 198.259 92.6021 201.548 92.147 202.62C95.0851 203.179 97.8826 204.316 100.377 205.964C103.854 208.49 109.152 212.706 112.029 215.232C114.008 216.78 116.357 217.785 118.845 218.149C121.332 218.512 123.872 218.221 126.212 217.303C131.177 214.896 135.13 210.816 137.373 205.782V181.649Z"
        stroke="#5E6080" stroke-width="0.5" stroke-miterlimit="10" />
    <path
        d="M119.166 273.565C119.131 265.496 117.138 257.555 113.357 250.423C109.576 243.291 104.119 237.18 97.4545 232.612C90.7898 228.045 83.1155 225.157 75.0884 224.197C67.0614 223.237 58.9208 224.232 51.3634 227.098L50.3984 227.498C49.7071 227.898 49.1488 228.492 48.7927 229.206C48.4367 229.92 48.2986 230.722 48.3957 231.514C48.8144 234.167 52.4194 234.367 52.4194 234.367C51.3634 236.366 48.3228 235.439 48.3228 235.439C48.7207 235.998 48.8901 236.687 48.7962 237.366C48.5762 238.312 48.0518 239.161 47.3032 239.782C47.2301 238.489 46.9022 237.224 46.3383 236.057C46.1546 235.646 45.8786 235.283 45.5315 234.996C45.1844 234.709 44.7757 234.506 44.3371 234.402C43.8985 234.298 43.4419 234.297 43.0027 234.398C42.5635 234.499 42.1535 234.7 41.8047 234.985C38.2626 239.201 35.9064 244.281 34.9771 249.705C33.5206 259.554 42.2599 266.587 50.8536 267.477V265.66C50.8536 265.033 51.103 264.432 51.5469 263.989C51.9907 263.546 52.5928 263.297 53.2205 263.297C53.8483 263.297 54.4503 263.546 54.8942 263.989C55.3381 264.432 55.5874 265.033 55.5874 265.66V267.186C62.4697 265.224 65.4556 256.61 66.5116 252.303C64.755 251.394 63.2487 250.069 62.125 248.444C61.0012 246.818 60.2943 244.942 60.0663 242.981C59.3927 236.33 62.6153 235.112 63.289 232.077C63.7361 230.559 63.7361 228.944 63.289 227.425C63.289 227.425 68.5144 226.644 70.062 230.86C71.6096 235.076 70.4079 239.328 71.7552 239.855C73.1025 240.382 74.9414 236.966 78.2187 235.403C80.8257 234.291 83.5785 233.557 86.3936 233.222C86.3936 233.222 88.2143 241.763 85.0463 245.943C84.126 246.844 83.4495 247.963 83.08 249.196C83.0529 249.321 83.0529 249.452 83.08 249.577C83.1181 249.66 83.1735 249.734 83.2426 249.793C83.3117 249.853 83.3929 249.897 83.4805 249.923C83.6547 249.959 83.8344 249.959 84.0085 249.923C84.8464 249.653 85.6164 249.207 86.2662 248.614C87.0318 248.005 87.885 247.515 88.797 247.16C89.7061 246.892 90.6535 246.775 91.6008 246.815C94.0952 246.803 96.5065 247.709 98.3738 249.359C100.654 251.914 102.4 254.899 103.508 258.136C103.508 258.136 97.5727 255.756 92.584 258.663C88.9426 260.717 83.3349 263.188 78.5646 262.298C73.7944 261.408 70.2987 255.829 70.2987 255.829C70.2987 255.829 68.0774 270.585 55.7331 272.184V273.801H50.89V272.256C41.2949 271.511 32.4281 266.26 30.8623 255.901C30.3372 252.042 30.8852 248.113 32.4463 244.544C28.8049 247.924 24.8904 251.813 23.7798 254.666C21.3947 260.753 22.123 266.441 23.7798 268.695C22.8523 268.859 21.8973 268.764 21.0203 268.421C20.1433 268.078 19.3782 267.5 18.8093 266.75C17.8967 265.586 17.4724 264.114 17.6259 262.643C17.6356 262.446 17.5808 262.251 17.4697 262.088C17.3587 261.925 17.1973 261.802 17.0102 261.738C16.823 261.675 16.6202 261.674 16.4323 261.735C16.2445 261.797 16.0818 261.918 15.969 262.08C14.4578 264.133 13.8024 267.023 11.4901 268.349C10.4188 268.929 9.26423 269.34 8.06718 269.567C7.09969 269.559 6.1327 269.614 5.17227 269.73C5.28927 268.772 5.344 267.807 5.33613 266.841C5.52992 265.613 5.91704 264.423 6.48317 263.316C7.81228 261.008 10.7072 260.353 12.7646 258.845C12.9188 258.73 13.0323 258.569 13.0889 258.385C13.1454 258.201 13.1421 258.004 13.0793 257.822C13.0166 257.64 12.8977 257.483 12.7397 257.373C12.5817 257.263 12.3928 257.206 12.2002 257.21C10.7364 257.354 9.2723 256.938 8.1036 256.047C7.35276 255.479 6.77354 254.715 6.4298 253.84C6.08605 252.965 5.99111 252.011 6.15545 251.086C8.43132 252.739 14.1119 253.466 20.2112 251.086C22.9969 249.995 26.9478 246.234 30.4618 242.563L28.8596 243.253C26.0823 244.436 23.0541 244.911 20.0474 244.634C17.3868 244.356 14.8124 243.532 12.4848 242.216C10.1573 240.9 8.12661 239.119 6.51959 236.984C3.9388 233.288 2.51325 228.912 2.42302 224.409H0.820801V219.702H2.44122C4.13447 207.363 18.9185 205.164 18.9185 205.164C18.9185 205.164 13.4565 201.675 12.4369 196.914C11.4173 192.153 13.948 186.501 16.0783 182.921C16.9 181.233 17.3689 179.396 17.4565 177.522C17.5442 175.647 17.2487 173.775 16.5881 172.018C19.8316 173.134 22.8208 174.882 25.382 177.161C27.0357 179.024 27.9432 181.431 27.931 183.921C27.9712 184.866 27.8543 185.812 27.5851 186.719C27.2293 187.624 26.7382 188.469 26.1285 189.227C25.5342 189.882 25.0873 190.657 24.8176 191.499C24.7721 191.671 24.7721 191.853 24.8176 192.026C24.8378 192.113 24.8802 192.195 24.9407 192.261C25.0013 192.328 25.078 192.378 25.1635 192.407C25.2822 192.444 25.409 192.444 25.5277 192.407C26.7664 192.035 27.8927 191.36 28.8049 190.445C32.9015 187.319 41.5498 189.118 41.5498 189.118C41.2379 191.879 40.5392 194.583 39.4742 197.15C37.9084 200.421 34.4855 202.257 35.0135 203.601C35.5415 204.946 39.802 203.729 44.117 205.273C48.4321 206.818 47.5763 212.052 47.5763 212.052C46.0486 211.606 44.4249 211.606 42.8972 212.052C39.7838 212.706 38.5639 215.922 31.973 215.268C29.9622 215.074 28.0322 214.38 26.3593 213.25C24.6863 212.12 23.3238 210.59 22.3961 208.799C18.081 209.871 9.45091 212.851 7.48456 219.702H9.01395C9.34345 219.673 9.67536 219.713 9.98858 219.819C10.3018 219.925 10.5895 220.095 10.8334 220.318C11.0773 220.541 11.272 220.813 11.4052 221.115C11.5385 221.417 11.6073 221.743 11.6073 222.074C11.6073 222.404 11.5385 222.73 11.4052 223.032C11.272 223.335 11.0773 223.606 10.8334 223.829C10.5895 224.052 10.3018 224.222 9.98858 224.328C9.67536 224.434 9.34345 224.474 9.01395 224.445H7.19325C8.06718 232.931 15.1133 241.745 24.9815 240.291C30.0147 239.441 34.7465 237.32 38.7278 234.131C38.9467 233.916 39.142 233.678 39.3104 233.422C39.5439 233.072 39.6966 232.675 39.7574 232.259C39.8182 231.843 39.7855 231.419 39.6618 231.017C39.5381 230.615 39.3264 230.246 39.042 229.936C38.7576 229.626 38.4078 229.383 38.0177 229.224C36.8391 228.679 35.5648 228.371 34.267 228.316C34.8987 227.57 35.7542 227.048 36.7068 226.826C37.3866 226.737 38.0749 226.906 38.6367 227.298C38.6367 227.298 37.69 224.263 39.7109 223.209C39.7109 223.209 39.9112 226.844 42.5512 227.244C44.4994 227.552 46.1926 226.353 47.4489 223.809C47.4863 223.684 47.5351 223.562 47.5946 223.446C49.7496 217.773 50.8539 211.758 50.8536 205.691C50.8656 199.127 49.58 192.626 47.0705 186.559C44.5611 180.491 40.877 174.978 36.2294 170.334C31.5817 165.69 26.0618 162.007 19.9858 159.496C13.9098 156.985 7.39715 155.694 0.820801 155.699V150.847C8.0272 150.847 15.163 152.264 21.8209 155.016C28.4787 157.769 34.5282 161.803 39.6239 166.889C44.7196 171.975 48.7617 178.013 51.5195 184.658C54.2773 191.304 55.6967 198.426 55.6967 205.619C55.692 210.917 54.9193 216.187 53.4026 221.265C61.5779 218.829 70.2098 218.329 78.6124 219.806C87.015 221.283 94.9566 224.696 101.806 229.774C108.655 234.851 114.224 241.453 118.069 249.055C121.914 256.657 123.929 265.049 123.955 273.565H119.166Z"
        stroke="#5E6080" stroke-width="0.5" stroke-miterlimit="10" />
</svg>
    