<svg width="216" height="110" viewBox="0 0 216 110" fill="none" xmlns="http://www.w3.org/2000/svg">
    <path d="M-1.18184 109.011L106.786 109.011L106.786 1.04328L-1.18184 1.04328L-1.18184 109.011Z" stroke="#EFDBD7" stroke-width="0.5" stroke-miterlimit="10"/>
    <path d="M2.69109 1.05762C2.69109 14.346 7.96986 27.0901 17.3661 36.4864C26.7624 45.8826 39.5065 51.1614 52.7949 51.1614H52.9533C54.2635 51.1614 55.5592 51.1614 56.855 50.9887C56.7542 52.2844 56.6823 53.5802 56.6823 54.8904V55.0488C56.7013 68.3247 61.9885 81.0503 71.3827 90.431C80.777 99.8117 93.5102 105.081 106.786 105.081V108.968C92.4667 108.968 78.7338 103.28 68.6085 93.1543C58.4832 83.029 52.7949 69.2961 52.7949 54.9768C38.488 54.9768 24.766 49.2984 14.6428 39.1886C4.51955 29.0789 -1.17721 15.3645 -1.19629 1.05762H2.69109Z" stroke="#EFDBD7" stroke-width="0.5" stroke-miterlimit="10"/>
    <path d="M-1.19629 84.8374C5.21878 84.8374 11.3711 87.3858 15.9072 91.9219C20.4434 96.4581 22.9918 102.61 22.9918 109.025H-1.19629V84.8374Z" stroke="#EFDBD7" stroke-width="0.5" stroke-miterlimit="10"/>
    <path d="M19.1045 109.025C19.1045 109.025 19.1764 103.382 16.916 100.689C14.6556 97.9968 10.6386 100.977 8.93972 102.129C7.24079 103.281 5.26832 104.044 3.92934 103.41C2.59036 102.777 3.49739 99.8685 4.56282 98.256C5.62825 96.6435 7.88868 93.7351 7.24078 91.8203C6.59289 89.9054 4.36126 88.2208 -1.08105 88.5088V109.025H19.1045Z" stroke="#EFDBD7" stroke-width="0.5" stroke-miterlimit="10"/>
    <path d="M-1.19629 103.958C0.147821 103.958 1.4369 104.491 2.38733 105.442C3.33776 106.392 3.87169 107.681 3.87169 109.025H-1.19629V103.958Z" stroke="#EFDBD7" stroke-width="0.5" stroke-miterlimit="10"/>
    <path d="M68.2856 98.7744C68.2856 98.7744 77.3705 107.413 86.2827 109.04H63.4048C64.9633 107.829 66.2165 106.269 67.0641 104.487C67.9116 102.704 68.33 100.748 68.2856 98.7744Z" stroke="#EFDBD7" stroke-width="0.5" stroke-miterlimit="10"/>
    <path d="M-1.1531 80.1298C5.80981 80.1216 12.5384 82.6442 17.7798 87.2279L24.4027 80.6049C26.2312 78.7764 27.4163 76.4035 27.7798 73.8433C28.1433 71.2831 27.6656 68.6741 26.4184 66.4089L25.569 64.8539C25.569 64.8539 28.2613 63.0974 30.421 64.8539C31.5841 65.8006 32.6588 66.8512 33.6316 67.9926C33.6748 68.0393 33.7271 68.0765 33.7853 68.102C33.8435 68.1275 33.9064 68.1406 33.97 68.1406C34.0335 68.1406 34.0964 68.1275 34.1546 68.102C34.2128 68.0765 34.2652 68.0393 34.3083 67.9926L34.5387 67.7622C35.3572 66.9419 36.3429 66.3076 37.4286 65.9026C38.5144 65.4976 39.6747 65.3315 40.8304 65.4154C41.2661 65.4463 41.7032 65.3825 42.1118 65.2283L43.1197 64.8539L42.7454 65.8617C42.5898 66.27 42.5259 66.7075 42.5582 67.1431C42.6379 68.2942 42.4697 69.449 42.0648 70.5294C41.6599 71.6099 41.0279 72.5909 40.2114 73.4061L39.981 73.6365C39.9343 73.6796 39.8971 73.7319 39.8716 73.7902C39.8461 73.8484 39.833 73.9113 39.833 73.9748C39.833 74.0384 39.8461 74.1012 39.8716 74.1595C39.8971 74.2177 39.9343 74.27 39.981 74.3132C41.1224 75.286 42.1729 76.3607 43.1197 77.5238C44.8762 79.6835 43.1197 82.3758 43.1197 82.3758L41.5647 81.5264C39.2995 80.2792 36.6905 79.8015 34.1303 80.165C31.5701 80.5285 29.1972 81.7136 27.3687 83.5421L20.7313 90.1794C25.2175 95.3833 27.6854 102.026 27.6854 108.896H23.0206C22.9977 102.489 20.4362 96.3511 15.8971 91.8282C11.3581 87.3054 5.21148 84.7658 -1.19629 84.7659V80.1442L-1.1531 80.1298Z" stroke="#EFDBD7" stroke-width="0.5" stroke-miterlimit="10"/>
    <path d="M34.293 109.026V103.425C34.293 101.049 37.3165 98.4867 41.4918 99.1058C45.6671 99.7249 46.0558 103.425 51.0806 103.425C56.1054 103.425 57.9771 100.762 57.9771 98.2995C58.0401 97.5399 57.9371 96.7756 57.6752 96.0597C57.4134 95.3439 56.9989 94.6935 56.4606 94.1539C55.9223 93.6142 55.273 93.1981 54.5578 92.9344C53.8426 92.6707 53.0786 92.5657 52.3188 92.6268C51.1639 92.5352 50.006 92.7635 48.9723 93.2867C47.9386 93.8099 47.069 94.6078 46.459 95.5927C45.88 94.1151 45.5775 92.5437 45.5663 90.9567C45.5663 88.5379 49.1513 86.6374 52.0453 87.6164C52.0453 87.6164 50.2168 85.428 48.8346 83.3835C47.5912 81.6592 47.0273 79.537 47.2508 77.4229C47.438 75.4648 50.044 73.7083 50.8791 73.334C51.3219 75.6574 52.2225 77.8696 53.5282 79.8417C55.5295 82.5917 58.8841 86.7814 60.8854 89.0562C62.1004 90.6269 62.8887 92.485 63.1737 94.4501C63.4588 96.4153 63.231 98.4208 62.5123 100.272C60.5954 104.174 57.3629 107.274 53.3842 109.026H34.293Z" stroke="#EFDBD7" stroke-width="0.5" stroke-miterlimit="10"/>
    <path d="M9.02578 40.0754C9.02578 40.0754 0.387188 30.9905 -1.23975 22.064V44.9562C-0.0308307 43.3951 1.52809 42.1401 3.31126 41.2922C5.09442 40.4444 7.05191 40.0276 9.02578 40.0754Z" stroke="#EFDBD7" stroke-width="0.5" stroke-miterlimit="10"/>
    <path d="M-1.05273 74.0106H4.53356C6.90917 74.0106 9.47195 70.9727 8.85285 66.8118C8.23375 62.6509 4.53356 62.2477 4.53356 57.223C4.53356 52.1982 7.13952 50.3697 9.60152 50.3697C10.3617 50.3041 11.1271 50.4054 11.8441 50.6664C12.5611 50.9273 13.2125 51.3417 13.7527 51.8806C14.293 52.4194 14.709 53.0698 14.9718 53.7861C15.2346 54.5025 15.3378 55.2676 15.2742 56.028C15.3673 57.1815 15.1411 58.3384 14.6205 59.372C14.0999 60.4055 13.305 61.2759 12.3227 61.8878C13.7946 62.4691 15.3618 62.7718 16.9443 62.7804C19.3631 62.7804 21.2636 59.1954 20.299 56.3015C20.299 56.3015 22.4874 58.1156 24.5319 59.5122C26.2562 60.7555 28.3785 61.3194 30.4925 61.0959C32.4362 60.9088 34.2071 58.3028 34.5814 57.4677C32.2574 57.0271 30.0448 56.1264 28.0737 54.8185C25.3237 52.8173 21.134 49.4626 18.8592 47.4614C17.2917 46.2189 15.4257 45.4094 13.4475 45.1138C11.4692 44.8182 9.44807 45.0468 7.58585 45.7768C3.72721 47.7154 0.670377 50.9454 -1.05273 54.9049V74.0106Z" stroke="#EFDBD7" stroke-width="0.5" stroke-miterlimit="10"/>
    <path d="M13.2582 1.20159C13.3001 11.661 17.4835 21.678 24.893 29.0605C32.3025 36.443 42.3346 40.5898 52.7941 40.5936C57.6019 40.596 62.3694 39.7176 66.8607 38.002L67.6381 37.6996C68.1848 37.3827 68.6263 36.9122 68.9079 36.3465C69.1894 35.7809 69.2986 35.1449 69.2219 34.5177C68.8763 32.4157 66.04 32.2573 66.04 32.2573C66.8751 30.6592 69.2795 31.4079 69.2795 31.4079C68.9675 30.9638 68.8292 30.4209 68.8907 29.8817C69.0667 29.1285 69.4807 28.4519 70.0713 27.9524C70.1152 28.9802 70.3649 29.9888 70.8056 30.9183C70.9513 31.2415 71.1693 31.5269 71.4426 31.7526C71.7159 31.9784 72.0373 32.1384 72.3822 32.2204C72.7271 32.3025 73.0861 32.3043 73.4318 32.2259C73.7775 32.1474 74.1006 31.9907 74.3762 31.7678C77.1779 28.4371 79.0459 24.4228 79.7897 20.1345C80.9415 12.3454 74.0307 6.77348 67.235 6.068V7.50776C67.1938 7.97769 66.978 8.41512 66.6302 8.73379C66.2824 9.05246 65.8278 9.22922 65.3561 9.22922C64.8844 9.22922 64.4298 9.05246 64.082 8.73379C63.7342 8.41512 63.5184 7.97769 63.4772 7.50776V6.28396C58.0493 7.83891 55.6881 14.6634 54.8386 18.0756C56.2277 18.7957 57.4189 19.8457 58.3075 21.1334C59.1961 22.4212 59.7551 23.9074 59.9354 25.4616C60.4537 30.7312 57.9053 31.6958 57.387 34.1002C57.0334 35.3034 57.0334 36.5829 57.387 37.786C57.387 37.786 53.2549 38.4051 52.0167 35.0649C50.7785 31.7246 51.7575 28.3412 50.6921 27.938C49.6267 27.5349 48.1725 30.2272 45.581 31.4654C43.561 32.3162 41.4346 32.8877 39.2604 33.1644C39.2604 33.1644 37.8206 26.3831 40.3114 23.086C41.0391 22.3721 41.5741 21.4855 41.8663 20.5088C41.8947 20.4101 41.8947 20.3053 41.8663 20.2065C41.8394 20.1413 41.7983 20.0829 41.746 20.0356C41.6937 19.9883 41.6315 19.9532 41.564 19.9329C41.4223 19.897 41.2738 19.897 41.1321 19.9329C40.4684 20.1439 39.859 20.4977 39.3467 20.9696C38.7459 21.4472 38.076 21.8307 37.3599 22.107C36.6439 22.3338 35.8923 22.4265 35.1426 22.3805C33.1706 22.4024 31.2612 21.6889 29.7867 20.3793C27.9815 18.3539 26.5965 15.9901 25.7122 13.4252C27.1047 13.9471 28.5891 14.1792 30.0745 14.1074C31.5599 14.0356 33.015 13.6614 34.3508 13.0077C37.2303 11.3807 41.6648 9.42265 45.4226 10.1281C49.1803 10.8336 51.9735 15.2537 51.9735 15.2537C51.9735 15.2537 53.7156 3.56281 63.4916 2.20943V1.05762H67.2494V2.28142C74.8226 2.87172 81.8342 7.03264 83.0868 15.2393C83.4968 18.2982 83.0585 21.411 81.8198 24.2378C84.6993 21.5455 87.7948 18.4788 88.6875 16.2183C90.5592 11.3951 89.9833 6.88866 88.6875 5.08896C89.42 4.96503 90.1725 5.04448 90.8631 5.31865C91.5536 5.59283 92.1556 6.05122 92.6036 6.6439C93.3351 7.55621 93.6766 8.7205 93.5539 9.88337C93.5476 10.037 93.5906 10.1885 93.6766 10.3159C93.7626 10.4433 93.8872 10.5398 94.032 10.5913C94.1768 10.6428 94.3343 10.6465 94.4815 10.6021C94.6286 10.5576 94.7576 10.4672 94.8497 10.3441C96.0591 8.71716 96.5774 6.42794 98.3915 5.37691C99.2569 4.90144 100.196 4.57532 101.17 4.41227C101.93 4.42222 102.69 4.38375 103.445 4.29709C103.347 5.0562 103.299 5.82091 103.301 6.58631C103.13 7.53339 102.81 8.44714 102.351 9.29307C101.285 11.1072 98.9962 11.6255 97.3692 12.8349C97.2461 12.9269 97.1558 13.056 97.1113 13.2031C97.0668 13.3502 97.0706 13.5077 97.1221 13.6526C97.1736 13.7974 97.2701 13.9219 97.3974 14.008C97.5248 14.094 97.6764 14.137 97.83 14.1307C98.9916 14.0217 100.151 14.3618 101.069 15.0809C101.661 15.5296 102.117 16.1322 102.389 16.8229C102.661 17.5137 102.737 18.2658 102.61 18.9971C100.81 17.6869 96.3182 17.111 91.495 18.9971C89.2922 19.8465 86.1679 22.8413 83.3891 25.7496L84.6417 25.2025C86.8422 24.2624 89.2412 23.8815 91.6246 24.0939C93.7319 24.326 95.769 24.9889 97.6093 26.0416C99.4495 27.0942 101.054 28.5141 102.322 30.2129C104.367 33.1395 105.499 36.6064 105.576 40.176H106.785V43.9194H105.49C104.151 53.7098 92.4453 55.4375 92.4453 55.4375C92.4453 55.4375 96.7646 58.2019 97.5708 61.9741C98.3771 65.7462 96.3902 70.2239 94.6913 73.0602C94.0408 74.397 93.6684 75.8518 93.5966 77.3367C93.5249 78.8216 93.7552 80.3056 94.2738 81.6988C91.7088 80.8145 89.3451 79.4295 87.3197 77.6243C86.0304 76.1443 85.3241 74.2456 85.3328 72.2828C85.2941 71.5334 85.3866 70.783 85.6064 70.0655C85.8971 69.3504 86.2899 68.6811 86.7726 68.0787C87.2498 67.5649 87.6042 66.9495 87.8092 66.279C87.8452 66.1421 87.8452 65.9983 87.8092 65.8614C87.789 65.7921 87.7541 65.728 87.7069 65.6733C87.6597 65.6187 87.6013 65.5748 87.5357 65.5447C87.436 65.5233 87.333 65.5233 87.2333 65.5447C86.2582 65.8328 85.3716 66.3627 84.6561 67.0852C81.4167 69.5616 74.5778 68.1506 74.5778 68.1506C74.8326 65.963 75.3898 63.8213 76.2335 61.7869C77.4717 59.1953 80.1641 57.7412 79.7609 56.6757C79.3578 55.6103 75.96 56.5749 72.5621 55.3367C69.1643 54.0985 69.841 49.9808 69.841 49.9808C71.0442 50.3336 72.3235 50.3336 73.5267 49.9808C75.9887 49.4481 76.9534 46.8997 82.2373 47.4324C83.7898 47.6125 85.2741 48.1716 86.5595 49.0604C87.845 49.9492 88.8922 51.1404 89.6089 52.5292C93.0212 51.6797 99.8457 49.3185 101.415 43.8906H100.191C99.6948 43.8906 99.2187 43.6934 98.8677 43.3424C98.5167 42.9914 98.3195 42.5153 98.3195 42.0189C98.3195 41.5225 98.5167 41.0464 98.8677 40.6954C99.2187 40.3444 99.6948 40.1472 100.191 40.1472H101.631C100.925 33.4235 95.3536 26.4407 87.5644 27.5925C83.5841 28.2715 79.84 29.9454 76.6798 32.4589C76.5101 32.6374 76.356 32.83 76.2191 33.0348C76.0321 33.3121 75.9098 33.6279 75.8613 33.9588C75.8128 34.2897 75.8392 34.6273 75.9388 34.9467C76.0383 35.266 76.2083 35.5588 76.4363 35.8036C76.6642 36.0483 76.9443 36.2387 77.2558 36.3606C78.183 36.7917 79.1858 37.0362 80.2073 37.0805C79.7112 37.6752 79.0332 38.09 78.278 38.2611C77.7427 38.3334 77.2002 38.194 76.7662 37.8724C76.7662 37.8724 77.5005 40.2768 75.9168 41.1263C75.9168 41.1263 75.7584 38.2467 73.6564 37.93C72.1158 37.6852 70.7768 38.6355 69.7978 40.6511C69.7532 40.7445 69.7148 40.8407 69.6826 40.9391C67.3902 46.9394 66.5942 53.4079 67.3636 59.7849C68.133 66.162 70.4446 72.2556 74.0984 77.5384C77.7522 82.8213 82.6381 87.1344 88.3335 90.1045C94.0288 93.0747 100.362 94.6124 106.785 94.5847V98.4289C100.027 98.4265 93.3625 96.8466 87.3223 93.8149C81.282 90.7833 76.0328 86.3836 71.9924 80.9661C67.9519 75.5485 65.2318 69.2626 64.0485 62.6087C62.8651 55.9547 63.2513 49.1164 65.1761 42.638C61.1524 43.8325 56.9771 44.4387 52.7798 44.4377C41.3057 44.4378 30.2985 39.8936 22.1663 31.7991C14.034 23.7046 9.43855 12.7188 9.38525 1.24479L13.2582 1.20159Z" stroke="#EFDBD7" stroke-width="0.5" stroke-miterlimit="10"/>
    <path d="M214.754 1.05762H106.786V109.026H214.754V1.05762Z" stroke="#EFDBD7" stroke-width="0.5" stroke-miterlimit="10"/>
    <path d="M210.867 1.05759C210.867 14.3459 205.588 27.09 196.192 36.4863C186.795 45.8826 174.051 51.1614 160.763 51.1614H160.619C159.294 51.1614 157.999 51.1614 156.703 50.9886C156.818 52.2844 156.876 53.5802 156.89 54.8904V55.0488C156.871 68.3246 151.584 81.0503 142.189 90.431C132.795 99.8117 120.062 105.081 106.786 105.081V108.968C113.876 108.968 120.896 107.571 127.445 104.858C133.995 102.144 139.946 98.1672 144.959 93.1534C149.971 88.1397 153.947 82.1876 156.658 75.6372C159.37 69.0868 160.765 62.0663 160.763 54.9768C175.08 54.9768 188.81 49.2904 198.935 39.1682C209.06 29.046 214.75 15.3169 214.754 1L210.867 1.05759Z" stroke="#EFDBD7" stroke-width="0.5" stroke-miterlimit="10"/>
    <path d="M214.753 84.8374C208.338 84.8374 202.186 87.3858 197.649 91.9219C193.113 96.4581 190.565 102.61 190.565 109.025H214.753V84.8374Z" stroke="#EFDBD7" stroke-width="0.5" stroke-miterlimit="10"/>
    <path d="M194.481 109.025C194.481 109.025 194.409 103.382 196.67 100.689C198.93 97.9968 202.961 100.977 204.646 102.129C206.33 103.281 208.317 104.044 209.671 103.41C211.024 102.777 210.088 99.8685 209.023 98.256C207.957 96.6435 205.711 93.7351 206.345 91.8203C206.978 89.9054 209.224 88.2208 214.681 88.5088V109.025H194.481Z" stroke="#EFDBD7" stroke-width="0.5" stroke-miterlimit="10"/>
    <path d="M214.754 103.958C213.411 103.961 212.124 104.496 211.174 105.446C210.225 106.396 209.689 107.683 209.686 109.025H214.754V103.958Z" stroke="#EFDBD7" stroke-width="0.5" stroke-miterlimit="10"/>
    <path d="M145.256 98.7744C145.256 98.7744 136.171 107.413 127.259 109.04H150.122C148.566 107.827 147.316 106.267 146.471 104.485C145.626 102.702 145.21 100.747 145.256 98.7744Z" stroke="#EFDBD7" stroke-width="0.5" stroke-miterlimit="10"/>
    <path d="M214.71 80.1298C207.752 80.1225 201.028 82.6452 195.792 87.2279L189.169 80.6049C187.34 78.7769 186.154 76.4049 185.788 73.8453C185.422 71.2856 185.896 68.6762 187.139 66.4089L187.988 64.8539C187.988 64.8539 185.31 63.0974 183.136 64.8539C181.973 65.7958 180.903 66.8468 179.94 67.9926C179.897 68.0393 179.844 68.0765 179.786 68.102C179.728 68.1275 179.665 68.1406 179.602 68.1406C179.538 68.1406 179.475 68.1275 179.417 68.102C179.359 68.0765 179.306 68.0393 179.263 67.9926L179.018 67.7622C178.202 66.943 177.219 66.3093 176.136 65.9044C175.052 65.4994 173.895 65.3326 172.741 65.4154C172.305 65.4487 171.868 65.3847 171.46 65.2283L170.437 64.8539L170.826 65.8617C170.977 66.2711 171.036 66.7085 170.999 67.1431C170.922 68.2939 171.092 69.4479 171.496 70.528C171.901 71.608 172.532 72.5892 173.346 73.4061L173.59 73.6365C173.637 73.6796 173.674 73.7319 173.7 73.7902C173.725 73.8484 173.739 73.9113 173.739 73.9748C173.739 74.0384 173.725 74.1012 173.7 74.1595C173.674 74.2177 173.637 74.27 173.59 74.3132C172.451 75.2835 171.405 76.3584 170.466 77.5238C168.71 79.6835 170.466 82.3758 170.466 82.3758L172.007 81.5264C174.272 80.2792 176.881 79.8015 179.441 80.165C182.001 80.5285 184.374 81.7136 186.203 83.5421L192.84 90.1794C188.369 95.3913 185.908 102.029 185.9 108.896H190.565C190.565 102.474 193.117 96.314 197.658 91.7724C202.2 87.2309 208.359 84.6795 214.782 84.6795V80.1442L214.71 80.1298Z" stroke="#EFDBD7" stroke-width="0.5" stroke-miterlimit="10"/>
    <path d="M179.277 109.026V103.425C179.277 101.049 176.239 98.4867 172.078 99.1058C167.917 99.7249 167.528 103.425 162.503 103.425C157.479 103.425 155.564 100.776 155.564 98.2995C155.503 97.5391 155.608 96.7746 155.872 96.0588C156.135 95.3429 156.551 94.6929 157.09 94.1535C157.63 93.6141 158.28 93.1982 158.996 92.9347C159.712 92.6711 160.476 92.566 161.236 92.6268C162.394 92.5325 163.555 92.7595 164.591 93.2828C165.628 93.8062 166.5 94.6055 167.111 95.5927C167.683 94.1136 167.98 92.5426 167.989 90.9567C167.989 88.5379 164.404 86.6374 161.524 87.6164C161.524 87.6164 163.339 85.428 164.735 83.3835C165.978 81.6592 166.542 79.537 166.319 77.4229C166.132 75.4648 163.526 73.7083 162.691 73.334C162.24 75.6551 161.34 77.8658 160.042 79.8417C158.04 82.5917 154.686 86.7814 152.684 89.0562C151.46 90.6223 150.666 92.4809 150.381 94.448C150.096 96.4151 150.329 98.4226 151.057 100.272C152.98 104.175 156.217 107.275 160.2 109.026H179.277Z" stroke="#EFDBD7" stroke-width="0.5" stroke-miterlimit="10"/>
    <path d="M204.487 40.0754C204.487 40.0754 213.126 30.9905 214.753 22.064V44.9562C213.546 43.3926 211.988 42.1356 210.204 41.2875C208.42 40.4394 206.462 40.0242 204.487 40.0754Z" stroke="#EFDBD7" stroke-width="0.5" stroke-miterlimit="10"/>
    <path d="M214.681 74.0104H209.153C206.777 74.0104 204.214 70.9725 204.833 66.8116C205.453 62.6506 209.153 62.2475 209.153 57.2227C209.153 52.198 206.417 50.3695 203.955 50.3695C203.196 50.3064 202.431 50.4094 201.715 50.6713C201 50.9332 200.349 51.3476 199.81 51.886C199.27 52.4243 198.854 53.0735 198.59 53.7887C198.326 54.5039 198.221 55.2679 198.283 56.0277C198.19 57.1813 198.416 58.3382 198.936 59.3717C199.457 60.4053 200.252 61.2757 201.234 61.8876C199.762 62.4689 198.195 62.7716 196.612 62.7802C194.194 62.7802 192.293 59.1952 193.272 56.3013C193.272 56.3013 191.084 58.1154 188.953 59.512C187.232 60.7519 185.116 61.3156 183.007 61.0957C181.049 60.9085 179.278 58.3026 178.903 57.4675C181.232 57.0257 183.449 56.1252 185.425 54.8183C188.175 52.8171 192.351 49.4624 194.64 47.4611C196.206 46.2371 198.065 45.4432 200.032 45.1578C201.999 44.8725 204.006 45.1056 205.856 45.8342C209.758 47.7511 212.858 50.9837 214.61 54.9623L214.681 74.0104Z" stroke="#EFDBD7" stroke-width="0.5" stroke-miterlimit="10"/>
    <path d="M200.313 1.20159C200.271 11.6635 196.086 21.6827 188.673 29.0656C181.261 36.4485 171.225 40.5936 160.763 40.5936C155.955 40.596 151.188 39.7176 146.696 38.002L145.933 37.6996C145.396 37.3777 144.962 36.908 144.683 36.3464C144.405 35.7848 144.294 35.155 144.364 34.5321C144.71 32.4301 147.56 32.2717 147.56 32.2717C146.725 30.6736 144.321 31.4223 144.321 31.4223C144.632 30.978 144.765 30.4337 144.695 29.8961C144.519 29.1429 144.105 28.4663 143.515 27.9668C143.471 28.993 143.226 30.0007 142.795 30.9327C142.647 31.2562 142.428 31.5417 142.153 31.7674C141.879 31.9931 141.556 32.153 141.21 32.235C140.864 32.3169 140.504 32.3187 140.157 32.2403C139.811 32.1618 139.487 32.0051 139.21 31.7822C136.401 28.449 134.527 24.4293 133.782 20.1345C132.63 12.3454 139.541 6.77348 146.336 6.068V7.50776C146.336 8.00417 146.534 8.48024 146.885 8.83125C147.236 9.18226 147.712 9.37946 148.208 9.37946C148.705 9.37946 149.181 9.18226 149.532 8.83125C149.883 8.48024 150.08 8.00417 150.08 7.50776V6.28396C155.522 7.83891 157.869 14.6634 158.718 18.0756C157.328 18.7937 156.135 19.8431 155.246 21.1313C154.358 22.4194 153.8 23.9067 153.622 25.4616C153.089 30.7312 155.637 31.6958 156.17 34.1002C156.514 35.3047 156.514 36.5815 156.17 37.786C156.17 37.786 160.302 38.4051 161.526 35.0649C162.75 31.7246 161.8 28.3412 162.865 27.938C163.93 27.5349 165.385 30.2272 167.976 31.4654C170.013 32.3002 172.154 32.8524 174.34 33.1068C174.34 33.1068 175.78 26.3255 173.274 23.0284C172.563 22.347 172.029 21.5018 171.72 20.5664C171.698 20.4668 171.698 20.3637 171.72 20.2641C171.748 20.1973 171.791 20.138 171.846 20.0905C171.901 20.0431 171.966 20.0089 172.036 19.9905C172.173 19.9545 172.317 19.9545 172.454 19.9905C173.118 20.2015 173.727 20.5553 174.239 21.0272C174.842 21.5019 175.511 21.8852 176.226 22.1646C176.947 22.3915 177.703 22.4842 178.458 22.4381C180.429 22.4572 182.338 21.7441 183.814 20.4368C185.617 18.4125 186.997 16.0482 187.874 13.4828C187.874 13.4828 183.18 15.3689 179.235 13.0653C176.356 11.4383 171.921 9.48024 168.149 10.1857C164.377 10.8912 161.641 15.3689 161.641 15.3689C161.641 15.3689 159.885 3.67799 150.123 2.32461V1.05762H146.38V2.28142C138.792 2.87172 131.78 7.03264 130.47 15.2393C130.068 18.2982 130.506 21.409 131.737 24.2378C128.858 21.5455 125.762 18.4788 124.884 16.2183C122.998 11.3951 123.574 6.88866 124.884 5.08896C124.149 4.96388 123.394 5.04271 122.701 5.31688C122.008 5.59104 121.404 6.05003 120.953 6.6439C120.234 7.56258 119.894 8.72179 120.003 9.88337C120.009 10.037 119.967 10.1885 119.88 10.3159C119.794 10.4433 119.67 10.5398 119.525 10.5913C119.38 10.6428 119.223 10.6465 119.076 10.6021C118.928 10.5576 118.799 10.4672 118.707 10.3441C117.498 8.71716 116.994 6.42794 115.166 5.37691C114.324 4.90651 113.409 4.58045 112.459 4.41227C111.68 4.42515 110.9 4.38667 110.126 4.29709C110.219 5.05657 110.262 5.82124 110.256 6.58631C110.449 7.52888 110.784 8.43669 111.249 9.27867C112.3 11.0928 114.59 11.6111 116.217 12.8205C116.339 12.9119 116.428 13.0396 116.473 13.1852C116.518 13.3309 116.515 13.4869 116.466 13.631C116.416 13.775 116.322 13.8996 116.197 13.9868C116.072 14.0741 115.923 14.1194 115.77 14.1163C114.604 14.0051 113.44 14.3451 112.516 15.0665C111.923 15.5168 111.464 16.1214 111.189 16.8144C110.915 17.5074 110.836 18.2624 110.961 18.9971C112.761 17.6869 117.268 17.111 122.091 18.9971C124.294 19.8465 127.418 22.8413 130.197 25.7496L128.93 25.2025C126.729 24.2624 124.33 23.8815 121.947 24.0939C119.84 24.326 117.802 24.9889 115.962 26.0416C114.122 27.0942 112.518 28.5141 111.249 30.2129C109.21 33.1426 108.079 36.6076 107.996 40.176H106.801V43.9194H108.082C109.421 53.7098 121.04 55.4375 121.04 55.4375C121.04 55.4375 116.721 58.2019 115.914 61.9741C115.108 65.7462 117.109 70.2239 118.794 73.0602C119.447 74.396 119.822 75.8511 119.894 77.3365C119.965 78.8219 119.733 80.3063 119.211 81.6988C121.776 80.8145 124.14 79.4295 126.165 77.6243C127.473 76.1476 128.191 74.2408 128.181 72.2684C128.213 71.5193 128.12 70.7701 127.907 70.0511C127.626 69.3344 127.238 68.6645 126.756 68.0643C126.289 67.5431 125.935 66.9301 125.719 66.2646C125.69 66.1269 125.69 65.9847 125.719 65.847C125.739 65.7777 125.774 65.7136 125.821 65.6589C125.869 65.6043 125.927 65.5604 125.993 65.5303C126.092 65.5089 126.195 65.5089 126.295 65.5303C127.273 65.8113 128.161 66.3422 128.872 67.0708C132.126 69.5472 138.95 68.1363 138.95 68.1363C138.704 65.9487 138.151 63.8065 137.309 61.7725C136.071 59.1809 133.364 57.7268 133.782 56.6613C134.199 55.5959 137.568 56.5605 140.909 55.3223C144.249 54.0841 143.63 49.9664 143.63 49.9664C142.427 50.32 141.147 50.32 139.944 49.9664C137.482 49.4337 136.517 46.8853 131.305 47.418C129.751 47.5983 128.265 48.1573 126.977 49.0459C125.689 49.9346 124.639 51.1257 123.919 52.5148C120.507 51.6653 113.683 49.3041 112.128 43.8762H113.337C113.833 43.8762 114.31 43.679 114.661 43.328C115.012 42.977 115.209 42.5009 115.209 42.0045C115.209 41.5081 115.012 41.032 114.661 40.681C114.31 40.33 113.833 40.1328 113.337 40.1328H111.897C112.603 33.4091 118.175 26.4263 125.978 27.5781C129.955 28.2539 133.695 29.9284 136.848 32.4445C137.018 32.623 137.172 32.8156 137.309 33.0204C137.494 33.2975 137.615 33.6123 137.663 33.9418C137.711 34.2714 137.685 34.6075 137.587 34.9258C137.489 35.2442 137.322 35.5368 137.097 35.7824C136.872 36.0281 136.595 36.2207 136.287 36.3462C135.355 36.778 134.347 37.0226 133.321 37.0661C133.821 37.6568 134.497 38.0707 135.25 38.2467C135.79 38.3168 136.336 38.1777 136.776 37.858C136.776 37.858 136.028 40.2624 137.626 41.1119C137.626 41.1119 137.784 38.2323 139.872 37.9156C141.412 37.6708 142.751 38.6211 143.745 40.6367C143.777 40.7351 143.816 40.8313 143.86 40.9247C146.147 46.9236 146.94 53.3891 146.171 59.763C145.401 66.1369 143.092 72.2278 139.443 77.5099C135.793 82.792 130.913 87.1066 125.224 90.0814C119.534 93.0562 113.206 94.6018 106.786 94.5847V98.4289C113.545 98.431 120.211 96.8537 126.252 93.8228C132.294 90.7919 137.543 86.3913 141.582 80.9719C145.621 75.5525 148.338 69.2643 149.516 62.6087C150.694 55.9532 150.3 49.1145 148.367 42.638C152.39 43.8325 156.566 44.4387 160.763 44.4377C172.237 44.4378 183.244 39.8936 191.376 31.7991C199.509 23.7046 204.104 12.7188 204.157 1.24479L200.313 1.20159Z" stroke="#EFDBD7" stroke-width="0.5" stroke-miterlimit="10"/>
    </svg>
    