<svg width="163" height="161" viewBox="0 0 163 161" fill="none" xmlns="http://www.w3.org/2000/svg">
    <path d="M65.1003 1.30586C64.8859 1.30586 58.2403 5.76279 58.026 16.1623C58.026 16.1623 45.1635 3.64044 31.8723 1.09363" stroke="#C8ACA6" stroke-width="0.3" stroke-miterlimit="10" stroke-linecap="round" stroke-linejoin="round"/>
    <path d="M80.321 1.09363C74.7473 3.42821 69.3879 8.30961 66.8154 14.0399C64.0285 19.558 66.1723 27.1985 69.1735 30.5943C72.1748 33.99 77.1054 40.1448 80.1066 44.1773C83.1079 48.2097 83.9654 53.7278 83.9654 53.7278C85.2516 53.0911 89.1103 50.5443 89.3247 47.7853C89.5391 45.0262 89.3247 42.0549 87.181 38.8714C85.0372 35.6879 82.4647 32.7166 82.4647 32.7166C86.7522 34.2022 92.1116 31.4432 92.1116 27.8352C92.1116 24.2272 90.8253 21.0437 90.8253 21.0437C90.8253 21.0437 88.6816 25.5006 82.036 25.5006C75.3904 25.5006 73.6754 20.8315 73.6754 17.2235C73.6754 13.6155 76.4623 9.58302 83.9654 9.58302C91.4684 9.58302 92.1116 14.8889 98.3284 15.9501C104.545 17.0112 109.047 13.191 109.047 9.58302C109.047 5.97503 109.047 1.30586 109.047 1.30586" stroke="#C8ACA6" stroke-width="0.3" stroke-miterlimit="10"/>
    <path d="M161.569 52.6666C161.569 52.6666 156.853 52.6666 153.208 52.6666C149.778 52.6666 145.92 57.1236 146.777 63.2784C147.849 69.4332 153.208 70.0699 153.208 77.4981C153.208 84.9263 149.349 87.6854 145.491 87.6854C141.846 87.6854 137.13 85.7752 137.13 79.4082C137.13 73.0412 141.632 70.7066 141.632 70.7066C141.632 70.7066 138.416 69.4332 134.772 69.4332C131.128 69.4332 128.341 74.739 129.841 78.9837C129.841 78.9837 126.626 76.2247 123.625 74.3146C120.623 72.1922 117.622 71.7677 114.835 71.98C111.834 72.1922 109.262 76.0124 108.833 77.2858C108.833 77.2858 114.406 78.347 118.48 81.1061C122.553 84.0774 128.77 88.9588 132.2 91.93C135.63 94.9013 143.133 97.0237 148.921 94.2646C154.709 91.5056 159.854 86.1997 161.998 80.6816" stroke="#C8ACA6" stroke-width="0.3" stroke-miterlimit="10"/>
    <path d="M161.569 1.09363H0.788086V160.27H161.569V1.09363Z" stroke="#C8ACA6" stroke-width="0.2" stroke-miterlimit="10"/>
    <path d="M155.781 160.27C155.781 119.521 122.338 86.412 81.1784 86.412H80.964C79.0347 86.412 77.1053 86.412 75.1759 86.6242C75.3903 84.7141 75.3903 82.804 75.3903 80.8939V80.6817C75.3903 39.9326 42.1623 6.82397 0.788086 6.82397" stroke="#C8ACA6" stroke-width="0.3" stroke-miterlimit="10"/>
    <path d="M0.788086 1.09363C45.1636 1.09363 81.1784 36.7491 81.1784 80.6816C125.554 80.6816 161.569 116.337 161.569 160.27" stroke="#C8ACA6" stroke-width="0.3" stroke-miterlimit="10"/>
    <path d="M131.556 1.09363C131.556 1.09363 131.556 9.37078 134.772 13.4032C137.988 17.4357 144.204 12.9788 146.563 11.2809C149.135 9.58302 152.136 8.52184 154.066 9.37078C154.494 9.58302 154.709 9.79525 154.923 10.2197" stroke="#C8ACA6" stroke-width="0.3" stroke-miterlimit="10"/>
    <path d="M154.923 10.432C155.566 12.1299 154.495 15.1012 153.208 17.0113C151.708 19.3459 148.278 23.5906 149.135 26.5618C149.993 29.5331 153.423 31.8677 161.569 31.4432" stroke="#C8ACA6" stroke-width="0.3" stroke-miterlimit="10"/>
    <path d="M154.066 1.09363C154.066 5.12609 157.281 8.52184 161.569 8.52184" stroke="#C8ACA6" stroke-width="0.3" stroke-miterlimit="10"/>
    <path d="M118.694 1.09363C118.694 11.7054 122.553 21.4682 128.984 28.8964L119.123 38.6592C113.549 44.1773 104.974 45.4507 97.8996 41.6305L95.5415 40.357C95.5415 40.357 92.969 44.3895 95.5415 47.573C97.4709 49.9076 99.1859 51.6055 100.258 52.2422C100.472 52.4544 100.472 52.8789 100.258 53.3034L100.043 53.5156C97.4709 56.0624 96.399 59.2459 96.6134 62.8539C96.6134 63.4906 96.6134 64.1273 96.399 64.764L95.7559 66.2497L97.2565 65.613C97.8996 65.4007 98.5428 65.1885 99.1859 65.4007C102.616 65.613 106.046 64.3396 108.618 62.005L109.047 61.5805C109.261 61.3683 109.69 61.3683 110.119 61.5805C110.976 62.4295 112.477 64.3396 114.835 66.2497C118.051 68.7965 122.124 66.2497 122.124 66.2497L120.623 63.9151C116.765 57.1236 118.051 48.422 123.625 42.9039L133.486 33.1411C140.989 39.7203 150.85 43.5406 161.569 43.5406" stroke="#C8ACA6" stroke-width="0.3" stroke-miterlimit="10"/>
    <path d="M161.569 36.9613C141.632 36.9613 125.554 21.0437 125.554 1.30591" stroke="#C8ACA6" stroke-width="0.3" stroke-miterlimit="10"/>
    <path d="M161.569 95.7504C160.926 96.5993 156.424 102.542 146.348 102.754C146.348 102.754 158.996 115.913 161.569 129.071" stroke="#C8ACA6" stroke-width="0.3" stroke-miterlimit="10"/>
    <path d="M140.131 160.057C139.917 128.222 113.549 102.117 81.1783 102.117C73.8896 102.117 66.8152 103.391 60.1696 105.938C59.7409 106.15 59.3121 106.15 59.0978 106.362C57.3828 107.635 56.5253 109.333 56.7397 111.031C57.1684 114.215 61.4559 114.427 61.4559 114.427C60.1696 116.762 56.5253 115.7 56.5253 115.7C56.5253 115.7 57.1684 116.549 57.1684 118.035C56.954 119.521 55.4534 120.794 55.4534 120.794C55.4534 120.794 55.4534 118.035 54.3815 116.337C53.3097 114.639 50.9516 113.366 49.0222 115.064C46.2353 118.672 42.1622 124.614 40.876 132.255C39.161 143.715 49.4509 151.992 59.5265 153.054V150.931C59.5265 149.446 60.8128 148.172 62.3134 148.172C63.814 148.172 65.1003 149.446 65.1003 150.931V152.629C73.2465 150.295 76.6765 140.32 77.9627 135.226C77.9627 135.226 71.1027 132.042 70.4596 124.402C69.6021 116.549 73.4608 115.276 74.3183 111.668C75.1758 108.06 74.3183 106.15 74.3183 106.15C74.3183 106.15 80.5352 105.301 82.2502 110.182C84.1796 115.064 82.6789 120.157 84.1796 120.794C85.6802 121.431 88.0383 117.398 91.897 115.7C95.7558 113.79 101.329 113.366 101.329 113.366C101.329 113.366 103.473 123.341 99.8289 128.222C98.9714 129.283 97.6851 130.557 97.4708 132.042C97.4708 132.255 97.4708 132.255 97.4708 132.467C97.4708 132.679 97.6851 132.891 97.8995 132.891C98.1139 132.891 98.3283 132.891 98.5426 132.891C99.6145 132.679 100.472 132.042 101.115 131.406C101.973 130.769 103.044 130.132 104.116 129.708C105.188 129.283 106.26 129.283 107.332 129.283C110.119 129.283 113.12 130.345 115.264 132.255C119.123 135.863 121.266 142.442 121.266 142.442C121.266 142.442 114.192 139.683 108.404 143.079C104.116 145.413 97.4708 148.384 91.897 147.323C86.3233 146.262 82.2502 139.683 82.2502 139.683C82.2502 139.683 79.6777 156.874 65.1003 158.996V160.906" stroke="#C8ACA6" stroke-width="0.3" stroke-miterlimit="10"/>
    <path d="M59.741 160.27C59.741 160.057 59.741 158.572 59.741 158.572C48.3792 157.723 38.0892 151.568 36.1598 139.471C35.5167 135.226 36.1598 130.345 38.0892 126.312C33.8017 130.345 29.0855 134.802 27.7992 138.197C25.0124 145.413 25.8699 151.993 27.7992 154.539C27.7992 154.539 24.798 155.388 22.0111 152.205C20.7249 150.931 20.5105 149.021 20.5105 147.323C20.5105 146.262 19.2243 145.838 18.5811 146.687C16.8662 149.021 16.0087 152.417 13.2218 154.115C12.1499 154.752 10.6493 155.176 9.14868 155.388C8.50556 155.601 5.93307 155.388 5.71869 155.601C5.93307 155.388 5.71869 152.841 5.93307 152.205C6.14744 150.931 6.57619 149.446 7.43369 148.172C8.93431 145.413 12.3643 144.777 14.9368 142.866C15.7943 142.442 15.3655 140.956 14.2937 140.956C12.5787 140.956 10.8637 140.744 9.36305 139.471C6.14744 136.924 7.00494 133.953 7.00494 133.953C9.57743 135.863 16.4374 136.712 23.5118 133.953C26.7274 132.679 31.4436 128.222 35.5167 123.978C34.8736 124.19 34.2305 124.614 33.5873 124.826C30.3717 126.1 26.7274 126.737 23.2974 126.524C17.0805 125.888 11.078 122.492 7.43369 117.61C4.21807 113.366 2.93183 108.06 2.50308 102.966H0.788086" stroke="#C8ACA6" stroke-width="0.3" stroke-miterlimit="10"/>
    <path d="M0.788086 97.236H2.71745C4.64682 82.804 22.2255 80.2572 22.2255 80.2572C22.2255 80.2572 15.7943 76.2248 14.508 70.7067C13.4362 65.1886 16.223 58.6093 18.7955 54.3646C22.2255 48.422 19.4386 41.6305 19.4386 41.6305C19.4386 41.6305 26.2986 43.9651 29.7286 47.5731C31.658 49.6954 32.7298 52.6667 32.7298 55.4258C32.7298 56.4869 32.7298 57.7603 32.3011 58.6093C31.8723 59.6704 31.2292 60.7316 30.5861 61.5806C29.943 62.4295 29.2999 63.2784 29.0855 64.1274C29.0855 64.3396 29.0855 64.5519 29.0855 64.7641C29.0855 64.9763 29.2999 65.1885 29.5142 65.1885C29.7286 65.1885 29.7286 65.1885 29.943 65.1885C31.4436 64.9763 32.7298 63.7029 33.8017 62.854C38.7323 59.246 48.8079 61.3683 48.8079 61.3683C48.8079 61.3683 48.1648 66.8864 46.4498 70.7067C44.5204 74.5269 40.6617 76.6492 41.3048 78.3471C41.9479 80.045 46.8785 78.5593 52.0235 80.2572C56.9541 82.1673 56.0966 88.1099 56.0966 88.1099C56.0966 88.1099 54.1673 87.261 50.5229 88.1099C46.8785 88.9588 45.3779 92.5668 37.6605 91.9301C29.7286 91.0812 26.7274 84.5019 26.7274 84.5019C21.5824 85.7753 11.5068 89.1711 9.14868 97.236H10.8637C12.3643 97.236 13.6505 98.5094 13.6505 99.995C13.6505 101.481 12.3643 102.754 10.8637 102.754H8.71993C9.7918 112.729 18.1524 122.916 29.7286 121.219C36.5886 120.157 42.1623 116.762 46.021 114.003C46.2354 113.79 46.4498 113.366 46.6642 113.154C47.9504 111.031 46.8785 109.121 45.1635 108.272C43.4486 107.211 40.6617 107.211 40.6617 107.211C40.6617 107.211 41.9479 105.513 43.4486 105.513C44.9492 105.301 45.8067 106.15 45.8067 106.15C45.8067 106.15 44.7348 102.542 47.0929 101.268C47.0929 101.268 47.3073 105.513 50.5229 105.938C52.881 106.362 54.8104 104.876 56.311 101.905C56.311 101.693 56.5254 101.693 56.5254 101.481C59.0979 95.1137 60.3841 88.1099 60.3841 80.6817C60.3841 48.422 34.0161 22.3171 1.43121 22.3171" stroke="#C8ACA6" stroke-width="0.3" stroke-miterlimit="10"/>
    <path d="M0.788086 16.799C36.3742 16.799 65.3147 45.4506 65.3147 80.6816C65.3147 87.0486 64.4572 93.2034 62.5279 98.9338C68.316 97.2359 74.5328 96.1747 80.964 96.1747C116.55 96.1747 145.491 124.826 145.491 160.057" stroke="#C8ACA6" stroke-width="0.3" stroke-miterlimit="10"/>
    </svg>
    