<svg width="243" height="122" viewBox="0 0 243 122" fill="none" xmlns="http://www.w3.org/2000/svg">
    <path d="M2.27486 120.895L122.122 120.895L122.122 1.04791L2.27486 1.04791L2.27486 120.895Z"
        stroke="#5E6080" stroke-width="0.5" stroke-miterlimit="10" />
    <path
        d="M6.57349 1.06396C6.57349 15.8143 12.4331 29.9605 22.8631 40.3906C33.2932 50.8207 47.4394 56.6803 62.1898 56.6803H62.3656C63.8199 56.6803 65.2743 56.6803 66.6966 56.4885C66.5848 57.9268 66.5049 59.3652 66.5049 60.8195V60.9953C66.526 75.7318 72.3949 89.8575 82.8227 100.27C93.2505 110.683 107.385 116.532 122.121 116.532V120.847C106.226 120.847 90.9825 114.533 79.7432 103.293C68.5039 92.054 62.1898 76.8102 62.1898 60.9154C46.3103 60.9154 31.0803 54.6117 19.8458 43.3892C8.61132 32.1667 2.29136 16.9434 2.27441 1.06396H6.57349Z"
        stroke="#5E6080" stroke-width="0.5" stroke-miterlimit="10" />
    <path
        d="M2.27441 94.0614C9.39251 94.0656 16.2176 96.8963 21.2494 101.931C26.2811 106.966 29.1076 113.793 29.1076 120.911H2.27441V94.0614Z"
        stroke="#5E6080" stroke-width="0.5" stroke-miterlimit="10" />
    <path
        d="M24.7758 120.911C24.7758 120.911 24.8558 114.646 22.3466 111.657C19.8375 108.669 15.3626 111.977 13.4767 113.256C11.5909 114.534 9.40141 115.381 7.91512 114.678C6.42882 113.975 7.45165 110.746 8.61831 108.956C9.78498 107.167 12.3101 103.938 11.6069 101.813C10.9037 99.6871 8.41058 97.8172 2.35352 98.1369V120.911H24.7758Z"
        stroke="#5E6080" stroke-width="0.5" stroke-miterlimit="10" />
    <path
        d="M2.27441 115.285C3.76511 115.289 5.19351 115.883 6.2476 116.937C7.30168 117.991 7.89569 119.42 7.89991 120.911H2.27441V115.285Z"
        stroke="#5E6080" stroke-width="0.5" stroke-miterlimit="10" />
    <path
        d="M79.4505 109.532C79.4505 109.532 89.5349 119.121 99.4276 120.927H73.9688C75.7105 119.589 77.1138 117.861 78.0659 115.882C79.018 113.903 79.4922 111.728 79.4505 109.532Z"
        stroke="#5E6080" stroke-width="0.5" stroke-miterlimit="10" />
    <path
        d="M2.30737 88.8355C10.0369 88.8235 17.5068 91.624 23.3233 96.7145L30.6749 89.3629C32.7045 87.3332 34.02 84.6992 34.4235 81.8574C34.827 79.0155 34.2967 76.1194 32.9124 73.605L31.9694 71.879C31.9694 71.879 34.958 69.9292 37.3712 71.879C38.6583 72.9289 39.846 74.0952 40.9192 75.363C40.9671 75.4148 41.0252 75.4561 41.0898 75.4844C41.1544 75.5127 41.2242 75.5273 41.2948 75.5273C41.3653 75.5273 41.4351 75.5127 41.4997 75.4844C41.5643 75.4561 41.6224 75.4148 41.6703 75.363L41.9261 75.1073C42.8352 74.1975 43.9294 73.494 45.1345 73.0445C46.3395 72.5951 47.6272 72.4101 48.9101 72.5022C49.3937 72.5381 49.8793 72.4671 50.3325 72.2945L51.4671 71.879L51.0356 72.9977C50.8708 73.4529 50.8003 73.9367 50.8279 74.42C50.9164 75.6978 50.7296 76.9796 50.2802 78.1789C49.8308 79.3783 49.1292 80.4672 48.2229 81.3721L47.9671 81.6278C47.9153 81.6757 47.8739 81.7338 47.8456 81.7984C47.8174 81.863 47.8028 81.9328 47.8028 82.0034C47.8028 82.0739 47.8174 82.1437 47.8456 82.2083C47.8739 82.273 47.9153 82.331 47.9671 82.3789C49.2279 83.4602 50.3886 84.653 51.4351 85.9428C53.3849 88.3401 51.4351 91.3287 51.4351 91.3287L49.7091 90.3858C47.1947 89.0014 44.2985 88.471 41.4567 88.8746C38.6148 89.2781 35.9809 90.5936 33.9512 92.6232L26.7115 100.039C31.6743 105.824 34.4063 113.193 34.4146 120.815H29.2366C29.2366 117.285 28.5413 113.789 27.1904 110.528C25.8395 107.267 23.8594 104.303 21.3633 101.807C18.8671 99.3109 15.9037 97.3308 12.6423 95.9799C9.38094 94.629 5.88546 93.9337 2.35536 93.9337V88.8515L2.30737 88.8355Z"
        stroke="#5E6080" stroke-width="0.5" stroke-miterlimit="10" />
    <path
        d="M41.6531 120.911V114.694C41.6531 112.057 45.0252 109.212 49.6439 109.899C54.2626 110.586 54.6942 114.694 60.2718 114.694C65.8494 114.694 67.959 111.753 67.959 109.004C68.0289 108.161 67.9146 107.313 67.6239 106.518C67.3332 105.723 66.8732 105.002 66.2757 104.402C65.6781 103.803 64.9574 103.342 64.1635 103.049C63.3696 102.756 62.5216 102.64 61.6782 102.707C60.3936 102.603 59.105 102.855 57.9544 103.436C56.8039 104.017 55.8361 104.904 55.1576 106C54.514 104.36 54.1834 102.615 54.1828 100.854C54.1828 98.1687 58.1462 96.0591 61.3585 97.1458C61.3585 97.1458 59.3449 94.7166 57.7946 92.4472C56.4145 90.5332 55.7885 88.1774 56.0366 85.8308C56.2444 83.6573 59.1371 81.7075 60.064 81.292C60.5556 83.871 61.5553 86.3266 63.0047 88.5157C65.2262 91.5682 68.9499 96.2189 71.1713 98.744C72.5432 100.475 73.439 102.534 73.7698 104.718C74.1006 106.902 73.8549 109.134 73.0571 111.194C70.9311 115.52 67.3495 118.961 62.9407 120.911H41.6531Z"
        stroke="#5E6080" stroke-width="0.5" stroke-miterlimit="10" />
    <path
        d="M13.6534 44.3744C13.6534 44.3744 4.06436 34.2899 2.27441 24.3813V49.7922C3.61213 48.0587 5.33941 46.6648 7.31639 45.7235C9.29338 44.7822 11.4644 44.32 13.6534 44.3744Z"
        stroke="#5E6080" stroke-width="0.5" stroke-miterlimit="10" />
    <path
        d="M2.35536 82.0432H8.57227C11.2092 82.0432 14.038 78.6711 13.3668 74.0524C12.6955 69.4337 8.57227 68.9862 8.57227 63.4086C8.57227 57.831 11.5129 55.8013 14.2617 55.8013C15.105 55.7313 15.9532 55.8457 16.7479 56.1363C17.5425 56.427 18.2645 56.8871 18.8635 57.4846C19.4626 58.0822 19.9244 58.8029 20.2171 59.5968C20.5098 60.3906 20.6263 61.2387 20.5585 62.0821C20.6602 63.3641 20.4067 64.6494 19.826 65.7968C19.2452 66.9442 18.3596 67.9095 17.2663 68.5866C18.9054 69.2332 20.6504 69.5692 22.4124 69.5775C25.0973 69.5775 27.2069 65.5981 26.1201 62.3857C26.1201 62.3857 28.5494 64.3994 30.8188 65.9497C32.7328 67.3298 35.0886 67.9557 37.4352 67.7077C39.6087 67.4999 41.5584 64.6072 41.974 63.6803C39.3735 63.1752 36.9008 62.1535 34.7023 60.6757C31.6498 58.4542 26.9991 54.7305 24.474 52.5091C22.7356 51.1504 20.6726 50.2691 18.489 49.9523C16.3055 49.6356 14.0771 49.8944 12.0243 50.7031C7.69316 52.8309 4.25205 56.4192 2.30737 60.8355L2.35536 82.0432Z"
        stroke="#5E6080" stroke-width="0.5" stroke-miterlimit="10" />
    <path
        d="M18.3052 1.22378C18.3517 12.834 22.9954 23.953 31.2201 32.1478C39.4448 40.3425 50.5806 44.9456 62.1909 44.9497C67.5279 44.9553 72.8204 43.9802 77.805 42.073L78.6681 41.7374C79.2749 41.3856 79.765 40.8633 80.0775 40.2354C80.39 39.6075 80.5112 38.9016 80.426 38.2054C80.0584 35.8721 76.8941 35.6963 76.8941 35.6963C77.8211 33.9223 80.49 34.7534 80.49 34.7534C80.1451 34.2603 79.9969 33.6561 80.0745 33.0593C80.2633 32.2205 80.724 31.4676 81.385 30.9178C81.4333 32.0569 81.7048 33.1755 82.1841 34.21C82.3458 34.5687 82.5877 34.8855 82.8911 35.1361C83.1945 35.3867 83.5513 35.5643 83.9341 35.6554C84.3169 35.7464 84.7155 35.7485 85.0992 35.6614C85.4829 35.5743 85.8415 35.4003 86.1475 35.1529C89.2862 31.4645 91.3876 27.0078 92.2365 22.2397C93.5151 13.5936 85.764 7.4087 78.3005 6.6256V8.22377C78.3005 8.77478 78.0816 9.30323 77.6919 9.69286C77.3023 10.0825 76.7738 10.3014 76.2228 10.3014C75.6718 10.3014 75.1434 10.0825 74.7538 9.69286C74.3642 9.30323 74.1452 8.77478 74.1452 8.22377V6.86532C68.1041 8.59134 65.4831 16.1667 64.5562 19.9543C66.0981 20.7536 67.4204 21.9191 68.4068 23.3486C69.3932 24.778 70.0136 26.4277 70.2137 28.1529C70.805 34.0022 67.9763 35.073 67.385 37.742C66.9925 39.0775 66.9925 40.4977 67.385 41.8333C67.385 41.8333 62.7982 42.5205 61.4398 38.8127C60.0813 35.105 61.1361 31.3493 59.9535 30.9018C58.7708 30.4543 57.1567 33.4429 54.28 34.8173C52.0195 35.7439 49.6428 36.3569 47.2161 36.6392C47.2161 36.6392 45.6179 29.1118 48.3987 25.452C49.2075 24.6632 49.7969 23.6772 50.1088 22.5913C50.1325 22.4807 50.1325 22.3663 50.1088 22.2557C50.0754 22.1828 50.0266 22.118 49.966 22.0656C49.9053 22.0133 49.8341 21.9745 49.7571 21.952C49.6052 21.9121 49.4456 21.9121 49.2937 21.952C48.5521 22.186 47.8704 22.5786 47.296 23.1027C46.6291 23.6329 45.8854 24.0586 45.0905 24.3653C44.2958 24.617 43.4615 24.72 42.6294 24.6689C40.4404 24.6932 38.3208 23.9012 36.6841 22.4475C34.6825 20.2004 33.1502 17.576 32.1773 14.7283C33.7225 15.3104 35.3705 15.5696 37.0198 15.4899C38.669 15.4101 40.2845 14.9932 41.7663 14.2648C44.9626 12.4589 49.885 10.2854 54.0722 11.0685C58.2594 11.8516 61.3279 16.758 61.3279 16.758C61.3279 16.758 63.2776 3.78085 74.1132 2.27857V1.06396H78.2685V2.42241C86.6909 3.07766 94.474 7.69637 95.8484 16.8059C96.3093 20.2 95.8283 23.6554 94.458 26.7945C97.6543 23.8059 101.09 20.4018 102.065 17.8927C104.143 12.5388 103.52 7.53655 102.065 5.53884C102.878 5.40128 103.714 5.48947 104.48 5.79381C105.247 6.09815 105.915 6.60697 106.412 7.26486C107.224 8.27754 107.603 9.56993 107.467 10.8607C107.455 11.0355 107.5 11.2096 107.596 11.3561C107.692 11.5026 107.834 11.6134 107.999 11.6716C108.164 11.7297 108.344 11.7319 108.511 11.6778C108.678 11.6237 108.822 11.5163 108.921 11.3722C110.248 9.56623 110.823 7.02514 112.853 5.85847C113.788 5.33631 114.803 4.97438 115.858 4.7877C116.712 4.80011 117.566 4.7574 118.415 4.65985C118.306 5.50247 118.252 6.35132 118.255 7.20094C118.065 8.25221 117.709 9.26649 117.2 10.2055C116.033 12.2192 113.476 12.7945 111.686 14.137C111.551 14.2384 111.451 14.3802 111.402 14.5418C111.352 14.7035 111.355 14.8768 111.41 15.0367C111.465 15.1966 111.569 15.3349 111.708 15.4317C111.847 15.5285 112.013 15.5788 112.182 15.5753C113.471 15.4544 114.758 15.8319 115.778 16.6301C116.439 17.1276 116.951 17.7983 117.256 18.5683C117.56 19.3383 117.646 20.1775 117.504 20.9931C115.506 19.5388 110.52 18.8995 105.166 20.9931C102.721 21.9361 99.2525 25.2603 96.168 28.4886L97.5744 27.8813C100.011 26.8358 102.669 26.4129 105.31 26.6507C107.646 26.9048 109.904 27.6376 111.945 28.8035C113.985 29.9694 115.763 31.5432 117.168 33.4269C119.438 36.6755 120.695 40.5239 120.78 44.4862H122.122V48.6415H120.7C119.214 59.509 106.316 61.4268 106.316 61.4268C106.316 61.4268 111.111 64.4953 112.006 68.6825C112.901 72.8697 110.679 77.84 108.81 80.9884C108.088 82.4728 107.677 84.0884 107.6 85.7369C107.523 87.3854 107.782 89.0324 108.362 90.5774C105.513 89.5997 102.889 88.0619 100.643 86.0546C99.1913 84.4155 98.3947 82.2989 98.4054 80.1094C98.3702 79.2779 98.4728 78.4463 98.7091 77.6483C99.0213 76.8527 99.4524 76.1091 99.9876 75.4428C100.506 74.8643 100.898 74.1838 101.138 73.4451C101.178 73.2932 101.178 73.1335 101.138 72.9816C101.119 72.9032 101.081 72.8304 101.029 72.7693C100.976 72.7082 100.909 72.6605 100.835 72.63C100.729 72.606 100.62 72.606 100.515 72.63C99.426 72.9454 98.4357 73.5341 97.6383 74.34C94.0425 77.0889 86.4512 75.5227 86.4512 75.5227C86.734 73.0944 87.3526 70.717 88.2891 68.4588C89.6635 65.5821 92.668 63.9679 92.2045 62.7853C91.7411 61.6026 87.9854 62.6734 84.2137 61.299C80.442 59.9246 81.1772 55.3538 81.1772 55.3538C82.5182 55.7458 83.9435 55.7458 85.2845 55.3538C88.0174 54.7625 89.0882 51.9337 94.8735 52.525C96.5967 52.7249 98.2444 53.3455 99.6713 54.3321C101.098 55.3186 102.261 56.641 103.056 58.1826C106.844 57.2396 114.435 54.6186 116.161 48.5935H114.819C114.268 48.5935 113.739 48.3746 113.35 47.985C112.96 47.5954 112.741 47.0669 112.741 46.5159C112.741 45.9649 112.96 45.4364 113.35 45.0468C113.739 44.6572 114.268 44.4383 114.819 44.4383H116.417C115.65 36.9748 109.465 29.2237 100.803 30.5023C96.3882 31.2525 92.2365 33.1111 88.7365 35.9041C88.5426 36.1015 88.3661 36.3154 88.2091 36.5433C88.0045 36.852 87.8713 37.2023 87.819 37.5689C87.7667 37.9356 87.7968 38.3092 87.907 38.6627C88.0172 39.0163 88.2047 39.3408 88.456 39.6128C88.7073 39.8848 89.0161 40.0974 89.3598 40.2351C90.3944 40.7144 91.5129 40.9859 92.6521 41.0342C92.0976 41.6898 91.3466 42.1493 90.5105 42.3447C89.9112 42.4258 89.3038 42.2711 88.8164 41.9132C88.8164 41.9132 89.6315 44.5821 87.8735 45.525C87.8735 45.525 87.6977 42.3287 85.3644 41.9771C83.6703 41.7054 82.1681 42.7602 81.0813 44.9976C81.0456 45.1068 81.0029 45.2136 80.9534 45.3173C78.414 51.9775 77.5339 59.1557 78.389 66.2322C79.2441 73.3086 81.8087 80.0706 85.8615 85.9342C89.9143 91.7979 95.3334 96.5869 101.651 99.8879C107.968 103.189 114.994 104.903 122.122 104.881V109.148C114.62 109.151 107.22 107.4 100.514 104.035C93.8084 100.671 87.9813 95.7862 83.4979 89.7705C79.0145 83.7549 75.9988 76.7748 74.6913 69.387C73.3838 61.9992 73.8207 54.4081 75.9672 47.2191C71.4955 48.5461 66.8553 49.219 62.1909 49.2168C49.4559 49.2169 37.2394 44.1722 28.2149 35.1867C19.1905 26.2012 14.093 14.0066 14.0381 1.27173L18.3052 1.22378Z"
        stroke="#5E6080" stroke-width="0.5" stroke-miterlimit="10" />
    <path d="M241.968 1.06396H122.122V120.911H241.968V1.06396Z" stroke="#5E6080" stroke-width="0.5"
        stroke-miterlimit="10" />
    <path
        d="M237.669 1.06396C237.669 15.8143 231.81 29.9605 221.38 40.3906C210.95 50.8207 196.803 56.6803 182.053 56.6803H181.877C180.423 56.6803 178.968 56.6803 177.546 56.4885C177.658 57.9268 177.738 59.3652 177.738 60.8195V60.9953C177.717 75.7318 171.848 89.8575 161.42 100.27C150.992 110.683 136.858 116.532 122.122 116.532V120.847C129.992 120.847 137.785 119.297 145.056 116.285C152.328 113.273 158.934 108.858 164.499 103.293C170.065 97.7282 174.479 91.1214 177.491 83.8502C180.503 76.579 182.053 68.7857 182.053 60.9154C197.932 60.9154 213.162 54.6117 224.397 43.3892C235.631 32.1667 241.951 16.9434 241.968 1.06396H237.669Z"
        stroke="#5E6080" stroke-width="0.5" stroke-miterlimit="10" />
    <path
        d="M241.969 94.0614C234.851 94.0656 228.026 96.8963 222.994 101.931C217.962 106.966 215.135 113.793 215.135 120.911H241.969V94.0614Z"
        stroke="#5E6080" stroke-width="0.5" stroke-miterlimit="10" />
    <path
        d="M219.465 120.911C219.465 120.911 219.385 114.646 221.894 111.657C224.404 108.669 228.878 111.977 230.764 113.256C232.65 114.534 234.84 115.381 236.326 114.678C237.812 113.975 236.789 110.746 235.623 108.956C234.456 107.167 231.931 103.938 232.634 101.813C233.337 99.6871 235.83 97.8172 241.887 98.1369V120.911H219.465Z"
        stroke="#5E6080" stroke-width="0.5" stroke-miterlimit="10" />
    <path
        d="M241.968 115.285C240.477 115.289 239.049 115.883 237.995 116.937C236.941 117.991 236.347 119.42 236.342 120.911H241.968V115.285Z"
        stroke="#5E6080" stroke-width="0.5" stroke-miterlimit="10" />
    <path
        d="M164.825 109.532C164.825 109.532 154.74 119.121 144.848 120.927H170.243C168.513 119.582 167.122 117.851 166.181 115.872C165.24 113.894 164.776 111.722 164.825 109.532Z"
        stroke="#5E6080" stroke-width="0.5" stroke-miterlimit="10" />
    <path
        d="M241.936 88.8355C234.206 88.8235 226.736 91.624 220.92 96.7145L213.568 89.3629C211.539 87.3332 210.223 84.6992 209.82 81.8574C209.416 79.0155 209.946 76.1194 211.331 73.605L212.274 71.879C212.274 71.879 209.285 69.9292 206.872 71.879C205.585 72.9289 204.397 74.0952 203.324 75.363C203.276 75.4148 203.218 75.4561 203.153 75.4844C203.089 75.5127 203.019 75.5273 202.948 75.5273C202.878 75.5273 202.808 75.5127 202.743 75.4844C202.679 75.4561 202.621 75.4148 202.573 75.363L202.317 75.1073C201.408 74.1975 200.314 73.494 199.109 73.0445C197.904 72.5951 196.616 72.4101 195.333 72.5022C194.849 72.5381 194.364 72.4671 193.911 72.2945L192.776 71.879L193.208 72.9977C193.372 73.4529 193.443 73.9367 193.415 74.42C193.327 75.6978 193.513 76.9796 193.963 78.1789C194.412 79.3783 195.114 80.4672 196.02 81.3721L196.276 81.6278C196.328 81.6757 196.369 81.7338 196.397 81.7984C196.426 81.863 196.44 81.9328 196.44 82.0034C196.44 82.0739 196.426 82.1437 196.397 82.2083C196.369 82.273 196.328 82.331 196.276 82.3789C195.015 83.4602 193.854 84.653 192.808 85.9428C190.858 88.3401 192.808 91.3287 192.808 91.3287L194.534 90.3858C197.048 89.0014 199.945 88.471 202.786 88.8746C205.628 89.2781 208.262 90.5936 210.292 92.6232L217.643 99.9908C212.681 105.776 209.949 113.145 209.94 120.767H215.118C215.118 113.638 217.951 106.8 222.992 101.759C228.033 96.7179 234.87 93.8858 242 93.8858V88.8515L241.936 88.8355Z"
        stroke="#5E6080" stroke-width="0.5" stroke-miterlimit="10" />
    <path
        d="M202.589 120.911V114.694C202.589 112.057 199.217 109.212 194.599 109.899C189.98 110.586 189.548 114.694 183.971 114.694C178.393 114.694 176.284 111.753 176.284 109.004C176.214 108.161 176.328 107.313 176.619 106.518C176.909 105.723 177.369 105.002 177.967 104.402C178.565 103.803 179.285 103.342 180.079 103.049C180.873 102.756 181.721 102.64 182.564 102.707C183.849 102.603 185.138 102.855 186.288 103.436C187.439 104.017 188.406 104.904 189.085 106C189.729 104.36 190.059 102.615 190.06 100.854C190.06 98.1687 186.096 96.0591 182.884 97.1458C182.884 97.1458 184.898 94.7166 186.448 92.4472C187.828 90.5332 188.454 88.1774 188.206 85.8308C187.998 83.6573 185.106 81.7075 184.179 81.292C183.687 83.871 182.687 86.3266 181.238 88.5157C179.016 91.5682 175.293 96.2189 173.071 98.744C171.713 100.482 170.831 102.545 170.515 104.729C170.198 106.913 170.457 109.141 171.265 111.194C173.393 115.525 176.981 118.966 181.398 120.911H202.589Z"
        stroke="#5E6080" stroke-width="0.5" stroke-miterlimit="10" />
    <path
        d="M230.589 44.3744C230.589 44.3744 240.178 34.2899 241.968 24.3813V49.7922C240.631 48.0587 238.903 46.6648 236.926 45.7235C234.949 44.7822 232.778 44.32 230.589 44.3744Z"
        stroke="#5E6080" stroke-width="0.5" stroke-miterlimit="10" />
    <path
        d="M241.887 82.0433H235.67C233.049 82.0433 230.205 78.6711 230.876 74.0524C231.547 69.4337 235.67 68.9862 235.67 63.4086C235.67 57.831 232.73 55.8013 229.981 55.8013C229.138 55.7314 228.289 55.8457 227.495 56.1364C226.7 56.4271 225.978 56.8871 225.379 57.4847C224.78 58.0822 224.318 58.8029 224.025 59.5968C223.733 60.3907 223.616 61.2387 223.684 62.0821C223.582 63.3641 223.836 64.6494 224.417 65.7968C224.997 66.9443 225.883 67.9095 226.976 68.5867C225.342 69.232 223.603 69.568 221.846 69.5775C219.145 69.5775 217.052 65.5981 218.122 62.3858C218.122 62.3858 215.693 64.3995 213.424 65.9497C211.51 67.3298 209.154 67.9558 206.807 67.7077C204.634 67.4999 202.684 64.6072 202.269 63.6803C204.848 63.1912 207.304 62.1914 209.492 60.7397C212.545 58.5182 217.196 54.7945 219.721 52.573C221.459 51.2143 223.522 50.333 225.706 50.0163C227.889 49.6995 230.118 49.9583 232.17 50.7671C236.501 52.8949 239.943 56.4831 241.887 60.8995V82.0433Z"
        stroke="#5E6080" stroke-width="0.5" stroke-miterlimit="10" />
    <path
        d="M225.939 1.22378C225.892 12.834 221.249 23.953 213.024 32.1478C204.799 40.3425 193.663 44.9456 182.053 44.9497C176.716 44.9553 171.423 43.9802 166.439 42.073L165.576 41.7374C164.969 41.3856 164.479 40.8633 164.166 40.2354C163.854 39.6075 163.733 38.9016 163.818 38.2054C164.185 35.8721 167.35 35.6963 167.35 35.6963C166.423 33.9223 163.754 34.7534 163.754 34.7534C164.099 34.2603 164.247 33.6561 164.169 33.0593C163.981 32.2205 163.52 31.4676 162.859 30.9178C162.811 32.0569 162.539 33.1755 162.06 34.21C161.898 34.5687 161.656 34.8855 161.353 35.1361C161.049 35.3867 160.693 35.5643 160.31 35.6554C159.927 35.7464 159.528 35.7485 159.145 35.6614C158.761 35.5743 158.402 35.4003 158.096 35.1529C154.987 31.4557 152.913 26.9998 152.087 22.2397C150.809 13.5936 158.48 7.4087 166.023 6.6256V8.22377C166.023 8.77478 166.242 9.30323 166.632 9.69286C167.021 10.0825 167.55 10.3014 168.101 10.3014C168.652 10.3014 169.18 10.0825 169.57 9.69286C169.96 9.30323 170.179 8.77478 170.179 8.22377V6.86532C176.22 8.59134 178.841 16.1667 179.768 19.9543C178.226 20.7536 176.903 21.9191 175.917 23.3486C174.931 24.778 174.31 26.4277 174.11 28.1529C173.519 34.0022 176.347 35.073 176.939 37.742C177.331 39.0775 177.331 40.4977 176.939 41.8333C176.939 41.8333 181.525 42.5205 182.884 38.8127C184.242 35.105 183.188 31.3493 184.37 30.9018C185.553 30.4543 187.167 33.4429 190.044 34.8173C192.304 35.7439 194.681 36.3569 197.108 36.6392C197.108 36.6392 198.706 29.1118 195.925 25.452C195.116 24.6632 194.527 23.6772 194.215 22.5913C194.191 22.4807 194.191 22.3663 194.215 22.2557C194.248 22.1828 194.297 22.118 194.358 22.0656C194.418 22.0133 194.49 21.9745 194.567 21.952C194.719 21.9121 194.878 21.9121 195.03 21.952C195.772 22.186 196.453 22.5786 197.028 23.1027C197.695 23.6329 198.438 24.0586 199.233 24.3653C200.028 24.617 200.862 24.72 201.694 24.6689C203.883 24.6932 206.003 23.9012 207.64 22.4475C209.643 20.1993 211.181 17.5755 212.162 14.7283C210.617 15.3076 208.969 15.5653 207.32 15.4856C205.671 15.4059 204.056 14.9905 202.573 14.2648C199.377 12.4589 194.455 10.2854 190.268 11.0685C186.08 11.8516 183.012 16.758 183.012 16.758C183.012 16.758 181.062 3.78085 170.226 2.27857V1.06396H166.071V2.42241C157.649 3.07766 149.866 7.69637 148.491 16.8059C148.03 20.2 148.511 23.6554 149.882 26.7945C146.685 23.8059 143.249 20.4018 142.274 17.8927C140.197 12.5388 140.82 7.53655 142.274 5.53884C141.461 5.40128 140.626 5.48947 139.86 5.79381C139.093 6.09815 138.425 6.60697 137.928 7.26486C137.116 8.27754 136.736 9.56993 136.873 10.8607C136.885 11.0355 136.84 11.2096 136.744 11.3561C136.648 11.5026 136.506 11.6134 136.341 11.6716C136.175 11.7297 135.996 11.7319 135.829 11.6778C135.662 11.6237 135.518 11.5163 135.418 11.3722C134.092 9.56623 133.517 7.02514 131.487 5.85847C130.552 5.33631 129.537 4.97438 128.482 4.7877C127.585 4.80575 126.688 4.76303 125.797 4.65985C125.906 5.50247 125.959 6.35132 125.957 7.20094C126.147 8.25221 126.503 9.26649 127.012 10.2055C128.179 12.2192 130.736 12.7945 132.526 14.137C132.661 14.2384 132.761 14.3802 132.81 14.5418C132.86 14.7035 132.857 14.8768 132.802 15.0367C132.747 15.1966 132.643 15.3349 132.504 15.4317C132.365 15.5285 132.199 15.5788 132.03 15.5753C130.741 15.4544 129.454 15.8319 128.434 16.6301C127.772 17.1276 127.261 17.7983 126.956 18.5683C126.652 19.3383 126.566 20.1775 126.708 20.9931C128.706 19.5388 133.692 18.8995 139.046 20.9931C141.491 21.9361 144.959 25.2603 148.044 28.4886L146.637 27.8813C144.201 26.8358 141.543 26.4129 138.902 26.6507C136.572 26.909 134.319 27.6438 132.285 28.8096C130.25 29.9753 128.477 31.5469 127.076 33.4269C124.806 36.6755 123.549 40.5239 123.464 44.4862H122.122V48.6415H123.544C125.03 59.509 137.928 61.4268 137.928 61.4268C137.928 61.4268 133.133 64.4953 132.238 68.6825C131.343 72.8697 133.565 77.84 135.434 80.9884C136.156 82.4728 136.567 84.0884 136.644 85.7369C136.721 87.3854 136.462 89.0324 135.882 90.5774C138.731 89.5997 141.355 88.0619 143.601 86.0546C145.053 84.4155 145.849 82.2989 145.838 80.1094C145.874 79.2779 145.771 78.4463 145.535 77.6483C145.222 76.8527 144.791 76.1091 144.256 75.4428C143.738 74.8643 143.346 74.1838 143.106 73.4451C143.066 73.2932 143.066 73.1335 143.106 72.9816C143.125 72.9032 143.162 72.8304 143.215 72.7693C143.268 72.7082 143.334 72.6605 143.409 72.63C143.514 72.606 143.624 72.606 143.729 72.63C144.818 72.9454 145.808 73.5341 146.606 74.34C150.201 77.0889 157.793 75.5227 157.793 75.5227C157.51 73.0944 156.891 70.717 155.955 68.4588C154.58 65.5821 151.592 63.9679 152.039 62.7853C152.487 61.6026 156.258 62.6734 160.03 61.299C163.802 59.9246 163.067 55.3538 163.067 55.3538C161.726 55.7458 160.3 55.7458 158.959 55.3538C156.227 54.7625 155.156 51.9337 149.37 52.525C147.647 52.7249 146 53.3455 144.573 54.3321C143.146 55.3186 141.983 56.641 141.188 58.1826C137.4 57.2396 129.809 54.6186 128.083 48.5935H129.425C129.976 48.5935 130.505 48.3746 130.894 47.985C131.284 47.5954 131.503 47.0669 131.503 46.5159C131.503 45.9649 131.284 45.4364 130.894 45.0468C130.505 44.6572 129.976 44.4383 129.425 44.4383H127.827C128.594 36.9748 134.779 29.2237 143.441 30.5023C147.856 31.2525 152.007 33.1111 155.507 35.9041C155.706 36.0976 155.882 36.3119 156.035 36.5433C156.239 36.852 156.373 37.2023 156.425 37.5689C156.477 37.9356 156.447 38.3092 156.337 38.6627C156.227 39.0163 156.039 39.3408 155.788 39.6128C155.537 39.8848 155.228 40.0974 154.884 40.2351C153.85 40.7144 152.731 40.9859 151.592 41.0342C152.146 41.6898 152.897 42.1493 153.733 42.3447C154.333 42.4258 154.94 42.2711 155.427 41.9132C155.427 41.9132 154.612 44.5821 156.37 45.525C156.37 45.525 156.546 42.3287 158.879 41.9771C160.59 41.7054 162.076 42.7602 163.163 44.9976C163.198 45.1068 163.241 45.2136 163.29 45.3173C165.83 51.9775 166.71 59.1557 165.855 66.2322C165 73.3086 162.435 80.0706 158.382 85.9342C154.33 91.7979 148.91 96.5869 142.593 99.8879C136.275 103.189 129.249 104.903 122.122 104.881V109.148C129.624 109.151 137.023 107.4 143.729 104.035C150.435 100.671 156.262 95.7862 160.746 89.7705C165.229 83.7549 168.245 76.7748 169.553 69.387C170.86 61.9992 170.423 54.4081 168.277 47.2191C172.748 48.5461 177.389 49.219 182.053 49.2168C194.788 49.2169 207.004 44.1722 216.029 35.1867C225.053 26.2012 230.151 14.0066 230.206 1.27173L225.939 1.22378Z"
        stroke="#5E6080" stroke-width="0.5" stroke-miterlimit="10" />
</svg>
    