<svg xmlns="http://www.w3.org/2000/svg" width="251" height="251" viewBox="0 0 251 251" fill="none">
    <g clip-path="url(#clip0_164_4358)">
    <path d="M0.671387 125.705V250.907" stroke="#C8ACA6" stroke-width="0.2" stroke-miterlimit="10"/>
    <path d="M0.504395 222.861C16.0294 222.861 28.5496 235.382 28.5496 250.907" stroke="#C8ACA6" stroke-width="0.3" stroke-miterlimit="10"/>
    <path d="M34.0586 250.906C34.0586 242.56 31.0537 234.881 26.0457 229.038L33.7247 221.359C38.0651 217.018 44.7425 216.017 50.2514 219.022L52.0877 220.023C52.0877 220.023 54.0909 216.852 52.0877 214.347C50.5853 212.511 49.2498 211.176 48.4151 210.675C48.2482 210.508 48.2482 210.174 48.4151 209.84L48.749 209.506C50.7522 207.503 51.5869 204.999 51.4199 202.161C51.4199 201.66 51.4199 201.16 51.5869 200.659L52.0877 199.49L50.9191 199.991C50.4183 200.158 49.9175 200.325 49.4167 200.158C46.7457 199.991 44.0748 200.993 42.0715 202.829L41.7377 203.163C41.5707 203.33 41.2368 203.33 40.903 203.163C40.2352 202.495 39.0667 200.993 37.2304 199.49C34.7263 197.487 31.5546 199.49 31.5546 199.49L32.5562 201.326C35.561 206.668 34.5594 213.513 30.2191 217.853L22.54 225.532C16.6972 220.357 9.01819 217.352 0.671387 217.352" stroke="#C8ACA6" stroke-width="0.3" stroke-miterlimit="10"/>
    <path d="M0.504282 210.341C0.504282 210.341 4.34381 210.341 7.01479 210.341C9.68577 210.341 12.6906 206.835 12.0229 201.994C11.1882 197.153 7.01479 196.652 7.01479 190.809C7.01479 184.967 10.0196 182.796 13.0245 182.796C16.0293 182.796 19.535 184.299 19.535 189.307C19.535 194.482 16.0293 196.151 16.0293 196.151C16.0293 196.151 18.5334 197.153 21.3713 197.153C24.2092 197.153 26.3794 192.98 25.2108 189.641C25.2108 189.641 27.7149 191.811 30.052 193.313C32.3891 194.983 34.7262 195.317 36.8963 195.15C39.2334 194.983 41.2367 191.978 41.5705 190.976C41.5705 190.976 37.2302 190.142 34.0584 187.971C30.8866 185.634 26.0455 181.795 23.3745 179.458C20.7035 177.121 14.8608 175.451 10.3535 177.621C5.84624 179.792 1.83977 183.965 0.17041 188.305" stroke="#C8ACA6" stroke-width="0.3" stroke-miterlimit="10"/>
    <path d="M0.52063 251.031L125.723 251.031L125.723 125.829L0.52063 125.829L0.52063 251.031Z" stroke="#C8ACA6" stroke-width="0.2" stroke-miterlimit="10"/>
    <path d="M5.01172 125.705C5.01172 157.756 31.0537 183.798 63.1055 183.798H63.2724C64.7748 183.798 66.2772 183.798 67.7797 183.631C67.6127 185.134 67.6127 186.636 67.6127 188.139V188.306C67.6127 220.357 93.6548 246.399 125.706 246.399" stroke="#C8ACA6" stroke-width="0.3" stroke-miterlimit="10"/>
    <path d="M125.706 250.907C91.1507 250.907 63.1054 222.861 63.1054 188.306C28.5496 188.306 0.504395 160.26 0.504395 125.705" stroke="#C8ACA6" stroke-width="0.3" stroke-miterlimit="10"/>
    <path d="M41.7373 250.907C41.7373 250.907 41.7373 247.234 41.7373 244.396C41.7373 241.558 45.243 238.72 50.0841 239.388C54.9253 240.223 55.4261 244.396 61.2688 244.396C67.1116 244.396 69.2818 241.391 69.2818 238.386C69.2818 235.382 67.7793 231.876 62.7712 231.876C57.7632 231.876 55.9269 235.382 55.9269 235.382C55.9269 235.382 54.9252 232.877 54.9252 230.04C54.9252 227.202 59.0986 225.032 62.4374 226.2C62.4374 226.2 60.2672 223.696 58.7648 221.359C57.0954 219.022 56.7615 216.685 56.9285 214.515C57.0954 212.177 60.1003 210.174 61.1019 209.84C61.1019 209.84 61.9366 214.181 64.1067 217.352C66.4438 220.524 70.2834 225.365 72.6205 228.036C74.9576 230.707 76.6269 236.55 74.4568 241.057C72.2866 245.398 68.2801 249.404 63.9398 251.24" stroke="#C8ACA6" stroke-width="0.3" stroke-miterlimit="10" stroke-linecap="round" stroke-linejoin="round"/>
    <path d="M0.504395 150.411C2.67456 160.594 12.3569 170.944 12.3569 170.944C4.51086 171.111 1.0052 175.952 0.504395 176.453" stroke="#C8ACA6" stroke-width="0.3" stroke-miterlimit="10"/>
    <path d="M17.1978 125.872C17.3647 151.079 37.7309 171.612 63.1052 171.612C68.781 171.612 74.2899 170.61 79.4649 168.607C79.7988 168.44 80.1326 168.44 80.2996 168.273C81.6351 167.272 82.3028 165.936 82.1359 164.601C81.802 162.097 78.4633 161.93 78.4633 161.93C79.4649 160.093 82.3028 160.928 82.3028 160.928C82.3028 160.928 81.802 160.26 81.802 159.092C81.9689 157.923 83.1375 156.922 83.1375 156.922C83.1375 156.922 83.1375 159.092 83.9722 160.427C84.8069 161.763 86.6431 162.764 88.1456 161.429C90.4827 158.591 93.4875 153.917 94.4891 147.907C95.8246 138.893 87.6448 132.382 79.9657 131.547V133.217C79.9657 134.385 78.9641 135.387 77.7955 135.387C76.627 135.387 75.6254 134.385 75.6254 133.217V131.881C69.2818 133.718 66.6108 141.564 65.6092 145.57C65.6092 145.57 70.9512 148.074 71.452 154.084C72.1197 160.26 69.1149 161.262 68.4471 164.1C67.7794 166.938 68.4471 168.44 68.4471 168.44C68.4471 168.44 63.606 169.108 62.2705 165.268C60.7681 161.429 61.9366 157.422 60.7681 156.922C59.5995 156.421 57.7632 159.593 54.7584 161.095C51.7535 162.597 47.4132 162.931 47.4132 162.931C47.4132 162.931 45.7438 155.085 48.5817 151.246C49.2495 150.411 50.2511 149.41 50.418 148.241C50.418 148.074 50.418 148.074 50.418 147.907C50.418 147.74 50.2511 147.573 50.0842 147.573C49.9172 147.573 49.7503 147.573 49.5833 147.573C48.7487 147.74 48.0809 148.241 47.5801 148.742C46.9124 149.243 46.0777 149.743 45.243 150.077C44.4083 150.411 43.5736 150.411 42.739 150.411C40.5688 150.411 38.2317 149.576 36.5623 148.074C33.5575 145.236 31.8881 140.061 31.8881 140.061C31.8881 140.061 37.397 142.231 41.9043 139.56C45.243 137.724 50.418 135.387 54.7584 136.222C59.0987 137.056 62.2705 142.231 62.2705 142.231C62.2705 142.231 64.2737 128.709 75.6254 127.04V125.705" stroke="#C8ACA6" stroke-width="0.3" stroke-miterlimit="10"/>
    <path d="M79.7988 125.705V127.04C88.6464 127.708 96.6594 132.549 98.3287 142.064C98.8295 145.403 98.3287 149.243 96.8263 152.581C100.165 149.41 103.838 145.904 104.839 143.233C107.009 137.557 106.342 132.382 104.839 130.379C104.839 130.379 107.176 129.711 109.347 132.215C110.348 133.217 110.515 134.719 110.515 136.055C110.515 136.889 111.517 137.223 112.017 136.555C113.353 134.719 114.021 132.048 116.191 130.713C117.193 130.212 118.194 129.878 119.363 129.544C119.863 129.377 121.867 129.544 122.034 129.377C121.867 129.544 122.034 131.547 121.867 132.048C121.7 133.05 121.366 134.218 120.698 135.22C119.53 137.39 116.859 137.891 114.855 139.393C114.188 139.894 114.522 140.896 115.356 140.896C116.692 140.896 118.027 141.063 119.196 142.064C121.7 144.234 121.032 146.572 121.032 146.572C118.862 145.069 113.687 144.401 108.178 146.572C105.674 147.573 102.001 151.079 98.8295 154.418C99.3303 154.251 99.8312 153.917 100.332 153.75C102.836 152.748 105.674 152.247 108.512 152.414C113.353 152.915 118.027 155.586 120.865 159.426C123.369 162.764 124.371 166.938 124.705 170.944H126.04" stroke="#C8ACA6" stroke-width="0.3" stroke-miterlimit="10"/>
    <path d="M125.706 175.284H124.204C122.701 186.636 109.013 188.639 109.013 188.639C109.013 188.639 114.021 191.811 115.022 196.151C115.857 200.492 113.687 205.667 111.684 209.006C109.013 213.68 111.183 219.022 111.183 219.022C111.183 219.022 105.841 217.185 103.17 214.347C101.667 212.678 100.833 210.341 100.833 208.171C100.833 207.336 100.833 206.335 101.167 205.667C101.5 204.832 102.001 203.997 102.502 203.33C103.003 202.662 103.504 201.994 103.671 201.326C103.671 201.16 103.671 200.993 103.671 200.826C103.671 200.659 103.504 200.492 103.337 200.492C103.17 200.492 103.17 200.492 103.003 200.492C101.834 200.659 100.833 201.66 99.998 202.328C96.1585 205.166 88.3125 203.497 88.3125 203.497C88.3125 203.497 88.8133 199.156 90.1488 196.151C91.6512 193.147 94.6561 191.477 94.3222 190.142C93.8214 188.973 89.9819 189.975 85.9754 188.639C82.1359 187.137 82.8036 182.463 82.8036 182.463C82.8036 182.463 84.306 183.13 87.144 182.463C89.9819 181.795 91.1504 178.957 97.1601 179.458C103.337 180.126 105.674 185.301 105.674 185.301C109.68 184.299 117.526 181.628 119.363 175.284H118.194C117.026 175.284 116.024 174.283 116.024 173.114C116.024 171.946 117.026 170.944 118.194 170.944H119.863C119.029 163.098 112.518 155.085 103.504 156.421C98.1617 157.255 93.8214 159.926 90.8165 162.097C90.6496 162.263 90.4827 162.597 90.3157 162.764C89.3141 164.434 90.1488 165.936 91.4843 166.604C92.8198 167.438 94.9899 167.438 94.9899 167.438C94.9899 167.438 93.9883 168.774 92.8198 168.774C91.6512 168.941 90.9835 168.273 90.9835 168.273C90.9835 168.273 91.8182 171.111 89.9819 172.113C89.9819 172.113 89.8149 168.774 87.3109 168.44C85.4746 168.106 83.9722 169.275 82.8036 171.612C82.8036 171.779 82.6367 171.779 82.6367 171.946C80.6335 176.954 79.6318 182.463 79.6318 188.305C79.6318 213.68 100.165 234.213 125.539 234.213" stroke="#C8ACA6" stroke-width="0.3" stroke-miterlimit="10"/>
    <path d="M125.706 238.72C97.8278 238.72 75.2914 216.184 75.2914 188.305C75.2914 183.297 75.9592 178.456 77.4616 173.949C72.9543 175.284 68.1132 176.119 63.1051 176.119C35.2268 175.952 12.8574 153.583 12.6904 125.871" stroke="#C8ACA6" stroke-width="0.3" stroke-miterlimit="10"/>
    <path d="M0.504395 250.906H125.706" stroke="#C8ACA6" stroke-width="0.2" stroke-miterlimit="10"/>
    <path d="M75.4585 250.906C75.4585 250.906 80.9674 247.401 81.1343 239.054C81.1343 239.054 91.6513 249.07 102.001 250.906" stroke="#C8ACA6" stroke-width="0.3" stroke-miterlimit="10"/>
    <path d="M24.0424 250.906C24.0424 250.906 24.0424 244.396 21.5383 241.224C18.8674 238.052 14.1931 241.558 12.3569 242.894C10.1867 244.229 8.01652 245.064 6.34716 244.396C4.84473 243.728 5.84635 240.223 7.0149 238.386C8.18345 236.55 10.8544 233.211 10.1867 230.874C9.51894 228.704 6.84796 226.701 0.504395 227.035" stroke="#C8ACA6" stroke-width="0.3" stroke-miterlimit="10"/>
    <path d="M6.34716 250.906C6.34716 247.735 3.84312 245.064 0.504395 245.064" stroke="#C8ACA6" stroke-width="0.3" stroke-miterlimit="10"/>
    <path d="M64.1067 0.669434C68.447 2.50573 72.2865 6.17832 74.2898 10.6856C76.4599 15.0259 74.7906 21.0356 72.4535 23.7066C70.1164 26.3776 66.2768 31.2187 63.9397 34.3905C61.6026 37.5623 60.9349 41.9026 60.9349 41.9026C59.9333 41.4018 56.9284 39.3986 56.7615 37.2284C56.5946 34.8913 56.9284 32.7212 58.5978 30.384C60.2671 28.0469 62.2704 25.5429 62.2704 25.5429C58.9317 26.7115 54.7583 24.5413 54.7583 21.7034C54.7583 18.8655 55.7599 16.3614 55.7599 16.3614C55.7599 16.3614 57.4292 19.8671 62.6043 19.8671C67.7793 19.8671 69.1148 16.1945 69.1148 13.3566C69.1148 10.5187 66.9446 7.34688 61.1018 7.34688C55.2591 7.34688 54.7583 11.5203 49.9171 12.355C45.076 13.1896 41.5703 10.1848 41.5703 7.34688C41.5703 4.50896 41.5703 0.83637 41.5703 0.83637" stroke="#C8ACA6" stroke-width="0.3" stroke-miterlimit="10" stroke-linecap="round" stroke-linejoin="round"/>
    <path d="M0.52063 125.837L125.723 125.837L125.723 0.634888L0.52063 0.634888L0.52063 125.837Z" stroke="#C8ACA6" stroke-width="0.2" stroke-miterlimit="10"/>
    <path d="M5.01172 125.705C5.01172 93.6528 31.0537 67.6108 63.1055 67.6108H63.2724C64.7748 67.6108 66.2772 67.6108 67.7797 67.7777C67.6127 66.2753 67.6127 64.7729 67.6127 63.2704V63.1035C67.6127 31.0518 93.6548 5.00977 125.706 5.00977" stroke="#C8ACA6" stroke-width="0.3" stroke-miterlimit="10"/>
    <path d="M125.706 0.502441C91.1507 0.502441 63.1054 28.5477 63.1054 63.1035C28.5496 63.1035 0.504395 91.1487 0.504395 125.704" stroke="#C8ACA6" stroke-width="0.3" stroke-miterlimit="10"/>
    <path d="M102.001 0.502441C91.6513 2.50567 81.1343 12.3549 81.1343 12.3549C80.9674 4.0081 75.6254 0.502441 75.4585 0.502441" stroke="#C8ACA6" stroke-width="0.3" stroke-miterlimit="10"/>
    <path d="M0.504395 63.2704C2.17375 67.6108 6.18022 71.7842 10.6875 73.9543C15.0278 76.1245 21.0375 74.4551 23.7085 72.118C26.3795 69.7809 31.2206 65.9414 34.3924 63.6043C37.5642 61.2672 41.9045 60.5994 41.9045 60.5994C41.4037 59.5978 39.4005 56.593 37.2303 56.426C35.0602 56.2591 32.723 56.593 30.3859 58.2623C28.0488 59.9317 25.5448 61.9349 25.5448 61.9349C26.7134 58.5962 24.5432 54.4228 21.7053 54.4228C18.8674 54.4228 16.3633 55.4244 16.3633 55.4244C16.3633 55.4244 19.869 57.0938 19.869 62.2688C19.869 67.4438 16.1964 68.7793 13.3585 68.7793C10.5206 68.7793 7.34877 66.6091 7.34877 60.7664C7.34877 54.9236 11.5222 54.4228 12.3569 49.5817C13.1915 44.7405 10.1867 41.2349 7.34877 41.2349C4.51086 41.2349 0.838267 41.2349 0.838267 41.2349" stroke="#C8ACA6" stroke-width="0.3" stroke-miterlimit="10"/>
    <path d="M125.706 12.8557C97.9949 12.8557 75.4585 35.3921 75.4585 63.1035C75.4585 68.1115 76.1262 72.9527 77.6287 77.46C73.1214 76.1245 68.2802 75.2898 63.2722 75.2898C35.5608 75.2898 13.0244 97.6592 13.0244 125.371" stroke="#C8ACA6" stroke-width="0.3" stroke-miterlimit="10"/>
    <path d="M17.1978 125.538C17.3647 100.33 37.8978 79.9641 63.1052 79.9641C68.781 79.9641 74.2899 80.9657 79.4649 82.969C79.7988 83.1359 80.1326 83.1359 80.2996 83.3028C81.6351 84.3044 82.3028 85.6399 82.1359 86.9754C81.802 89.4795 78.4633 89.6464 78.4633 89.6464C79.4649 91.4827 82.3028 90.648 82.3028 90.648C82.3028 90.648 81.802 91.3158 81.802 92.4843C81.9689 93.6529 83.1375 94.6545 83.1375 94.6545C83.1375 94.6545 83.1375 92.4843 83.9722 91.1488C84.8068 89.8133 86.6431 88.8117 88.1456 90.1472C90.3157 92.9851 93.4875 97.6593 94.4891 103.669C95.8246 112.684 87.8117 119.194 79.9657 120.029V118.359C79.9657 117.191 78.9641 116.189 77.7955 116.189C76.627 116.189 75.6254 117.191 75.6254 118.359V119.695C69.2818 117.859 66.6108 110.013 65.6092 106.006C65.6092 106.006 70.9512 103.502 71.452 97.4924C72.1197 91.3158 69.1149 90.3141 68.4471 87.4762C67.7794 84.6383 68.4471 83.1359 68.4471 83.1359C68.4471 83.1359 63.606 82.4682 62.2705 86.3077C60.7681 90.1472 61.9366 94.1537 60.7681 94.6545C59.5995 95.1553 57.7632 91.9835 54.7584 90.648C51.7535 89.1456 47.4132 88.8117 47.4132 88.8117C47.4132 88.8117 45.7438 96.6577 48.5817 100.497C49.2495 101.332 50.2511 102.334 50.418 103.502C50.418 103.669 50.418 103.669 50.418 103.836C50.418 104.003 50.2511 104.17 50.0842 104.17C49.9172 104.17 49.7503 104.17 49.5833 104.17C48.7487 104.003 48.0809 103.502 47.5801 103.001C46.9124 102.5 46.0777 102 45.243 101.666C44.4083 101.332 43.5736 101.332 42.739 101.332C40.5688 101.332 38.2317 102.167 36.5623 103.669C33.5575 106.507 31.8881 111.682 31.8881 111.682C31.8881 111.682 37.397 109.512 41.9043 112.183C45.243 114.019 50.418 116.356 54.7584 115.521C59.0987 114.687 62.2705 109.512 62.2705 109.512C62.2705 109.512 64.2737 123.034 75.6254 124.703V126.205" stroke="#C8ACA6" stroke-width="0.3" stroke-miterlimit="10"/>
    <path d="M79.7988 125.705V124.202C88.6464 123.534 96.6593 118.693 98.1617 109.178C98.6625 105.839 98.1617 102 96.6593 98.8278C99.998 102 103.671 105.505 104.672 108.176C106.842 113.852 106.175 119.027 104.672 121.03C104.672 121.03 107.009 121.698 109.18 119.194C110.181 118.192 110.348 116.69 110.348 115.354C110.348 114.52 111.35 114.186 111.85 114.854C113.186 116.69 113.854 119.361 116.024 120.696C117.026 121.197 118.027 121.531 119.196 121.865C119.696 122.032 121.7 121.865 121.867 122.032C121.7 121.865 121.867 119.862 121.7 119.361C121.533 118.359 121.199 117.191 120.531 116.189C119.363 114.019 116.692 113.518 114.688 112.016C114.021 111.515 114.355 110.513 115.189 110.513C116.525 110.513 117.86 110.346 119.029 109.345C121.533 107.175 120.865 104.838 120.865 104.838C118.862 106.34 113.52 107.008 108.011 104.838C105.507 103.836 101.834 100.33 98.6625 96.9915C99.1633 97.1585 99.6642 97.4923 100.165 97.6593C102.669 98.6609 105.507 99.1617 108.178 98.9948C113.019 98.494 117.693 95.823 120.531 91.9834C123.035 88.6447 124.037 84.4713 124.371 80.4649H125.706V76.1245H124.204C122.701 64.7729 109.013 62.7696 109.013 62.7696C109.013 62.7696 114.021 59.5979 115.022 55.2575C115.857 50.9172 113.687 45.7422 111.684 42.4034C109.013 37.7292 111.183 32.3873 111.183 32.3873C111.183 32.3873 106.008 34.0566 103.17 36.8946C101.667 38.5639 100.833 40.901 100.833 43.0712C100.833 43.9059 100.833 44.9075 101.167 45.5752C101.5 46.4099 102.001 47.2446 102.502 47.9123C103.003 48.5801 103.504 49.2478 103.671 49.9156C103.671 50.0825 103.671 50.2494 103.671 50.4164C103.671 50.5833 103.504 50.7502 103.337 50.7502C103.17 50.7502 103.17 50.7502 103.003 50.7502C101.834 50.5833 100.833 49.5817 99.998 48.9139C96.1585 46.076 88.3125 47.7454 88.3125 47.7454C88.3125 47.7454 88.8133 52.0857 90.1488 55.0906C91.6512 58.0954 94.6561 59.7648 94.1553 61.1003C93.6545 62.2688 89.8149 61.2672 85.8085 62.6027C81.9689 64.1051 82.6367 68.7793 82.6367 68.7793C82.6367 68.7793 84.1391 68.1116 86.977 68.7793C89.8149 69.4471 90.9835 72.285 96.9932 71.7842C103.17 71.1164 105.507 65.9414 105.507 65.9414C109.513 66.943 117.359 69.614 119.196 75.9576H118.194C117.026 75.9576 116.024 76.9592 116.024 78.1278C116.024 79.2963 117.026 80.2979 118.194 80.2979H119.863C119.029 88.1439 112.518 96.1569 103.504 94.8214C98.1617 93.9867 93.8214 91.3157 90.8165 89.1455C90.6496 88.9786 90.4827 88.6447 90.3157 88.4778C89.3141 86.8084 90.1488 85.306 91.4843 84.6383C92.8198 83.8036 94.9899 83.8036 94.9899 83.8036C94.9899 83.8036 93.9883 82.4681 92.8198 82.4681C91.6512 82.3012 90.9835 82.9689 90.9835 82.9689C90.9835 82.9689 91.8182 80.131 89.9819 79.1294C89.9819 79.1294 89.8149 82.4681 87.3109 82.802C85.4746 83.1358 83.9722 81.9673 82.8036 79.6302C82.8036 79.4632 82.6367 79.4632 82.6367 79.2963C80.6335 74.2882 79.6318 68.7793 79.6318 62.9366C79.7988 37.8962 100.332 17.363 125.706 17.363" stroke="#C8ACA6" stroke-width="0.3" stroke-miterlimit="10"/>
    <path d="M0.671387 125.704V0.502441" stroke="#C8ACA6" stroke-width="0.2" stroke-miterlimit="10"/>
    <path d="M0.671387 24.3743C7.01496 24.7082 9.519 22.7049 10.3537 20.5348C11.1884 18.3646 8.35044 15.0259 7.18189 13.0226C5.8464 11.1863 4.84479 7.84763 6.34721 7.17988C8.01657 6.3452 10.1867 7.34682 12.19 8.51537C14.1932 9.85086 18.8674 13.1896 21.3715 10.1847C23.8755 7.17988 23.8755 0.502441 23.8755 0.502441" stroke="#C8ACA6" stroke-width="0.3" stroke-miterlimit="10"/>
    <path d="M0.671387 6.51214C3.84317 6.3452 6.34721 3.84116 6.34721 0.502441" stroke="#C8ACA6" stroke-width="0.3" stroke-miterlimit="10"/>
    <path d="M0.504395 34.0566C8.8512 34.0566 16.5303 30.8848 22.373 25.8767L30.0521 33.5558C34.3924 37.8961 35.394 44.5736 32.3892 50.0825L31.3876 51.9187C31.3876 51.9187 34.5593 53.922 37.0634 51.9187C38.8997 50.4163 40.2352 49.0808 40.736 48.2462C40.9029 48.0792 41.2368 48.0792 41.5707 48.2462L41.9045 48.58C43.9078 50.5833 46.4118 51.4179 49.2497 51.251C49.7505 51.251 50.2513 51.251 50.7521 51.4179L51.9207 51.9187L51.4199 50.5833C51.253 50.0824 51.086 49.5816 51.253 49.0808C51.4199 46.4099 50.4183 43.7389 48.582 41.7356L48.2481 41.4018C48.0812 41.2348 48.0812 40.901 48.2481 40.5671C48.9158 39.8993 50.4183 38.7308 51.9207 36.8945C53.9239 34.3905 51.9207 31.2187 51.9207 31.2187L50.0844 32.3872C44.7424 35.3921 37.8981 34.3905 33.5577 30.0501L25.8787 22.3711C30.8868 16.5283 33.8916 8.84924 33.8916 0.502441" stroke="#C8ACA6" stroke-width="0.3" stroke-miterlimit="10"/>
    <path d="M28.5496 0.669434C28.5496 16.1945 16.0294 28.7147 0.504395 28.7147" stroke="#C8ACA6" stroke-width="0.3" stroke-miterlimit="10"/>
    <path d="M0.504395 101.165C2.50763 90.8147 12.3569 80.4647 12.3569 80.4647C4.51086 80.2978 1.0052 75.4566 0.504395 74.9558" stroke="#C8ACA6" stroke-width="0.3" stroke-miterlimit="10"/>
    <path d="M250.908 125.705H125.706V250.907H250.908V125.705Z" stroke="#C8ACA6" stroke-width="0.2" stroke-miterlimit="10"/>
    <path d="M125.706 250.907C160.262 250.907 188.307 222.861 188.307 188.306C222.863 188.306 250.908 160.26 250.908 125.705" stroke="#C8ACA6" stroke-width="0.3" stroke-miterlimit="10"/>
    <path d="M246.401 125.705C246.401 157.756 220.359 183.798 188.307 183.798H188.14C186.638 183.798 185.135 183.798 183.633 183.631C183.8 185.134 183.8 186.636 183.8 188.139V188.306C183.8 220.357 157.758 246.399 125.706 246.399" stroke="#C8ACA6" stroke-width="0.3" stroke-miterlimit="10"/>
    <path d="M149.578 250.906C159.928 248.903 170.445 239.054 170.445 239.054C170.612 247.234 175.787 250.739 176.121 250.906" stroke="#C8ACA6" stroke-width="0.3" stroke-miterlimit="10"/>
    <path d="M222.863 250.907C222.863 235.382 235.383 222.861 250.908 222.861" stroke="#C8ACA6" stroke-width="0.3" stroke-miterlimit="10"/>
    <path d="M250.908 217.519C242.561 217.519 234.882 220.691 229.04 225.699L221.361 218.02C217.02 213.68 216.019 207.002 219.023 201.493L220.025 199.657C220.025 199.657 216.853 197.654 214.349 199.657C212.513 201.16 211.177 202.495 210.677 203.33C210.51 203.497 210.176 203.497 209.842 203.33L209.508 202.996C207.505 200.993 205.001 200.158 202.163 200.325C201.662 200.325 201.161 200.325 200.66 200.158L199.492 199.657L199.993 200.826C200.16 201.327 200.327 201.827 200.16 202.328C199.993 204.999 200.994 207.67 202.831 209.673L203.164 210.007C203.331 210.174 203.331 210.508 203.164 210.842C202.497 211.51 200.994 212.678 199.492 214.514C197.489 217.019 199.492 220.19 199.492 220.19L201.328 219.189C206.67 216.184 213.515 217.185 217.855 221.526L225.534 229.205C220.526 235.048 217.521 242.727 217.521 251.073" stroke="#C8ACA6" stroke-width="0.3" stroke-miterlimit="10"/>
    <path d="M209.842 250.907C209.842 250.907 209.842 247.234 209.842 244.396C209.842 241.558 206.336 238.72 201.495 239.388C196.654 240.056 196.153 244.396 190.31 244.396C184.468 244.396 182.297 241.391 182.297 238.386C182.297 235.548 183.8 231.876 188.808 231.876C193.816 231.876 195.652 235.382 195.652 235.382C195.652 235.382 196.654 232.877 196.654 230.04C196.654 227.202 192.481 225.032 189.142 226.2C189.142 226.2 191.312 223.696 192.814 221.359C194.484 219.022 194.818 216.685 194.651 214.515C194.484 212.177 191.479 210.174 190.477 209.84C190.477 209.84 189.643 214.181 187.472 217.352C185.135 220.524 181.296 225.365 178.959 228.036C176.622 230.707 174.952 236.55 177.122 241.057C179.293 245.565 183.466 249.404 187.639 251.24" stroke="#C8ACA6" stroke-width="0.3" stroke-miterlimit="10"/>
    <path d="M250.908 188.305C249.239 183.965 245.232 179.792 240.725 177.621C236.385 175.451 230.375 177.121 227.704 179.458C225.033 181.795 220.192 185.634 217.02 187.971C213.848 190.309 209.508 190.976 209.508 190.976C210.009 191.978 212.012 194.983 214.182 195.15C216.519 195.317 218.689 194.983 221.026 193.313C223.364 191.644 225.868 189.641 225.868 189.641C224.699 192.98 226.869 197.153 229.707 197.153C232.545 197.153 235.049 196.151 235.049 196.151C235.049 196.151 231.543 194.482 231.543 189.307C231.543 184.132 235.216 182.796 238.054 182.796C240.892 182.796 244.064 184.967 244.064 190.809C244.064 196.652 239.89 197.153 239.055 201.994C238.221 206.835 241.226 210.341 244.064 210.341C246.901 210.341 250.574 210.341 250.574 210.341" stroke="#C8ACA6" stroke-width="0.3" stroke-miterlimit="10"/>
    <path d="M125.706 238.72C153.417 238.72 175.954 216.184 175.954 188.472C175.954 183.464 175.286 178.623 173.784 174.116C178.291 175.451 183.132 176.286 188.14 176.286C215.852 176.286 238.388 153.75 238.388 126.038" stroke="#C8ACA6" stroke-width="0.3" stroke-miterlimit="10" stroke-linejoin="round"/>
    <path d="M234.215 125.704C234.048 150.912 213.681 171.612 188.307 171.612C182.631 171.612 177.122 170.61 171.947 168.607C171.613 168.44 171.28 168.44 171.113 168.273C169.777 167.272 169.109 165.936 169.276 164.601C169.61 162.097 172.949 161.93 172.949 161.93C171.947 160.093 169.109 160.928 169.109 160.928C169.109 160.928 169.61 160.26 169.61 159.092C169.443 157.923 168.275 156.922 168.275 156.922C168.275 156.922 168.275 159.092 167.44 160.427C166.605 161.763 164.769 162.764 163.267 161.429C161.097 158.591 157.925 153.917 156.923 147.907C155.588 138.892 163.601 132.382 171.447 131.547V133.217C171.447 134.385 172.448 135.387 173.617 135.387C174.785 135.387 175.787 134.385 175.787 133.217V131.881C182.13 133.717 184.801 141.563 185.803 145.57C185.803 145.57 180.461 148.074 179.96 154.084C179.293 160.26 182.297 161.262 182.965 164.1C183.633 166.938 182.965 168.44 182.965 168.44C182.965 168.44 187.806 169.108 189.142 165.268C190.644 161.429 189.476 157.422 190.644 156.922C191.813 156.421 193.649 159.592 196.654 160.928C199.659 162.43 203.999 162.764 203.999 162.764C203.999 162.764 205.668 154.918 202.831 151.079C202.163 150.244 201.161 149.242 200.994 148.074C200.994 147.907 200.994 147.907 200.994 147.74C200.994 147.573 201.161 147.406 201.328 147.406C201.495 147.406 201.662 147.406 201.829 147.406C202.664 147.573 203.331 148.074 203.832 148.575C204.5 149.076 205.335 149.576 206.169 149.91C207.004 150.244 207.839 150.244 208.673 150.244C210.843 150.244 213.181 149.409 214.85 147.907C217.855 145.069 219.524 139.894 219.524 139.894C219.524 139.894 214.015 142.064 209.508 139.393C206.169 137.557 200.994 135.22 196.654 136.055C192.314 136.889 189.142 142.064 189.142 142.064C189.142 142.064 187.139 128.542 175.787 126.873V125.371" stroke="#C8ACA6" stroke-width="0.3" stroke-miterlimit="10" stroke-linejoin="round"/>
    <path d="M171.613 125.705V127.207C162.766 127.875 154.753 132.716 153.251 142.231C152.75 145.57 153.251 149.41 154.753 152.581C151.414 149.41 147.742 145.904 146.74 143.233C144.57 137.557 145.238 132.382 146.74 130.379C146.74 130.379 144.403 129.711 142.233 132.215C141.231 133.217 141.064 134.719 141.064 136.055C141.064 136.889 140.063 137.223 139.562 136.555C138.226 134.719 137.559 132.048 135.388 130.713C134.387 130.212 133.385 129.878 132.217 129.544C131.716 129.377 129.713 129.544 129.546 129.377C129.713 129.544 129.546 131.547 129.713 132.048C129.879 133.05 130.213 134.218 130.881 135.22C132.05 137.39 134.721 137.891 136.724 139.393C137.392 139.894 137.058 140.896 136.223 140.896C134.888 140.896 133.552 141.063 132.383 142.064C129.879 144.234 130.547 146.572 130.547 146.572C132.55 145.069 137.892 144.401 143.401 146.572C145.905 147.573 149.578 151.079 152.75 154.418C152.249 154.251 151.748 153.917 151.247 153.75C148.743 152.748 145.905 152.247 143.234 152.414C138.393 152.915 133.719 155.586 130.881 159.426C128.377 162.764 127.375 166.938 127.042 170.944H125.706" stroke="#C8ACA6" stroke-width="0.3" stroke-miterlimit="10" stroke-linejoin="round"/>
    <path d="M125.706 175.451H127.208C128.711 186.803 142.4 188.806 142.4 188.806C142.4 188.806 137.392 191.978 136.39 196.318C135.555 200.659 137.725 205.834 139.729 209.173C142.4 213.847 140.229 219.189 140.229 219.189C140.229 219.189 145.571 217.352 148.242 214.514C149.745 212.845 150.58 210.508 150.58 208.338C150.58 207.503 150.58 206.502 150.246 205.834C149.912 204.999 149.411 204.164 148.91 203.497C148.409 202.829 147.909 202.161 147.742 201.493C147.742 201.327 147.742 201.16 147.742 200.993C147.742 200.826 147.909 200.659 148.075 200.659C148.242 200.659 148.242 200.659 148.409 200.659C149.578 200.826 150.58 201.827 151.414 202.495C155.254 205.333 163.1 203.664 163.1 203.664C163.1 203.664 162.599 199.323 161.263 196.318C159.761 193.314 156.756 191.644 157.257 190.309C157.758 189.14 161.597 190.142 165.604 188.806C169.443 187.304 168.776 182.63 168.776 182.63C168.776 182.63 167.273 183.297 164.435 182.63C161.597 181.962 160.429 179.124 154.419 179.625C148.242 180.293 145.905 185.468 145.905 185.468C141.899 184.466 134.053 181.795 132.217 175.451H133.218C134.387 175.451 135.388 174.45 135.388 173.281C135.388 172.113 134.387 171.111 133.218 171.111H131.549C132.383 163.265 138.894 155.252 147.909 156.588C153.251 157.422 157.591 160.093 160.596 162.264C160.763 162.43 160.93 162.764 161.096 162.931C162.098 164.601 161.263 166.103 159.928 166.771C158.592 167.439 156.422 167.605 156.422 167.605C156.422 167.605 157.424 168.941 158.592 168.941C159.761 169.108 160.429 168.44 160.429 168.44C160.429 168.44 159.594 171.278 161.43 172.28C161.43 172.28 161.597 168.941 164.101 168.607C165.938 168.273 167.44 169.442 168.609 171.779C168.609 171.946 168.776 171.946 168.776 172.113C170.779 177.121 171.78 182.63 171.78 188.472C171.78 213.847 151.247 234.38 125.873 234.38" stroke="#C8ACA6" stroke-width="0.3" stroke-miterlimit="10"/>
    <path d="M250.741 125.705V250.907" stroke="#C8ACA6" stroke-width="0.2" stroke-miterlimit="10"/>
    <path d="M250.908 176.62C250.407 175.952 246.902 171.278 239.056 171.111C239.056 171.111 248.905 160.761 250.908 150.411" stroke="#C8ACA6" stroke-width="0.3" stroke-miterlimit="10"/>
    <path d="M250.908 250.906H125.706" stroke="#C8ACA6" stroke-width="0.2" stroke-miterlimit="10"/>
    <path d="M250.741 227.202C244.398 226.868 241.894 228.871 241.059 231.041C240.391 233.211 242.895 236.55 244.231 238.553C245.399 240.39 246.568 243.728 244.899 244.563C243.396 245.231 241.059 244.396 239.056 243.061C237.053 241.725 232.378 238.386 229.874 241.391C227.203 244.563 227.37 251.074 227.37 251.074" stroke="#C8ACA6" stroke-width="0.3" stroke-miterlimit="10"/>
    <path d="M250.741 245.064C247.569 245.064 244.898 247.735 244.898 250.906" stroke="#C8ACA6" stroke-width="0.3" stroke-miterlimit="10"/>
    <path d="M175.954 0.502441C175.787 0.502441 170.445 4.17503 170.278 12.3549C170.278 12.3549 159.761 2.50567 149.411 0.502441" stroke="#C8ACA6" stroke-width="0.3" stroke-miterlimit="10"/>
    <path d="M187.639 0.502441C183.299 2.33874 179.126 6.3452 176.955 10.6855C174.785 15.0259 176.455 21.0356 178.792 23.7066C181.129 26.3775 184.968 31.2187 187.305 34.3905C189.643 37.5622 190.31 41.9026 190.31 41.9026C191.312 41.4018 194.317 39.3985 194.484 37.2284C194.651 34.8913 194.317 32.7211 192.647 30.384C190.978 28.0469 188.975 25.5428 188.975 25.5428C192.314 26.7114 196.487 24.5412 196.487 21.7033C196.487 18.8654 195.485 16.3614 195.485 16.3614C195.485 16.3614 193.816 19.867 188.641 19.867C183.466 19.867 182.13 16.1944 182.13 13.3565C182.13 10.5186 184.301 7.34682 190.143 7.34682C195.986 7.34682 196.487 11.5202 201.328 12.3549C206.169 13.1896 209.675 10.1847 209.675 7.34682C209.675 4.50891 209.675 0.836314 209.675 0.836314" stroke="#C8ACA6" stroke-width="0.3" stroke-miterlimit="10"/>
    <path d="M250.741 125.704V0.502441" stroke="#C8ACA6" stroke-width="0.2" stroke-miterlimit="10"/>
    <path d="M250.741 41.2349C250.741 41.2349 247.068 41.2349 244.231 41.2349C241.393 41.2349 238.555 44.7405 239.222 49.5817C240.057 54.4228 244.231 54.9236 244.231 60.7664C244.231 66.6091 241.226 68.7793 238.221 68.7793C235.383 68.7793 231.71 67.2769 231.71 62.2688C231.71 57.2607 235.216 55.4244 235.216 55.4244C235.216 55.4244 232.712 54.4228 229.874 54.4228C227.036 54.4228 224.866 58.5962 226.035 61.9349C226.035 61.9349 223.53 59.7648 221.193 58.2623C218.856 56.593 216.519 56.2591 214.349 56.426C212.179 56.593 210.009 59.5978 209.675 60.5994C209.675 60.5994 214.015 61.4341 217.187 63.6043C220.359 65.9414 225.2 69.7809 227.871 72.118C230.542 74.4551 236.385 76.1245 240.892 73.9543C245.399 71.7842 249.406 67.6108 251.075 63.2704" stroke="#C8ACA6" stroke-width="0.3" stroke-miterlimit="10"/>
    <path d="M250.908 0.502441H125.706V125.704H250.908V0.502441Z" stroke="#C8ACA6" stroke-width="0.2" stroke-miterlimit="10"/>
    <path d="M246.401 125.705C246.401 93.6528 220.359 67.6108 188.307 67.6108H188.14C186.638 67.6108 185.135 67.6108 183.633 67.7777C183.8 66.2753 183.8 64.7729 183.8 63.2704V63.1035C183.8 31.0518 157.758 5.00977 125.706 5.00977" stroke="#C8ACA6" stroke-width="0.3" stroke-miterlimit="10"/>
    <path d="M125.706 0.502441C160.262 0.502441 188.307 28.5477 188.307 63.1035C222.863 63.1035 250.908 91.1487 250.908 125.704" stroke="#C8ACA6" stroke-width="0.3" stroke-miterlimit="10"/>
    <path d="M227.37 0.502441C227.37 0.502441 227.37 7.01295 229.874 10.1847C232.378 13.3565 237.219 9.85086 239.056 8.51537C241.059 7.17988 243.396 6.3452 244.898 7.01295C245.232 7.17988 245.399 7.34682 245.566 7.68069" stroke="#C8ACA6" stroke-width="0.3" stroke-miterlimit="10"/>
    <path d="M245.566 7.84766C246.067 9.18314 245.232 11.5202 244.231 13.0227C243.062 14.859 240.391 18.1977 241.059 20.5348C241.726 22.8719 244.397 24.7082 250.741 24.3743" stroke="#C8ACA6" stroke-width="0.3" stroke-miterlimit="10"/>
    <path d="M245.065 0.502441C245.065 3.67423 247.569 6.3452 250.908 6.3452" stroke="#C8ACA6" stroke-width="0.3" stroke-miterlimit="10"/>
    <path d="M217.354 0.502441C217.354 8.84924 220.359 16.5283 225.367 22.3711L217.688 30.0501C213.348 34.3905 206.67 35.3921 201.161 32.3872L199.325 31.3856C199.325 31.3856 197.322 34.5574 199.325 37.0614C200.827 38.8977 202.163 40.2332 202.997 40.734C203.164 40.901 203.164 41.2348 202.997 41.5687L202.664 41.9026C200.66 43.9058 199.826 46.4099 199.993 49.2478C199.993 49.7486 199.993 50.2494 199.826 50.7502L199.325 51.9187L200.493 51.4179C200.994 51.251 201.495 51.0841 201.996 51.251C204.667 51.4179 207.338 50.4163 209.341 48.58L209.675 48.2462C209.842 48.0792 210.176 48.0792 210.51 48.2462C211.177 48.9139 212.346 50.4163 214.182 51.9187C216.686 53.922 219.858 51.9187 219.858 51.9187L218.856 50.0825C215.852 44.7405 216.853 37.8961 221.194 33.5558L228.873 25.8767C234.715 31.0517 242.394 34.0566 250.741 34.0566" stroke="#C8ACA6" stroke-width="0.3" stroke-miterlimit="10"/>
    <path d="M250.908 28.7147C235.383 28.7147 222.863 16.1945 222.863 0.669434" stroke="#C8ACA6" stroke-width="0.3" stroke-miterlimit="10"/>
    <path d="M250.908 74.9558C250.407 75.6236 246.902 80.2978 239.056 80.4647C239.056 80.4647 248.905 90.8147 250.908 101.165" stroke="#C8ACA6" stroke-width="0.3" stroke-miterlimit="10"/>
    <path d="M234.215 125.538C234.048 100.33 213.514 79.7971 188.307 79.7971C182.631 79.7971 177.122 80.7987 171.947 82.802C171.613 82.9689 171.28 82.9689 171.113 83.1358C169.777 84.1375 169.109 85.4729 169.276 86.8084C169.61 89.3125 172.949 89.4794 172.949 89.4794C171.947 91.3157 169.109 90.481 169.109 90.481C169.109 90.481 169.61 91.1488 169.61 92.3173C169.443 93.4859 168.275 94.4875 168.275 94.4875C168.275 94.4875 168.275 92.3173 167.44 90.9818C166.605 89.6463 164.769 88.6447 163.267 89.9802C161.097 92.8181 157.925 97.4923 156.923 103.502C155.588 112.517 163.601 119.027 171.447 119.862V118.192C171.447 117.024 172.448 116.022 173.617 116.022C174.785 116.022 175.787 117.024 175.787 118.192V119.528C182.13 117.692 184.801 109.846 185.803 105.839C185.803 105.839 180.461 103.335 179.96 97.3254C179.293 91.1488 182.297 90.1472 182.965 87.3092C183.633 84.4713 182.965 82.9689 182.965 82.9689C182.965 82.9689 187.806 82.3012 189.142 86.1407C190.644 89.9802 189.476 93.9867 190.644 94.4875C191.813 94.9883 193.649 91.8165 196.654 90.481C199.659 88.9786 203.999 88.6447 203.999 88.6447C203.999 88.6447 205.668 96.4907 202.831 100.33C202.163 101.165 201.161 102.167 200.994 103.335C200.994 103.502 200.994 103.502 200.994 103.669C200.994 103.836 201.161 104.003 201.328 104.003C201.495 104.003 201.662 104.003 201.829 104.003C202.664 103.836 203.331 103.335 203.832 102.834C204.5 102.333 205.335 101.833 206.169 101.499C207.004 101.165 207.839 101.165 208.673 101.165C210.843 101.165 213.181 102 214.85 103.502C217.855 106.34 219.524 111.515 219.524 111.515C219.524 111.515 214.015 109.345 209.508 112.016C206.169 113.852 200.994 116.189 196.654 115.354C192.314 114.52 189.142 109.345 189.142 109.345C189.142 109.345 187.139 122.867 175.787 124.536V126.038" stroke="#C8ACA6" stroke-width="0.3" stroke-miterlimit="10"/>
    <path d="M171.613 125.705C171.613 125.538 171.613 124.369 171.613 124.369C162.766 123.701 154.753 118.86 153.251 109.345C152.75 106.006 153.251 102.167 154.753 98.9948C151.414 102.167 147.742 105.672 146.74 108.343C144.57 114.019 145.238 119.194 146.74 121.197C146.74 121.197 144.403 121.865 142.233 119.361C141.231 118.359 141.064 116.857 141.064 115.521C141.064 114.687 140.063 114.353 139.562 115.021C138.226 116.857 137.559 119.528 135.388 120.863C134.387 121.364 133.385 121.698 132.217 122.032C131.716 122.199 129.713 122.032 129.546 122.199C129.713 122.032 129.546 120.029 129.713 119.528C129.879 118.526 130.213 117.358 130.881 116.356C132.05 114.186 134.721 113.685 136.724 112.183C137.392 111.682 137.058 110.68 136.223 110.68C134.888 110.68 133.552 110.513 132.383 109.512C129.879 107.342 130.547 105.004 130.547 105.004C132.55 106.507 137.892 107.175 143.401 105.004C145.905 104.003 149.578 100.497 152.75 97.1585C152.249 97.3254 151.748 97.6593 151.247 97.8262C148.743 98.8279 145.905 99.3287 143.234 99.1617C138.393 98.6609 133.719 95.9899 130.881 92.1504C128.377 88.8117 127.375 84.6383 127.042 80.6318H125.706" stroke="#C8ACA6" stroke-width="0.3" stroke-miterlimit="10"/>
    <path d="M125.706 76.1245H127.208C128.711 64.7729 142.4 62.7696 142.4 62.7696C142.4 62.7696 137.392 59.5979 136.39 55.2575C135.555 50.9172 137.725 45.7422 139.729 42.4034C142.4 37.7292 140.229 32.3873 140.229 32.3873C140.229 32.3873 145.571 34.2236 148.242 37.0615C149.745 38.7308 150.58 41.068 150.58 43.2381C150.58 44.0728 150.58 45.0744 150.246 45.7422C149.912 46.5768 149.411 47.4115 148.91 48.0793C148.409 48.747 147.909 49.4148 147.742 50.0825C147.742 50.2494 147.742 50.4164 147.742 50.5833C147.742 50.7502 147.909 50.9172 148.075 50.9172C148.242 50.9172 148.242 50.9172 148.409 50.9172C149.578 50.7502 150.58 49.7486 151.414 49.0809C155.254 46.243 163.1 47.9123 163.1 47.9123C163.1 47.9123 162.599 52.2527 161.263 55.2575C159.761 58.2624 156.756 59.9317 157.257 61.2672C157.758 62.4358 161.597 61.4342 165.604 62.7696C169.443 64.2721 168.776 68.9463 168.776 68.9463C168.776 68.9463 167.273 68.2785 164.435 68.9463C161.597 69.614 160.429 72.4519 154.419 71.9511C148.242 71.2834 145.905 66.1084 145.905 66.1084C141.899 67.11 134.053 69.781 132.217 76.1245H133.218C134.387 76.1245 135.388 77.1261 135.388 78.2947C135.388 79.4632 134.387 80.4649 133.218 80.4649H131.549C132.383 88.3109 138.894 96.3238 147.909 94.9883C153.251 94.1536 157.591 91.4826 160.596 89.3125C160.763 89.1455 160.93 88.8117 161.096 88.6447C162.098 86.9754 161.263 85.4729 159.928 84.8052C158.592 83.9705 156.422 83.9705 156.422 83.9705C156.422 83.9705 157.424 82.635 158.592 82.635C159.761 82.4681 160.429 83.1358 160.429 83.1358C160.429 83.1358 159.594 80.2979 161.43 79.2963C161.43 79.2963 161.597 82.635 164.101 82.9689C165.938 83.3028 167.44 82.1342 168.609 79.7971C168.609 79.6302 168.776 79.6302 168.776 79.4632C170.779 74.4552 171.78 68.9463 171.78 63.1035C171.613 37.8962 151.08 17.363 125.706 17.363" stroke="#C8ACA6" stroke-width="0.3" stroke-miterlimit="10"/>
    <path d="M125.706 12.8557C153.417 12.8557 175.954 35.3921 175.954 63.1035C175.954 68.1115 175.286 72.9527 173.784 77.46C178.291 76.1245 183.132 75.2898 188.14 75.2898C215.852 75.2898 238.388 97.8262 238.388 125.538" stroke="#C8ACA6" stroke-width="0.3" stroke-miterlimit="10"/>
    </g>
    <defs>
    <clipPath id="clip0_164_4358">
    <rect width="251" height="251" fill="white"/>
    </clipPath>
    </defs>
    </svg>